<svg version="1.1" xmlns="http://www.w3.org/2000/svg"
  width="700" height="500">
<defs>
  <g id="long-column" stroke="black" stroke-width="2" fill="white">
    <rect x="0" y="0" width="40" height="40" rx="5" ry="5"/>
    <rect x="0" y="45" width="40" height="40" rx="5" ry="5"/>
    <rect x="0" y="90" width="40" height="40" rx="5" ry="5"/>
    <rect x="0" y="135" width="40" height="40" rx="5" ry="5" stroke-dasharray="5,5"/>
    <circle cx="20" cy="190" r="8" stroke-dasharray="2,2"/>
    <circle cx="20" cy="210" r="8" stroke-dasharray="2,2"/>
  </g>
  <g id="short-column" stroke="black" stroke-width="2" fill="white">
    <rect x="0" y="45" width="40" height="40" rx="5" ry="5"/>
    <rect x="0" y="90" width="40" height="40" rx="5" ry="5"/>
    <rect x="0" y="135" width="40" height="40" rx="5" ry="5"/>
  </g>
  <g id="faketop-column" stroke="black" stroke-width="2" fill="white">
    <rect x="0" y="45" width="40" height="40" rx="5" ry="5"/>
    <rect x="0" y="90" width="40" height="40" rx="5" ry="5"/>
    <rect x="0" y="135" width="40" height="40" rx="5" ry="5"/>
    <circle cx="20" cy="190" r="8" stroke-dasharray="2,2"/>
    <circle cx="20" cy="210" r="8" stroke-dasharray="2,2"/>
    <circle cx="20" cy="230" r="8" stroke-dasharray="2,2"/>
  </g>
  <g id="tetris-column" stroke="black" stroke-width="2" fill="white">
    <rect x="-45" y="60" width="40" height="40" rx="5" ry="5"/>
    <rect x="-45" y="105" width="40" height="40" rx="5" ry="5" stroke-dasharray="5,5"/>
    <rect x="0" y="45" width="40" height="40" rx="5" ry="5"/>
    <rect x="0" y="90" width="40" height="40" rx="5" ry="5"/>
    <rect x="0" y="135" width="40" height="40" rx="5" ry="5"/>
    <circle cx="20" cy="190" r="8" stroke-dasharray="2,2"/>
  </g>
  <g id="left-hand" stroke="black" stroke-width="2" fill="white">
    <use href="#tetris-column" transform="translate(40,9) rotate(-10)"/>
    <use href="#faketop-column" transform="translate(105,-40)"/>
    <use href="#long-column" transform="translate(150,-15)"/>
    <use href="#short-column" transform="translate(195,-45)"/>
    <use href="#short-column" transform="translate(240,-35)"/>
    <rect x="234" y="75" width="40" height="50" rx="5" ry="5" transform="rotate(15)"/>
    <rect x="300" y="-10" width="40" height="60" rx="5" ry="5" transform="rotate(30)"/>
    <rect x="344" y="-100" width="40" height="60" rx="5" ry="5" transform="rotate(45)"/>
    <rect x="363" y="-198" width="40" height="60" rx="5" ry="5" transform="rotate(60)"/>
    <circle cx="298" cy="269" r="8" stroke-dasharray="2,2"/>
    <circle cx="278" cy="280" r="8" stroke-dasharray="2,2"/>
  </g>
</defs>
<use href="#left-hand" transform="translate(50,10) rotate(25)"/>
<circle cx="320" cy="225" r="18" stroke="black" stroke-width="2" fill="white"/>
<use href="#left-hand" transform="translate(590,10) scale(-1,1) rotate(25)"/>
<g font-size="9" fill="black">
  <text x="100" y="54" transform="rotate(15)">1.00</text>
  <text x="290" y="110" transform="rotate(40)">1.25</text>
  <text x="349" y="-7" transform="rotate(60)">1.50</text>
</g>
</svg>
