<svg version="1.1" xmlns="http://www.w3.org/2000/svg"
  width="700" height="500">
<defs>
  <g id="long-column" stroke="black" stroke-width="2" fill="white">
    <rect x="0" y="0" width="40" height="40" rx="5" ry="5"/>
    <rect x="0" y="45" width="40" height="40" rx="5" ry="5"/>
    <rect x="0" y="90" width="40" height="40" rx="5" ry="5"/>
    <rect x="0" y="135" width="40" height="60" rx="5" ry="5"/>
  </g>
  <g id="short-column" stroke="black" stroke-width="2" fill="white">
    <circle cx="20" cy="20" r="18" stroke-dasharray="5,5"/>
    <rect x="0" y="45" width="40" height="40" rx="5" ry="5"/>
    <rect x="0" y="90" width="40" height="40" rx="5" ry="5"/>
    <rect x="0" y="135" width="40" height="40" rx="5" ry="5"/>
  </g>
  <g id="left-hand" stroke="black" stroke-width="2" fill="white">
    <use href="#short-column" transform="translate(40,9) rotate(-10)"/>
    <use href="#short-column" transform="translate(105,-40)"/>
    <use href="#long-column" transform="translate(150,-15)"/>
    <use href="#short-column" transform="translate(195,-45)"/>
    <use href="#short-column" transform="translate(240,-35)"/>
    <rect x="234" y="75" width="40" height="50" rx="5" ry="5" transform="rotate(15)"/>
    <rect x="300" y="-10" width="40" height="60" rx="5" ry="5" transform="rotate(30)"/>
    <rect x="344" y="-100" width="40" height="60" rx="5" ry="5" transform="rotate(45)"/>
    <rect x="363" y="-198" width="40" height="60" rx="5" ry="5" transform="rotate(60)"/>
  </g>
</defs>
<use href="#left-hand" transform="translate(40,10) rotate(22)"/>
<circle cx="320" cy="225" r="18" stroke="black" stroke-width="2" fill="white"/>
<use href="#left-hand" transform="translate(600,10) scale(-1,1) rotate(22)"/>
<g font-size="9" fill="black">
  <text x="165" y="140" transform="rotate(22)">1.00</text>
  <text x="210" y="185" transform="rotate(22)">1.50</text>
  <text x="290" y="120" transform="rotate(37)">1.25</text>
</g>
</svg>
