<svg version="1.1" xmlns="http://www.w3.org/2000/svg"
  width="700" height="500">
<defs>
  <g id="column" stroke="black" stroke-width="2" fill="white">
    <rect x="0" y="0" width="40" height="40" rx="5" ry="5"/>
    <rect x="0" y="45" width="40" height="40" rx="5" ry="5"/>
    <rect x="0" y="90" width="40" height="40" rx="5" ry="5"/>
  </g>
  <g id="end-column" stroke="black" stroke-width="2" fill="white">
    <circle cx="20" cy="20" r="18" stroke-dasharray="5,5"/>
    <rect x="0" y="45" width="40" height="40" rx="5" ry="5"/>
    <circle cx="20" cy="110" r="18" stroke-dasharray="5,5"/>
  </g>
  <g id="left-hand" stroke="black" stroke-width="2" fill="white">
    <use href="#end-column" transform="translate(7,60) rotate(-5)"/>
    <use href="#column" transform="translate(53,55) rotate(-5)"/>
    <use href="#column" transform="translate(105,5)"/>
    <use href="#column" transform="translate(150,-15)"/>
    <use href="#column" transform="translate(195,0)"/>
    <use href="#column" transform="translate(240,10)"/>
    <rect x="240" y="80" width="40" height="60" rx="5" ry="5" transform="rotate(15)"/>
    <rect x="310" y="5" width="40" height="60" rx="5" ry="5" transform="rotate(30)"/>
    <rect x="358" y="-87" width="40" height="60" rx="5" ry="5" transform="rotate(45)"/>
    <rect x="380" y="-190" width="40" height="60" rx="5" ry="5" transform="rotate(60)"/>
  </g>
</defs>
<use href="#left-hand" transform="translate(80,10) rotate(22)"/>
<use href="#left-hand" transform="translate(610,10) scale(-1,1) rotate(22)"/>
<g font-size="9" fill="black">
  <text x="340" y="-15" transform="rotate(22)">1U</text>
  <text x="380" y="-55" transform="rotate(52)">1.5U</text>
</g>
</svg>
