<?xml version="1.0" standalone="no"?>
<!DOCTYPE svg PUBLIC "-//W3C//DTD SVG 1.1//EN" "http://www.w3.org/Graphics/SVG/1.1/DTD/svg11.dtd">
<svg width="274mm" height="158mm" viewBox="-137 -164 274 158" xmlns="http://www.w3.org/2000/svg" version="1.1">
<title>OpenSCAD Model</title>
<path d="
M 29.687,-9.14883 L 29.7862,-9.42612 L 31.1111,-12.8606 L 31.2238,-13.1327 L 32.7155,-16.4981 L 32.8414,-16.7643
 L 34.4966,-20.0524 L 34.6354,-20.3121 L 36.4498,-23.5151 L 36.6012,-23.7677 L 38.5706,-26.8777 L 38.7343,-27.1226
 L 40.8539,-30.1323 L 41.0293,-30.3688 L 43.2941,-33.2709 L 43.4809,-33.4985 L 45.8854,-36.286 L 46.0832,-36.5042
 L 48.6215,-39.1702 L 48.8297,-39.3785 L 51.4958,-41.9168 L 51.714,-42.1146 L 54.5014,-44.519 L 54.7291,-44.7059
 L 57.6312,-46.9706 L 57.8677,-47.1461 L 60.8774,-49.2657 L 61.1223,-49.4294 L 64.2323,-51.3988 L 64.4849,-51.5502
 L 67.6878,-53.3646 L 67.9475,-53.5034 L 71.2357,-55.1585 L 71.5019,-55.2845 L 74.8672,-56.7762 L 75.1393,-56.8889
 L 78.5739,-58.2137 L 78.8512,-58.313 L 82.3466,-59.4677 L 82.6284,-59.5532 L 86.1763,-60.535 L 86.462,-60.6066
 L 90.0535,-61.4131 L 90.3424,-61.4706 L 93.9694,-62.0999 L 94.2606,-62.1431 L 97.9142,-62.5937 L 98.2073,-62.6226
 L 101.878,-62.8934 L 102.173,-62.9079 L 105.853,-62.9982 L 106.147,-62.9982 L 109.827,-62.9079 L 110.121,-62.8934
 L 113.793,-62.6226 L 114.086,-62.5937 L 117.739,-62.1431 L 118.031,-62.0999 L 121.658,-61.4706 L 121.947,-61.4131
 L 122.838,-61.213 L 124.601,-63.472 L 126.381,-65.9999 L 128.035,-68.6125 L 129.559,-71.3029 L 130.95,-74.0648
 L 132.203,-76.8914 L 133.316,-79.7766 L 134.285,-82.7125 L 135.11,-85.6929 L 135.788,-88.7095 L 136.316,-91.7562
 L 136.695,-94.8251 L 136.922,-97.9088 L 136.998,-101 L 136.922,-104.091 L 136.695,-107.175 L 136.316,-110.244
 L 135.788,-113.29 L 135.11,-116.307 L 134.285,-119.287 L 133.316,-122.223 L 132.203,-125.109 L 130.95,-127.935
 L 129.559,-130.697 L 128.035,-133.387 L 126.381,-136 L 124.601,-138.528 L 122.698,-140.965 L 120.679,-143.307
 L 118.546,-145.546 L 116.307,-147.679 L 113.965,-149.698 L 111.528,-151.601 L 109,-153.381 L 106.387,-155.035
 L 103.697,-156.559 L 100.935,-157.95 L 98.1085,-159.203 L 95.2234,-160.316 L 92.2875,-161.285 L 89.3071,-162.11
 L 86.2905,-162.788 L 83.2438,-163.316 L 80.1749,-163.695 L 77.0912,-163.922 L 74,-163.998 L 70.9088,-163.922
 L 67.8251,-163.695 L 64.7562,-163.316 L 61.7095,-162.788 L 58.6929,-162.11 L 55.7125,-161.285 L 52.7766,-160.316
 L 49.8914,-159.203 L 47.0648,-157.95 L 44.3029,-156.559 L 41.6125,-155.035 L 38.9999,-153.381 L 36.472,-151.601
 L 34.0345,-149.698 L 31.6929,-147.679 L 29.4536,-145.546 L 27.3215,-143.307 L 25.3016,-140.965 L 23.3994,-138.528
 L 22.0029,-136.545 L 21.8275,-136.309 L 21.6407,-136.081 L 21.4429,-135.863 L 21.2346,-135.655 L 21.0164,-135.457
 L 20.7888,-135.27 L 20.5523,-135.094 L 20.3074,-134.931 L 20.0548,-134.779 L 19.7951,-134.641 L 19.5289,-134.515
 L 19.2568,-134.402 L 18.9795,-134.303 L 18.6977,-134.217 L 18.412,-134.146 L 18.1232,-134.088 L 17.8319,-134.045
 L 17.5388,-134.016 L 17.0974,-134 L -17.0974,-134 L -17.3918,-134.007 L -17.6855,-134.029 L -17.9778,-134.065
 L -18.268,-134.115 L -18.5553,-134.18 L -18.8391,-134.258 L -19.1187,-134.351 L -19.3935,-134.457 L -19.6628,-134.576
 L -19.9258,-134.708 L -20.182,-134.854 L -20.4308,-135.011 L -20.6716,-135.181 L -20.9038,-135.362 L -21.1268,-135.554
 L -21.3401,-135.757 L -21.5431,-135.971 L -21.7355,-136.194 L -22.0029,-136.545 L -23.3994,-138.528 L -25.3016,-140.965
 L -27.3215,-143.307 L -29.4536,-145.546 L -31.6929,-147.679 L -34.0345,-149.698 L -36.472,-151.601 L -38.9999,-153.381
 L -41.6125,-155.035 L -44.3029,-156.559 L -47.0648,-157.95 L -49.8914,-159.203 L -52.7766,-160.316 L -55.7125,-161.285
 L -58.6929,-162.11 L -61.7095,-162.788 L -64.7562,-163.316 L -67.8251,-163.695 L -70.9088,-163.922 L -74,-163.998
 L -77.0912,-163.922 L -80.1749,-163.695 L -83.2438,-163.316 L -86.2905,-162.788 L -89.3071,-162.11 L -92.2875,-161.285
 L -95.2234,-160.316 L -98.1085,-159.203 L -100.935,-157.95 L -103.697,-156.559 L -106.387,-155.035 L -109,-153.381
 L -111.528,-151.601 L -113.965,-149.698 L -116.307,-147.679 L -118.546,-145.546 L -120.679,-143.307 L -122.698,-140.965
 L -124.601,-138.528 L -126.381,-136 L -128.035,-133.387 L -129.559,-130.697 L -130.95,-127.935 L -132.203,-125.109
 L -133.316,-122.223 L -134.285,-119.287 L -135.11,-116.307 L -135.788,-113.29 L -136.316,-110.244 L -136.695,-107.175
 L -136.922,-104.091 L -136.998,-101 L -136.922,-97.9088 L -136.695,-94.8251 L -136.316,-91.7562 L -135.788,-88.7095
 L -135.11,-85.6929 L -134.285,-82.7125 L -133.316,-79.7766 L -132.203,-76.8914 L -130.95,-74.0648 L -129.559,-71.3029
 L -128.035,-68.6125 L -126.381,-65.9999 L -124.601,-63.472 L -122.838,-61.213 L -121.947,-61.4131 L -121.658,-61.4706
 L -118.031,-62.0999 L -117.739,-62.1431 L -114.086,-62.5937 L -113.793,-62.6226 L -110.121,-62.8934 L -109.827,-62.9079
 L -106.147,-62.9982 L -105.853,-62.9982 L -102.173,-62.9079 L -101.878,-62.8934 L -98.2073,-62.6226 L -97.9142,-62.5937
 L -94.2606,-62.1431 L -93.9694,-62.0999 L -90.3424,-61.4706 L -90.0535,-61.4131 L -86.462,-60.6066 L -86.1763,-60.535
 L -82.6284,-59.5532 L -82.3466,-59.4677 L -78.8512,-58.313 L -78.5739,-58.2137 L -75.1393,-56.8889 L -74.8672,-56.7762
 L -71.5019,-55.2845 L -71.2357,-55.1585 L -67.9475,-53.5034 L -67.6878,-53.3646 L -64.4849,-51.5502 L -64.2323,-51.3988
 L -61.1223,-49.4294 L -60.8774,-49.2657 L -57.8677,-47.1461 L -57.6312,-46.9706 L -54.7291,-44.7059 L -54.5014,-44.519
 L -51.714,-42.1146 L -51.4958,-41.9168 L -48.8297,-39.3785 L -48.6215,-39.1702 L -46.0832,-36.5042 L -45.8854,-36.286
 L -43.4809,-33.4985 L -43.2941,-33.2709 L -41.0293,-30.3688 L -40.8539,-30.1323 L -38.7343,-27.1226 L -38.5706,-26.8777
 L -36.6012,-23.7677 L -36.4498,-23.5151 L -34.6354,-20.3121 L -34.4966,-20.0524 L -32.8414,-16.7643 L -32.7155,-16.4981
 L -31.2238,-13.1327 L -31.1111,-12.8606 L -29.7862,-9.42612 L -29.687,-9.14883 L -28.6468,-6 L 28.6468,-6
 z
M -74.0481,-129.275 L -74.2191,-128.806 L -78.9176,-130.516 L -78.7466,-130.986 L -82.9752,-132.525 L -78.1869,-145.68
 L -73.9583,-144.141 L -73.7873,-144.611 L -69.0889,-142.901 L -69.2599,-142.431 L -65.0312,-140.892 L -69.8195,-127.736
 z
M 65.0312,-140.892 L 69.2599,-142.431 L 69.0889,-142.901 L 73.7873,-144.611 L 73.9583,-144.141 L 78.1869,-145.68
 L 82.9752,-132.525 L 78.7466,-130.986 L 78.9176,-130.516 L 74.2191,-128.806 L 74.0481,-129.275 L 69.8195,-127.736
 z
M 42.4736,-139.688 L 46.6158,-141.446 L 46.4205,-141.906 L 51.023,-143.86 L 51.2184,-143.4 L 55.3606,-145.158
 L 60.8309,-132.271 L 56.6886,-130.512 L 56.884,-130.052 L 52.2814,-128.099 L 52.0861,-128.559 L 47.9438,-126.801
 z
M -52.0861,-128.559 L -52.2814,-128.099 L -56.884,-130.052 L -56.6886,-130.512 L -60.8309,-132.271 L -55.3606,-145.158
 L -51.2184,-143.4 L -51.023,-143.86 L -46.4205,-141.906 L -46.6158,-141.446 L -42.4736,-139.688 L -47.9438,-126.801
 z
M -36.0736,-135.502 L -36.147,-135.507 L -36.2201,-135.516 L -36.2926,-135.529 L -36.3645,-135.545 L -36.4354,-135.565
 L -36.5053,-135.588 L -36.574,-135.614 L -36.6413,-135.644 L -36.7071,-135.677 L -36.7711,-135.713 L -36.8333,-135.753
 L -36.8935,-135.795 L -36.9516,-135.84 L -37.0073,-135.889 L -37.0607,-135.939 L -37.1114,-135.993 L -37.1595,-136.048
 L -37.2048,-136.106 L -37.2472,-136.167 L -37.2866,-136.229 L -37.3229,-136.293 L -37.356,-136.359 L -37.3858,-136.426
 L -37.4123,-136.495 L -37.4354,-136.565 L -37.455,-136.636 L -37.4712,-136.707 L -37.4838,-136.78 L -37.4928,-136.853
 L -37.4982,-136.926 L -37.5,-137 L -37.4982,-137.074 L -37.4928,-137.147 L -37.4838,-137.22 L -37.4712,-137.293
 L -37.455,-137.364 L -37.4354,-137.435 L -37.4123,-137.505 L -37.3858,-137.574 L -37.356,-137.641 L -37.3229,-137.707
 L -37.2866,-137.771 L -37.2472,-137.833 L -37.2048,-137.894 L -37.1595,-137.952 L -37.1114,-138.007 L -37.0607,-138.061
 L -37.0073,-138.111 L -36.9516,-138.16 L -36.8935,-138.205 L -36.8333,-138.247 L -36.7711,-138.287 L -36.7071,-138.323
 L -36.6413,-138.356 L -36.574,-138.386 L -36.5053,-138.412 L -36.4354,-138.435 L -36.3645,-138.455 L -36.2926,-138.471
 L -36.2201,-138.484 L -36.147,-138.493 L -36.0736,-138.498 L -36,-138.5 L -35.9264,-138.498 L -35.853,-138.493
 L -35.7799,-138.484 L -35.7074,-138.471 L -35.6355,-138.455 L -35.5646,-138.435 L -35.4947,-138.412 L -35.426,-138.386
 L -35.3587,-138.356 L -35.2929,-138.323 L -35.2288,-138.287 L -35.1666,-138.247 L -35.1064,-138.205 L -35.0484,-138.16
 L -34.9927,-138.111 L -34.9393,-138.061 L -34.8886,-138.007 L -34.8405,-137.952 L -34.7952,-137.894 L -34.7528,-137.833
 L -34.7134,-137.771 L -34.6771,-137.707 L -34.644,-137.641 L -34.6142,-137.574 L -34.5877,-137.505 L -34.5646,-137.435
 L -34.545,-137.364 L -34.5288,-137.293 L -34.5162,-137.22 L -34.5072,-137.147 L -34.5018,-137.074 L -34.5,-137
 L -34.5018,-136.926 L -34.5072,-136.853 L -34.5162,-136.78 L -34.5288,-136.707 L -34.545,-136.636 L -34.5646,-136.565
 L -34.5877,-136.495 L -34.6142,-136.426 L -34.644,-136.359 L -34.6771,-136.293 L -34.7134,-136.229 L -34.7528,-136.167
 L -34.7952,-136.106 L -34.8405,-136.048 L -34.8886,-135.993 L -34.9393,-135.939 L -34.9927,-135.889 L -35.0484,-135.84
 L -35.1064,-135.795 L -35.1666,-135.753 L -35.2288,-135.713 L -35.2929,-135.677 L -35.3587,-135.644 L -35.426,-135.614
 L -35.4947,-135.588 L -35.5646,-135.565 L -35.6355,-135.545 L -35.7074,-135.529 L -35.7799,-135.516 L -35.853,-135.507
 L -35.9264,-135.502 L -36,-135.5 z
M 35.9264,-135.502 L 35.853,-135.507 L 35.7799,-135.516 L 35.7074,-135.529 L 35.6355,-135.545 L 35.5646,-135.565
 L 35.4947,-135.588 L 35.426,-135.614 L 35.3587,-135.644 L 35.2929,-135.677 L 35.2288,-135.713 L 35.1666,-135.753
 L 35.1064,-135.795 L 35.0484,-135.84 L 34.9927,-135.889 L 34.9393,-135.939 L 34.8886,-135.993 L 34.8405,-136.048
 L 34.7952,-136.106 L 34.7528,-136.167 L 34.7134,-136.229 L 34.6771,-136.293 L 34.644,-136.359 L 34.6142,-136.426
 L 34.5877,-136.495 L 34.5646,-136.565 L 34.545,-136.636 L 34.5288,-136.707 L 34.5162,-136.78 L 34.5072,-136.853
 L 34.5018,-136.926 L 34.5,-137 L 34.5018,-137.074 L 34.5072,-137.147 L 34.5162,-137.22 L 34.5288,-137.293
 L 34.545,-137.364 L 34.5646,-137.435 L 34.5877,-137.505 L 34.6142,-137.574 L 34.644,-137.641 L 34.6771,-137.707
 L 34.7134,-137.771 L 34.7528,-137.833 L 34.7952,-137.894 L 34.8405,-137.952 L 34.8886,-138.007 L 34.9393,-138.061
 L 34.9927,-138.111 L 35.0484,-138.16 L 35.1064,-138.205 L 35.1666,-138.247 L 35.2288,-138.287 L 35.2929,-138.323
 L 35.3587,-138.356 L 35.426,-138.386 L 35.4947,-138.412 L 35.5646,-138.435 L 35.6355,-138.455 L 35.7074,-138.471
 L 35.7799,-138.484 L 35.853,-138.493 L 35.9264,-138.498 L 36,-138.5 L 36.0736,-138.498 L 36.147,-138.493
 L 36.2201,-138.484 L 36.2926,-138.471 L 36.3645,-138.455 L 36.4354,-138.435 L 36.5053,-138.412 L 36.574,-138.386
 L 36.6413,-138.356 L 36.7071,-138.323 L 36.7711,-138.287 L 36.8333,-138.247 L 36.8935,-138.205 L 36.9516,-138.16
 L 37.0073,-138.111 L 37.0607,-138.061 L 37.1114,-138.007 L 37.1595,-137.952 L 37.2048,-137.894 L 37.2472,-137.833
 L 37.2866,-137.771 L 37.3229,-137.707 L 37.356,-137.641 L 37.3858,-137.574 L 37.4123,-137.505 L 37.4354,-137.435
 L 37.455,-137.364 L 37.4712,-137.293 L 37.4838,-137.22 L 37.4928,-137.147 L 37.4982,-137.074 L 37.5,-137
 L 37.4982,-136.926 L 37.4928,-136.853 L 37.4838,-136.78 L 37.4712,-136.707 L 37.455,-136.636 L 37.4354,-136.565
 L 37.4123,-136.495 L 37.3858,-136.426 L 37.356,-136.359 L 37.3229,-136.293 L 37.2866,-136.229 L 37.2472,-136.167
 L 37.2048,-136.106 L 37.1595,-136.048 L 37.1114,-135.993 L 37.0607,-135.939 L 37.0073,-135.889 L 36.9516,-135.84
 L 36.8935,-135.795 L 36.8333,-135.753 L 36.7711,-135.713 L 36.7071,-135.677 L 36.6413,-135.644 L 36.574,-135.614
 L 36.5053,-135.588 L 36.4354,-135.565 L 36.3645,-135.545 L 36.2926,-135.529 L 36.2201,-135.516 L 36.147,-135.507
 L 36.0736,-135.502 L 36,-135.5 z
M -113.074,-133.502 L -113.147,-133.507 L -113.22,-133.516 L -113.293,-133.529 L -113.364,-133.545 L -113.435,-133.565
 L -113.505,-133.588 L -113.574,-133.614 L -113.641,-133.644 L -113.707,-133.677 L -113.771,-133.713 L -113.833,-133.753
 L -113.894,-133.795 L -113.952,-133.84 L -114.007,-133.889 L -114.061,-133.939 L -114.111,-133.993 L -114.16,-134.048
 L -114.205,-134.106 L -114.247,-134.167 L -114.287,-134.229 L -114.323,-134.293 L -114.356,-134.359 L -114.386,-134.426
 L -114.412,-134.495 L -114.435,-134.565 L -114.455,-134.636 L -114.471,-134.707 L -114.484,-134.78 L -114.493,-134.853
 L -114.498,-134.926 L -114.5,-135 L -114.498,-135.074 L -114.493,-135.147 L -114.484,-135.22 L -114.471,-135.293
 L -114.455,-135.364 L -114.435,-135.435 L -114.412,-135.505 L -114.386,-135.574 L -114.356,-135.641 L -114.323,-135.707
 L -114.287,-135.771 L -114.247,-135.833 L -114.205,-135.894 L -114.16,-135.952 L -114.111,-136.007 L -114.061,-136.061
 L -114.007,-136.111 L -113.952,-136.16 L -113.894,-136.205 L -113.833,-136.247 L -113.771,-136.287 L -113.707,-136.323
 L -113.641,-136.356 L -113.574,-136.386 L -113.505,-136.412 L -113.435,-136.435 L -113.364,-136.455 L -113.293,-136.471
 L -113.22,-136.484 L -113.147,-136.493 L -113.074,-136.498 L -113,-136.5 L -112.926,-136.498 L -112.853,-136.493
 L -112.78,-136.484 L -112.707,-136.471 L -112.636,-136.455 L -112.565,-136.435 L -112.495,-136.412 L -112.426,-136.386
 L -112.359,-136.356 L -112.293,-136.323 L -112.229,-136.287 L -112.167,-136.247 L -112.106,-136.205 L -112.048,-136.16
 L -111.993,-136.111 L -111.939,-136.061 L -111.889,-136.007 L -111.84,-135.952 L -111.795,-135.894 L -111.753,-135.833
 L -111.713,-135.771 L -111.677,-135.707 L -111.644,-135.641 L -111.614,-135.574 L -111.588,-135.505 L -111.565,-135.435
 L -111.545,-135.364 L -111.529,-135.293 L -111.516,-135.22 L -111.507,-135.147 L -111.502,-135.074 L -111.5,-135
 L -111.502,-134.926 L -111.507,-134.853 L -111.516,-134.78 L -111.529,-134.707 L -111.545,-134.636 L -111.565,-134.565
 L -111.588,-134.495 L -111.614,-134.426 L -111.644,-134.359 L -111.677,-134.293 L -111.713,-134.229 L -111.753,-134.167
 L -111.795,-134.106 L -111.84,-134.048 L -111.889,-133.993 L -111.939,-133.939 L -111.993,-133.889 L -112.048,-133.84
 L -112.106,-133.795 L -112.167,-133.753 L -112.229,-133.713 L -112.293,-133.677 L -112.359,-133.644 L -112.426,-133.614
 L -112.495,-133.588 L -112.565,-133.565 L -112.636,-133.545 L -112.707,-133.529 L -112.78,-133.516 L -112.853,-133.507
 L -112.926,-133.502 L -113,-133.5 z
M 112.926,-133.502 L 112.853,-133.507 L 112.78,-133.516 L 112.707,-133.529 L 112.636,-133.545 L 112.565,-133.565
 L 112.495,-133.588 L 112.426,-133.614 L 112.359,-133.644 L 112.293,-133.677 L 112.229,-133.713 L 112.167,-133.753
 L 112.106,-133.795 L 112.048,-133.84 L 111.993,-133.889 L 111.939,-133.939 L 111.889,-133.993 L 111.84,-134.048
 L 111.795,-134.106 L 111.753,-134.167 L 111.713,-134.229 L 111.677,-134.293 L 111.644,-134.359 L 111.614,-134.426
 L 111.588,-134.495 L 111.565,-134.565 L 111.545,-134.636 L 111.529,-134.707 L 111.516,-134.78 L 111.507,-134.853
 L 111.502,-134.926 L 111.5,-135 L 111.502,-135.074 L 111.507,-135.147 L 111.516,-135.22 L 111.529,-135.293
 L 111.545,-135.364 L 111.565,-135.435 L 111.588,-135.505 L 111.614,-135.574 L 111.644,-135.641 L 111.677,-135.707
 L 111.713,-135.771 L 111.753,-135.833 L 111.795,-135.894 L 111.84,-135.952 L 111.889,-136.007 L 111.939,-136.061
 L 111.993,-136.111 L 112.048,-136.16 L 112.106,-136.205 L 112.167,-136.247 L 112.229,-136.287 L 112.293,-136.323
 L 112.359,-136.356 L 112.426,-136.386 L 112.495,-136.412 L 112.565,-136.435 L 112.636,-136.455 L 112.707,-136.471
 L 112.78,-136.484 L 112.853,-136.493 L 112.926,-136.498 L 113,-136.5 L 113.074,-136.498 L 113.147,-136.493
 L 113.22,-136.484 L 113.293,-136.471 L 113.364,-136.455 L 113.435,-136.435 L 113.505,-136.412 L 113.574,-136.386
 L 113.641,-136.356 L 113.707,-136.323 L 113.771,-136.287 L 113.833,-136.247 L 113.894,-136.205 L 113.952,-136.16
 L 114.007,-136.111 L 114.061,-136.061 L 114.111,-136.007 L 114.16,-135.952 L 114.205,-135.894 L 114.247,-135.833
 L 114.287,-135.771 L 114.323,-135.707 L 114.356,-135.641 L 114.386,-135.574 L 114.412,-135.505 L 114.435,-135.435
 L 114.455,-135.364 L 114.471,-135.293 L 114.484,-135.22 L 114.493,-135.147 L 114.498,-135.074 L 114.5,-135
 L 114.498,-134.926 L 114.493,-134.853 L 114.484,-134.78 L 114.471,-134.707 L 114.455,-134.636 L 114.435,-134.565
 L 114.412,-134.495 L 114.386,-134.426 L 114.356,-134.359 L 114.323,-134.293 L 114.287,-134.229 L 114.247,-134.167
 L 114.205,-134.106 L 114.16,-134.048 L 114.111,-133.993 L 114.061,-133.939 L 114.007,-133.889 L 113.952,-133.84
 L 113.894,-133.795 L 113.833,-133.753 L 113.771,-133.713 L 113.707,-133.677 L 113.641,-133.644 L 113.574,-133.614
 L 113.505,-133.588 L 113.435,-133.565 L 113.364,-133.545 L 113.293,-133.529 L 113.22,-133.516 L 113.147,-133.507
 L 113.074,-133.502 L 113,-133.5 z
M -99.5618,-120.297 L -99.6912,-119.814 L -104.521,-121.108 L -104.391,-121.591 L -108.738,-122.755 L -105.115,-136.278
 L -100.768,-135.114 L -100.639,-135.597 L -95.8089,-134.303 L -95.9383,-133.82 L -91.5917,-132.655 L -95.2151,-119.132
 z
M 91.5917,-132.655 L 95.9383,-133.82 L 95.8089,-134.303 L 100.639,-135.597 L 100.768,-135.114 L 105.115,-136.278
 L 108.738,-122.755 L 104.391,-121.591 L 104.521,-121.108 L 99.6912,-119.814 L 99.5618,-120.297 L 95.2151,-119.132
 z
M 112.403,-128.396 L 116.75,-129.561 L 116.62,-130.044 L 121.45,-131.338 L 121.579,-130.855 L 125.926,-132.02
 L 129.549,-118.497 L 125.203,-117.332 L 125.332,-116.849 L 120.503,-115.555 L 120.373,-116.038 L 116.026,-114.873
 z
M -120.373,-116.038 L -120.503,-115.555 L -125.332,-116.849 L -125.203,-117.332 L -129.549,-118.497 L -125.926,-132.02
 L -121.579,-130.855 L -121.45,-131.338 L -116.62,-130.044 L -116.75,-129.561 L -112.403,-128.396 L -116.026,-114.873
 z
M 26.638,-124.826 L 30.7164,-126.727 L 30.5051,-127.18 L 35.0366,-129.294 L 35.2479,-128.84 L 39.3263,-130.742
 L 45.243,-118.054 L 41.1646,-116.152 L 41.3759,-115.699 L 36.8444,-113.586 L 36.6331,-114.039 L 32.5547,-112.137
 z
M -36.6331,-114.039 L -36.8444,-113.586 L -41.3759,-115.699 L -41.1646,-116.152 L -45.243,-118.054 L -39.3263,-130.742
 L -35.2479,-128.84 L -35.0366,-129.294 L -30.5051,-127.18 L -30.7164,-126.727 L -26.638,-124.826 L -32.5547,-112.137
 z
M -80.5465,-111.421 L -80.7175,-110.951 L -85.416,-112.662 L -85.245,-113.131 L -89.4736,-114.67 L -84.6853,-127.826
 L -80.4567,-126.287 L -80.2857,-126.757 L -75.5872,-125.047 L -75.7582,-124.577 L -71.5296,-123.038 L -76.3179,-109.882
 z
M 71.5296,-123.038 L 75.7582,-124.577 L 75.5872,-125.047 L 80.2857,-126.757 L 80.4567,-126.287 L 84.6853,-127.826
 L 89.4736,-114.67 L 85.245,-113.131 L 85.416,-112.662 L 80.7175,-110.951 L 80.5465,-111.421 L 76.3179,-109.882
 z
M 49.8974,-122.198 L 54.0397,-123.956 L 53.8444,-124.417 L 58.4469,-126.37 L 58.6422,-125.91 L 62.7845,-127.668
 L 68.2548,-114.781 L 64.1125,-113.023 L 64.3078,-112.563 L 59.7053,-110.609 L 59.51,-111.069 L 55.3677,-109.311
 z
M -59.51,-111.069 L -59.7053,-110.609 L -64.3078,-112.563 L -64.1125,-113.023 L -68.2548,-114.781 L -62.7845,-127.668
 L -58.6422,-125.91 L -58.4469,-126.37 L -53.8444,-124.417 L -54.0397,-123.956 L -49.8974,-122.198 L -55.3677,-109.311
 z
M -104.479,-101.944 L -104.609,-101.461 L -109.438,-102.755 L -109.309,-103.238 L -113.656,-104.403 L -110.032,-117.926
 L -105.686,-116.761 L -105.556,-117.244 L -100.726,-115.95 L -100.856,-115.467 L -96.5092,-114.302 L -100.133,-100.779
 z
M 96.5092,-114.302 L 100.856,-115.467 L 100.726,-115.95 L 105.556,-117.244 L 105.686,-116.761 L 110.032,-117.926
 L 113.656,-104.403 L 109.309,-103.238 L 109.438,-102.755 L 104.609,-101.461 L 104.479,-101.944 L 100.133,-100.779
 z
M 13.433,-108.186 L 17.5114,-110.088 L 17.3001,-110.541 L 21.8317,-112.654 L 22.043,-112.201 L 26.1214,-114.103
 L 32.038,-101.414 L 27.9596,-99.5124 L 28.1709,-99.0593 L 23.6394,-96.9462 L 23.4281,-97.3993 L 19.3497,-95.4975
 z
M -23.4281,-97.3993 L -23.6394,-96.9462 L -28.1709,-99.0593 L -27.9596,-99.5124 L -32.038,-101.414 L -26.1214,-114.103
 L -22.043,-112.201 L -21.8317,-112.654 L -17.3001,-110.541 L -17.5114,-110.088 L -13.433,-108.186 L -19.3497,-95.4975
 z
M -125.291,-97.6853 L -125.42,-97.2024 L -130.25,-98.4965 L -130.12,-98.9794 L -134.467,-100.144 L -130.844,-113.667
 L -126.497,-112.502 L -126.367,-112.985 L -121.538,-111.691 L -121.667,-111.208 L -117.321,-110.044 L -120.944,-96.5206
 z
M 117.321,-110.044 L 121.667,-111.208 L 121.538,-111.691 L 126.367,-112.985 L 126.497,-112.502 L 130.844,-113.667
 L 134.467,-100.144 L 130.12,-98.9794 L 130.25,-98.4965 L 125.42,-97.2024 L 125.291,-97.6853 L 120.944,-96.5206
 z
M -44.6628,-96.8191 L -44.8741,-96.366 L -49.4057,-98.4791 L -49.1944,-98.9322 L -53.2727,-100.834 L -47.3561,-113.522
 L -43.2777,-111.621 L -43.0664,-112.074 L -38.5348,-109.961 L -38.7462,-109.507 L -34.6678,-107.606 L -40.5844,-94.9174
 z
M 34.6678,-107.606 L 38.7462,-109.507 L 38.5348,-109.961 L 43.0664,-112.074 L 43.2777,-111.621 L 47.3561,-113.522
 L 53.2727,-100.834 L 49.1944,-98.9322 L 49.4057,-98.4791 L 44.8741,-96.366 L 44.6628,-96.8191 L 40.5844,-94.9174
 z
M 57.3213,-104.708 L 61.4636,-106.467 L 61.2682,-106.927 L 65.8708,-108.881 L 66.0661,-108.42 L 70.2084,-110.179
 L 75.6786,-97.2916 L 71.5364,-95.5333 L 71.7317,-95.073 L 67.1292,-93.1194 L 66.9339,-93.5796 L 62.7916,-91.8214
 z
M -66.9339,-93.5796 L -67.1292,-93.1194 L -71.7317,-95.073 L -71.5364,-95.5333 L -75.6786,-97.2916 L -70.2084,-110.179
 L -66.0661,-108.42 L -65.8708,-108.881 L -61.2682,-106.927 L -61.4636,-106.467 L -57.3213,-104.708 L -62.7916,-91.8214
 z
M -87.0449,-93.5671 L -87.2159,-93.0972 L -91.9144,-94.8074 L -91.7434,-95.2772 L -95.972,-96.8163 L -91.1837,-109.972
 L -86.9551,-108.433 L -86.7841,-108.903 L -82.0856,-107.193 L -82.2566,-106.723 L -78.028,-105.184 L -82.8163,-92.028
 z
M 78.028,-105.184 L 82.2566,-106.723 L 82.0856,-107.193 L 86.7841,-108.903 L 86.9551,-108.433 L 91.1837,-109.972
 L 95.972,-96.8163 L 91.7434,-95.2772 L 91.9144,-94.8074 L 87.2159,-93.0972 L 87.0449,-93.5671 L 82.8163,-92.028
 z
M -109.397,-83.5915 L -109.526,-83.1085 L -114.356,-84.4026 L -114.227,-84.8856 L -118.573,-86.0502 L -114.95,-99.5732
 L -110.603,-98.4085 L -110.474,-98.8915 L -105.644,-97.5974 L -105.773,-97.1144 L -101.427,-95.9497 L -105.05,-82.4268
 z
M 101.427,-95.9497 L 105.773,-97.1144 L 105.644,-97.5974 L 110.474,-98.8915 L 110.603,-98.4085 L 114.95,-99.5732
 L 118.573,-86.0502 L 114.227,-84.8856 L 114.356,-84.4026 L 109.526,-83.1085 L 109.397,-83.5915 L 105.05,-82.4268
 z
M -31.4578,-80.1795 L -31.6691,-79.7263 L -36.2007,-81.8394 L -35.9894,-82.2926 L -40.0677,-84.1944 L -34.1511,-96.8827
 L -30.0727,-94.9809 L -29.8614,-95.434 L -25.3299,-93.3209 L -25.5412,-92.8678 L -21.4628,-90.966 L -27.3794,-78.2777
 z
M 21.4628,-90.966 L 25.5412,-92.8678 L 25.3299,-93.3209 L 29.8614,-95.434 L 30.0727,-94.9809 L 34.1511,-96.8827
 L 40.0677,-84.1944 L 35.9894,-82.2926 L 36.2007,-81.8394 L 31.6691,-79.7263 L 31.4578,-80.1795 L 27.3794,-78.2777
 z
M -52.6926,-79.5993 L -52.9039,-79.1461 L -57.4354,-81.2592 L -57.2241,-81.7124 L -61.3025,-83.6142 L -55.3858,-96.3025
 L -51.3074,-94.4007 L -51.0961,-94.8539 L -46.5646,-92.7408 L -46.7759,-92.2876 L -42.6975,-90.3858 L -48.6142,-77.6975
 z
M 42.6975,-90.3858 L 46.7759,-92.2876 L 46.5646,-92.7408 L 51.0961,-94.8539 L 51.3074,-94.4007 L 55.3858,-96.3025
 L 61.3025,-83.6142 L 57.2241,-81.7124 L 57.4354,-81.2592 L 52.9039,-79.1461 L 52.6926,-79.5993 L 48.6142,-77.6975
 z
M -96.0736,-87.5018 L -96.147,-87.5072 L -96.2201,-87.5162 L -96.2926,-87.5288 L -96.3645,-87.545 L -96.4354,-87.5646
 L -96.5053,-87.5877 L -96.574,-87.6142 L -96.6413,-87.644 L -96.7071,-87.6771 L -96.7711,-87.7134 L -96.8333,-87.7528
 L -96.8935,-87.7952 L -96.9516,-87.8405 L -97.0073,-87.8886 L -97.0607,-87.9393 L -97.1114,-87.9927 L -97.1595,-88.0484
 L -97.2048,-88.1064 L -97.2472,-88.1666 L -97.2866,-88.2288 L -97.3229,-88.2929 L -97.356,-88.3587 L -97.3858,-88.426
 L -97.4123,-88.4947 L -97.4354,-88.5646 L -97.455,-88.6355 L -97.4712,-88.7074 L -97.4838,-88.7799 L -97.4928,-88.853
 L -97.4982,-88.9264 L -97.5,-89 L -97.4982,-89.0736 L -97.4928,-89.147 L -97.4838,-89.2201 L -97.4712,-89.2926
 L -97.455,-89.3645 L -97.4354,-89.4354 L -97.4123,-89.5053 L -97.3858,-89.574 L -97.356,-89.6413 L -97.3229,-89.7071
 L -97.2866,-89.7711 L -97.2472,-89.8333 L -97.2048,-89.8935 L -97.1595,-89.9516 L -97.1114,-90.0073 L -97.0607,-90.0607
 L -97.0073,-90.1114 L -96.9516,-90.1595 L -96.8935,-90.2048 L -96.8333,-90.2472 L -96.7711,-90.2866 L -96.7071,-90.3229
 L -96.6413,-90.356 L -96.574,-90.3858 L -96.5053,-90.4123 L -96.4354,-90.4354 L -96.3645,-90.455 L -96.2926,-90.4712
 L -96.2201,-90.4838 L -96.147,-90.4928 L -96.0736,-90.4982 L -96,-90.5 L -95.9264,-90.4982 L -95.853,-90.4928
 L -95.7799,-90.4838 L -95.7074,-90.4712 L -95.6355,-90.455 L -95.5646,-90.4354 L -95.4947,-90.4123 L -95.426,-90.3858
 L -95.3587,-90.356 L -95.2929,-90.3229 L -95.2288,-90.2866 L -95.1666,-90.2472 L -95.1064,-90.2048 L -95.0484,-90.1595
 L -94.9927,-90.1114 L -94.9393,-90.0607 L -94.8886,-90.0073 L -94.8405,-89.9516 L -94.7952,-89.8935 L -94.7528,-89.8333
 L -94.7134,-89.7711 L -94.6771,-89.7071 L -94.644,-89.6413 L -94.6142,-89.574 L -94.5877,-89.5053 L -94.5646,-89.4354
 L -94.545,-89.3645 L -94.5288,-89.2926 L -94.5162,-89.2201 L -94.5072,-89.147 L -94.5018,-89.0736 L -94.5,-89
 L -94.5018,-88.9264 L -94.5072,-88.853 L -94.5162,-88.7799 L -94.5288,-88.7074 L -94.545,-88.6355 L -94.5646,-88.5646
 L -94.5877,-88.4947 L -94.6142,-88.426 L -94.644,-88.3587 L -94.6771,-88.2929 L -94.7134,-88.2288 L -94.7528,-88.1666
 L -94.7952,-88.1064 L -94.8405,-88.0484 L -94.8886,-87.9927 L -94.9393,-87.9393 L -94.9927,-87.8886 L -95.0484,-87.8405
 L -95.1064,-87.7952 L -95.1666,-87.7528 L -95.2288,-87.7134 L -95.2929,-87.6771 L -95.3587,-87.644 L -95.426,-87.6142
 L -95.4947,-87.5877 L -95.5646,-87.5646 L -95.6355,-87.545 L -95.7074,-87.5288 L -95.7799,-87.5162 L -95.853,-87.5072
 L -95.9264,-87.5018 L -96,-87.5 z
M 95.9264,-87.5018 L 95.853,-87.5072 L 95.7799,-87.5162 L 95.7074,-87.5288 L 95.6355,-87.545 L 95.5646,-87.5646
 L 95.4947,-87.5877 L 95.426,-87.6142 L 95.3587,-87.644 L 95.2929,-87.6771 L 95.2288,-87.7134 L 95.1666,-87.7528
 L 95.1064,-87.7952 L 95.0484,-87.8405 L 94.9927,-87.8886 L 94.9393,-87.9393 L 94.8886,-87.9927 L 94.8405,-88.0484
 L 94.7952,-88.1064 L 94.7528,-88.1666 L 94.7134,-88.2288 L 94.6771,-88.2929 L 94.644,-88.3587 L 94.6142,-88.426
 L 94.5877,-88.4947 L 94.5646,-88.5646 L 94.545,-88.6355 L 94.5288,-88.7074 L 94.5162,-88.7799 L 94.5072,-88.853
 L 94.5018,-88.9264 L 94.5,-89 L 94.5018,-89.0736 L 94.5072,-89.147 L 94.5162,-89.2201 L 94.5288,-89.2926
 L 94.545,-89.3645 L 94.5646,-89.4354 L 94.5877,-89.5053 L 94.6142,-89.574 L 94.644,-89.6413 L 94.6771,-89.7071
 L 94.7134,-89.7711 L 94.7528,-89.8333 L 94.7952,-89.8935 L 94.8405,-89.9516 L 94.8886,-90.0073 L 94.9393,-90.0607
 L 94.9927,-90.1114 L 95.0484,-90.1595 L 95.1064,-90.2048 L 95.1666,-90.2472 L 95.2288,-90.2866 L 95.2929,-90.3229
 L 95.3587,-90.356 L 95.426,-90.3858 L 95.4947,-90.4123 L 95.5646,-90.4354 L 95.6355,-90.455 L 95.7074,-90.4712
 L 95.7799,-90.4838 L 95.853,-90.4928 L 95.9264,-90.4982 L 96,-90.5 L 96.0736,-90.4982 L 96.147,-90.4928
 L 96.2201,-90.4838 L 96.2926,-90.4712 L 96.3645,-90.455 L 96.4354,-90.4354 L 96.5053,-90.4123 L 96.574,-90.3858
 L 96.6413,-90.356 L 96.7071,-90.3229 L 96.7711,-90.2866 L 96.8333,-90.2472 L 96.8935,-90.2048 L 96.9516,-90.1595
 L 97.0073,-90.1114 L 97.0607,-90.0607 L 97.1114,-90.0073 L 97.1595,-89.9516 L 97.2048,-89.8935 L 97.2472,-89.8333
 L 97.2866,-89.7711 L 97.3229,-89.7071 L 97.356,-89.6413 L 97.3858,-89.574 L 97.4123,-89.5053 L 97.4354,-89.4354
 L 97.455,-89.3645 L 97.4712,-89.2926 L 97.4838,-89.2201 L 97.4928,-89.147 L 97.4982,-89.0736 L 97.5,-89
 L 97.4982,-88.9264 L 97.4928,-88.853 L 97.4838,-88.7799 L 97.4712,-88.7074 L 97.455,-88.6355 L 97.4354,-88.5646
 L 97.4123,-88.4947 L 97.3858,-88.426 L 97.356,-88.3587 L 97.3229,-88.2929 L 97.2866,-88.2288 L 97.2472,-88.1666
 L 97.2048,-88.1064 L 97.1595,-88.0484 L 97.1114,-87.9927 L 97.0607,-87.9393 L 97.0073,-87.8886 L 96.9516,-87.8405
 L 96.8935,-87.7952 L 96.8333,-87.7528 L 96.7711,-87.7134 L 96.7071,-87.6771 L 96.6413,-87.644 L 96.574,-87.6142
 L 96.5053,-87.5877 L 96.4354,-87.5646 L 96.3645,-87.545 L 96.2926,-87.5288 L 96.2201,-87.5162 L 96.147,-87.5072
 L 96.0736,-87.5018 L 96,-87.5 z
M -87.6258,-66.6951 L -87.704,-66.2012 L -92.6425,-66.9834 L -92.5643,-67.4773 L -97.0089,-68.1812 L -94.8188,-82.0089
 L -90.3742,-81.3049 L -90.296,-81.7988 L -85.3575,-81.0166 L -85.4357,-80.5227 L -80.9911,-79.8188 L -83.1812,-65.9911
 z
M 80.9911,-79.8188 L 85.4357,-80.5227 L 85.3575,-81.0166 L 90.296,-81.7988 L 90.3742,-81.3049 L 94.8188,-82.0089
 L 97.0089,-68.1812 L 92.5643,-67.4773 L 92.6425,-66.9834 L 87.704,-66.2012 L 87.6258,-66.6951 L 83.1812,-65.9911
 z
M -38.0736,-72.5018 L -38.147,-72.5072 L -38.2201,-72.5162 L -38.2926,-72.5288 L -38.3645,-72.545 L -38.4354,-72.5646
 L -38.5053,-72.5877 L -38.574,-72.6142 L -38.6413,-72.644 L -38.7071,-72.6771 L -38.7711,-72.7134 L -38.8333,-72.7528
 L -38.8935,-72.7952 L -38.9516,-72.8405 L -39.0073,-72.8886 L -39.0607,-72.9393 L -39.1114,-72.9927 L -39.1595,-73.0484
 L -39.2048,-73.1064 L -39.2472,-73.1666 L -39.2866,-73.2288 L -39.3229,-73.2929 L -39.356,-73.3587 L -39.3858,-73.426
 L -39.4123,-73.4947 L -39.4354,-73.5646 L -39.455,-73.6355 L -39.4712,-73.7074 L -39.4838,-73.7799 L -39.4928,-73.853
 L -39.4982,-73.9264 L -39.5,-74 L -39.4982,-74.0736 L -39.4928,-74.147 L -39.4838,-74.2201 L -39.4712,-74.2926
 L -39.455,-74.3645 L -39.4354,-74.4354 L -39.4123,-74.5053 L -39.3858,-74.574 L -39.356,-74.6413 L -39.3229,-74.7071
 L -39.2866,-74.7711 L -39.2472,-74.8333 L -39.2048,-74.8935 L -39.1595,-74.9516 L -39.1114,-75.0073 L -39.0607,-75.0607
 L -39.0073,-75.1114 L -38.9516,-75.1595 L -38.8935,-75.2048 L -38.8333,-75.2472 L -38.7711,-75.2866 L -38.7071,-75.3229
 L -38.6413,-75.356 L -38.574,-75.3858 L -38.5053,-75.4123 L -38.4354,-75.4354 L -38.3645,-75.455 L -38.2926,-75.4712
 L -38.2201,-75.4838 L -38.147,-75.4928 L -38.0736,-75.4982 L -38,-75.5 L -37.9264,-75.4982 L -37.853,-75.4928
 L -37.7799,-75.4838 L -37.7074,-75.4712 L -37.6355,-75.455 L -37.5646,-75.4354 L -37.4947,-75.4123 L -37.426,-75.3858
 L -37.3587,-75.356 L -37.2929,-75.3229 L -37.2288,-75.2866 L -37.1666,-75.2472 L -37.1064,-75.2048 L -37.0484,-75.1595
 L -36.9927,-75.1114 L -36.9393,-75.0607 L -36.8886,-75.0073 L -36.8405,-74.9516 L -36.7952,-74.8935 L -36.7528,-74.8333
 L -36.7134,-74.7711 L -36.6771,-74.7071 L -36.644,-74.6413 L -36.6142,-74.574 L -36.5877,-74.5053 L -36.5646,-74.4354
 L -36.545,-74.3645 L -36.5288,-74.2926 L -36.5162,-74.2201 L -36.5072,-74.147 L -36.5018,-74.0736 L -36.5,-74
 L -36.5018,-73.9264 L -36.5072,-73.853 L -36.5162,-73.7799 L -36.5288,-73.7074 L -36.545,-73.6355 L -36.5646,-73.5646
 L -36.5877,-73.4947 L -36.6142,-73.426 L -36.644,-73.3587 L -36.6771,-73.2929 L -36.7134,-73.2288 L -36.7528,-73.1666
 L -36.7952,-73.1064 L -36.8405,-73.0484 L -36.8886,-72.9927 L -36.9393,-72.9393 L -36.9927,-72.8886 L -37.0484,-72.8405
 L -37.1064,-72.7952 L -37.1666,-72.7528 L -37.2288,-72.7134 L -37.2929,-72.6771 L -37.3587,-72.644 L -37.426,-72.6142
 L -37.4947,-72.5877 L -37.5646,-72.5646 L -37.6355,-72.545 L -37.7074,-72.5288 L -37.7799,-72.5162 L -37.853,-72.5072
 L -37.9264,-72.5018 L -38,-72.5 z
M 37.9264,-72.5018 L 37.853,-72.5072 L 37.7799,-72.5162 L 37.7074,-72.5288 L 37.6355,-72.545 L 37.5646,-72.5646
 L 37.4947,-72.5877 L 37.426,-72.6142 L 37.3587,-72.644 L 37.2929,-72.6771 L 37.2288,-72.7134 L 37.1666,-72.7528
 L 37.1064,-72.7952 L 37.0484,-72.8405 L 36.9927,-72.8886 L 36.9393,-72.9393 L 36.8886,-72.9927 L 36.8405,-73.0484
 L 36.7952,-73.1064 L 36.7528,-73.1666 L 36.7134,-73.2288 L 36.6771,-73.2929 L 36.644,-73.3587 L 36.6142,-73.426
 L 36.5877,-73.4947 L 36.5646,-73.5646 L 36.545,-73.6355 L 36.5288,-73.7074 L 36.5162,-73.7799 L 36.5072,-73.853
 L 36.5018,-73.9264 L 36.5,-74 L 36.5018,-74.0736 L 36.5072,-74.147 L 36.5162,-74.2201 L 36.5288,-74.2926
 L 36.545,-74.3645 L 36.5646,-74.4354 L 36.5877,-74.5053 L 36.6142,-74.574 L 36.644,-74.6413 L 36.6771,-74.7071
 L 36.7134,-74.7711 L 36.7528,-74.8333 L 36.7952,-74.8935 L 36.8405,-74.9516 L 36.8886,-75.0073 L 36.9393,-75.0607
 L 36.9927,-75.1114 L 37.0484,-75.1595 L 37.1064,-75.2048 L 37.1666,-75.2472 L 37.2288,-75.2866 L 37.2929,-75.3229
 L 37.3587,-75.356 L 37.426,-75.3858 L 37.4947,-75.4123 L 37.5646,-75.4354 L 37.6355,-75.455 L 37.7074,-75.4712
 L 37.7799,-75.4838 L 37.853,-75.4928 L 37.9264,-75.4982 L 38,-75.5 L 38.0736,-75.4982 L 38.147,-75.4928
 L 38.2201,-75.4838 L 38.2926,-75.4712 L 38.3645,-75.455 L 38.4354,-75.4354 L 38.5053,-75.4123 L 38.574,-75.3858
 L 38.6413,-75.356 L 38.7071,-75.3229 L 38.7711,-75.2866 L 38.8333,-75.2472 L 38.8935,-75.2048 L 38.9516,-75.1595
 L 39.0073,-75.1114 L 39.0607,-75.0607 L 39.1114,-75.0073 L 39.1595,-74.9516 L 39.2048,-74.8935 L 39.2472,-74.8333
 L 39.2866,-74.7711 L 39.3229,-74.7071 L 39.356,-74.6413 L 39.3858,-74.574 L 39.4123,-74.5053 L 39.4354,-74.4354
 L 39.455,-74.3645 L 39.4712,-74.2926 L 39.4838,-74.2201 L 39.4928,-74.147 L 39.4982,-74.0736 L 39.5,-74
 L 39.4982,-73.9264 L 39.4928,-73.853 L 39.4838,-73.7799 L 39.4712,-73.7074 L 39.455,-73.6355 L 39.4354,-73.5646
 L 39.4123,-73.4947 L 39.3858,-73.426 L 39.356,-73.3587 L 39.3229,-73.2929 L 39.2866,-73.2288 L 39.2472,-73.1666
 L 39.2048,-73.1064 L 39.1595,-73.0484 L 39.1114,-72.9927 L 39.0607,-72.9393 L 39.0073,-72.8886 L 38.9516,-72.8405
 L 38.8935,-72.7952 L 38.8333,-72.7528 L 38.7711,-72.7134 L 38.7071,-72.6771 L 38.6413,-72.644 L 38.574,-72.6142
 L 38.5053,-72.5877 L 38.4354,-72.5646 L 38.3645,-72.545 L 38.2926,-72.5288 L 38.2201,-72.5162 L 38.147,-72.5072
 L 38.0736,-72.5018 L 38,-72.5 z
M -62.6926,-58.5993 L -62.9039,-58.1461 L -67.4354,-60.2592 L -67.2241,-60.7124 L -71.3025,-62.6142 L -65.3858,-75.3025
 L -61.3074,-73.4007 L -61.0961,-73.8539 L -56.5646,-71.7408 L -56.7759,-71.2876 L -52.6975,-69.3858 L -58.6142,-56.6975
 z
M 52.6975,-69.3858 L 56.7759,-71.2876 L 56.5646,-71.7408 L 61.0961,-73.8539 L 61.3074,-73.4007 L 65.3858,-75.3025
 L 71.3025,-62.6142 L 67.2241,-60.7124 L 67.4354,-60.2592 L 62.9039,-58.1461 L 62.6926,-58.5993 L 58.6142,-56.6975
 z
M 37.818,-50.2825 L 37.4645,-49.9289 L 33.9289,-53.4645 L 34.2825,-53.818 L 31.1005,-57 L 41,-66.8995
 L 44.182,-63.7175 L 44.5355,-64.0711 L 48.0711,-60.5355 L 47.7175,-60.182 L 50.8995,-57 L 41,-47.1005
 z
M -50.8995,-57 L -47.7175,-60.182 L -48.0711,-60.5355 L -44.5355,-64.0711 L -44.182,-63.7175 L -41,-66.8995
 L -31.1005,-57 L -34.2825,-53.818 L -33.9289,-53.4645 L -37.4645,-49.9289 L -37.818,-50.2825 L -41,-47.1005
 z
M -37.8257,-43.2064 L -34.2796,-45.9769 L -34.5875,-46.3709 L -30.6474,-49.4492 L -30.3396,-49.0552 L -26.7935,-51.8257
 L -18.1743,-40.7935 L -21.7203,-38.0231 L -21.4125,-37.6291 L -25.3526,-34.5508 L -25.6604,-34.9448 L -29.2064,-32.1743
 z
M 25.6604,-34.9448 L 25.3526,-34.5508 L 21.4125,-37.6291 L 21.7203,-38.0231 L 18.1743,-40.7935 L 26.7935,-51.8257
 L 30.3396,-49.0552 L 30.6474,-49.4492 L 34.5875,-46.3709 L 34.2796,-45.9769 L 37.8257,-43.2064 L 29.2064,-32.1743
 z
M 15.7929,-17.6656 L 15.5505,-17.2283 L 11.1774,-19.6524 L 11.4198,-20.0897 L 7.48399,-22.2713 L 14.2713,-34.516
 L 18.2071,-32.3344 L 18.4495,-32.7717 L 22.8226,-30.3476 L 22.5802,-29.9103 L 26.516,-27.7287 L 19.7287,-15.484
 z
M -26.516,-27.7287 L -22.5802,-29.9103 L -22.8226,-30.3476 L -18.4495,-32.7717 L -18.2071,-32.3344 L -14.2713,-34.516
 L -7.48399,-22.2713 L -11.4198,-20.0897 L -11.1774,-19.6524 L -15.5505,-17.2283 L -15.7929,-17.6656 L -19.7287,-15.484
 z
M 21.9264,-10.5018 L 21.853,-10.5072 L 21.7799,-10.5162 L 21.7074,-10.5288 L 21.6355,-10.545 L 21.5646,-10.5646
 L 21.4947,-10.5877 L 21.426,-10.6142 L 21.3587,-10.644 L 21.2929,-10.6771 L 21.2288,-10.7134 L 21.1666,-10.7528
 L 21.1064,-10.7952 L 21.0484,-10.8405 L 20.9927,-10.8886 L 20.9393,-10.9393 L 20.8886,-10.9927 L 20.8405,-11.0484
 L 20.7952,-11.1064 L 20.7528,-11.1666 L 20.7134,-11.2288 L 20.6771,-11.2929 L 20.644,-11.3587 L 20.6142,-11.426
 L 20.5877,-11.4947 L 20.5646,-11.5646 L 20.545,-11.6355 L 20.5288,-11.7074 L 20.5162,-11.7799 L 20.5072,-11.853
 L 20.5018,-11.9264 L 20.5,-12 L 20.5018,-12.0736 L 20.5072,-12.147 L 20.5162,-12.2201 L 20.5288,-12.2926
 L 20.545,-12.3645 L 20.5646,-12.4354 L 20.5877,-12.5053 L 20.6142,-12.574 L 20.644,-12.6413 L 20.6771,-12.7071
 L 20.7134,-12.7711 L 20.7528,-12.8333 L 20.7952,-12.8935 L 20.8405,-12.9516 L 20.8886,-13.0073 L 20.9393,-13.0607
 L 20.9927,-13.1114 L 21.0484,-13.1595 L 21.1064,-13.2048 L 21.1666,-13.2472 L 21.2288,-13.2866 L 21.2929,-13.3229
 L 21.3587,-13.356 L 21.426,-13.3858 L 21.4947,-13.4123 L 21.5646,-13.4354 L 21.6355,-13.455 L 21.7074,-13.4712
 L 21.7799,-13.4838 L 21.853,-13.4928 L 21.9264,-13.4982 L 22,-13.5 L 22.0736,-13.4982 L 22.147,-13.4928
 L 22.2201,-13.4838 L 22.2926,-13.4712 L 22.3645,-13.455 L 22.4354,-13.4354 L 22.5053,-13.4123 L 22.574,-13.3858
 L 22.6413,-13.356 L 22.7071,-13.3229 L 22.7711,-13.2866 L 22.8333,-13.2472 L 22.8935,-13.2048 L 22.9516,-13.1595
 L 23.0073,-13.1114 L 23.0607,-13.0607 L 23.1114,-13.0073 L 23.1595,-12.9516 L 23.2048,-12.8935 L 23.2472,-12.8333
 L 23.2866,-12.7711 L 23.3229,-12.7071 L 23.356,-12.6413 L 23.3858,-12.574 L 23.4123,-12.5053 L 23.4354,-12.4354
 L 23.455,-12.3645 L 23.4712,-12.2926 L 23.4838,-12.2201 L 23.4928,-12.147 L 23.4982,-12.0736 L 23.5,-12
 L 23.4982,-11.9264 L 23.4928,-11.853 L 23.4838,-11.7799 L 23.4712,-11.7074 L 23.455,-11.6355 L 23.4354,-11.5646
 L 23.4123,-11.4947 L 23.3858,-11.426 L 23.356,-11.3587 L 23.3229,-11.2929 L 23.2866,-11.2288 L 23.2472,-11.1666
 L 23.2048,-11.1064 L 23.1595,-11.0484 L 23.1114,-10.9927 L 23.0607,-10.9393 L 23.0073,-10.8886 L 22.9516,-10.8405
 L 22.8935,-10.7952 L 22.8333,-10.7528 L 22.7711,-10.7134 L 22.7071,-10.6771 L 22.6413,-10.644 L 22.574,-10.6142
 L 22.5053,-10.5877 L 22.4354,-10.5646 L 22.3645,-10.545 L 22.2926,-10.5288 L 22.2201,-10.5162 L 22.147,-10.5072
 L 22.0736,-10.5018 L 22,-10.5 z
M -22.0736,-10.5018 L -22.147,-10.5072 L -22.2201,-10.5162 L -22.2926,-10.5288 L -22.3645,-10.545 L -22.4354,-10.5646
 L -22.5053,-10.5877 L -22.574,-10.6142 L -22.6413,-10.644 L -22.7071,-10.6771 L -22.7711,-10.7134 L -22.8333,-10.7528
 L -22.8935,-10.7952 L -22.9516,-10.8405 L -23.0073,-10.8886 L -23.0607,-10.9393 L -23.1114,-10.9927 L -23.1595,-11.0484
 L -23.2048,-11.1064 L -23.2472,-11.1666 L -23.2866,-11.2288 L -23.3229,-11.2929 L -23.356,-11.3587 L -23.3858,-11.426
 L -23.4123,-11.4947 L -23.4354,-11.5646 L -23.455,-11.6355 L -23.4712,-11.7074 L -23.4838,-11.7799 L -23.4928,-11.853
 L -23.4982,-11.9264 L -23.5,-12 L -23.4982,-12.0736 L -23.4928,-12.147 L -23.4838,-12.2201 L -23.4712,-12.2926
 L -23.455,-12.3645 L -23.4354,-12.4354 L -23.4123,-12.5053 L -23.3858,-12.574 L -23.356,-12.6413 L -23.3229,-12.7071
 L -23.2866,-12.7711 L -23.2472,-12.8333 L -23.2048,-12.8935 L -23.1595,-12.9516 L -23.1114,-13.0073 L -23.0607,-13.0607
 L -23.0073,-13.1114 L -22.9516,-13.1595 L -22.8935,-13.2048 L -22.8333,-13.2472 L -22.7711,-13.2866 L -22.7071,-13.3229
 L -22.6413,-13.356 L -22.574,-13.3858 L -22.5053,-13.4123 L -22.4354,-13.4354 L -22.3645,-13.455 L -22.2926,-13.4712
 L -22.2201,-13.4838 L -22.147,-13.4928 L -22.0736,-13.4982 L -22,-13.5 L -21.9264,-13.4982 L -21.853,-13.4928
 L -21.7799,-13.4838 L -21.7074,-13.4712 L -21.6355,-13.455 L -21.5646,-13.4354 L -21.4947,-13.4123 L -21.426,-13.3858
 L -21.3587,-13.356 L -21.2929,-13.3229 L -21.2288,-13.2866 L -21.1666,-13.2472 L -21.1064,-13.2048 L -21.0484,-13.1595
 L -20.9927,-13.1114 L -20.9393,-13.0607 L -20.8886,-13.0073 L -20.8405,-12.9516 L -20.7952,-12.8935 L -20.7528,-12.8333
 L -20.7134,-12.7711 L -20.6771,-12.7071 L -20.644,-12.6413 L -20.6142,-12.574 L -20.5877,-12.5053 L -20.5646,-12.4354
 L -20.545,-12.3645 L -20.5288,-12.2926 L -20.5162,-12.2201 L -20.5072,-12.147 L -20.5018,-12.0736 L -20.5,-12
 L -20.5018,-11.9264 L -20.5072,-11.853 L -20.5162,-11.7799 L -20.5288,-11.7074 L -20.545,-11.6355 L -20.5646,-11.5646
 L -20.5877,-11.4947 L -20.6142,-11.426 L -20.644,-11.3587 L -20.6771,-11.2929 L -20.7134,-11.2288 L -20.7528,-11.1666
 L -20.7952,-11.1064 L -20.8405,-11.0484 L -20.8886,-10.9927 L -20.9393,-10.9393 L -20.9927,-10.8886 L -21.0484,-10.8405
 L -21.1064,-10.7952 L -21.1666,-10.7528 L -21.2288,-10.7134 L -21.2929,-10.6771 L -21.3587,-10.644 L -21.426,-10.6142
 L -21.4947,-10.5877 L -21.5646,-10.5646 L -21.6355,-10.545 L -21.7074,-10.5288 L -21.7799,-10.5162 L -21.853,-10.5072
 L -21.9264,-10.5018 L -22,-10.5 z
" stroke="black" fill="lightgray" stroke-width="0.5"/>
</svg>
