%TF.GenerationSoftware,KiCad,Pcbnew,7.0.8*%
%TF.CreationDate,2023-10-18T22:01:12+02:00*%
%TF.ProjectId,acacia-2,61636163-6961-42d3-922e-6b696361645f,rev?*%
%TF.SameCoordinates,Original*%
%TF.FileFunction,Copper,L1,Top*%
%TF.FilePolarity,Positive*%
%FSLAX46Y46*%
G04 Gerber Fmt 4.6, Leading zero omitted, Abs format (unit mm)*
G04 Created by KiCad (PCBNEW 7.0.8) date 2023-10-18 22:01:12*
%MOMM*%
%LPD*%
G01*
G04 APERTURE LIST*
G04 Aperture macros list*
%AMRoundRect*
0 Rectangle with rounded corners*
0 $1 Rounding radius*
0 $2 $3 $4 $5 $6 $7 $8 $9 X,Y pos of 4 corners*
0 Add a 4 corners polygon primitive as box body*
4,1,4,$2,$3,$4,$5,$6,$7,$8,$9,$2,$3,0*
0 Add four circle primitives for the rounded corners*
1,1,$1+$1,$2,$3*
1,1,$1+$1,$4,$5*
1,1,$1+$1,$6,$7*
1,1,$1+$1,$8,$9*
0 Add four rect primitives between the rounded corners*
20,1,$1+$1,$2,$3,$4,$5,0*
20,1,$1+$1,$4,$5,$6,$7,0*
20,1,$1+$1,$6,$7,$8,$9,0*
20,1,$1+$1,$8,$9,$2,$3,0*%
%AMRotRect*
0 Rectangle, with rotation*
0 The origin of the aperture is its center*
0 $1 length*
0 $2 width*
0 $3 Rotation angle, in degrees counterclockwise*
0 Add horizontal line*
21,1,$1,$2,0,0,$3*%
G04 Aperture macros list end*
%TA.AperFunction,SMDPad,CuDef*%
%ADD10RotRect,0.500000X0.500000X15.000000*%
%TD*%
%TA.AperFunction,SMDPad,CuDef*%
%ADD11RotRect,0.500000X0.500000X285.000000*%
%TD*%
%TA.AperFunction,SMDPad,CuDef*%
%ADD12RotRect,0.500000X0.500000X165.000000*%
%TD*%
%TA.AperFunction,ComponentPad*%
%ADD13RoundRect,0.250000X-0.600000X-0.725000X0.600000X-0.725000X0.600000X0.725000X-0.600000X0.725000X0*%
%TD*%
%TA.AperFunction,ComponentPad*%
%ADD14O,1.700000X1.950000*%
%TD*%
%TA.AperFunction,ComponentPad*%
%ADD15O,1.050000X2.100000*%
%TD*%
%TA.AperFunction,ComponentPad*%
%ADD16O,1.000000X2.000000*%
%TD*%
%TA.AperFunction,ViaPad*%
%ADD17C,0.800000*%
%TD*%
%TA.AperFunction,Conductor*%
%ADD18C,0.250000*%
%TD*%
%TA.AperFunction,Conductor*%
%ADD19C,0.500000*%
%TD*%
G04 APERTURE END LIST*
D10*
%TO.P,D44,4,VDD*%
%TO.N,+5V*%
X211818198Y-114948865D03*
%TO.P,D44,3,DIN*%
%TO.N,Net-(D43-DOUT)*%
X212051135Y-115818198D03*
%TO.P,D44,2,VSS*%
%TO.N,GNDD*%
X211181802Y-116051135D03*
%TO.P,D44,1,DOUT*%
%TO.N,unconnected-(D44-DOUT-Pad1)*%
X210948865Y-115181802D03*
%TD*%
D11*
%TO.P,D43,1,DOUT*%
%TO.N,Net-(D43-DOUT)*%
X187318198Y-116948865D03*
%TO.P,D43,2,VSS*%
%TO.N,GNDD*%
X186448865Y-117181802D03*
%TO.P,D43,3,DIN*%
%TO.N,Net-(D42-DOUT)*%
X186681802Y-118051135D03*
%TO.P,D43,4,VDD*%
%TO.N,+5V*%
X187551135Y-117818198D03*
%TD*%
%TO.P,D42,1,DOUT*%
%TO.N,Net-(D42-DOUT)*%
X169318198Y-121948865D03*
%TO.P,D42,2,VSS*%
%TO.N,GNDD*%
X168448865Y-122181802D03*
%TO.P,D42,3,DIN*%
%TO.N,Net-(D41-DOUT)*%
X168681802Y-123051135D03*
%TO.P,D42,4,VDD*%
%TO.N,+5V*%
X169551135Y-122818198D03*
%TD*%
D12*
%TO.P,D41,1,DOUT*%
%TO.N,Net-(D41-DOUT)*%
X146318198Y-123051135D03*
%TO.P,D41,2,VSS*%
%TO.N,GNDD*%
X146551135Y-122181802D03*
%TO.P,D41,3,DIN*%
%TO.N,Net-(D40-DOUT)*%
X145681802Y-121948865D03*
%TO.P,D41,4,VDD*%
%TO.N,+5V*%
X145448865Y-122818198D03*
%TD*%
%TO.P,D40,1,DOUT*%
%TO.N,Net-(D40-DOUT)*%
X127818198Y-118051135D03*
%TO.P,D40,2,VSS*%
%TO.N,GNDD*%
X128051135Y-117181802D03*
%TO.P,D40,3,DIN*%
%TO.N,Net-(D39-DOUT)*%
X127181802Y-116948865D03*
%TO.P,D40,4,VDD*%
%TO.N,+5V*%
X126948865Y-117818198D03*
%TD*%
%TO.P,D39,1,DOUT*%
%TO.N,Net-(D39-DOUT)*%
X103318198Y-116051135D03*
%TO.P,D39,2,VSS*%
%TO.N,GNDD*%
X103551135Y-115181802D03*
%TO.P,D39,3,DIN*%
%TO.N,RGB*%
X102681802Y-114948865D03*
%TO.P,D39,4,VDD*%
%TO.N,+5V*%
X102448865Y-115818198D03*
%TD*%
D13*
%TO.P,J1,1,Pin_1*%
%TO.N,GNDD*%
X139500000Y-98000000D03*
D14*
%TO.P,J1,2,Pin_2*%
%TO.N,+5V*%
X142000000Y-98000000D03*
%TO.P,J1,3,Pin_3*%
%TO.N,/SDA*%
X144500000Y-98000000D03*
%TO.P,J1,4,Pin_4*%
%TO.N,/SCL*%
X147000000Y-98000000D03*
%TD*%
D15*
%TO.P,J3,S1,MH1*%
%TO.N,GNDPWR*%
X153290000Y-53500000D03*
D16*
%TO.P,J3,S2,MH2*%
X153290000Y-49320000D03*
%TO.P,J3,S3,MH3*%
X161930000Y-49320000D03*
D15*
%TO.P,J3,S4,MH4*%
X161930000Y-53500000D03*
%TD*%
D17*
%TO.N,GNDD*%
X147500000Y-61500000D03*
X140750000Y-111750000D03*
%TO.N,/SDA*%
X155000000Y-100500000D03*
%TO.N,/SCL*%
X156500000Y-99500000D03*
%TO.N,+5V*%
X149000000Y-92500000D03*
X166504866Y-75998010D03*
X154500000Y-65000000D03*
X149000000Y-86000000D03*
X160500000Y-65000000D03*
X148750000Y-124500000D03*
%TO.N,GNDD*%
X168250000Y-72500000D03*
X146411611Y-121088389D03*
X168250000Y-73500000D03*
X167250000Y-72500000D03*
X156000000Y-94000000D03*
X149000000Y-97000000D03*
X167250000Y-73500000D03*
X149000000Y-94000000D03*
X163000000Y-88000000D03*
X174000000Y-96500000D03*
X164500000Y-57000000D03*
%TO.N,GND*%
X149500000Y-54500000D03*
X154410000Y-55410000D03*
X161500000Y-55500000D03*
%TO.N,R0*%
X107500000Y-58500000D03*
X72500000Y-52470647D03*
X174500000Y-58500000D03*
X227000000Y-49000000D03*
X141500000Y-58500000D03*
X188500000Y-58500000D03*
X210500000Y-49000000D03*
X104000000Y-51000000D03*
X248000000Y-49000000D03*
X121000000Y-58500000D03*
X51500000Y-53000000D03*
X94000000Y-51000000D03*
X210500000Y-58500000D03*
%TO.N,R1*%
X191000000Y-65000000D03*
X232000000Y-64000000D03*
X46500000Y-57500000D03*
X234500000Y-69000000D03*
X142500000Y-64500000D03*
X64500000Y-65500000D03*
X100000000Y-75000000D03*
X99500000Y-67500000D03*
X195000000Y-64000000D03*
X142500000Y-75000004D03*
X86000000Y-67500000D03*
X116500000Y-75000000D03*
X211500000Y-64000000D03*
X254000000Y-69000000D03*
%TO.N,R2*%
X221000000Y-86500000D03*
X81000000Y-86500000D03*
X95000000Y-86500000D03*
X221000002Y-100000000D03*
X239500000Y-86500000D03*
X195500000Y-100000006D03*
X202000000Y-100000006D03*
X59500000Y-86500000D03*
X97500000Y-98500000D03*
X159500000Y-94000000D03*
X116000000Y-98500000D03*
%TO.N,R3*%
X132000000Y-103000000D03*
X201000000Y-101500000D03*
X170500000Y-101499996D03*
X214000000Y-101500000D03*
X96500000Y-103000000D03*
X174000000Y-101500000D03*
%TO.N,RGB*%
X134500000Y-95000000D03*
X134500000Y-105500000D03*
X158500000Y-89500000D03*
%TO.N,/BTN*%
X158000000Y-94000000D03*
X158000000Y-99500000D03*
%TO.N,Net-(U1-~{RESET})*%
X151000000Y-77500000D03*
X157000000Y-77500000D03*
%TO.N,C0*%
X139500000Y-82000000D03*
X57000000Y-83000000D03*
%TO.N,C1*%
X82500000Y-59500000D03*
X140500000Y-60500000D03*
%TO.N,C2*%
X139225000Y-73920337D03*
X98000000Y-74000000D03*
%TO.N,C3*%
X138000000Y-72500000D03*
X117500000Y-72500000D03*
%TO.N,C5*%
X161012653Y-82012653D03*
X199354105Y-92000000D03*
%TO.N,C6*%
X162500000Y-94000000D03*
X212780202Y-95000000D03*
%TO.N,C7*%
X160300000Y-93000000D03*
X234620660Y-89500000D03*
%TO.N,C8*%
X162500000Y-82987347D03*
X251000000Y-76000000D03*
%TO.N,C9*%
X163529577Y-89350000D03*
X272500000Y-82500000D03*
%TO.N,Net-(J3-CC1)*%
X151000000Y-52000000D03*
X156322262Y-52752632D03*
%TO.N,Net-(J3-CC2)*%
X151000000Y-51000000D03*
X159000000Y-52900500D03*
%TD*%
D18*
%TO.N,GNDD*%
X129783092Y-115449845D02*
X137050155Y-115449845D01*
X137050155Y-115449845D02*
X140750000Y-111750000D01*
X128051135Y-117181802D02*
X129783092Y-115449845D01*
X103551135Y-115181802D02*
X120660169Y-115181802D01*
X128051135Y-116551135D02*
X128051135Y-117181802D01*
X120660169Y-115181802D02*
X122003968Y-113838003D01*
X122003968Y-113838003D02*
X125338003Y-113838003D01*
X125338003Y-113838003D02*
X128051135Y-116551135D01*
%TO.N,+5V*%
X122410294Y-122339706D02*
X122427357Y-122339706D01*
X108664187Y-122339706D02*
X122410294Y-122339706D01*
X122410294Y-122339706D02*
X127296488Y-127225900D01*
X127296488Y-127225900D02*
X143024100Y-127225900D01*
X143024100Y-127225900D02*
X145750000Y-124500000D01*
X102448865Y-115818198D02*
X102448865Y-116124384D01*
X102448865Y-116124384D02*
X108664187Y-122339706D01*
X122427357Y-122339706D02*
X126948865Y-117818198D01*
%TO.N,RGB*%
X102681802Y-114948865D02*
X104004767Y-113625900D01*
X104004767Y-113625900D02*
X113874100Y-113625900D01*
X113874100Y-113625900D02*
X122000000Y-105500000D01*
X122000000Y-105500000D02*
X134500000Y-105500000D01*
%TO.N,Net-(D39-DOUT)*%
X103318198Y-116051135D02*
X104397921Y-117130858D01*
X120130858Y-117130858D02*
X121575803Y-118575803D01*
X121575803Y-118575803D02*
X124195314Y-118575803D01*
X104397921Y-117130858D02*
X120130858Y-117130858D01*
X124195314Y-118575803D02*
X125822252Y-116948865D01*
X125822252Y-116948865D02*
X127181802Y-116948865D01*
%TO.N,Net-(D40-DOUT)*%
X127818198Y-118051135D02*
X134662160Y-118051135D01*
X140361025Y-123750000D02*
X142500000Y-123750000D01*
X134662160Y-118051135D02*
X140361025Y-123750000D01*
X142500000Y-123750000D02*
X144301135Y-121948865D01*
X144301135Y-121948865D02*
X145681802Y-121948865D01*
%TO.N,GNDD*%
X168448865Y-122181802D02*
X146551135Y-122181802D01*
X146551135Y-121227913D02*
X146411611Y-121088389D01*
X146551135Y-122181802D02*
X146551135Y-121227913D01*
%TO.N,+5V*%
X148750000Y-124500000D02*
X145750000Y-124500000D01*
X145448865Y-124198865D02*
X145448865Y-122818198D01*
X145750000Y-124500000D02*
X145448865Y-124198865D01*
X169551135Y-124500000D02*
X148750000Y-124500000D01*
%TO.N,Net-(D41-DOUT)*%
X146318198Y-123051135D02*
X146517063Y-123250000D01*
X146517063Y-123250000D02*
X168482937Y-123250000D01*
X168482937Y-123250000D02*
X168681802Y-123051135D01*
%TO.N,GNDD*%
X168448865Y-122181802D02*
X168448865Y-120849133D01*
X168448865Y-120849133D02*
X170466898Y-118831100D01*
X183984536Y-118831100D02*
X185633834Y-117181802D01*
X170466898Y-118831100D02*
X183984536Y-118831100D01*
X185633834Y-117181802D02*
X186448865Y-117181802D01*
%TO.N,+5V*%
X169551135Y-122818198D02*
X169551135Y-124500000D01*
X169551135Y-124500000D02*
X183000000Y-124500000D01*
X187551135Y-119948865D02*
X187551135Y-117818198D01*
X183000000Y-124500000D02*
X187551135Y-119948865D01*
%TO.N,Net-(D42-DOUT)*%
X169318198Y-121948865D02*
X169952056Y-121948865D01*
X171753191Y-123750000D02*
X174750000Y-123750000D01*
X169952056Y-121948865D02*
X171753191Y-123750000D01*
X174750000Y-123750000D02*
X178750000Y-119750000D01*
X178750000Y-119750000D02*
X184982937Y-119750000D01*
X184982937Y-119750000D02*
X186681802Y-118051135D01*
%TO.N,+5V*%
X187551135Y-119750000D02*
X187689041Y-119887906D01*
X213750000Y-116091894D02*
X213750000Y-115250000D01*
X187689041Y-119887906D02*
X209953988Y-119887906D01*
X209953988Y-119887906D02*
X213750000Y-116091894D01*
X187551135Y-117818198D02*
X187551135Y-119750000D01*
X213113329Y-114613329D02*
X212153734Y-114613329D01*
X213750000Y-115250000D02*
X213113329Y-114613329D01*
X212153734Y-114613329D02*
X211818198Y-114948865D01*
%TO.N,GNDD*%
X207244325Y-113744325D02*
X209551135Y-116051135D01*
X188553673Y-113744325D02*
X207244325Y-113744325D01*
X209551135Y-116051135D02*
X211181802Y-116051135D01*
X186448865Y-117181802D02*
X186448865Y-115849133D01*
X186448865Y-115849133D02*
X188553673Y-113744325D01*
%TO.N,Net-(D43-DOUT)*%
X187318198Y-116948865D02*
X188698865Y-116948865D01*
X188698865Y-116948865D02*
X190970554Y-119220554D01*
X209282637Y-119220554D02*
X212051135Y-116452056D01*
X190970554Y-119220554D02*
X209282637Y-119220554D01*
X212051135Y-116452056D02*
X212051135Y-115818198D01*
%TO.N,/SDA*%
X155000000Y-100500000D02*
X147000000Y-100500000D01*
X147000000Y-100500000D02*
X144500000Y-98000000D01*
%TO.N,/SCL*%
X156500000Y-99500000D02*
X148500000Y-99500000D01*
X148500000Y-99500000D02*
X147000000Y-98000000D01*
D19*
%TO.N,+5V*%
X159999990Y-65000000D02*
X154500000Y-65000000D01*
X159999990Y-65000000D02*
X160500000Y-65000000D01*
X159999990Y-65000000D02*
X157500000Y-65000000D01*
X157500000Y-65000000D02*
X157500000Y-76000000D01*
X157500000Y-76000000D02*
X166502876Y-76000000D01*
X157500000Y-76000000D02*
X150000000Y-76000000D01*
X150000000Y-76000000D02*
X149000000Y-77000000D01*
X166502876Y-76000000D02*
X166504866Y-75998010D01*
X149000000Y-77000000D02*
X149000000Y-86000000D01*
X149000000Y-92500000D02*
X149000000Y-86000000D01*
%TO.N,GND*%
X154500000Y-55500000D02*
X161500000Y-55500000D01*
X154410000Y-55410000D02*
X154500000Y-55500000D01*
D18*
X150410000Y-55410000D02*
X149500000Y-54500000D01*
X154410000Y-55410000D02*
X150410000Y-55410000D01*
%TO.N,R0*%
X82529353Y-52470647D02*
X84000000Y-51000000D01*
X94000000Y-51000000D02*
X104000000Y-51000000D01*
X248000000Y-49000000D02*
X227000000Y-49000000D01*
X226500000Y-49000000D02*
X227000000Y-49000000D01*
X51500000Y-53000000D02*
X52029353Y-52470647D01*
X141500000Y-58500000D02*
X174500000Y-58500000D01*
X210500000Y-49000000D02*
X226500000Y-49000000D01*
X174500000Y-58500000D02*
X210500000Y-58500000D01*
X107500000Y-58500000D02*
X121000000Y-58500000D01*
X52029353Y-52470647D02*
X72500000Y-52470647D01*
X84000000Y-51000000D02*
X94000000Y-51000000D01*
X72500000Y-52470647D02*
X82529353Y-52470647D01*
X121000000Y-58500000D02*
X141500000Y-58500000D01*
%TO.N,R1*%
X211500000Y-64000000D02*
X195000000Y-64000000D01*
X254000000Y-69000000D02*
X234500000Y-69000000D01*
X86000000Y-67500000D02*
X99500000Y-67500000D01*
X232000000Y-64000000D02*
X211500000Y-64000000D01*
X191000000Y-65000000D02*
X190272450Y-64272450D01*
X195000000Y-64000000D02*
X192000000Y-64000000D01*
X46500000Y-57500000D02*
X56500000Y-57500000D01*
X100000000Y-75000000D02*
X116500000Y-75000000D01*
X66500000Y-67500000D02*
X86000000Y-67500000D01*
X62000000Y-63000000D02*
X64500000Y-65500000D01*
X116500000Y-75000000D02*
X142499996Y-75000000D01*
X192000000Y-64000000D02*
X191000000Y-65000000D01*
X142727550Y-64272450D02*
X142500000Y-64500000D01*
X190272450Y-64272450D02*
X142727550Y-64272450D01*
X64500000Y-65500000D02*
X66500000Y-67500000D01*
X56500000Y-57500000D02*
X62000000Y-63000000D01*
X142499996Y-75000000D02*
X142500000Y-75000004D01*
%TO.N,R2*%
X158000006Y-101500000D02*
X159500000Y-100000006D01*
X159500000Y-94000000D02*
X159500000Y-100000006D01*
X202000000Y-100000006D02*
X220999996Y-100000006D01*
X97500000Y-98500000D02*
X116000000Y-98500000D01*
X81000000Y-86500000D02*
X95000000Y-86500000D01*
X239500000Y-86500000D02*
X221000000Y-86500000D01*
X159500000Y-100000006D02*
X195500000Y-100000006D01*
X195500000Y-100000006D02*
X202000000Y-100000006D01*
X220999996Y-100000006D02*
X221000002Y-100000000D01*
X116000000Y-98500000D02*
X129500000Y-98500000D01*
X132500000Y-101500000D02*
X158000006Y-101500000D01*
X129500000Y-98500000D02*
X132500000Y-101500000D01*
X81000000Y-86500000D02*
X59500000Y-86500000D01*
%TO.N,R3*%
X214000000Y-101500000D02*
X201000000Y-101500000D01*
X174000000Y-101500000D02*
X170500004Y-101500000D01*
X170500000Y-101499996D02*
X168999996Y-103000000D01*
X170500004Y-101500000D02*
X170500000Y-101499996D01*
X96500000Y-103000000D02*
X132000000Y-103000000D01*
X201000000Y-101500000D02*
X174000000Y-101500000D01*
X168999996Y-103000000D02*
X132000000Y-103000000D01*
%TO.N,RGB*%
X153000000Y-95000000D02*
X134500000Y-95000000D01*
X158500000Y-89500000D02*
X153000000Y-95000000D01*
%TO.N,/BTN*%
X158000000Y-99500000D02*
X158000000Y-94000000D01*
%TO.N,Net-(U1-~{RESET})*%
X157000000Y-77500000D02*
X151000000Y-77500000D01*
%TO.N,C0*%
X112724503Y-79775497D02*
X109500000Y-83000000D01*
X109500000Y-83000000D02*
X57000000Y-83000000D01*
X139500000Y-82000000D02*
X137275497Y-79775497D01*
X137275497Y-79775497D02*
X112724503Y-79775497D01*
%TO.N,C1*%
X83500000Y-60500000D02*
X82500000Y-59500000D01*
X140500000Y-60500000D02*
X83500000Y-60500000D01*
%TO.N,C2*%
X98000000Y-74000000D02*
X139000000Y-74000000D01*
X139079663Y-73920337D02*
X139225000Y-73920337D01*
X139000000Y-74000000D02*
X139079663Y-73920337D01*
%TO.N,C3*%
X138000000Y-72500000D02*
X130874214Y-72500000D01*
X130874214Y-72500000D02*
X117500000Y-72500000D01*
%TO.N,C5*%
X161012653Y-89512653D02*
X161012653Y-82012653D01*
X163500000Y-92000000D02*
X161012653Y-89512653D01*
X199354105Y-92000000D02*
X163500000Y-92000000D01*
%TO.N,C6*%
X212780202Y-95000000D02*
X211780202Y-94000000D01*
X211780202Y-94000000D02*
X162500000Y-94000000D01*
%TO.N,C7*%
X231120660Y-93000000D02*
X160300000Y-93000000D01*
X234620660Y-89500000D02*
X231120660Y-93000000D01*
%TO.N,C8*%
X211514923Y-79000000D02*
X201974222Y-88540701D01*
X241885772Y-76857649D02*
X239743421Y-79000000D01*
X250142351Y-76857649D02*
X241885772Y-76857649D01*
X166040701Y-88540701D02*
X162500000Y-85000000D01*
X201974222Y-88540701D02*
X166040701Y-88540701D01*
X162500000Y-85000000D02*
X162500000Y-82987347D01*
X239743421Y-79000000D02*
X211514923Y-79000000D01*
X251000000Y-76000000D02*
X250142351Y-76857649D01*
%TO.N,C9*%
X223259299Y-82740701D02*
X219574503Y-86425497D01*
X219574503Y-86425497D02*
X204725822Y-86425497D01*
X204725822Y-86425497D02*
X201151319Y-90000000D01*
X164179577Y-90000000D02*
X163529577Y-89350000D01*
X272500000Y-82500000D02*
X272259299Y-82740701D01*
X201151319Y-90000000D02*
X164179577Y-90000000D01*
X272259299Y-82740701D02*
X223259299Y-82740701D01*
%TO.N,Net-(J3-CC1)*%
X151000000Y-52000000D02*
X155569630Y-52000000D01*
X156322262Y-52752632D02*
X155569630Y-52000000D01*
%TO.N,Net-(J3-CC2)*%
X157099500Y-51000000D02*
X151000000Y-51000000D01*
X159000000Y-52900500D02*
X157099500Y-51000000D01*
%TD*%
%TA.AperFunction,Conductor*%
%TO.N,GNDD*%
G36*
X137205203Y-96936609D02*
G01*
X137218508Y-96950047D01*
X137294364Y-97039353D01*
X137294367Y-97039356D01*
X137370170Y-97096979D01*
X137445971Y-97154602D01*
X137445972Y-97154602D01*
X137445973Y-97154603D01*
X137445974Y-97154604D01*
X137551758Y-97203543D01*
X137618803Y-97234562D01*
X137618804Y-97234562D01*
X137618806Y-97234563D01*
X137675227Y-97246982D01*
X137804784Y-97275500D01*
X137804785Y-97275500D01*
X137947459Y-97275500D01*
X137947465Y-97275500D01*
X138012595Y-97268416D01*
X138081367Y-97280736D01*
X138132563Y-97328283D01*
X138150000Y-97391689D01*
X138150000Y-97750000D01*
X139096031Y-97750000D01*
X139063481Y-97800649D01*
X139025000Y-97931705D01*
X139025000Y-98068295D01*
X139063481Y-98199351D01*
X139096031Y-98250000D01*
X138150001Y-98250000D01*
X138150001Y-98774986D01*
X138160494Y-98877697D01*
X138215641Y-99044119D01*
X138215643Y-99044124D01*
X138307684Y-99193345D01*
X138431654Y-99317315D01*
X138580875Y-99409356D01*
X138580880Y-99409358D01*
X138747302Y-99464505D01*
X138747309Y-99464506D01*
X138850019Y-99474999D01*
X139249999Y-99474999D01*
X139250000Y-99474998D01*
X139250000Y-98408018D01*
X139364801Y-98460446D01*
X139466025Y-98475000D01*
X139533975Y-98475000D01*
X139635199Y-98460446D01*
X139750000Y-98408018D01*
X139750000Y-99474999D01*
X140149972Y-99474999D01*
X140149986Y-99474998D01*
X140252697Y-99464505D01*
X140419119Y-99409358D01*
X140419124Y-99409356D01*
X140568345Y-99317315D01*
X140692317Y-99193343D01*
X140784338Y-99044153D01*
X140836286Y-98997428D01*
X140905248Y-98986205D01*
X140969331Y-99014048D01*
X140979397Y-99023446D01*
X141099228Y-99148476D01*
X141285153Y-99285985D01*
X141491643Y-99390095D01*
X141712757Y-99457811D01*
X141942135Y-99487184D01*
X142173178Y-99477369D01*
X142399238Y-99428649D01*
X142613813Y-99342426D01*
X142810730Y-99221179D01*
X142984324Y-99068398D01*
X143129600Y-98888476D01*
X143143030Y-98864434D01*
X143192906Y-98815509D01*
X143261318Y-98801314D01*
X143326545Y-98826359D01*
X143354019Y-98855470D01*
X143439209Y-98981512D01*
X143439212Y-98981516D01*
X143439217Y-98981523D01*
X143599228Y-99148476D01*
X143785153Y-99285985D01*
X143991643Y-99390095D01*
X144212757Y-99457811D01*
X144442135Y-99487184D01*
X144673178Y-99477369D01*
X144899238Y-99428649D01*
X144918475Y-99420918D01*
X144988017Y-99414186D01*
X145050162Y-99446121D01*
X145052391Y-99448295D01*
X146258914Y-100654819D01*
X146292399Y-100716142D01*
X146287415Y-100785834D01*
X146245543Y-100841767D01*
X146180079Y-100866184D01*
X146171233Y-100866500D01*
X137124000Y-100866500D01*
X137056961Y-100846815D01*
X137011206Y-100794011D01*
X137000000Y-100742500D01*
X137000000Y-97030322D01*
X137019685Y-96963283D01*
X137072489Y-96917528D01*
X137141647Y-96907584D01*
X137205203Y-96936609D01*
G37*
%TD.AperFunction*%
%TA.AperFunction,Conductor*%
G36*
X161560197Y-93653185D02*
G01*
X161605952Y-93705989D01*
X161615896Y-93775147D01*
X161611089Y-93795816D01*
X161606458Y-93810072D01*
X161586496Y-94000000D01*
X161606458Y-94189928D01*
X161606459Y-94189931D01*
X161665470Y-94371549D01*
X161665473Y-94371556D01*
X161760960Y-94536944D01*
X161834370Y-94618474D01*
X161869829Y-94657856D01*
X161888747Y-94678866D01*
X162043248Y-94791118D01*
X162217712Y-94868794D01*
X162404513Y-94908500D01*
X162595487Y-94908500D01*
X162782288Y-94868794D01*
X162956752Y-94791118D01*
X163111253Y-94678866D01*
X163115160Y-94674527D01*
X163174646Y-94637879D01*
X163207309Y-94633500D01*
X177876000Y-94633500D01*
X177943039Y-94653185D01*
X177988794Y-94705989D01*
X178000000Y-94757500D01*
X178000000Y-99242506D01*
X177980315Y-99309545D01*
X177927511Y-99355300D01*
X177876000Y-99366506D01*
X160257500Y-99366506D01*
X160190461Y-99346821D01*
X160144706Y-99294017D01*
X160133500Y-99242506D01*
X160133500Y-94701756D01*
X160153185Y-94634717D01*
X160165346Y-94618788D01*
X160239040Y-94536944D01*
X160334527Y-94371556D01*
X160393542Y-94189928D01*
X160413504Y-94000000D01*
X160413503Y-93999997D01*
X160414183Y-93993536D01*
X160416813Y-93993812D01*
X160433189Y-93938043D01*
X160485993Y-93892288D01*
X160511712Y-93883795D01*
X160582288Y-93868794D01*
X160756752Y-93791118D01*
X160911253Y-93678866D01*
X160915160Y-93674527D01*
X160974646Y-93637879D01*
X161007309Y-93633500D01*
X161493158Y-93633500D01*
X161560197Y-93653185D01*
G37*
%TD.AperFunction*%
%TA.AperFunction,Conductor*%
G36*
X140859730Y-59153185D02*
G01*
X140884840Y-59174527D01*
X140888747Y-59178866D01*
X141043248Y-59291118D01*
X141217712Y-59368794D01*
X141404513Y-59408500D01*
X141595487Y-59408500D01*
X141782288Y-59368794D01*
X141956752Y-59291118D01*
X142111253Y-59178866D01*
X142115160Y-59174527D01*
X142174646Y-59137879D01*
X142207309Y-59133500D01*
X173792691Y-59133500D01*
X173859730Y-59153185D01*
X173884840Y-59174527D01*
X173888747Y-59178866D01*
X174043248Y-59291118D01*
X174217712Y-59368794D01*
X174404513Y-59408500D01*
X174595487Y-59408500D01*
X174782288Y-59368794D01*
X174956752Y-59291118D01*
X175111253Y-59178866D01*
X175115160Y-59174527D01*
X175174646Y-59137879D01*
X175207309Y-59133500D01*
X177876000Y-59133500D01*
X177943039Y-59153185D01*
X177988794Y-59205989D01*
X178000000Y-59257500D01*
X178000000Y-63514950D01*
X177980315Y-63581989D01*
X177927511Y-63627744D01*
X177876000Y-63638950D01*
X142825762Y-63638950D01*
X142787447Y-63632882D01*
X142782287Y-63631205D01*
X142595487Y-63591500D01*
X142404513Y-63591500D01*
X142217714Y-63631205D01*
X142043246Y-63708883D01*
X141888745Y-63821135D01*
X141760959Y-63963057D01*
X141665473Y-64128443D01*
X141665470Y-64128450D01*
X141606459Y-64310068D01*
X141606458Y-64310072D01*
X141586496Y-64500000D01*
X141606458Y-64689928D01*
X141606459Y-64689931D01*
X141665470Y-64871549D01*
X141665473Y-64871556D01*
X141760960Y-65036944D01*
X141888747Y-65178866D01*
X142043248Y-65291118D01*
X142217712Y-65368794D01*
X142404513Y-65408500D01*
X142595487Y-65408500D01*
X142782288Y-65368794D01*
X142956752Y-65291118D01*
X143111253Y-65178866D01*
X143239040Y-65036944D01*
X143278874Y-64967949D01*
X143329441Y-64919734D01*
X143386261Y-64905950D01*
X153464961Y-64905950D01*
X153532000Y-64925635D01*
X153577755Y-64978439D01*
X153588281Y-65016984D01*
X153606458Y-65189928D01*
X153606459Y-65189931D01*
X153665470Y-65371549D01*
X153665473Y-65371556D01*
X153760960Y-65536944D01*
X153888747Y-65678866D01*
X154043248Y-65791118D01*
X154217712Y-65868794D01*
X154404513Y-65908500D01*
X154595487Y-65908500D01*
X154782288Y-65868794D01*
X154956752Y-65791118D01*
X154969051Y-65782181D01*
X155034858Y-65758702D01*
X155041937Y-65758500D01*
X156617500Y-65758500D01*
X156684539Y-65778185D01*
X156730294Y-65830989D01*
X156741500Y-65882500D01*
X156741500Y-75117500D01*
X156721815Y-75184539D01*
X156669011Y-75230294D01*
X156617500Y-75241500D01*
X150064294Y-75241500D01*
X150046324Y-75240191D01*
X150022206Y-75236658D01*
X149976651Y-75240645D01*
X149969573Y-75241264D01*
X149964172Y-75241500D01*
X149955819Y-75241500D01*
X149922903Y-75245347D01*
X149845574Y-75252112D01*
X149838506Y-75253572D01*
X149838496Y-75253528D01*
X149830906Y-75255210D01*
X149830917Y-75255254D01*
X149823893Y-75256919D01*
X149823887Y-75256920D01*
X149823887Y-75256921D01*
X149799414Y-75265827D01*
X149750933Y-75283473D01*
X149677257Y-75307887D01*
X149670720Y-75310936D01*
X149670700Y-75310894D01*
X149663696Y-75314285D01*
X149663717Y-75314326D01*
X149657269Y-75317564D01*
X149592394Y-75360233D01*
X149526352Y-75400967D01*
X149520683Y-75405450D01*
X149520653Y-75405413D01*
X149514627Y-75410322D01*
X149514657Y-75410357D01*
X149509132Y-75414993D01*
X149455836Y-75471482D01*
X148509122Y-76418195D01*
X148495495Y-76429973D01*
X148475941Y-76444531D01*
X148441977Y-76485006D01*
X148438330Y-76488987D01*
X148432418Y-76494900D01*
X148411863Y-76520896D01*
X148361967Y-76580360D01*
X148358001Y-76586391D01*
X148357963Y-76586366D01*
X148353782Y-76592928D01*
X148353821Y-76592952D01*
X148350032Y-76599094D01*
X148317220Y-76669459D01*
X148282391Y-76738810D01*
X148279923Y-76745593D01*
X148279878Y-76745576D01*
X148277322Y-76752932D01*
X148277366Y-76752947D01*
X148275096Y-76759795D01*
X148267244Y-76797822D01*
X148259392Y-76835850D01*
X148252128Y-76866500D01*
X148241498Y-76911351D01*
X148240661Y-76918519D01*
X148240613Y-76918513D01*
X148239823Y-76926244D01*
X148239870Y-76926249D01*
X148239240Y-76933438D01*
X148241500Y-77011079D01*
X148241500Y-85463535D01*
X148224888Y-85525534D01*
X148165472Y-85628446D01*
X148165470Y-85628450D01*
X148106459Y-85810068D01*
X148106458Y-85810072D01*
X148086496Y-86000000D01*
X148106458Y-86189928D01*
X148106459Y-86189931D01*
X148165470Y-86371549D01*
X148165473Y-86371556D01*
X148224887Y-86474463D01*
X148241500Y-86536463D01*
X148241500Y-91963535D01*
X148224888Y-92025533D01*
X148183048Y-92098004D01*
X148165472Y-92128446D01*
X148165470Y-92128450D01*
X148114333Y-92285834D01*
X148106458Y-92310072D01*
X148086496Y-92500000D01*
X148106458Y-92689928D01*
X148106459Y-92689931D01*
X148165470Y-92871549D01*
X148165473Y-92871556D01*
X148260960Y-93036944D01*
X148388747Y-93178866D01*
X148543248Y-93291118D01*
X148717712Y-93368794D01*
X148904513Y-93408500D01*
X149095487Y-93408500D01*
X149282288Y-93368794D01*
X149456752Y-93291118D01*
X149611253Y-93178866D01*
X149739040Y-93036944D01*
X149834527Y-92871556D01*
X149893542Y-92689928D01*
X149913504Y-92500000D01*
X149893542Y-92310072D01*
X149834527Y-92128444D01*
X149775111Y-92025533D01*
X149758500Y-91963535D01*
X149758500Y-86536463D01*
X149775113Y-86474463D01*
X149834527Y-86371556D01*
X149893542Y-86189928D01*
X149913504Y-86000000D01*
X149893542Y-85810072D01*
X149834527Y-85628444D01*
X149775111Y-85525533D01*
X149758500Y-85463535D01*
X149758500Y-77365543D01*
X149778185Y-77298504D01*
X149794813Y-77277867D01*
X149906739Y-77165941D01*
X149968058Y-77132459D01*
X150037750Y-77137443D01*
X150093684Y-77179314D01*
X150118101Y-77244778D01*
X150112348Y-77291941D01*
X150106458Y-77310072D01*
X150086496Y-77500000D01*
X150106458Y-77689928D01*
X150106459Y-77689931D01*
X150165470Y-77871549D01*
X150165473Y-77871556D01*
X150260960Y-78036944D01*
X150388747Y-78178866D01*
X150543248Y-78291118D01*
X150717712Y-78368794D01*
X150904513Y-78408500D01*
X151095487Y-78408500D01*
X151282288Y-78368794D01*
X151456752Y-78291118D01*
X151611253Y-78178866D01*
X151615160Y-78174527D01*
X151674646Y-78137879D01*
X151707309Y-78133500D01*
X156292691Y-78133500D01*
X156359730Y-78153185D01*
X156384840Y-78174527D01*
X156388747Y-78178866D01*
X156543248Y-78291118D01*
X156717712Y-78368794D01*
X156904513Y-78408500D01*
X157095487Y-78408500D01*
X157282288Y-78368794D01*
X157456752Y-78291118D01*
X157611253Y-78178866D01*
X157739040Y-78036944D01*
X157834527Y-77871556D01*
X157893542Y-77689928D01*
X157913504Y-77500000D01*
X157893542Y-77310072D01*
X157834527Y-77128444D01*
X157739040Y-76963056D01*
X157735222Y-76957801D01*
X157736937Y-76956554D01*
X157710987Y-76902490D01*
X157719607Y-76833154D01*
X157764344Y-76779485D01*
X157830995Y-76758523D01*
X157833365Y-76758500D01*
X165965668Y-76758500D01*
X166032707Y-76778185D01*
X166038554Y-76782182D01*
X166048115Y-76789129D01*
X166115086Y-76818945D01*
X166222578Y-76866804D01*
X166409379Y-76906510D01*
X166600353Y-76906510D01*
X166787154Y-76866804D01*
X166961618Y-76789128D01*
X167116119Y-76676876D01*
X167243906Y-76534954D01*
X167339393Y-76369566D01*
X167398408Y-76187938D01*
X167418370Y-75998010D01*
X167398408Y-75808082D01*
X167339393Y-75626454D01*
X167243906Y-75461066D01*
X167116119Y-75319144D01*
X166961618Y-75206892D01*
X166787154Y-75129216D01*
X166787152Y-75129215D01*
X166600353Y-75089510D01*
X166409379Y-75089510D01*
X166222580Y-75129215D01*
X166048115Y-75206890D01*
X166033076Y-75217818D01*
X165967269Y-75241298D01*
X165960190Y-75241500D01*
X158382500Y-75241500D01*
X158315461Y-75221815D01*
X158269706Y-75169011D01*
X158258500Y-75117500D01*
X158258500Y-65882500D01*
X158278185Y-65815461D01*
X158330989Y-65769706D01*
X158382500Y-65758500D01*
X159911334Y-65758500D01*
X159958063Y-65758500D01*
X160025102Y-65778185D01*
X160030949Y-65782182D01*
X160043249Y-65791119D01*
X160110220Y-65820935D01*
X160217712Y-65868794D01*
X160404513Y-65908500D01*
X160595487Y-65908500D01*
X160782288Y-65868794D01*
X160956752Y-65791118D01*
X161111253Y-65678866D01*
X161239040Y-65536944D01*
X161334527Y-65371556D01*
X161393542Y-65189928D01*
X161411718Y-65016986D01*
X161438303Y-64952374D01*
X161495600Y-64912389D01*
X161535039Y-64905950D01*
X177876000Y-64905950D01*
X177943039Y-64925635D01*
X177988794Y-64978439D01*
X178000000Y-65029950D01*
X178000000Y-65314726D01*
X177987720Y-65368527D01*
X177921457Y-65506123D01*
X177844125Y-65756826D01*
X177844124Y-65756831D01*
X177844123Y-65756835D01*
X177832946Y-65830989D01*
X177805019Y-66016262D01*
X177805019Y-66278637D01*
X177825313Y-66413273D01*
X177844123Y-66538065D01*
X177844124Y-66538067D01*
X177844125Y-66538073D01*
X177921457Y-66788776D01*
X177987720Y-66926372D01*
X178000000Y-66980173D01*
X178000000Y-68401714D01*
X177983388Y-68463713D01*
X177979767Y-68469983D01*
X177910973Y-68668750D01*
X177910972Y-68668755D01*
X177910972Y-68668756D01*
X177881037Y-68876957D01*
X177891046Y-69087061D01*
X177940636Y-69291473D01*
X177988794Y-69396926D01*
X178000000Y-69448435D01*
X178000000Y-87783201D01*
X177980315Y-87850240D01*
X177927511Y-87895995D01*
X177876000Y-87907201D01*
X166354468Y-87907201D01*
X166287429Y-87887516D01*
X166266787Y-87870882D01*
X163169819Y-84773914D01*
X163136334Y-84712591D01*
X163133500Y-84686233D01*
X163133500Y-83689103D01*
X163153185Y-83622064D01*
X163165346Y-83606135D01*
X163239040Y-83524291D01*
X163334527Y-83358903D01*
X163393542Y-83177275D01*
X163413504Y-82987347D01*
X163393542Y-82797419D01*
X163334527Y-82615791D01*
X163239040Y-82450403D01*
X163111253Y-82308481D01*
X162956752Y-82196229D01*
X162782288Y-82118553D01*
X162782286Y-82118552D01*
X162595487Y-82078847D01*
X162404513Y-82078847D01*
X162217714Y-82118552D01*
X162217712Y-82118553D01*
X162142068Y-82152232D01*
X162096372Y-82172577D01*
X162027122Y-82181861D01*
X161963846Y-82152232D01*
X161926633Y-82093097D01*
X161922616Y-82046339D01*
X161926157Y-82012653D01*
X161906195Y-81822725D01*
X161847180Y-81641097D01*
X161751693Y-81475709D01*
X161623906Y-81333787D01*
X161469405Y-81221535D01*
X161294941Y-81143859D01*
X161294939Y-81143858D01*
X161108140Y-81104153D01*
X160917166Y-81104153D01*
X160730367Y-81143858D01*
X160555899Y-81221536D01*
X160401398Y-81333788D01*
X160273612Y-81475710D01*
X160178126Y-81641096D01*
X160178123Y-81641103D01*
X160123222Y-81810072D01*
X160119111Y-81822725D01*
X160099149Y-82012653D01*
X160119111Y-82202581D01*
X160119112Y-82202584D01*
X160178123Y-82384202D01*
X160178126Y-82384209D01*
X160266307Y-82536944D01*
X160273613Y-82549597D01*
X160347302Y-82631437D01*
X160377533Y-82694428D01*
X160379153Y-82714409D01*
X160379153Y-89429019D01*
X160377414Y-89444766D01*
X160377685Y-89444792D01*
X160376951Y-89452558D01*
X160379153Y-89522610D01*
X160379153Y-89552512D01*
X160380037Y-89559509D01*
X160380495Y-89565332D01*
X160381979Y-89612542D01*
X160381980Y-89612544D01*
X160387675Y-89632148D01*
X160391620Y-89651195D01*
X160394179Y-89671450D01*
X160394180Y-89671453D01*
X160394181Y-89671456D01*
X160411567Y-89715369D01*
X160413459Y-89720897D01*
X160426634Y-89766245D01*
X160437025Y-89783815D01*
X160445585Y-89801288D01*
X160453100Y-89820270D01*
X160480862Y-89858480D01*
X160484069Y-89863363D01*
X160508111Y-89904015D01*
X160508115Y-89904019D01*
X160522542Y-89918446D01*
X160535179Y-89933241D01*
X160547181Y-89949760D01*
X160583584Y-89979875D01*
X160587884Y-89983788D01*
X162332220Y-91728125D01*
X162758914Y-92154819D01*
X162792399Y-92216142D01*
X162787415Y-92285834D01*
X162745543Y-92341767D01*
X162680079Y-92366184D01*
X162671233Y-92366500D01*
X161007309Y-92366500D01*
X160940270Y-92346815D01*
X160915160Y-92325473D01*
X160911254Y-92321135D01*
X160896028Y-92310072D01*
X160756752Y-92208882D01*
X160582288Y-92131206D01*
X160582286Y-92131205D01*
X160395487Y-92091500D01*
X160204513Y-92091500D01*
X160017714Y-92131205D01*
X159843246Y-92208883D01*
X159688745Y-92321135D01*
X159560959Y-92463057D01*
X159465473Y-92628443D01*
X159465470Y-92628450D01*
X159445495Y-92689928D01*
X159406458Y-92810072D01*
X159399997Y-92871549D01*
X159385817Y-93006463D01*
X159383186Y-93006186D01*
X159366811Y-93061955D01*
X159314007Y-93107710D01*
X159288278Y-93116206D01*
X159217713Y-93131205D01*
X159110670Y-93178864D01*
X159069222Y-93197318D01*
X159043244Y-93208884D01*
X158888745Y-93321135D01*
X158842150Y-93372885D01*
X158782663Y-93409534D01*
X158712806Y-93408203D01*
X158657850Y-93372885D01*
X158611254Y-93321135D01*
X158569940Y-93291118D01*
X158456752Y-93208882D01*
X158282288Y-93131206D01*
X158282286Y-93131205D01*
X158095487Y-93091500D01*
X157904513Y-93091500D01*
X157717714Y-93131205D01*
X157543246Y-93208883D01*
X157388745Y-93321135D01*
X157260959Y-93463057D01*
X157165473Y-93628443D01*
X157165470Y-93628450D01*
X157111090Y-93795816D01*
X157106458Y-93810072D01*
X157086496Y-94000000D01*
X157106458Y-94189928D01*
X157106459Y-94189931D01*
X157165470Y-94371549D01*
X157165473Y-94371556D01*
X157260958Y-94536942D01*
X157260960Y-94536944D01*
X157334649Y-94618784D01*
X157364880Y-94681775D01*
X157366500Y-94701756D01*
X157366500Y-98781583D01*
X157346815Y-98848622D01*
X157294011Y-98894377D01*
X157224853Y-98904321D01*
X157161297Y-98875296D01*
X157150351Y-98864556D01*
X157111254Y-98821135D01*
X156956753Y-98708883D01*
X156956752Y-98708882D01*
X156782288Y-98631206D01*
X156782286Y-98631205D01*
X156595487Y-98591500D01*
X156404513Y-98591500D01*
X156217714Y-98631205D01*
X156043246Y-98708883D01*
X155888745Y-98821135D01*
X155884840Y-98825473D01*
X155825354Y-98862121D01*
X155792691Y-98866500D01*
X148813767Y-98866500D01*
X148746728Y-98846815D01*
X148726086Y-98830181D01*
X148371391Y-98475486D01*
X148337906Y-98414163D01*
X148336856Y-98366851D01*
X148358500Y-98240625D01*
X148358500Y-97817287D01*
X148358500Y-97817281D01*
X148343802Y-97644586D01*
X148285530Y-97420793D01*
X148285529Y-97420789D01*
X148190283Y-97210080D01*
X148190276Y-97210068D01*
X148060790Y-97018486D01*
X148060786Y-97018481D01*
X148060783Y-97018477D01*
X147900772Y-96851524D01*
X147714847Y-96714015D01*
X147714846Y-96714014D01*
X147714844Y-96714013D01*
X147508358Y-96609905D01*
X147380888Y-96570867D01*
X147287243Y-96542189D01*
X147287241Y-96542188D01*
X147287242Y-96542188D01*
X147057859Y-96512815D01*
X146826827Y-96522630D01*
X146826821Y-96522630D01*
X146600759Y-96571351D01*
X146386190Y-96657572D01*
X146189270Y-96778820D01*
X146015679Y-96931599D01*
X146015672Y-96931605D01*
X145870404Y-97111517D01*
X145870397Y-97111527D01*
X145856968Y-97135567D01*
X145807089Y-97184493D01*
X145738675Y-97198685D01*
X145673450Y-97173637D01*
X145645980Y-97144529D01*
X145560790Y-97018487D01*
X145560788Y-97018485D01*
X145560783Y-97018477D01*
X145400772Y-96851524D01*
X145214847Y-96714015D01*
X145214846Y-96714014D01*
X145214844Y-96714013D01*
X145008358Y-96609905D01*
X144880888Y-96570867D01*
X144787243Y-96542189D01*
X144787241Y-96542188D01*
X144787242Y-96542188D01*
X144557859Y-96512815D01*
X144326827Y-96522630D01*
X144326821Y-96522630D01*
X144100759Y-96571351D01*
X143886190Y-96657572D01*
X143689270Y-96778820D01*
X143515679Y-96931599D01*
X143515672Y-96931605D01*
X143370404Y-97111517D01*
X143370397Y-97111527D01*
X143356968Y-97135567D01*
X143307089Y-97184493D01*
X143238675Y-97198685D01*
X143173450Y-97173637D01*
X143145980Y-97144529D01*
X143060790Y-97018487D01*
X143060788Y-97018485D01*
X143060783Y-97018477D01*
X142900772Y-96851524D01*
X142714847Y-96714015D01*
X142714846Y-96714014D01*
X142714844Y-96714013D01*
X142508358Y-96609905D01*
X142380888Y-96570867D01*
X142287243Y-96542189D01*
X142287241Y-96542188D01*
X142287242Y-96542188D01*
X142057859Y-96512815D01*
X141826827Y-96522630D01*
X141826821Y-96522630D01*
X141600759Y-96571351D01*
X141386190Y-96657572D01*
X141189270Y-96778820D01*
X141015679Y-96931599D01*
X141015671Y-96931607D01*
X140986096Y-96968235D01*
X140928665Y-97008028D01*
X140858838Y-97010453D01*
X140798784Y-96974742D01*
X140784082Y-96955432D01*
X140692315Y-96806654D01*
X140568345Y-96682684D01*
X140419124Y-96590643D01*
X140419119Y-96590641D01*
X140252697Y-96535494D01*
X140252690Y-96535493D01*
X140149986Y-96525000D01*
X139750000Y-96525000D01*
X139750000Y-97591981D01*
X139635199Y-97539554D01*
X139533975Y-97525000D01*
X139466025Y-97525000D01*
X139364801Y-97539554D01*
X139250000Y-97591981D01*
X139250000Y-96525000D01*
X138901021Y-96525000D01*
X138833982Y-96505315D01*
X138788227Y-96452511D01*
X138777203Y-96407712D01*
X138774200Y-96352322D01*
X138769061Y-96257525D01*
X138718114Y-96074033D01*
X138628914Y-95905784D01*
X138628911Y-95905781D01*
X138628911Y-95905779D01*
X138571148Y-95837776D01*
X138542750Y-95773938D01*
X138553374Y-95704880D01*
X138599647Y-95652529D01*
X138665656Y-95633500D01*
X152916366Y-95633500D01*
X152932113Y-95635238D01*
X152932139Y-95634968D01*
X152939905Y-95635701D01*
X152939909Y-95635702D01*
X153009958Y-95633500D01*
X153039856Y-95633500D01*
X153039857Y-95633500D01*
X153041222Y-95633327D01*
X153046862Y-95632614D01*
X153052685Y-95632156D01*
X153078708Y-95631338D01*
X153099890Y-95630673D01*
X153109681Y-95627827D01*
X153119481Y-95624980D01*
X153138538Y-95621032D01*
X153158797Y-95618474D01*
X153202721Y-95601082D01*
X153208221Y-95599199D01*
X153253593Y-95586018D01*
X153271165Y-95575625D01*
X153288632Y-95567068D01*
X153307617Y-95559552D01*
X153345826Y-95531790D01*
X153350704Y-95528585D01*
X153391362Y-95504542D01*
X153405802Y-95490100D01*
X153420592Y-95477470D01*
X153437107Y-95465472D01*
X153467222Y-95429067D01*
X153471126Y-95424776D01*
X158451085Y-90444819D01*
X158512408Y-90411334D01*
X158538766Y-90408500D01*
X158595487Y-90408500D01*
X158782288Y-90368794D01*
X158956752Y-90291118D01*
X159111253Y-90178866D01*
X159239040Y-90036944D01*
X159334527Y-89871556D01*
X159393542Y-89689928D01*
X159413504Y-89500000D01*
X159393542Y-89310072D01*
X159334527Y-89128444D01*
X159239040Y-88963056D01*
X159111253Y-88821134D01*
X158956752Y-88708882D01*
X158782288Y-88631206D01*
X158782286Y-88631205D01*
X158595487Y-88591500D01*
X158404513Y-88591500D01*
X158217714Y-88631205D01*
X158043246Y-88708883D01*
X157888745Y-88821135D01*
X157760959Y-88963057D01*
X157665473Y-89128443D01*
X157665470Y-89128450D01*
X157606459Y-89310068D01*
X157606458Y-89310072D01*
X157592517Y-89442711D01*
X157589019Y-89475996D01*
X157562434Y-89540610D01*
X157553379Y-89550715D01*
X152773914Y-94330181D01*
X152712591Y-94363666D01*
X152686233Y-94366500D01*
X137124000Y-94366500D01*
X137056961Y-94346815D01*
X137011206Y-94294011D01*
X137000000Y-94242500D01*
X137000000Y-80695266D01*
X137019685Y-80628227D01*
X137072489Y-80582472D01*
X137141647Y-80572528D01*
X137205203Y-80601553D01*
X137211681Y-80607585D01*
X138553378Y-81949282D01*
X138586863Y-82010605D01*
X138589018Y-82024001D01*
X138594783Y-82078847D01*
X138606458Y-82189928D01*
X138606459Y-82189931D01*
X138665470Y-82371549D01*
X138665473Y-82371556D01*
X138760960Y-82536944D01*
X138888747Y-82678866D01*
X139043248Y-82791118D01*
X139217712Y-82868794D01*
X139404513Y-82908500D01*
X139595487Y-82908500D01*
X139782288Y-82868794D01*
X139956752Y-82791118D01*
X140111253Y-82678866D01*
X140239040Y-82536944D01*
X140334527Y-82371556D01*
X140393542Y-82189928D01*
X140413504Y-82000000D01*
X140393542Y-81810072D01*
X140334527Y-81628444D01*
X140239040Y-81463056D01*
X140111253Y-81321134D01*
X139956752Y-81208882D01*
X139782288Y-81131206D01*
X139782286Y-81131205D01*
X139595487Y-81091500D01*
X139538767Y-81091500D01*
X139471728Y-81071815D01*
X139451086Y-81055181D01*
X137782585Y-79386680D01*
X137772684Y-79374320D01*
X137772474Y-79374495D01*
X137767499Y-79368483D01*
X137767497Y-79368479D01*
X137741155Y-79343742D01*
X137716419Y-79320513D01*
X137695265Y-79299360D01*
X137693289Y-79297828D01*
X137689680Y-79295028D01*
X137685247Y-79291241D01*
X137650818Y-79258911D01*
X137650816Y-79258909D01*
X137632928Y-79249075D01*
X137616667Y-79238394D01*
X137600536Y-79225881D01*
X137557190Y-79207124D01*
X137551942Y-79204553D01*
X137524748Y-79189603D01*
X137510557Y-79181802D01*
X137507157Y-79180929D01*
X137490784Y-79176725D01*
X137472378Y-79170423D01*
X137453641Y-79162315D01*
X137453643Y-79162315D01*
X137406993Y-79154927D01*
X137401278Y-79153743D01*
X137381109Y-79148565D01*
X137355529Y-79141997D01*
X137355527Y-79141997D01*
X137335113Y-79141997D01*
X137315714Y-79140470D01*
X137295555Y-79137277D01*
X137295554Y-79137277D01*
X137248531Y-79141722D01*
X137242693Y-79141997D01*
X137124000Y-79141997D01*
X137056961Y-79122312D01*
X137011206Y-79069508D01*
X137000000Y-79017997D01*
X137000000Y-75757500D01*
X137019685Y-75690461D01*
X137072489Y-75644706D01*
X137124000Y-75633500D01*
X141792687Y-75633500D01*
X141859726Y-75653185D01*
X141884835Y-75674526D01*
X141888744Y-75678867D01*
X141888747Y-75678870D01*
X142043248Y-75791122D01*
X142217712Y-75868798D01*
X142404513Y-75908504D01*
X142595487Y-75908504D01*
X142782288Y-75868798D01*
X142956752Y-75791122D01*
X143111253Y-75678870D01*
X143239040Y-75536948D01*
X143334527Y-75371560D01*
X143393542Y-75189932D01*
X143413504Y-75000004D01*
X143393542Y-74810076D01*
X143334527Y-74628448D01*
X143239040Y-74463060D01*
X143111253Y-74321138D01*
X142956752Y-74208886D01*
X142782288Y-74131210D01*
X142782286Y-74131209D01*
X142595487Y-74091504D01*
X142404513Y-74091504D01*
X142217714Y-74131209D01*
X142043246Y-74208887D01*
X141888746Y-74321138D01*
X141886211Y-74323954D01*
X141884845Y-74325470D01*
X141825361Y-74362120D01*
X141792695Y-74366500D01*
X140205957Y-74366500D01*
X140138918Y-74346815D01*
X140093163Y-74294011D01*
X140083219Y-74224853D01*
X140088024Y-74204187D01*
X140118542Y-74110265D01*
X140138504Y-73920337D01*
X140118542Y-73730409D01*
X140059527Y-73548781D01*
X139964040Y-73383393D01*
X139836253Y-73241471D01*
X139681752Y-73129219D01*
X139507288Y-73051543D01*
X139507286Y-73051542D01*
X139320487Y-73011837D01*
X139129513Y-73011837D01*
X138972752Y-73045157D01*
X138903085Y-73039841D01*
X138847351Y-72997704D01*
X138823246Y-72932124D01*
X138832905Y-72877862D01*
X138832519Y-72877737D01*
X138833422Y-72874955D01*
X138833696Y-72873421D01*
X138834522Y-72871564D01*
X138834527Y-72871556D01*
X138893542Y-72689928D01*
X138913504Y-72500000D01*
X138893542Y-72310072D01*
X138834527Y-72128444D01*
X138739040Y-71963056D01*
X138611253Y-71821134D01*
X138456752Y-71708882D01*
X138282288Y-71631206D01*
X138282286Y-71631205D01*
X138095487Y-71591500D01*
X137904513Y-71591500D01*
X137717714Y-71631205D01*
X137543246Y-71708883D01*
X137388745Y-71821135D01*
X137384840Y-71825473D01*
X137325354Y-71862121D01*
X137292691Y-71866500D01*
X137124000Y-71866500D01*
X137056961Y-71846815D01*
X137011206Y-71794011D01*
X137000000Y-71742500D01*
X137000000Y-69503937D01*
X137016613Y-69441937D01*
X137042602Y-69396923D01*
X137113329Y-69274420D01*
X137182125Y-69075647D01*
X137212060Y-68867446D01*
X137202051Y-68657342D01*
X137152461Y-68452930D01*
X137065082Y-68261596D01*
X137024821Y-68205058D01*
X137022993Y-68202490D01*
X137000140Y-68136463D01*
X137000000Y-68130563D01*
X137000000Y-61257500D01*
X137019685Y-61190461D01*
X137072489Y-61144706D01*
X137124000Y-61133500D01*
X139792691Y-61133500D01*
X139859730Y-61153185D01*
X139884840Y-61174527D01*
X139888747Y-61178866D01*
X140043248Y-61291118D01*
X140217712Y-61368794D01*
X140404513Y-61408500D01*
X140595487Y-61408500D01*
X140782288Y-61368794D01*
X140956752Y-61291118D01*
X141111253Y-61178866D01*
X141239040Y-61036944D01*
X141334527Y-60871556D01*
X141393542Y-60689928D01*
X141413504Y-60500000D01*
X141393542Y-60310072D01*
X141334527Y-60128444D01*
X141239040Y-59963056D01*
X141111253Y-59821134D01*
X140956752Y-59708882D01*
X140782288Y-59631206D01*
X140782286Y-59631205D01*
X140595487Y-59591500D01*
X140404513Y-59591500D01*
X140217714Y-59631205D01*
X140043246Y-59708883D01*
X139888745Y-59821135D01*
X139884840Y-59825473D01*
X139825354Y-59862121D01*
X139792691Y-59866500D01*
X137124000Y-59866500D01*
X137056961Y-59846815D01*
X137011206Y-59794011D01*
X137000000Y-59742500D01*
X137000000Y-59257500D01*
X137019685Y-59190461D01*
X137072489Y-59144706D01*
X137124000Y-59133500D01*
X140792691Y-59133500D01*
X140859730Y-59153185D01*
G37*
%TD.AperFunction*%
%TA.AperFunction,Conductor*%
G36*
X161851356Y-85120630D02*
G01*
X161885447Y-85168700D01*
X161898914Y-85202718D01*
X161900806Y-85208244D01*
X161913981Y-85253592D01*
X161924372Y-85271162D01*
X161932932Y-85288635D01*
X161940447Y-85307617D01*
X161968209Y-85345827D01*
X161971416Y-85350710D01*
X161995458Y-85391362D01*
X161995462Y-85391366D01*
X162009889Y-85405793D01*
X162022526Y-85420588D01*
X162034528Y-85437107D01*
X162070931Y-85467222D01*
X162075231Y-85471135D01*
X163897239Y-87293143D01*
X165533611Y-88929515D01*
X165543517Y-88941879D01*
X165543727Y-88941706D01*
X165548702Y-88947720D01*
X165599795Y-88995700D01*
X165620926Y-89016830D01*
X165620931Y-89016835D01*
X165626503Y-89021157D01*
X165630943Y-89024950D01*
X165665379Y-89057287D01*
X165683268Y-89067121D01*
X165699534Y-89077805D01*
X165715660Y-89090314D01*
X165758999Y-89109068D01*
X165764247Y-89111640D01*
X165804626Y-89133838D01*
X165853890Y-89183385D01*
X165868546Y-89251700D01*
X165843942Y-89317094D01*
X165787889Y-89358805D01*
X165744888Y-89366500D01*
X164556465Y-89366500D01*
X164489426Y-89346815D01*
X164443671Y-89294011D01*
X164433145Y-89255464D01*
X164423119Y-89160072D01*
X164364104Y-88978444D01*
X164268617Y-88813056D01*
X164140830Y-88671134D01*
X163986329Y-88558882D01*
X163811865Y-88481206D01*
X163811863Y-88481205D01*
X163625064Y-88441500D01*
X163434090Y-88441500D01*
X163247291Y-88481205D01*
X163072823Y-88558883D01*
X162918322Y-88671135D01*
X162790536Y-88813057D01*
X162695050Y-88978443D01*
X162695047Y-88978450D01*
X162641939Y-89141900D01*
X162636035Y-89160072D01*
X162616073Y-89350000D01*
X162636035Y-89539928D01*
X162636036Y-89539931D01*
X162695047Y-89721549D01*
X162695050Y-89721556D01*
X162790537Y-89886944D01*
X162918324Y-90028866D01*
X163072825Y-90141118D01*
X163247289Y-90218794D01*
X163434090Y-90258500D01*
X163490810Y-90258500D01*
X163557849Y-90278185D01*
X163578491Y-90294819D01*
X163672490Y-90388818D01*
X163682399Y-90401185D01*
X163682609Y-90401012D01*
X163687582Y-90407024D01*
X163738656Y-90454984D01*
X163759801Y-90476130D01*
X163765390Y-90480466D01*
X163769822Y-90484252D01*
X163801736Y-90514220D01*
X163804257Y-90516587D01*
X163822139Y-90526417D01*
X163838406Y-90537102D01*
X163854537Y-90549615D01*
X163876415Y-90559081D01*
X163897884Y-90568371D01*
X163903110Y-90570931D01*
X163944517Y-90593695D01*
X163964293Y-90598772D01*
X163982701Y-90605075D01*
X164001427Y-90613179D01*
X164001429Y-90613180D01*
X164001430Y-90613180D01*
X164001432Y-90613181D01*
X164042361Y-90619663D01*
X164048080Y-90620569D01*
X164053789Y-90621751D01*
X164099547Y-90633500D01*
X164119961Y-90633500D01*
X164139360Y-90635027D01*
X164159520Y-90638220D01*
X164206543Y-90633775D01*
X164212381Y-90633500D01*
X177876000Y-90633500D01*
X177943039Y-90653185D01*
X177988794Y-90705989D01*
X178000000Y-90757500D01*
X178000000Y-91242500D01*
X177980315Y-91309539D01*
X177927511Y-91355294D01*
X177876000Y-91366500D01*
X163813766Y-91366500D01*
X163746727Y-91346815D01*
X163726085Y-91330181D01*
X161682472Y-89286567D01*
X161648987Y-89225244D01*
X161646153Y-89198886D01*
X161646153Y-85214343D01*
X161665838Y-85147304D01*
X161718642Y-85101549D01*
X161787800Y-85091605D01*
X161851356Y-85120630D01*
G37*
%TD.AperFunction*%
%TA.AperFunction,Conductor*%
G36*
X177943039Y-46219186D02*
G01*
X177988794Y-46271990D01*
X178000000Y-46323501D01*
X178000000Y-57742500D01*
X177980315Y-57809539D01*
X177927511Y-57855294D01*
X177876000Y-57866500D01*
X175207309Y-57866500D01*
X175140270Y-57846815D01*
X175115160Y-57825473D01*
X175111254Y-57821135D01*
X175073922Y-57794011D01*
X174956752Y-57708882D01*
X174782288Y-57631206D01*
X174782286Y-57631205D01*
X174595487Y-57591500D01*
X174404513Y-57591500D01*
X174217714Y-57631205D01*
X174043246Y-57708883D01*
X173888745Y-57821135D01*
X173884840Y-57825473D01*
X173825354Y-57862121D01*
X173792691Y-57866500D01*
X142207309Y-57866500D01*
X142140270Y-57846815D01*
X142115160Y-57825473D01*
X142111254Y-57821135D01*
X142073922Y-57794011D01*
X141956752Y-57708882D01*
X141782288Y-57631206D01*
X141782286Y-57631205D01*
X141595487Y-57591500D01*
X141404513Y-57591500D01*
X141217714Y-57631205D01*
X141043246Y-57708883D01*
X140888745Y-57821135D01*
X140884840Y-57825473D01*
X140825354Y-57862121D01*
X140792691Y-57866500D01*
X137124000Y-57866500D01*
X137056961Y-57846815D01*
X137011206Y-57794011D01*
X137000000Y-57742500D01*
X137000000Y-54500000D01*
X148586496Y-54500000D01*
X148606458Y-54689928D01*
X148606459Y-54689931D01*
X148665470Y-54871549D01*
X148665473Y-54871556D01*
X148760960Y-55036944D01*
X148888747Y-55178866D01*
X149043248Y-55291118D01*
X149217712Y-55368794D01*
X149404513Y-55408500D01*
X149461234Y-55408500D01*
X149528273Y-55428185D01*
X149548915Y-55444819D01*
X149902910Y-55798814D01*
X149912816Y-55811178D01*
X149913026Y-55811005D01*
X149918001Y-55817019D01*
X149969094Y-55864999D01*
X149990225Y-55886129D01*
X149990230Y-55886134D01*
X149995802Y-55890456D01*
X150000242Y-55894249D01*
X150034678Y-55926586D01*
X150052567Y-55936420D01*
X150068833Y-55947104D01*
X150084959Y-55959613D01*
X150128298Y-55978367D01*
X150133545Y-55980937D01*
X150174940Y-56003695D01*
X150194718Y-56008773D01*
X150213121Y-56015074D01*
X150231852Y-56023180D01*
X150231853Y-56023180D01*
X150231855Y-56023181D01*
X150259250Y-56027519D01*
X150278497Y-56030568D01*
X150284213Y-56031751D01*
X150329970Y-56043500D01*
X150350390Y-56043500D01*
X150369789Y-56045027D01*
X150389941Y-56048218D01*
X150389942Y-56048219D01*
X150389942Y-56048218D01*
X150389943Y-56048219D01*
X150436959Y-56043775D01*
X150442796Y-56043500D01*
X153702691Y-56043500D01*
X153769730Y-56063185D01*
X153794840Y-56084527D01*
X153798747Y-56088866D01*
X153953248Y-56201118D01*
X154127712Y-56278794D01*
X154314513Y-56318500D01*
X154505487Y-56318500D01*
X154692288Y-56278794D01*
X154713792Y-56269220D01*
X154764227Y-56258500D01*
X160958063Y-56258500D01*
X161025102Y-56278185D01*
X161030949Y-56282182D01*
X161043249Y-56291119D01*
X161104749Y-56318500D01*
X161217712Y-56368794D01*
X161404513Y-56408500D01*
X161595487Y-56408500D01*
X161782288Y-56368794D01*
X161956752Y-56291118D01*
X162111253Y-56178866D01*
X162239040Y-56036944D01*
X162334527Y-55871556D01*
X162393542Y-55689928D01*
X162413504Y-55500000D01*
X162393542Y-55310072D01*
X162334527Y-55128444D01*
X162333381Y-55126459D01*
X162333068Y-55125169D01*
X162331886Y-55122514D01*
X162332371Y-55122297D01*
X162316910Y-55058562D01*
X162339763Y-54992535D01*
X162382313Y-54955107D01*
X162506960Y-54888482D01*
X162664331Y-54759331D01*
X162793482Y-54601960D01*
X162889450Y-54422417D01*
X162948546Y-54227601D01*
X162963500Y-54075775D01*
X162963500Y-52924225D01*
X162948546Y-52772399D01*
X162889450Y-52577583D01*
X162881495Y-52562700D01*
X162793485Y-52398045D01*
X162793483Y-52398043D01*
X162793482Y-52398040D01*
X162712939Y-52299898D01*
X162664331Y-52240668D01*
X162506961Y-52111519D01*
X162506954Y-52111514D01*
X162327424Y-52015553D01*
X162327421Y-52015552D01*
X162327420Y-52015551D01*
X162327417Y-52015550D01*
X162132601Y-51956454D01*
X162132599Y-51956453D01*
X162132601Y-51956453D01*
X161930000Y-51936499D01*
X161727400Y-51956453D01*
X161612374Y-51991345D01*
X161532583Y-52015550D01*
X161532580Y-52015551D01*
X161532578Y-52015552D01*
X161532575Y-52015553D01*
X161353045Y-52111514D01*
X161353038Y-52111519D01*
X161195668Y-52240668D01*
X161066519Y-52398038D01*
X161066513Y-52398045D01*
X161017429Y-52489877D01*
X160968467Y-52539722D01*
X160900329Y-52555182D01*
X160834649Y-52531350D01*
X160832629Y-52529834D01*
X160790233Y-52497302D01*
X160790229Y-52497300D01*
X160726801Y-52471027D01*
X160650236Y-52439313D01*
X160636171Y-52437461D01*
X160537727Y-52424500D01*
X160537720Y-52424500D01*
X160462280Y-52424500D01*
X160462272Y-52424500D01*
X160349764Y-52439313D01*
X160349763Y-52439313D01*
X160209770Y-52497300D01*
X160209767Y-52497301D01*
X160209767Y-52497302D01*
X160089549Y-52589549D01*
X160089547Y-52589550D01*
X160089546Y-52589552D01*
X160067698Y-52618024D01*
X160011269Y-52659226D01*
X159941523Y-52663379D01*
X159880604Y-52629166D01*
X159851394Y-52580855D01*
X159834527Y-52528944D01*
X159739040Y-52363556D01*
X159611253Y-52221634D01*
X159456752Y-52109382D01*
X159282288Y-52031706D01*
X159282286Y-52031705D01*
X159095487Y-51992000D01*
X159038766Y-51992000D01*
X158971727Y-51972315D01*
X158951085Y-51955681D01*
X157606588Y-50611183D01*
X157596687Y-50598823D01*
X157596477Y-50598998D01*
X157591502Y-50592986D01*
X157591500Y-50592982D01*
X157565157Y-50568245D01*
X157540421Y-50545015D01*
X157519268Y-50523863D01*
X157517292Y-50522331D01*
X157513683Y-50519531D01*
X157509250Y-50515744D01*
X157474821Y-50483414D01*
X157474819Y-50483412D01*
X157456931Y-50473578D01*
X157440670Y-50462897D01*
X157424539Y-50450384D01*
X157381193Y-50431627D01*
X157375945Y-50429056D01*
X157348751Y-50414106D01*
X157334560Y-50406305D01*
X157331160Y-50405432D01*
X157314787Y-50401228D01*
X157296381Y-50394926D01*
X157277644Y-50386818D01*
X157277646Y-50386818D01*
X157230996Y-50379430D01*
X157225281Y-50378246D01*
X157205112Y-50373068D01*
X157179532Y-50366500D01*
X157179530Y-50366500D01*
X157159116Y-50366500D01*
X157139717Y-50364973D01*
X157119558Y-50361780D01*
X157119557Y-50361780D01*
X157072534Y-50366225D01*
X157066696Y-50366500D01*
X154345296Y-50366500D01*
X154278257Y-50346815D01*
X154232502Y-50294011D01*
X154222558Y-50224853D01*
X154226635Y-50206505D01*
X154283908Y-50017701D01*
X154298500Y-49869547D01*
X154298500Y-49869543D01*
X160921500Y-49869543D01*
X160936091Y-50017699D01*
X160993760Y-50207808D01*
X161087401Y-50382998D01*
X161087405Y-50383005D01*
X161213431Y-50536568D01*
X161366994Y-50662594D01*
X161367001Y-50662598D01*
X161542191Y-50756239D01*
X161542193Y-50756239D01*
X161542196Y-50756241D01*
X161732299Y-50813908D01*
X161732298Y-50813908D01*
X161750024Y-50815653D01*
X161930000Y-50833380D01*
X162127701Y-50813908D01*
X162317804Y-50756241D01*
X162493004Y-50662595D01*
X162646568Y-50536568D01*
X162772595Y-50383004D01*
X162866241Y-50207804D01*
X162923908Y-50017701D01*
X162938500Y-49869547D01*
X162938500Y-48770453D01*
X162923908Y-48622299D01*
X162866241Y-48432196D01*
X162866239Y-48432193D01*
X162866239Y-48432191D01*
X162772598Y-48257001D01*
X162772594Y-48256994D01*
X162646568Y-48103431D01*
X162493005Y-47977405D01*
X162492998Y-47977401D01*
X162317808Y-47883760D01*
X162222752Y-47854925D01*
X162127701Y-47826092D01*
X162127699Y-47826091D01*
X162127701Y-47826091D01*
X161930000Y-47806620D01*
X161732300Y-47826091D01*
X161542191Y-47883760D01*
X161367001Y-47977401D01*
X161366994Y-47977405D01*
X161213431Y-48103431D01*
X161087405Y-48256994D01*
X161087401Y-48257001D01*
X160993760Y-48432191D01*
X160936091Y-48622300D01*
X160921500Y-48770456D01*
X160921500Y-49869543D01*
X154298500Y-49869543D01*
X154298500Y-48770453D01*
X154283908Y-48622299D01*
X154226241Y-48432196D01*
X154226239Y-48432193D01*
X154226239Y-48432191D01*
X154132598Y-48257001D01*
X154132594Y-48256994D01*
X154006568Y-48103431D01*
X153853005Y-47977405D01*
X153852998Y-47977401D01*
X153677808Y-47883760D01*
X153582752Y-47854925D01*
X153487701Y-47826092D01*
X153487699Y-47826091D01*
X153487701Y-47826091D01*
X153290000Y-47806620D01*
X153092300Y-47826091D01*
X152902191Y-47883760D01*
X152727001Y-47977401D01*
X152726994Y-47977405D01*
X152573431Y-48103431D01*
X152447405Y-48256994D01*
X152447401Y-48257001D01*
X152353760Y-48432191D01*
X152296091Y-48622300D01*
X152281500Y-48770456D01*
X152281500Y-49869543D01*
X152296091Y-50017699D01*
X152353365Y-50206505D01*
X152353988Y-50276372D01*
X152316740Y-50335485D01*
X152253446Y-50365075D01*
X152234704Y-50366500D01*
X151707309Y-50366500D01*
X151640270Y-50346815D01*
X151615160Y-50325473D01*
X151611254Y-50321135D01*
X151573922Y-50294011D01*
X151456752Y-50208882D01*
X151282288Y-50131206D01*
X151282286Y-50131205D01*
X151095487Y-50091500D01*
X150904513Y-50091500D01*
X150717714Y-50131205D01*
X150543246Y-50208883D01*
X150388745Y-50321135D01*
X150260959Y-50463057D01*
X150165473Y-50628443D01*
X150165470Y-50628450D01*
X150106459Y-50810068D01*
X150106458Y-50810072D01*
X150086496Y-51000000D01*
X150106458Y-51189928D01*
X150106459Y-51189931D01*
X150165470Y-51371549D01*
X150165472Y-51371553D01*
X150165473Y-51371556D01*
X150203835Y-51438001D01*
X150220307Y-51505901D01*
X150203835Y-51561999D01*
X150165472Y-51628446D01*
X150165470Y-51628450D01*
X150114788Y-51784435D01*
X150106458Y-51810072D01*
X150086496Y-52000000D01*
X150106458Y-52189928D01*
X150106459Y-52189931D01*
X150165470Y-52371549D01*
X150165473Y-52371556D01*
X150260960Y-52536944D01*
X150388747Y-52678866D01*
X150543248Y-52791118D01*
X150717712Y-52868794D01*
X150904513Y-52908500D01*
X151095487Y-52908500D01*
X151282288Y-52868794D01*
X151456752Y-52791118D01*
X151611253Y-52678866D01*
X151615160Y-52674527D01*
X151674646Y-52637879D01*
X151707309Y-52633500D01*
X152148321Y-52633500D01*
X152215360Y-52653185D01*
X152261115Y-52705989D01*
X152271724Y-52769654D01*
X152271454Y-52772399D01*
X152260406Y-52884574D01*
X152256500Y-52924228D01*
X152256500Y-54075771D01*
X152271453Y-54227599D01*
X152271454Y-54227601D01*
X152330550Y-54422417D01*
X152330551Y-54422420D01*
X152330552Y-54422421D01*
X152330553Y-54422424D01*
X152422287Y-54594047D01*
X152436529Y-54662450D01*
X152411529Y-54727694D01*
X152355224Y-54769064D01*
X152312929Y-54776500D01*
X150723767Y-54776500D01*
X150656728Y-54756815D01*
X150636086Y-54740181D01*
X150446620Y-54550715D01*
X150413135Y-54489392D01*
X150410982Y-54476012D01*
X150393542Y-54310072D01*
X150334527Y-54128444D01*
X150239040Y-53963056D01*
X150111253Y-53821134D01*
X149956752Y-53708882D01*
X149782288Y-53631206D01*
X149782286Y-53631205D01*
X149595487Y-53591500D01*
X149404513Y-53591500D01*
X149217714Y-53631205D01*
X149043246Y-53708883D01*
X148888745Y-53821135D01*
X148760959Y-53963057D01*
X148665473Y-54128443D01*
X148665470Y-54128450D01*
X148606459Y-54310068D01*
X148606458Y-54310072D01*
X148586496Y-54500000D01*
X137000000Y-54500000D01*
X137000000Y-46323501D01*
X137019685Y-46256462D01*
X137072489Y-46210707D01*
X137124000Y-46199501D01*
X177876000Y-46199501D01*
X177943039Y-46219186D01*
G37*
%TD.AperFunction*%
%TD*%
M02*
