%TF.GenerationSoftware,KiCad,Pcbnew,(6.0.7-1)-1*%
%TF.CreationDate,2022-12-23T00:58:56+01:00*%
%TF.ProjectId,acacia,61636163-6961-42e6-9b69-6361645f7063,rev?*%
%TF.SameCoordinates,Original*%
%TF.FileFunction,Copper,L1,Top*%
%TF.FilePolarity,Positive*%
%FSLAX46Y46*%
G04 Gerber Fmt 4.6, Leading zero omitted, Abs format (unit mm)*
G04 Created by KiCad (PCBNEW (6.0.7-1)-1) date 2022-12-23 00:58:56*
%MOMM*%
%LPD*%
G01*
G04 APERTURE LIST*
%TA.AperFunction,ComponentPad*%
%ADD10C,2.280000*%
%TD*%
%TA.AperFunction,ComponentPad*%
%ADD11C,2.850000*%
%TD*%
%TA.AperFunction,ViaPad*%
%ADD12C,0.800000*%
%TD*%
%TA.AperFunction,Conductor*%
%ADD13C,0.250000*%
%TD*%
%TA.AperFunction,Conductor*%
%ADD14C,0.200000*%
%TD*%
%TA.AperFunction,Conductor*%
%ADD15C,0.500000*%
%TD*%
G04 APERTURE END LIST*
D10*
%TO.P,J1,MH1,MH1*%
%TO.N,GNDPWR*%
X154380000Y-66850000D03*
%TO.P,J1,MH2,MH2*%
X165620000Y-66850000D03*
D11*
%TO.P,J1,MH3,MH3*%
X154380000Y-62850000D03*
%TO.P,J1,MH4,MH4*%
X165620000Y-62850000D03*
%TD*%
D12*
%TO.N,GNDPWR*%
X160000000Y-72000000D03*
%TO.N,/D-*%
X159012299Y-66487701D03*
X160500000Y-66500000D03*
%TO.N,GND*%
X157000000Y-122500000D03*
X165500000Y-107000000D03*
X172000000Y-110000000D03*
X157000000Y-74500000D03*
X153000000Y-104080995D03*
X163500000Y-73500000D03*
X163000000Y-122500000D03*
X162500000Y-91000000D03*
X157000000Y-73500000D03*
X168500000Y-86000000D03*
X171500000Y-91000000D03*
X160500000Y-111800000D03*
X157000000Y-91000000D03*
X165000000Y-104500000D03*
X158000000Y-104500000D03*
X163500000Y-74500000D03*
X167000000Y-113000000D03*
%TO.N,+5V*%
X164999999Y-118499999D03*
X148000000Y-118500000D03*
%TO.N,Net-(TP3-Pad1)*%
X157775500Y-113000000D03*
X155983029Y-103132698D03*
%TO.N,Net-(TP4-Pad1)*%
X158500000Y-114500000D03*
X156973684Y-103000000D03*
%TO.N,Net-(TP5-Pad1)*%
X156987701Y-110512299D03*
X154992510Y-102998989D03*
%TO.N,R0*%
X149500000Y-78500000D03*
X236000000Y-79000000D03*
X66500000Y-73500000D03*
X115000000Y-78500000D03*
X92000000Y-78500000D03*
X206500000Y-78500000D03*
X53000000Y-73500000D03*
X228500000Y-78500000D03*
X186000000Y-78500000D03*
X250000000Y-78500000D03*
%TO.N,R1*%
X161850498Y-116000000D03*
X72000000Y-80000000D03*
X254500000Y-80000000D03*
X216000000Y-80000000D03*
X93500000Y-80000000D03*
X108000000Y-80000000D03*
X211500000Y-80000000D03*
X85000000Y-80000000D03*
X163500000Y-80000000D03*
X230500000Y-80000000D03*
X163500000Y-103000000D03*
X195000000Y-80000000D03*
X46500000Y-75000000D03*
%TO.N,R2*%
X257500000Y-100000000D03*
X162000000Y-99500000D03*
X49500000Y-92500000D03*
X240500000Y-102500000D03*
X86500000Y-95500000D03*
X65500000Y-95500000D03*
X162000000Y-102500000D03*
X120500000Y-95500000D03*
X223500000Y-102500000D03*
X160719524Y-115724500D03*
X105500000Y-95500000D03*
X200000000Y-101500000D03*
%TO.N,R3*%
X132500000Y-97500000D03*
X180500000Y-100500000D03*
X159482612Y-115724500D03*
X38500000Y-95500000D03*
X278000000Y-107500000D03*
%TO.N,R4*%
X129000000Y-124000000D03*
X161000000Y-124017388D03*
X185000000Y-124000000D03*
X37000000Y-122500000D03*
X280000000Y-124500000D03*
%TO.N,C3*%
X157051000Y-111641355D03*
X117500000Y-107500000D03*
X138000000Y-110000000D03*
%TO.N,C2*%
X156326500Y-112430846D03*
X101500000Y-110500000D03*
%TO.N,C1*%
X81500000Y-111500000D03*
X145000000Y-112000000D03*
%TO.N,C0*%
X41000000Y-111500000D03*
X58500000Y-111500000D03*
X148000000Y-113000000D03*
%TO.N,C6*%
X214000000Y-97000000D03*
X192500000Y-97000000D03*
X145000000Y-97000000D03*
%TO.N,C7*%
X230500000Y-99500000D03*
X146500000Y-96000000D03*
%TO.N,C8*%
X148000000Y-94500000D03*
X251000000Y-98000000D03*
X171900000Y-94500000D03*
%TO.N,C9*%
X149500000Y-93000000D03*
X290500000Y-90500000D03*
X275500000Y-94000000D03*
%TO.N,~{RESET}*%
X141500000Y-109000000D03*
X153012299Y-108987701D03*
%TO.N,/VBUS*%
X157237701Y-66762299D03*
X162500000Y-66500000D03*
%TD*%
D13*
%TO.N,GNDPWR*%
X160000000Y-72000000D02*
X160000000Y-69000000D01*
D14*
%TO.N,/D-*%
X159024598Y-66500000D02*
X159012299Y-66487701D01*
X160500000Y-66500000D02*
X159024598Y-66500000D01*
D13*
%TO.N,+5V*%
X148000000Y-118500000D02*
X164999999Y-118499999D01*
%TO.N,Net-(TP3-Pad1)*%
X157775500Y-110275500D02*
X155983029Y-108483029D01*
X155983029Y-108483029D02*
X155983029Y-103132698D01*
X157775500Y-113000000D02*
X157775500Y-110275500D01*
%TO.N,Net-(TP4-Pad1)*%
X158500000Y-114500000D02*
X158500000Y-109000000D01*
X158500000Y-109000000D02*
X156973684Y-107473684D01*
X156973684Y-107473684D02*
X156973684Y-103000000D01*
%TO.N,Net-(TP5-Pad1)*%
X154500000Y-108024598D02*
X154500000Y-103491499D01*
X154500000Y-103491499D02*
X154992510Y-102998989D01*
X156987701Y-110512299D02*
X154500000Y-108024598D01*
%TO.N,R0*%
X250000000Y-78500000D02*
X149500000Y-78500000D01*
X66500000Y-73500000D02*
X71500000Y-78500000D01*
X71500000Y-78500000D02*
X149500000Y-78500000D01*
X66500000Y-73500000D02*
X53000000Y-73500000D01*
%TO.N,R1*%
X163500000Y-114350498D02*
X163500000Y-103000000D01*
X66000000Y-75000000D02*
X46500000Y-75000000D01*
X108000000Y-80000000D02*
X71000000Y-80000000D01*
X71000000Y-80000000D02*
X66000000Y-75000000D01*
X161850498Y-116000000D02*
X163500000Y-114350498D01*
X108000000Y-80000000D02*
X254500000Y-80000000D01*
%TO.N,R2*%
X139500000Y-95500000D02*
X143500000Y-99500000D01*
X143500000Y-99500000D02*
X161500000Y-99500000D01*
X56500000Y-92500000D02*
X59500000Y-95500000D01*
X49500000Y-92500000D02*
X56500000Y-92500000D01*
X209135690Y-101500000D02*
X210333197Y-102697507D01*
X254802493Y-102697507D02*
X257500000Y-100000000D01*
X160719524Y-115724500D02*
X162000000Y-114444024D01*
X161500000Y-99500000D02*
X162000000Y-99500000D01*
X194604082Y-101500000D02*
X209135690Y-101500000D01*
X210333197Y-102697507D02*
X254802493Y-102697507D01*
X161500000Y-99500000D02*
X186000000Y-99500000D01*
X193604082Y-102500000D02*
X194604082Y-101500000D01*
X162000000Y-114444024D02*
X162000000Y-102500000D01*
X59500000Y-95500000D02*
X139500000Y-95500000D01*
X189000000Y-102500000D02*
X193604082Y-102500000D01*
X186000000Y-99500000D02*
X189000000Y-102500000D01*
%TO.N,R3*%
X136000000Y-97500000D02*
X139000000Y-100500000D01*
X194030930Y-103500000D02*
X194903732Y-102627198D01*
X214611129Y-103878643D02*
X218232486Y-107500000D01*
X188363604Y-103500000D02*
X194030930Y-103500000D01*
X209878643Y-103878643D02*
X214611129Y-103878643D01*
X218232486Y-107500000D02*
X278000000Y-107500000D01*
X185363604Y-100500000D02*
X188363604Y-103500000D01*
X57500000Y-95500000D02*
X59500000Y-97500000D01*
X59500000Y-97500000D02*
X136000000Y-97500000D01*
X208627198Y-102627198D02*
X209878643Y-103878643D01*
X159500000Y-100500000D02*
X159500000Y-115707112D01*
X139000000Y-100500000D02*
X159500000Y-100500000D01*
X194903732Y-102627198D02*
X208627198Y-102627198D01*
X38500000Y-95500000D02*
X57500000Y-95500000D01*
X158500000Y-100500000D02*
X185363604Y-100500000D01*
X159500000Y-115707112D02*
X159482612Y-115724500D01*
%TO.N,R4*%
X279627198Y-124127198D02*
X108910017Y-124127198D01*
X280000000Y-124500000D02*
X279627198Y-124127198D01*
X80000000Y-122500000D02*
X37000000Y-122500000D01*
X106303407Y-121520588D02*
X80979412Y-121520588D01*
X108910017Y-124127198D02*
X106303407Y-121520588D01*
X80979412Y-121520588D02*
X80000000Y-122500000D01*
%TO.N,C3*%
X120000000Y-110000000D02*
X138000000Y-110000000D01*
X138000000Y-110000000D02*
X155450804Y-110000000D01*
X157051000Y-111600196D02*
X157051000Y-111641355D01*
X117500000Y-107500000D02*
X120000000Y-110000000D01*
X155450804Y-110000000D02*
X157051000Y-111600196D01*
%TO.N,C2*%
X101949501Y-110949501D02*
X154845155Y-110949501D01*
X101500000Y-110500000D02*
X101949501Y-110949501D01*
X154845155Y-110949501D02*
X156326500Y-112430846D01*
%TO.N,C1*%
X82000000Y-112000000D02*
X145000000Y-112000000D01*
X81500000Y-111500000D02*
X82000000Y-112000000D01*
%TO.N,C0*%
X58500000Y-111500000D02*
X41000000Y-111500000D01*
X60000000Y-113000000D02*
X148000000Y-113000000D01*
X58500000Y-111500000D02*
X60000000Y-113000000D01*
%TO.N,C6*%
X192500000Y-97000000D02*
X145000000Y-97000000D01*
X214000000Y-97000000D02*
X192500000Y-97000000D01*
%TO.N,C7*%
X217000000Y-96000000D02*
X220500000Y-99500000D01*
X220500000Y-99500000D02*
X230500000Y-99500000D01*
X146500000Y-96000000D02*
X217000000Y-96000000D01*
%TO.N,C8*%
X148000000Y-94500000D02*
X217000000Y-94500000D01*
X220500000Y-98000000D02*
X251000000Y-98000000D01*
X217000000Y-94500000D02*
X220500000Y-98000000D01*
%TO.N,C9*%
X290500000Y-91000000D02*
X290500000Y-90500000D01*
X287500000Y-94000000D02*
X290500000Y-91000000D01*
X272014788Y-94000000D02*
X270014788Y-96000000D01*
X217782629Y-93000000D02*
X149500000Y-93000000D01*
X270014788Y-96000000D02*
X220782629Y-96000000D01*
X273500000Y-94000000D02*
X287500000Y-94000000D01*
X273500000Y-94000000D02*
X272014788Y-94000000D01*
X220782629Y-96000000D02*
X217782629Y-93000000D01*
%TO.N,~{RESET}*%
X153012299Y-108987701D02*
X153000000Y-109000000D01*
X153000000Y-109000000D02*
X141500000Y-109000000D01*
D15*
%TO.N,/VBUS*%
X161000000Y-65000000D02*
X159000000Y-65000000D01*
X162500000Y-66500000D02*
X161000000Y-65000000D01*
X159000000Y-65000000D02*
X157237701Y-66762299D01*
%TD*%
%TA.AperFunction,Conductor*%
%TO.N,GNDPWR*%
G36*
X167942121Y-60151112D02*
G01*
X167988614Y-60204768D01*
X168000000Y-60257110D01*
X168000000Y-69374000D01*
X167979998Y-69442121D01*
X167926342Y-69488614D01*
X167874000Y-69500000D01*
X152126000Y-69500000D01*
X152057879Y-69479998D01*
X152011386Y-69426342D01*
X152000000Y-69374000D01*
X152000000Y-68185110D01*
X153410245Y-68185110D01*
X153414462Y-68191138D01*
X153625290Y-68320333D01*
X153634084Y-68324814D01*
X153864592Y-68420294D01*
X153873977Y-68423343D01*
X154116586Y-68481589D01*
X154126333Y-68483132D01*
X154375070Y-68502708D01*
X154384930Y-68502708D01*
X154633667Y-68483132D01*
X154643414Y-68481589D01*
X154886023Y-68423343D01*
X154895408Y-68420294D01*
X155125916Y-68324814D01*
X155134710Y-68320333D01*
X155344095Y-68192022D01*
X155348607Y-68185110D01*
X164650245Y-68185110D01*
X164654462Y-68191138D01*
X164865290Y-68320333D01*
X164874084Y-68324814D01*
X165104592Y-68420294D01*
X165113977Y-68423343D01*
X165356586Y-68481589D01*
X165366333Y-68483132D01*
X165615070Y-68502708D01*
X165624930Y-68502708D01*
X165873667Y-68483132D01*
X165883414Y-68481589D01*
X166126023Y-68423343D01*
X166135408Y-68420294D01*
X166365916Y-68324814D01*
X166374710Y-68320333D01*
X166584095Y-68192022D01*
X166589829Y-68183238D01*
X166583823Y-68173033D01*
X165632812Y-67222022D01*
X165618868Y-67214408D01*
X165617035Y-67214539D01*
X165610420Y-67218790D01*
X164657637Y-68171573D01*
X164650245Y-68185110D01*
X155348607Y-68185110D01*
X155349829Y-68183238D01*
X155343823Y-68173033D01*
X154392812Y-67222022D01*
X154378868Y-67214408D01*
X154377035Y-67214539D01*
X154370420Y-67218790D01*
X153417637Y-68171573D01*
X153410245Y-68185110D01*
X152000000Y-68185110D01*
X152000000Y-66854930D01*
X152727292Y-66854930D01*
X152746868Y-67103667D01*
X152748411Y-67113414D01*
X152806657Y-67356023D01*
X152809706Y-67365408D01*
X152905186Y-67595916D01*
X152909667Y-67604710D01*
X153037978Y-67814095D01*
X153046762Y-67819829D01*
X153056967Y-67813823D01*
X154007978Y-66862812D01*
X154014356Y-66851132D01*
X154744408Y-66851132D01*
X154744539Y-66852965D01*
X154748790Y-66859580D01*
X155701573Y-67812363D01*
X155715110Y-67819755D01*
X155721138Y-67815538D01*
X155850333Y-67604710D01*
X155854814Y-67595916D01*
X155950294Y-67365408D01*
X155953343Y-67356023D01*
X156011589Y-67113414D01*
X156013132Y-67103667D01*
X156032708Y-66854930D01*
X156032708Y-66845070D01*
X156026194Y-66762299D01*
X156324197Y-66762299D01*
X156324887Y-66768864D01*
X156334422Y-66859580D01*
X156344159Y-66952227D01*
X156403174Y-67133855D01*
X156406477Y-67139577D01*
X156406478Y-67139578D01*
X156422060Y-67166567D01*
X156498661Y-67299243D01*
X156626448Y-67441165D01*
X156780949Y-67553417D01*
X156786977Y-67556101D01*
X156786979Y-67556102D01*
X156949382Y-67628408D01*
X156955413Y-67631093D01*
X157048814Y-67650946D01*
X157135757Y-67669427D01*
X157135762Y-67669427D01*
X157142214Y-67670799D01*
X157333188Y-67670799D01*
X157339640Y-67669427D01*
X157339645Y-67669427D01*
X157426588Y-67650946D01*
X157519989Y-67631093D01*
X157526020Y-67628408D01*
X157688423Y-67556102D01*
X157688425Y-67556101D01*
X157694453Y-67553417D01*
X157848954Y-67441165D01*
X157976741Y-67299243D01*
X158053342Y-67166567D01*
X158068924Y-67139578D01*
X158068925Y-67139577D01*
X158072228Y-67133855D01*
X158084172Y-67097095D01*
X158124243Y-67038492D01*
X158189640Y-67010854D01*
X158259597Y-67022960D01*
X158297640Y-67051723D01*
X158401046Y-67166567D01*
X158555547Y-67278819D01*
X158561575Y-67281503D01*
X158561577Y-67281504D01*
X158723980Y-67353810D01*
X158730011Y-67356495D01*
X158794328Y-67370166D01*
X158910355Y-67394829D01*
X158910360Y-67394829D01*
X158916812Y-67396201D01*
X159107786Y-67396201D01*
X159114238Y-67394829D01*
X159114243Y-67394829D01*
X159230270Y-67370166D01*
X159294587Y-67356495D01*
X159300618Y-67353810D01*
X159463021Y-67281504D01*
X159463023Y-67281503D01*
X159469051Y-67278819D01*
X159551674Y-67218790D01*
X159613383Y-67173955D01*
X159623552Y-67166567D01*
X159638299Y-67150189D01*
X159698746Y-67112950D01*
X159731935Y-67108500D01*
X159769290Y-67108500D01*
X159837411Y-67128502D01*
X159862926Y-67150189D01*
X159881166Y-67170446D01*
X159888747Y-67178866D01*
X159910329Y-67194546D01*
X160030016Y-67281504D01*
X160043248Y-67291118D01*
X160049276Y-67293802D01*
X160049278Y-67293803D01*
X160193169Y-67357867D01*
X160217712Y-67368794D01*
X160311113Y-67388647D01*
X160398056Y-67407128D01*
X160398061Y-67407128D01*
X160404513Y-67408500D01*
X160595487Y-67408500D01*
X160601939Y-67407128D01*
X160601944Y-67407128D01*
X160688887Y-67388647D01*
X160782288Y-67368794D01*
X160806831Y-67357867D01*
X160950722Y-67293803D01*
X160950724Y-67293802D01*
X160956752Y-67291118D01*
X160969985Y-67281504D01*
X161051854Y-67222022D01*
X161111253Y-67178866D01*
X161118831Y-67170450D01*
X161234621Y-67041852D01*
X161234622Y-67041851D01*
X161239040Y-67036944D01*
X161334527Y-66871556D01*
X161380167Y-66731090D01*
X161420241Y-66672486D01*
X161485637Y-66644849D01*
X161555594Y-66656956D01*
X161607900Y-66704962D01*
X161619832Y-66731089D01*
X161665473Y-66871556D01*
X161760960Y-67036944D01*
X161765378Y-67041851D01*
X161765379Y-67041852D01*
X161881169Y-67170450D01*
X161888747Y-67178866D01*
X161948146Y-67222022D01*
X162030016Y-67281504D01*
X162043248Y-67291118D01*
X162049276Y-67293802D01*
X162049278Y-67293803D01*
X162193169Y-67357867D01*
X162217712Y-67368794D01*
X162311113Y-67388647D01*
X162398056Y-67407128D01*
X162398061Y-67407128D01*
X162404513Y-67408500D01*
X162595487Y-67408500D01*
X162601939Y-67407128D01*
X162601944Y-67407128D01*
X162688887Y-67388647D01*
X162782288Y-67368794D01*
X162806831Y-67357867D01*
X162950722Y-67293803D01*
X162950724Y-67293802D01*
X162956752Y-67291118D01*
X162969985Y-67281504D01*
X163051854Y-67222022D01*
X163111253Y-67178866D01*
X163118831Y-67170450D01*
X163234621Y-67041852D01*
X163234622Y-67041851D01*
X163239040Y-67036944D01*
X163334527Y-66871556D01*
X163339929Y-66854930D01*
X163967292Y-66854930D01*
X163986868Y-67103667D01*
X163988411Y-67113414D01*
X164046657Y-67356023D01*
X164049706Y-67365408D01*
X164145186Y-67595916D01*
X164149667Y-67604710D01*
X164277978Y-67814095D01*
X164286762Y-67819829D01*
X164296967Y-67813823D01*
X165247978Y-66862812D01*
X165254356Y-66851132D01*
X165984408Y-66851132D01*
X165984539Y-66852965D01*
X165988790Y-66859580D01*
X166941573Y-67812363D01*
X166955110Y-67819755D01*
X166961138Y-67815538D01*
X167090333Y-67604710D01*
X167094814Y-67595916D01*
X167190294Y-67365408D01*
X167193343Y-67356023D01*
X167251589Y-67113414D01*
X167253132Y-67103667D01*
X167272708Y-66854930D01*
X167272708Y-66845070D01*
X167253132Y-66596333D01*
X167251589Y-66586586D01*
X167193343Y-66343977D01*
X167190294Y-66334592D01*
X167094814Y-66104084D01*
X167090333Y-66095290D01*
X166962022Y-65885905D01*
X166953238Y-65880171D01*
X166943033Y-65886177D01*
X165992022Y-66837188D01*
X165984408Y-66851132D01*
X165254356Y-66851132D01*
X165255592Y-66848868D01*
X165255461Y-66847035D01*
X165251210Y-66840420D01*
X164298427Y-65887637D01*
X164284890Y-65880245D01*
X164278862Y-65884462D01*
X164149667Y-66095290D01*
X164145186Y-66104084D01*
X164049706Y-66334592D01*
X164046657Y-66343977D01*
X163988411Y-66586586D01*
X163986868Y-66596333D01*
X163967292Y-66845070D01*
X163967292Y-66854930D01*
X163339929Y-66854930D01*
X163393542Y-66689928D01*
X163397008Y-66656956D01*
X163412814Y-66506565D01*
X163413504Y-66500000D01*
X163393542Y-66310072D01*
X163334527Y-66128444D01*
X163315386Y-66095290D01*
X163297314Y-66063990D01*
X163239040Y-65963056D01*
X163111253Y-65821134D01*
X162956752Y-65708882D01*
X162950724Y-65706198D01*
X162950722Y-65706197D01*
X162788319Y-65633891D01*
X162788318Y-65633891D01*
X162782288Y-65631206D01*
X162775833Y-65629834D01*
X162775824Y-65629831D01*
X162719228Y-65617801D01*
X162656331Y-65583650D01*
X162589443Y-65516762D01*
X164650171Y-65516762D01*
X164656177Y-65526967D01*
X165607188Y-66477978D01*
X165621132Y-66485592D01*
X165622965Y-66485461D01*
X165629580Y-66481210D01*
X166582363Y-65528427D01*
X166589755Y-65514890D01*
X166585538Y-65508862D01*
X166374710Y-65379667D01*
X166365916Y-65375186D01*
X166135408Y-65279706D01*
X166126023Y-65276657D01*
X165883414Y-65218411D01*
X165873667Y-65216868D01*
X165624930Y-65197292D01*
X165615070Y-65197292D01*
X165366333Y-65216868D01*
X165356586Y-65218411D01*
X165113977Y-65276657D01*
X165104592Y-65279706D01*
X164874084Y-65375186D01*
X164865290Y-65379667D01*
X164655905Y-65507978D01*
X164650171Y-65516762D01*
X162589443Y-65516762D01*
X161583770Y-64511089D01*
X161571384Y-64496677D01*
X161562851Y-64485082D01*
X161562846Y-64485077D01*
X161558508Y-64479182D01*
X161552930Y-64474443D01*
X161552927Y-64474440D01*
X161518232Y-64444965D01*
X161510716Y-64438035D01*
X161505021Y-64432340D01*
X161488736Y-64419456D01*
X161482749Y-64414719D01*
X161479345Y-64411928D01*
X161448328Y-64385577D01*
X164449590Y-64385577D01*
X164456980Y-64395879D01*
X164502217Y-64432707D01*
X164509492Y-64437821D01*
X164736379Y-64574418D01*
X164744303Y-64578454D01*
X164988165Y-64681718D01*
X164996570Y-64684596D01*
X165252565Y-64752471D01*
X165261286Y-64754135D01*
X165524295Y-64785264D01*
X165533160Y-64785682D01*
X165797917Y-64779442D01*
X165806777Y-64778605D01*
X166068001Y-64735126D01*
X166076658Y-64733047D01*
X166329157Y-64653192D01*
X166337419Y-64649921D01*
X166576149Y-64535284D01*
X166583874Y-64530878D01*
X166783293Y-64397631D01*
X166791581Y-64387713D01*
X166784324Y-64373534D01*
X165632812Y-63222022D01*
X165618868Y-63214408D01*
X165617035Y-63214539D01*
X165610420Y-63218790D01*
X164456756Y-64372454D01*
X164449590Y-64385577D01*
X161448328Y-64385577D01*
X161429297Y-64369409D01*
X161429295Y-64369408D01*
X161423715Y-64364667D01*
X161417199Y-64361339D01*
X161412150Y-64357972D01*
X161407021Y-64354805D01*
X161401284Y-64350266D01*
X161335125Y-64319345D01*
X161331225Y-64317439D01*
X161266192Y-64284231D01*
X161259084Y-64282492D01*
X161253441Y-64280393D01*
X161247678Y-64278476D01*
X161241050Y-64275378D01*
X161169583Y-64260513D01*
X161165299Y-64259543D01*
X161130958Y-64251140D01*
X161094390Y-64242192D01*
X161088788Y-64241844D01*
X161088785Y-64241844D01*
X161083236Y-64241500D01*
X161083238Y-64241464D01*
X161079245Y-64241225D01*
X161075053Y-64240851D01*
X161067885Y-64239360D01*
X161004120Y-64241085D01*
X160990479Y-64241454D01*
X160987072Y-64241500D01*
X159067069Y-64241500D01*
X159048121Y-64240067D01*
X159040780Y-64238950D01*
X159033883Y-64237901D01*
X159033881Y-64237901D01*
X159026651Y-64236801D01*
X159019359Y-64237394D01*
X159019356Y-64237394D01*
X158973982Y-64241085D01*
X158963767Y-64241500D01*
X158955707Y-64241500D01*
X158942417Y-64243049D01*
X158927493Y-64244789D01*
X158923118Y-64245222D01*
X158857661Y-64250546D01*
X158857658Y-64250547D01*
X158850363Y-64251140D01*
X158843399Y-64253396D01*
X158837440Y-64254587D01*
X158831585Y-64255971D01*
X158824319Y-64256818D01*
X158755673Y-64281735D01*
X158751545Y-64283152D01*
X158689064Y-64303393D01*
X158689062Y-64303394D01*
X158682101Y-64305649D01*
X158675846Y-64309445D01*
X158670372Y-64311951D01*
X158664942Y-64314670D01*
X158658063Y-64317167D01*
X158651943Y-64321180D01*
X158651942Y-64321180D01*
X158597024Y-64357186D01*
X158593320Y-64359523D01*
X158530893Y-64397405D01*
X158522516Y-64404803D01*
X158522492Y-64404776D01*
X158519500Y-64407429D01*
X158516267Y-64410132D01*
X158510148Y-64414144D01*
X158480951Y-64444965D01*
X158456872Y-64470383D01*
X158454494Y-64472825D01*
X157081370Y-65845949D01*
X157018473Y-65880100D01*
X156961877Y-65892130D01*
X156961868Y-65892133D01*
X156955413Y-65893505D01*
X156949383Y-65896190D01*
X156949382Y-65896190D01*
X156786979Y-65968496D01*
X156786977Y-65968497D01*
X156780949Y-65971181D01*
X156626448Y-66083433D01*
X156498661Y-66225355D01*
X156403174Y-66390743D01*
X156344159Y-66572371D01*
X156343469Y-66578932D01*
X156343469Y-66578934D01*
X156332493Y-66683365D01*
X156324197Y-66762299D01*
X156026194Y-66762299D01*
X156013132Y-66596333D01*
X156011589Y-66586586D01*
X155953343Y-66343977D01*
X155950294Y-66334592D01*
X155854814Y-66104084D01*
X155850333Y-66095290D01*
X155722022Y-65885905D01*
X155713238Y-65880171D01*
X155703033Y-65886177D01*
X154752022Y-66837188D01*
X154744408Y-66851132D01*
X154014356Y-66851132D01*
X154015592Y-66848868D01*
X154015461Y-66847035D01*
X154011210Y-66840420D01*
X153058427Y-65887637D01*
X153044890Y-65880245D01*
X153038862Y-65884462D01*
X152909667Y-66095290D01*
X152905186Y-66104084D01*
X152809706Y-66334592D01*
X152806657Y-66343977D01*
X152748411Y-66586586D01*
X152746868Y-66596333D01*
X152727292Y-66845070D01*
X152727292Y-66854930D01*
X152000000Y-66854930D01*
X152000000Y-65516762D01*
X153410171Y-65516762D01*
X153416177Y-65526967D01*
X154367188Y-66477978D01*
X154381132Y-66485592D01*
X154382965Y-66485461D01*
X154389580Y-66481210D01*
X155342363Y-65528427D01*
X155349755Y-65514890D01*
X155345538Y-65508862D01*
X155134710Y-65379667D01*
X155125916Y-65375186D01*
X154895408Y-65279706D01*
X154886023Y-65276657D01*
X154643414Y-65218411D01*
X154633667Y-65216868D01*
X154384930Y-65197292D01*
X154375070Y-65197292D01*
X154126333Y-65216868D01*
X154116586Y-65218411D01*
X153873977Y-65276657D01*
X153864592Y-65279706D01*
X153634084Y-65375186D01*
X153625290Y-65379667D01*
X153415905Y-65507978D01*
X153410171Y-65516762D01*
X152000000Y-65516762D01*
X152000000Y-64385577D01*
X153209590Y-64385577D01*
X153216980Y-64395879D01*
X153262217Y-64432707D01*
X153269492Y-64437821D01*
X153496379Y-64574418D01*
X153504303Y-64578454D01*
X153748165Y-64681718D01*
X153756570Y-64684596D01*
X154012565Y-64752471D01*
X154021286Y-64754135D01*
X154284295Y-64785264D01*
X154293160Y-64785682D01*
X154557917Y-64779442D01*
X154566777Y-64778605D01*
X154828001Y-64735126D01*
X154836658Y-64733047D01*
X155089157Y-64653192D01*
X155097419Y-64649921D01*
X155336149Y-64535284D01*
X155343874Y-64530878D01*
X155543293Y-64397631D01*
X155551581Y-64387713D01*
X155544324Y-64373534D01*
X154392812Y-63222022D01*
X154378868Y-63214408D01*
X154377035Y-63214539D01*
X154370420Y-63218790D01*
X153216756Y-64372454D01*
X153209590Y-64385577D01*
X152000000Y-64385577D01*
X152000000Y-62793580D01*
X152443193Y-62793580D01*
X152453590Y-63058209D01*
X152454565Y-63067038D01*
X152502146Y-63327565D01*
X152504355Y-63336169D01*
X152588168Y-63587388D01*
X152591572Y-63595606D01*
X152709946Y-63832511D01*
X152714464Y-63840150D01*
X152833380Y-64012208D01*
X152843700Y-64020560D01*
X152857354Y-64013436D01*
X154007978Y-62862812D01*
X154014356Y-62851132D01*
X154744408Y-62851132D01*
X154744539Y-62852965D01*
X154748790Y-62859580D01*
X155903262Y-64014052D01*
X155916662Y-64021369D01*
X155926566Y-64014382D01*
X155944963Y-63992496D01*
X155950181Y-63985313D01*
X156090325Y-63760600D01*
X156094486Y-63752740D01*
X156201564Y-63510535D01*
X156204580Y-63502158D01*
X156276462Y-63247282D01*
X156278266Y-63238574D01*
X156313687Y-62974866D01*
X156314215Y-62968473D01*
X156317837Y-62853222D01*
X156317710Y-62846779D01*
X156313943Y-62793580D01*
X163683193Y-62793580D01*
X163693590Y-63058209D01*
X163694565Y-63067038D01*
X163742146Y-63327565D01*
X163744355Y-63336169D01*
X163828168Y-63587388D01*
X163831572Y-63595606D01*
X163949946Y-63832511D01*
X163954464Y-63840150D01*
X164073380Y-64012208D01*
X164083700Y-64020560D01*
X164097354Y-64013436D01*
X165247978Y-62862812D01*
X165254356Y-62851132D01*
X165984408Y-62851132D01*
X165984539Y-62852965D01*
X165988790Y-62859580D01*
X167143262Y-64014052D01*
X167156662Y-64021369D01*
X167166566Y-64014382D01*
X167184963Y-63992496D01*
X167190181Y-63985313D01*
X167330325Y-63760600D01*
X167334486Y-63752740D01*
X167441564Y-63510535D01*
X167444580Y-63502158D01*
X167516462Y-63247282D01*
X167518266Y-63238574D01*
X167553687Y-62974866D01*
X167554215Y-62968473D01*
X167557837Y-62853222D01*
X167557710Y-62846779D01*
X167538919Y-62581394D01*
X167537666Y-62572584D01*
X167481926Y-62313680D01*
X167479450Y-62305159D01*
X167387784Y-62056688D01*
X167384129Y-62048593D01*
X167258371Y-61815523D01*
X167253609Y-61808018D01*
X167165635Y-61688910D01*
X167154510Y-61680470D01*
X167141914Y-61687296D01*
X165992022Y-62837188D01*
X165984408Y-62851132D01*
X165254356Y-62851132D01*
X165255592Y-62848868D01*
X165255461Y-62847035D01*
X165251210Y-62840420D01*
X164098016Y-61687226D01*
X164085176Y-61680215D01*
X164074484Y-61688012D01*
X164019929Y-61757215D01*
X164014931Y-61764571D01*
X163881912Y-61993578D01*
X163878008Y-62001548D01*
X163778584Y-62247013D01*
X163775837Y-62255469D01*
X163711993Y-62512487D01*
X163710465Y-62521245D01*
X163683472Y-62784696D01*
X163683193Y-62793580D01*
X156313943Y-62793580D01*
X156298919Y-62581394D01*
X156297666Y-62572584D01*
X156241926Y-62313680D01*
X156239450Y-62305159D01*
X156147784Y-62056688D01*
X156144129Y-62048593D01*
X156018371Y-61815523D01*
X156013609Y-61808018D01*
X155925635Y-61688910D01*
X155914510Y-61680470D01*
X155901914Y-61687296D01*
X154752022Y-62837188D01*
X154744408Y-62851132D01*
X154014356Y-62851132D01*
X154015592Y-62848868D01*
X154015461Y-62847035D01*
X154011210Y-62840420D01*
X152858016Y-61687226D01*
X152845176Y-61680215D01*
X152834484Y-61688012D01*
X152779929Y-61757215D01*
X152774931Y-61764571D01*
X152641912Y-61993578D01*
X152638008Y-62001548D01*
X152538584Y-62247013D01*
X152535837Y-62255469D01*
X152471993Y-62512487D01*
X152470465Y-62521245D01*
X152443472Y-62784696D01*
X152443193Y-62793580D01*
X152000000Y-62793580D01*
X152000000Y-61314766D01*
X153210123Y-61314766D01*
X153217103Y-61327893D01*
X154367188Y-62477978D01*
X154381132Y-62485592D01*
X154382965Y-62485461D01*
X154389580Y-62481210D01*
X155542641Y-61328149D01*
X155549495Y-61315597D01*
X155548879Y-61314766D01*
X164450123Y-61314766D01*
X164457103Y-61327893D01*
X165607188Y-62477978D01*
X165621132Y-62485592D01*
X165622965Y-62485461D01*
X165629580Y-62481210D01*
X166782641Y-61328149D01*
X166789495Y-61315597D01*
X166781288Y-61304526D01*
X166687512Y-61232959D01*
X166680083Y-61228079D01*
X166449020Y-61098677D01*
X166440986Y-61094896D01*
X166193975Y-60999335D01*
X166185503Y-60996728D01*
X165927499Y-60936927D01*
X165918721Y-60935537D01*
X165654872Y-60912685D01*
X165646001Y-60912545D01*
X165381553Y-60927099D01*
X165372748Y-60928211D01*
X165112989Y-60979881D01*
X165104437Y-60982221D01*
X164854559Y-61069970D01*
X164846393Y-61073504D01*
X164611381Y-61195584D01*
X164603809Y-61200223D01*
X164458525Y-61304045D01*
X164450123Y-61314766D01*
X155548879Y-61314766D01*
X155541288Y-61304526D01*
X155447512Y-61232959D01*
X155440083Y-61228079D01*
X155209020Y-61098677D01*
X155200986Y-61094896D01*
X154953975Y-60999335D01*
X154945503Y-60996728D01*
X154687499Y-60936927D01*
X154678721Y-60935537D01*
X154414872Y-60912685D01*
X154406001Y-60912545D01*
X154141553Y-60927099D01*
X154132748Y-60928211D01*
X153872989Y-60979881D01*
X153864437Y-60982221D01*
X153614559Y-61069970D01*
X153606393Y-61073504D01*
X153371381Y-61195584D01*
X153363809Y-61200223D01*
X153218525Y-61304045D01*
X153210123Y-61314766D01*
X152000000Y-61314766D01*
X152000000Y-60257110D01*
X152020002Y-60188989D01*
X152073658Y-60142496D01*
X152126000Y-60131110D01*
X167874000Y-60131110D01*
X167942121Y-60151112D01*
G37*
%TD.AperFunction*%
%TD*%
%TA.AperFunction,Conductor*%
%TO.N,GND*%
G36*
X179859921Y-101153502D02*
G01*
X179879147Y-101169843D01*
X179879420Y-101169540D01*
X179884332Y-101173963D01*
X179888747Y-101178866D01*
X179927688Y-101207158D01*
X179948061Y-101221960D01*
X179991415Y-101278182D01*
X180000000Y-101323896D01*
X180000000Y-123367698D01*
X179979998Y-123435819D01*
X179926342Y-123482312D01*
X179874000Y-123493698D01*
X161807072Y-123493698D01*
X161738951Y-123473696D01*
X161713436Y-123452008D01*
X161698860Y-123435819D01*
X161611253Y-123338522D01*
X161456752Y-123226270D01*
X161450724Y-123223586D01*
X161450722Y-123223585D01*
X161288319Y-123151279D01*
X161288318Y-123151279D01*
X161282288Y-123148594D01*
X161188888Y-123128741D01*
X161101944Y-123110260D01*
X161101939Y-123110260D01*
X161095487Y-123108888D01*
X160904513Y-123108888D01*
X160898061Y-123110260D01*
X160898056Y-123110260D01*
X160811112Y-123128741D01*
X160717712Y-123148594D01*
X160711682Y-123151279D01*
X160711681Y-123151279D01*
X160549278Y-123223585D01*
X160549276Y-123223586D01*
X160543248Y-123226270D01*
X160388747Y-123338522D01*
X160301141Y-123435819D01*
X160286564Y-123452008D01*
X160226118Y-123489248D01*
X160192928Y-123493698D01*
X140126000Y-123493698D01*
X140057879Y-123473696D01*
X140011386Y-123420040D01*
X140000000Y-123367698D01*
X140000000Y-118500000D01*
X147086496Y-118500000D01*
X147106458Y-118689928D01*
X147165473Y-118871556D01*
X147260960Y-119036944D01*
X147388747Y-119178866D01*
X147543248Y-119291118D01*
X147549276Y-119293802D01*
X147549278Y-119293803D01*
X147653652Y-119340273D01*
X147717712Y-119368794D01*
X147811112Y-119388647D01*
X147898056Y-119407128D01*
X147898061Y-119407128D01*
X147904513Y-119408500D01*
X148095487Y-119408500D01*
X148101939Y-119407128D01*
X148101944Y-119407128D01*
X148188888Y-119388647D01*
X148282288Y-119368794D01*
X148346348Y-119340273D01*
X148450722Y-119293803D01*
X148450724Y-119293802D01*
X148456752Y-119291118D01*
X148611253Y-119178866D01*
X148615668Y-119173963D01*
X148620580Y-119169540D01*
X148621705Y-119170789D01*
X148675014Y-119137949D01*
X148708200Y-119133500D01*
X156500000Y-119133500D01*
X164291799Y-119133499D01*
X164359920Y-119153501D01*
X164379146Y-119169842D01*
X164379419Y-119169539D01*
X164384331Y-119173962D01*
X164388746Y-119178865D01*
X164543247Y-119291117D01*
X164549275Y-119293801D01*
X164549277Y-119293802D01*
X164711680Y-119366108D01*
X164717711Y-119368793D01*
X164811112Y-119388646D01*
X164898055Y-119407127D01*
X164898060Y-119407127D01*
X164904512Y-119408499D01*
X165095486Y-119408499D01*
X165101938Y-119407127D01*
X165101943Y-119407127D01*
X165188886Y-119388646D01*
X165282287Y-119368793D01*
X165288318Y-119366108D01*
X165450721Y-119293802D01*
X165450723Y-119293801D01*
X165456751Y-119291117D01*
X165611252Y-119178865D01*
X165739039Y-119036943D01*
X165834526Y-118871555D01*
X165893541Y-118689927D01*
X165913503Y-118499999D01*
X165893541Y-118310071D01*
X165834526Y-118128443D01*
X165760369Y-118000000D01*
X167500000Y-118000000D01*
X176000000Y-118000000D01*
X176000000Y-102500000D01*
X167500000Y-102500000D01*
X167500000Y-109500000D01*
X168000000Y-109500000D01*
X168000000Y-103126000D01*
X168020002Y-103057879D01*
X168073658Y-103011386D01*
X168126000Y-103000000D01*
X175374000Y-103000000D01*
X175442121Y-103020002D01*
X175488614Y-103073658D01*
X175500000Y-103126000D01*
X175500000Y-117374000D01*
X175479998Y-117442121D01*
X175426342Y-117488614D01*
X175374000Y-117500000D01*
X168126000Y-117500000D01*
X168057879Y-117479998D01*
X168011386Y-117426342D01*
X168000000Y-117374000D01*
X168000000Y-111500000D01*
X167500000Y-111500000D01*
X167500000Y-118000000D01*
X165760369Y-118000000D01*
X165739039Y-117963055D01*
X165611252Y-117821133D01*
X165456751Y-117708881D01*
X165450723Y-117706197D01*
X165450721Y-117706196D01*
X165288318Y-117633890D01*
X165288317Y-117633890D01*
X165282287Y-117631205D01*
X165188886Y-117611352D01*
X165101943Y-117592871D01*
X165101938Y-117592871D01*
X165095486Y-117591499D01*
X164904512Y-117591499D01*
X164898060Y-117592871D01*
X164898055Y-117592871D01*
X164811112Y-117611352D01*
X164717711Y-117631205D01*
X164711681Y-117633890D01*
X164711680Y-117633890D01*
X164549277Y-117706196D01*
X164549275Y-117706197D01*
X164543247Y-117708881D01*
X164388746Y-117821133D01*
X164384331Y-117826036D01*
X164379419Y-117830459D01*
X164378294Y-117829210D01*
X164324985Y-117862050D01*
X164291799Y-117866499D01*
X156500000Y-117866500D01*
X148708200Y-117866500D01*
X148640079Y-117846498D01*
X148620853Y-117830157D01*
X148620580Y-117830460D01*
X148615668Y-117826037D01*
X148611253Y-117821134D01*
X148456752Y-117708882D01*
X148450724Y-117706198D01*
X148450722Y-117706197D01*
X148288319Y-117633891D01*
X148288316Y-117633890D01*
X148282288Y-117631206D01*
X148188887Y-117611353D01*
X148101944Y-117592872D01*
X148101939Y-117592872D01*
X148095487Y-117591500D01*
X147904513Y-117591500D01*
X147898061Y-117592872D01*
X147898056Y-117592872D01*
X147811113Y-117611353D01*
X147717712Y-117631206D01*
X147711684Y-117633890D01*
X147711681Y-117633891D01*
X147549278Y-117706197D01*
X147549276Y-117706198D01*
X147543248Y-117708882D01*
X147388747Y-117821134D01*
X147260960Y-117963056D01*
X147165473Y-118128444D01*
X147106458Y-118310072D01*
X147086496Y-118500000D01*
X140000000Y-118500000D01*
X140000000Y-113759500D01*
X140020002Y-113691379D01*
X140073658Y-113644886D01*
X140126000Y-113633500D01*
X147291800Y-113633500D01*
X147359921Y-113653502D01*
X147379147Y-113669843D01*
X147379420Y-113669540D01*
X147384332Y-113673963D01*
X147388747Y-113678866D01*
X147543248Y-113791118D01*
X147549276Y-113793802D01*
X147549278Y-113793803D01*
X147711681Y-113866109D01*
X147717712Y-113868794D01*
X147811112Y-113888647D01*
X147898056Y-113907128D01*
X147898061Y-113907128D01*
X147904513Y-113908500D01*
X148095487Y-113908500D01*
X148101939Y-113907128D01*
X148101944Y-113907128D01*
X148188888Y-113888647D01*
X148282288Y-113868794D01*
X148288319Y-113866109D01*
X148450722Y-113793803D01*
X148450724Y-113793802D01*
X148456752Y-113791118D01*
X148611253Y-113678866D01*
X148739040Y-113536944D01*
X148834527Y-113371556D01*
X148893542Y-113189928D01*
X148897417Y-113153065D01*
X148912814Y-113006565D01*
X148913504Y-113000000D01*
X148912814Y-112993435D01*
X148894232Y-112816635D01*
X148894232Y-112816633D01*
X148893542Y-112810072D01*
X148834527Y-112628444D01*
X148739040Y-112463056D01*
X148611253Y-112321134D01*
X148456752Y-112208882D01*
X148450724Y-112206198D01*
X148450722Y-112206197D01*
X148288319Y-112133891D01*
X148288318Y-112133891D01*
X148282288Y-112131206D01*
X148188888Y-112111353D01*
X148101944Y-112092872D01*
X148101939Y-112092872D01*
X148095487Y-112091500D01*
X147904513Y-112091500D01*
X147898061Y-112092872D01*
X147898056Y-112092872D01*
X147811113Y-112111353D01*
X147717712Y-112131206D01*
X147711682Y-112133891D01*
X147711681Y-112133891D01*
X147549278Y-112206197D01*
X147549276Y-112206198D01*
X147543248Y-112208882D01*
X147388747Y-112321134D01*
X147384332Y-112326037D01*
X147379420Y-112330460D01*
X147378295Y-112329211D01*
X147324986Y-112362051D01*
X147291800Y-112366500D01*
X146009594Y-112366500D01*
X145941473Y-112346498D01*
X145894980Y-112292842D01*
X145884876Y-112222568D01*
X145889762Y-112201562D01*
X145891502Y-112196208D01*
X145891503Y-112196203D01*
X145893542Y-112189928D01*
X145900929Y-112119650D01*
X145912814Y-112006565D01*
X145913504Y-112000000D01*
X145893542Y-111810072D01*
X145873353Y-111747937D01*
X145871325Y-111676970D01*
X145907988Y-111616172D01*
X145971700Y-111584846D01*
X145993186Y-111583001D01*
X154530561Y-111583001D01*
X154598682Y-111603003D01*
X154619656Y-111619906D01*
X155379378Y-112379628D01*
X155413404Y-112441940D01*
X155415592Y-112455549D01*
X155432958Y-112620774D01*
X155491973Y-112802402D01*
X155587460Y-112967790D01*
X155715247Y-113109712D01*
X155869748Y-113221964D01*
X155875776Y-113224648D01*
X155875778Y-113224649D01*
X155948692Y-113257112D01*
X156044212Y-113299640D01*
X156137612Y-113319493D01*
X156224556Y-113337974D01*
X156224561Y-113337974D01*
X156231013Y-113339346D01*
X156421987Y-113339346D01*
X156428439Y-113337974D01*
X156428444Y-113337974D01*
X156515388Y-113319493D01*
X156608788Y-113299640D01*
X156750738Y-113236440D01*
X156821105Y-113227006D01*
X156885402Y-113257112D01*
X156921820Y-113312610D01*
X156940973Y-113371556D01*
X157036460Y-113536944D01*
X157164247Y-113678866D01*
X157318748Y-113791118D01*
X157324776Y-113793802D01*
X157324778Y-113793803D01*
X157487181Y-113866109D01*
X157493212Y-113868794D01*
X157610534Y-113893732D01*
X157673006Y-113927459D01*
X157707328Y-113989609D01*
X157702600Y-114060448D01*
X157693455Y-114079977D01*
X157665473Y-114128444D01*
X157606458Y-114310072D01*
X157605768Y-114316633D01*
X157605768Y-114316635D01*
X157600101Y-114370555D01*
X157586496Y-114500000D01*
X157587186Y-114506565D01*
X157605604Y-114681799D01*
X157606458Y-114689928D01*
X157665473Y-114871556D01*
X157668776Y-114877278D01*
X157668777Y-114877279D01*
X157694282Y-114921455D01*
X157760960Y-115036944D01*
X157888747Y-115178866D01*
X158043248Y-115291118D01*
X158049276Y-115293802D01*
X158049278Y-115293803D01*
X158211681Y-115366109D01*
X158217712Y-115368794D01*
X158311112Y-115388647D01*
X158398056Y-115407128D01*
X158398061Y-115407128D01*
X158404513Y-115408500D01*
X158462383Y-115408500D01*
X158530504Y-115428502D01*
X158576997Y-115482158D01*
X158587693Y-115547670D01*
X158569108Y-115724500D01*
X158589070Y-115914428D01*
X158648085Y-116096056D01*
X158743572Y-116261444D01*
X158871359Y-116403366D01*
X159025860Y-116515618D01*
X159031888Y-116518302D01*
X159031890Y-116518303D01*
X159194293Y-116590609D01*
X159200324Y-116593294D01*
X159280575Y-116610352D01*
X159380668Y-116631628D01*
X159380673Y-116631628D01*
X159387125Y-116633000D01*
X159578099Y-116633000D01*
X159584551Y-116631628D01*
X159584556Y-116631628D01*
X159684649Y-116610352D01*
X159764900Y-116593294D01*
X159770931Y-116590609D01*
X159933334Y-116518303D01*
X159933336Y-116518302D01*
X159939364Y-116515618D01*
X160027008Y-116451941D01*
X160093874Y-116428083D01*
X160163026Y-116444163D01*
X160175125Y-116451938D01*
X160262772Y-116515618D01*
X160268800Y-116518302D01*
X160268802Y-116518303D01*
X160431205Y-116590609D01*
X160437236Y-116593294D01*
X160517487Y-116610352D01*
X160617580Y-116631628D01*
X160617585Y-116631628D01*
X160624037Y-116633000D01*
X160815011Y-116633000D01*
X160821463Y-116631628D01*
X160821468Y-116631628D01*
X160921561Y-116610352D01*
X161001812Y-116593294D01*
X161032671Y-116579555D01*
X161103037Y-116570121D01*
X161167334Y-116600227D01*
X161177555Y-116610352D01*
X161239245Y-116678866D01*
X161393746Y-116791118D01*
X161399774Y-116793802D01*
X161399776Y-116793803D01*
X161562179Y-116866109D01*
X161568210Y-116868794D01*
X161661611Y-116888647D01*
X161748554Y-116907128D01*
X161748559Y-116907128D01*
X161755011Y-116908500D01*
X161945985Y-116908500D01*
X161952437Y-116907128D01*
X161952442Y-116907128D01*
X162039385Y-116888647D01*
X162132786Y-116868794D01*
X162138817Y-116866109D01*
X162301220Y-116793803D01*
X162301222Y-116793802D01*
X162307250Y-116791118D01*
X162461751Y-116678866D01*
X162589538Y-116536944D01*
X162664418Y-116407249D01*
X162681721Y-116377279D01*
X162681722Y-116377278D01*
X162685025Y-116371556D01*
X162744040Y-116189928D01*
X162761405Y-116024706D01*
X162788418Y-115959050D01*
X162797620Y-115948782D01*
X163337903Y-115408500D01*
X163892253Y-114854150D01*
X163900539Y-114846610D01*
X163907018Y-114842498D01*
X163953644Y-114792846D01*
X163956398Y-114790005D01*
X163976135Y-114770268D01*
X163978615Y-114767071D01*
X163986320Y-114758049D01*
X164011159Y-114731598D01*
X164016586Y-114725819D01*
X164020405Y-114718873D01*
X164020407Y-114718870D01*
X164026348Y-114708064D01*
X164037199Y-114691545D01*
X164038453Y-114689928D01*
X164049614Y-114675539D01*
X164052759Y-114668270D01*
X164052762Y-114668266D01*
X164067174Y-114634961D01*
X164072391Y-114624311D01*
X164093695Y-114585558D01*
X164098733Y-114565935D01*
X164105137Y-114547232D01*
X164110033Y-114535918D01*
X164110033Y-114535917D01*
X164113181Y-114528643D01*
X164114420Y-114520820D01*
X164114423Y-114520810D01*
X164120099Y-114484974D01*
X164122505Y-114473354D01*
X164131528Y-114438209D01*
X164131528Y-114438208D01*
X164133500Y-114430528D01*
X164133500Y-114410274D01*
X164135051Y-114390563D01*
X164136980Y-114378384D01*
X164138220Y-114370555D01*
X164134059Y-114326536D01*
X164133500Y-114314679D01*
X164133500Y-103702524D01*
X164153502Y-103634403D01*
X164165858Y-103618221D01*
X164239040Y-103536944D01*
X164297314Y-103436010D01*
X164331223Y-103377279D01*
X164331224Y-103377278D01*
X164334527Y-103371556D01*
X164393542Y-103189928D01*
X164395245Y-103173731D01*
X164412814Y-103006565D01*
X164413504Y-103000000D01*
X164393542Y-102810072D01*
X164334527Y-102628444D01*
X164239040Y-102463056D01*
X164111253Y-102321134D01*
X163977833Y-102224198D01*
X163962094Y-102212763D01*
X163962093Y-102212762D01*
X163956752Y-102208882D01*
X163950724Y-102206198D01*
X163950722Y-102206197D01*
X163788319Y-102133891D01*
X163788318Y-102133891D01*
X163782288Y-102131206D01*
X163688887Y-102111353D01*
X163601944Y-102092872D01*
X163601939Y-102092872D01*
X163595487Y-102091500D01*
X163404513Y-102091500D01*
X163398061Y-102092872D01*
X163398056Y-102092872D01*
X163311112Y-102111353D01*
X163217712Y-102131206D01*
X163211682Y-102133891D01*
X163211681Y-102133891D01*
X163049278Y-102206197D01*
X163049276Y-102206198D01*
X163043248Y-102208882D01*
X163035842Y-102214263D01*
X163034445Y-102214762D01*
X163032189Y-102216064D01*
X163031951Y-102215652D01*
X162968976Y-102238125D01*
X162899823Y-102222048D01*
X162850341Y-102171137D01*
X162841943Y-102151269D01*
X162836569Y-102134729D01*
X162834527Y-102128444D01*
X162813990Y-102092872D01*
X162742341Y-101968774D01*
X162739040Y-101963056D01*
X162611253Y-101821134D01*
X162456752Y-101708882D01*
X162450724Y-101706198D01*
X162450722Y-101706197D01*
X162288319Y-101633891D01*
X162288318Y-101633891D01*
X162282288Y-101631206D01*
X162188887Y-101611353D01*
X162101944Y-101592872D01*
X162101939Y-101592872D01*
X162095487Y-101591500D01*
X161904513Y-101591500D01*
X161898061Y-101592872D01*
X161898056Y-101592872D01*
X161811113Y-101611353D01*
X161717712Y-101631206D01*
X161711682Y-101633891D01*
X161711681Y-101633891D01*
X161549278Y-101706197D01*
X161549276Y-101706198D01*
X161543248Y-101708882D01*
X161388747Y-101821134D01*
X161260960Y-101963056D01*
X161257659Y-101968774D01*
X161186011Y-102092872D01*
X161165473Y-102128444D01*
X161106458Y-102310072D01*
X161105768Y-102316633D01*
X161105768Y-102316635D01*
X161105295Y-102321134D01*
X161086496Y-102500000D01*
X161087186Y-102506565D01*
X161099890Y-102627433D01*
X161106458Y-102689928D01*
X161165473Y-102871556D01*
X161260960Y-103036944D01*
X161334137Y-103118215D01*
X161364853Y-103182221D01*
X161366500Y-103202524D01*
X161366500Y-114129429D01*
X161346498Y-114197550D01*
X161329595Y-114218525D01*
X160769023Y-114779096D01*
X160706711Y-114813121D01*
X160679928Y-114816000D01*
X160624037Y-114816000D01*
X160617585Y-114817372D01*
X160617580Y-114817372D01*
X160552249Y-114831259D01*
X160437236Y-114855706D01*
X160431209Y-114858389D01*
X160431201Y-114858392D01*
X160310748Y-114912021D01*
X160240381Y-114921455D01*
X160176084Y-114891348D01*
X160138271Y-114831259D01*
X160133500Y-114796914D01*
X160133500Y-101259500D01*
X160153502Y-101191379D01*
X160207158Y-101144886D01*
X160259500Y-101133500D01*
X179791800Y-101133500D01*
X179859921Y-101153502D01*
G37*
%TD.AperFunction*%
%TA.AperFunction,Conductor*%
G36*
X158808621Y-101153502D02*
G01*
X158855114Y-101207158D01*
X158866500Y-101259500D01*
X158866500Y-108166406D01*
X158846498Y-108234527D01*
X158792842Y-108281020D01*
X158722568Y-108291124D01*
X158657988Y-108261630D01*
X158651405Y-108255501D01*
X158201957Y-107806052D01*
X157644089Y-107248184D01*
X157610063Y-107185872D01*
X157607184Y-107159089D01*
X157607184Y-103702524D01*
X157627186Y-103634403D01*
X157639542Y-103618221D01*
X157712724Y-103536944D01*
X157770998Y-103436010D01*
X157804907Y-103377279D01*
X157804908Y-103377278D01*
X157808211Y-103371556D01*
X157867226Y-103189928D01*
X157868929Y-103173731D01*
X157886498Y-103006565D01*
X157887188Y-103000000D01*
X157867226Y-102810072D01*
X157808211Y-102628444D01*
X157712724Y-102463056D01*
X157584937Y-102321134D01*
X157451517Y-102224198D01*
X157435778Y-102212763D01*
X157435777Y-102212762D01*
X157430436Y-102208882D01*
X157424408Y-102206198D01*
X157424406Y-102206197D01*
X157262003Y-102133891D01*
X157262002Y-102133891D01*
X157255972Y-102131206D01*
X157162571Y-102111353D01*
X157075628Y-102092872D01*
X157075623Y-102092872D01*
X157069171Y-102091500D01*
X156878197Y-102091500D01*
X156871745Y-102092872D01*
X156871740Y-102092872D01*
X156784796Y-102111353D01*
X156691396Y-102131206D01*
X156685366Y-102133891D01*
X156685365Y-102133891D01*
X156522962Y-102206197D01*
X156522960Y-102206198D01*
X156516932Y-102208882D01*
X156511591Y-102212762D01*
X156511590Y-102212763D01*
X156495851Y-102224198D01*
X156433806Y-102269277D01*
X156433225Y-102269699D01*
X156366357Y-102293557D01*
X156307916Y-102282870D01*
X156271353Y-102266591D01*
X156271350Y-102266590D01*
X156265317Y-102263904D01*
X156223689Y-102255056D01*
X156084973Y-102225570D01*
X156084968Y-102225570D01*
X156078516Y-102224198D01*
X155887542Y-102224198D01*
X155881090Y-102225570D01*
X155881085Y-102225570D01*
X155794142Y-102244051D01*
X155700741Y-102263904D01*
X155694714Y-102266587D01*
X155694706Y-102266590D01*
X155659089Y-102282448D01*
X155588722Y-102291882D01*
X155533780Y-102269277D01*
X155454604Y-102211752D01*
X155454603Y-102211751D01*
X155449262Y-102207871D01*
X155443234Y-102205187D01*
X155443232Y-102205186D01*
X155280829Y-102132880D01*
X155280828Y-102132880D01*
X155274798Y-102130195D01*
X155181398Y-102110342D01*
X155094454Y-102091861D01*
X155094449Y-102091861D01*
X155087997Y-102090489D01*
X154897023Y-102090489D01*
X154890571Y-102091861D01*
X154890566Y-102091861D01*
X154803622Y-102110342D01*
X154710222Y-102130195D01*
X154704192Y-102132880D01*
X154704191Y-102132880D01*
X154541788Y-102205186D01*
X154541786Y-102205187D01*
X154535758Y-102207871D01*
X154530417Y-102211751D01*
X154530416Y-102211752D01*
X154494117Y-102238125D01*
X154381257Y-102320123D01*
X154253470Y-102462045D01*
X154157983Y-102627433D01*
X154098968Y-102809061D01*
X154098278Y-102815622D01*
X154098278Y-102815624D01*
X154081617Y-102974151D01*
X154054604Y-103039808D01*
X154048146Y-103047244D01*
X154046680Y-103048806D01*
X154046339Y-103049169D01*
X154043602Y-103051992D01*
X154023865Y-103071729D01*
X154021385Y-103074926D01*
X154013682Y-103083946D01*
X153983414Y-103116178D01*
X153979595Y-103123124D01*
X153979593Y-103123127D01*
X153973652Y-103133933D01*
X153962801Y-103150452D01*
X153950386Y-103166458D01*
X153947241Y-103173727D01*
X153947238Y-103173731D01*
X153932826Y-103207036D01*
X153927609Y-103217686D01*
X153906305Y-103256439D01*
X153904334Y-103264114D01*
X153904334Y-103264115D01*
X153901267Y-103276061D01*
X153894863Y-103294765D01*
X153886819Y-103313354D01*
X153885580Y-103321177D01*
X153885577Y-103321187D01*
X153879901Y-103357023D01*
X153877495Y-103368643D01*
X153875278Y-103377279D01*
X153866500Y-103411469D01*
X153866500Y-103431723D01*
X153864949Y-103451433D01*
X153861780Y-103471442D01*
X153862526Y-103479334D01*
X153865941Y-103515460D01*
X153866500Y-103527318D01*
X153866500Y-107945831D01*
X153865973Y-107957014D01*
X153864298Y-107964507D01*
X153864547Y-107972433D01*
X153864547Y-107972434D01*
X153866438Y-108032584D01*
X153866500Y-108036543D01*
X153866500Y-108064454D01*
X153866997Y-108068388D01*
X153866997Y-108068389D01*
X153867005Y-108068454D01*
X153867938Y-108080291D01*
X153869327Y-108124487D01*
X153874978Y-108143937D01*
X153878987Y-108163298D01*
X153881526Y-108183395D01*
X153884445Y-108190766D01*
X153884445Y-108190768D01*
X153897804Y-108224510D01*
X153901649Y-108235740D01*
X153911993Y-108271344D01*
X153911790Y-108342340D01*
X153873236Y-108401957D01*
X153808572Y-108431265D01*
X153738327Y-108420961D01*
X153697362Y-108390810D01*
X153623552Y-108308835D01*
X153507489Y-108224510D01*
X153474393Y-108200464D01*
X153474392Y-108200463D01*
X153469051Y-108196583D01*
X153463023Y-108193899D01*
X153463021Y-108193898D01*
X153300618Y-108121592D01*
X153300617Y-108121592D01*
X153294587Y-108118907D01*
X153172103Y-108092872D01*
X153114243Y-108080573D01*
X153114238Y-108080573D01*
X153107786Y-108079201D01*
X152916812Y-108079201D01*
X152910360Y-108080573D01*
X152910355Y-108080573D01*
X152852495Y-108092872D01*
X152730011Y-108118907D01*
X152723981Y-108121592D01*
X152723980Y-108121592D01*
X152561577Y-108193898D01*
X152561575Y-108193899D01*
X152555547Y-108196583D01*
X152550206Y-108200463D01*
X152550205Y-108200464D01*
X152517109Y-108224510D01*
X152401046Y-108308835D01*
X152396633Y-108313737D01*
X152396631Y-108313738D01*
X152386661Y-108324811D01*
X152326215Y-108362050D01*
X152293025Y-108366500D01*
X142208200Y-108366500D01*
X142140079Y-108346498D01*
X142120853Y-108330157D01*
X142120580Y-108330460D01*
X142115668Y-108326037D01*
X142111253Y-108321134D01*
X141978262Y-108224510D01*
X141962094Y-108212763D01*
X141962093Y-108212762D01*
X141956752Y-108208882D01*
X141950724Y-108206198D01*
X141950722Y-108206197D01*
X141788319Y-108133891D01*
X141788318Y-108133891D01*
X141782288Y-108131206D01*
X141688888Y-108111353D01*
X141601944Y-108092872D01*
X141601939Y-108092872D01*
X141595487Y-108091500D01*
X141404513Y-108091500D01*
X141398061Y-108092872D01*
X141398056Y-108092872D01*
X141311112Y-108111353D01*
X141217712Y-108131206D01*
X141211682Y-108133891D01*
X141211681Y-108133891D01*
X141049278Y-108206197D01*
X141049276Y-108206198D01*
X141043248Y-108208882D01*
X141037907Y-108212762D01*
X141037906Y-108212763D01*
X141021738Y-108224510D01*
X140888747Y-108321134D01*
X140760960Y-108463056D01*
X140665473Y-108628444D01*
X140606458Y-108810072D01*
X140586496Y-109000000D01*
X140587186Y-109006565D01*
X140604476Y-109171066D01*
X140606458Y-109189928D01*
X140608497Y-109196203D01*
X140608498Y-109196208D01*
X140610238Y-109201562D01*
X140612267Y-109272529D01*
X140575606Y-109333328D01*
X140511894Y-109364654D01*
X140490406Y-109366500D01*
X140126000Y-109366500D01*
X140057879Y-109346498D01*
X140011386Y-109292842D01*
X140000000Y-109240500D01*
X140000000Y-101259500D01*
X140020002Y-101191379D01*
X140073658Y-101144886D01*
X140126000Y-101133500D01*
X158740500Y-101133500D01*
X158808621Y-101153502D01*
G37*
%TD.AperFunction*%
%TA.AperFunction,Conductor*%
G36*
X162859921Y-80653502D02*
G01*
X162879147Y-80669843D01*
X162879420Y-80669540D01*
X162884332Y-80673963D01*
X162888747Y-80678866D01*
X163043248Y-80791118D01*
X163049276Y-80793802D01*
X163049278Y-80793803D01*
X163211681Y-80866109D01*
X163217712Y-80868794D01*
X163311112Y-80888647D01*
X163398056Y-80907128D01*
X163398061Y-80907128D01*
X163404513Y-80908500D01*
X163595487Y-80908500D01*
X163601939Y-80907128D01*
X163601944Y-80907128D01*
X163688888Y-80888647D01*
X163782288Y-80868794D01*
X163788319Y-80866109D01*
X163950722Y-80793803D01*
X163950724Y-80793802D01*
X163956752Y-80791118D01*
X164111253Y-80678866D01*
X164115668Y-80673963D01*
X164120580Y-80669540D01*
X164121705Y-80670789D01*
X164175014Y-80637949D01*
X164208200Y-80633500D01*
X179874000Y-80633500D01*
X179942121Y-80653502D01*
X179988614Y-80707158D01*
X180000000Y-80759500D01*
X180000000Y-86024157D01*
X179979998Y-86092278D01*
X179926342Y-86138771D01*
X179856068Y-86148875D01*
X179839270Y-86145276D01*
X179646354Y-86089959D01*
X179646353Y-86089959D01*
X179642127Y-86088747D01*
X179637777Y-86088136D01*
X179637774Y-86088135D01*
X179534827Y-86073667D01*
X179363965Y-86049654D01*
X179153371Y-86049654D01*
X179151185Y-86049807D01*
X179151181Y-86049807D01*
X178947690Y-86064036D01*
X178947685Y-86064037D01*
X178943305Y-86064343D01*
X178668547Y-86122745D01*
X178664418Y-86124248D01*
X178664414Y-86124249D01*
X178408736Y-86217308D01*
X178408732Y-86217310D01*
X178404591Y-86218817D01*
X178156575Y-86350690D01*
X178153016Y-86353276D01*
X178153014Y-86353277D01*
X177954546Y-86497472D01*
X177929325Y-86515796D01*
X177926161Y-86518852D01*
X177926158Y-86518854D01*
X177873512Y-86569694D01*
X177727265Y-86710923D01*
X177554329Y-86932272D01*
X177552133Y-86936076D01*
X177552128Y-86936083D01*
X177515848Y-86998923D01*
X177413881Y-87175535D01*
X177308655Y-87435978D01*
X177240700Y-87708530D01*
X177240241Y-87712898D01*
X177240240Y-87712903D01*
X177212674Y-87975187D01*
X177211339Y-87987887D01*
X177221142Y-88268612D01*
X177221904Y-88272935D01*
X177221905Y-88272942D01*
X177223180Y-88280170D01*
X177269919Y-88545241D01*
X177356720Y-88812389D01*
X177479857Y-89064856D01*
X177482312Y-89068495D01*
X177482315Y-89068501D01*
X177555407Y-89176864D01*
X177636932Y-89297730D01*
X177824888Y-89506476D01*
X178040067Y-89687033D01*
X178043799Y-89689365D01*
X178146955Y-89753824D01*
X178194125Y-89806885D01*
X178205120Y-89877025D01*
X178176449Y-89941975D01*
X178167158Y-89951846D01*
X178124144Y-89992879D01*
X178120956Y-89997164D01*
X178120951Y-89997170D01*
X178051860Y-90090032D01*
X177986435Y-90177967D01*
X177984020Y-90182717D01*
X177899862Y-90348244D01*
X177881879Y-90383613D01*
X177847673Y-90493774D01*
X177815051Y-90598831D01*
X177815050Y-90598837D01*
X177813467Y-90603934D01*
X177783156Y-90832633D01*
X177791810Y-91063169D01*
X177839184Y-91288951D01*
X177923923Y-91503523D01*
X178043603Y-91700750D01*
X178047100Y-91704780D01*
X178133724Y-91804605D01*
X178194803Y-91874993D01*
X178198934Y-91878380D01*
X178369071Y-92017885D01*
X178369077Y-92017889D01*
X178373199Y-92021269D01*
X178563922Y-92129834D01*
X178565967Y-92130998D01*
X178615273Y-92182080D01*
X178629135Y-92251710D01*
X178603152Y-92317781D01*
X178545573Y-92359316D01*
X178503635Y-92366500D01*
X150208200Y-92366500D01*
X150140079Y-92346498D01*
X150120853Y-92330157D01*
X150120580Y-92330460D01*
X150115668Y-92326037D01*
X150111253Y-92321134D01*
X150089671Y-92305454D01*
X149962094Y-92212763D01*
X149962093Y-92212762D01*
X149956752Y-92208882D01*
X149950724Y-92206198D01*
X149950722Y-92206197D01*
X149788319Y-92133891D01*
X149788318Y-92133891D01*
X149782288Y-92131206D01*
X149688888Y-92111353D01*
X149601944Y-92092872D01*
X149601939Y-92092872D01*
X149595487Y-92091500D01*
X149404513Y-92091500D01*
X149398061Y-92092872D01*
X149398056Y-92092872D01*
X149311112Y-92111353D01*
X149217712Y-92131206D01*
X149211682Y-92133891D01*
X149211681Y-92133891D01*
X149049278Y-92206197D01*
X149049276Y-92206198D01*
X149043248Y-92208882D01*
X149037907Y-92212762D01*
X149037906Y-92212763D01*
X148999906Y-92240372D01*
X148888747Y-92321134D01*
X148760960Y-92463056D01*
X148702686Y-92563990D01*
X148668840Y-92622613D01*
X148665473Y-92628444D01*
X148606458Y-92810072D01*
X148605768Y-92816633D01*
X148605768Y-92816635D01*
X148587186Y-92993435D01*
X148586496Y-93000000D01*
X148606458Y-93189928D01*
X148665473Y-93371556D01*
X148760960Y-93536944D01*
X148765378Y-93541851D01*
X148765379Y-93541852D01*
X148868329Y-93656190D01*
X148899047Y-93720197D01*
X148890282Y-93790651D01*
X148844819Y-93845182D01*
X148774693Y-93866500D01*
X148708200Y-93866500D01*
X148640079Y-93846498D01*
X148620853Y-93830157D01*
X148620580Y-93830460D01*
X148615668Y-93826037D01*
X148611253Y-93821134D01*
X148456752Y-93708882D01*
X148450724Y-93706198D01*
X148450722Y-93706197D01*
X148288319Y-93633891D01*
X148288318Y-93633891D01*
X148282288Y-93631206D01*
X148188887Y-93611353D01*
X148101944Y-93592872D01*
X148101939Y-93592872D01*
X148095487Y-93591500D01*
X147904513Y-93591500D01*
X147898061Y-93592872D01*
X147898056Y-93592872D01*
X147811113Y-93611353D01*
X147717712Y-93631206D01*
X147711682Y-93633891D01*
X147711681Y-93633891D01*
X147549278Y-93706197D01*
X147549276Y-93706198D01*
X147543248Y-93708882D01*
X147388747Y-93821134D01*
X147260960Y-93963056D01*
X147165473Y-94128444D01*
X147106458Y-94310072D01*
X147105768Y-94316633D01*
X147105768Y-94316635D01*
X147087186Y-94493435D01*
X147086496Y-94500000D01*
X147106458Y-94689928D01*
X147165473Y-94871556D01*
X147260960Y-95036944D01*
X147265378Y-95041851D01*
X147265379Y-95041852D01*
X147368329Y-95156190D01*
X147399047Y-95220197D01*
X147390282Y-95290651D01*
X147344819Y-95345182D01*
X147274693Y-95366500D01*
X147208200Y-95366500D01*
X147140079Y-95346498D01*
X147120853Y-95330157D01*
X147120580Y-95330460D01*
X147115668Y-95326037D01*
X147111253Y-95321134D01*
X146956752Y-95208882D01*
X146950724Y-95206198D01*
X146950722Y-95206197D01*
X146788319Y-95133891D01*
X146788318Y-95133891D01*
X146782288Y-95131206D01*
X146688888Y-95111353D01*
X146601944Y-95092872D01*
X146601939Y-95092872D01*
X146595487Y-95091500D01*
X146404513Y-95091500D01*
X146398061Y-95092872D01*
X146398056Y-95092872D01*
X146311112Y-95111353D01*
X146217712Y-95131206D01*
X146211682Y-95133891D01*
X146211681Y-95133891D01*
X146049278Y-95206197D01*
X146049276Y-95206198D01*
X146043248Y-95208882D01*
X145888747Y-95321134D01*
X145760960Y-95463056D01*
X145665473Y-95628444D01*
X145606458Y-95810072D01*
X145605768Y-95816633D01*
X145605768Y-95816635D01*
X145596269Y-95907018D01*
X145586496Y-96000000D01*
X145587186Y-96006565D01*
X145587186Y-96006567D01*
X145593085Y-96062697D01*
X145580312Y-96132535D01*
X145531810Y-96184381D01*
X145462977Y-96201775D01*
X145416529Y-96190974D01*
X145282288Y-96131206D01*
X145188887Y-96111353D01*
X145101944Y-96092872D01*
X145101939Y-96092872D01*
X145095487Y-96091500D01*
X144904513Y-96091500D01*
X144898061Y-96092872D01*
X144898056Y-96092872D01*
X144811113Y-96111353D01*
X144717712Y-96131206D01*
X144711682Y-96133891D01*
X144711681Y-96133891D01*
X144549278Y-96206197D01*
X144549276Y-96206198D01*
X144543248Y-96208882D01*
X144388747Y-96321134D01*
X144384326Y-96326044D01*
X144384325Y-96326045D01*
X144369830Y-96342144D01*
X144260960Y-96463056D01*
X144165473Y-96628444D01*
X144106458Y-96810072D01*
X144105768Y-96816633D01*
X144105768Y-96816635D01*
X144087186Y-96993435D01*
X144086496Y-97000000D01*
X144106458Y-97189928D01*
X144165473Y-97371556D01*
X144260960Y-97536944D01*
X144388747Y-97678866D01*
X144543248Y-97791118D01*
X144549276Y-97793802D01*
X144549278Y-97793803D01*
X144711681Y-97866109D01*
X144717712Y-97868794D01*
X144811112Y-97888647D01*
X144898056Y-97907128D01*
X144898061Y-97907128D01*
X144904513Y-97908500D01*
X145095487Y-97908500D01*
X145101939Y-97907128D01*
X145101944Y-97907128D01*
X145188888Y-97888647D01*
X145282288Y-97868794D01*
X145288319Y-97866109D01*
X145450722Y-97793803D01*
X145450724Y-97793802D01*
X145456752Y-97791118D01*
X145611253Y-97678866D01*
X145615668Y-97673963D01*
X145620580Y-97669540D01*
X145621705Y-97670789D01*
X145675014Y-97637949D01*
X145708200Y-97633500D01*
X179874000Y-97633500D01*
X179942121Y-97653502D01*
X179988614Y-97707158D01*
X180000000Y-97759500D01*
X180000000Y-98740500D01*
X179979998Y-98808621D01*
X179926342Y-98855114D01*
X179874000Y-98866500D01*
X162708200Y-98866500D01*
X162640079Y-98846498D01*
X162620853Y-98830157D01*
X162620580Y-98830460D01*
X162615668Y-98826037D01*
X162611253Y-98821134D01*
X162456752Y-98708882D01*
X162450724Y-98706198D01*
X162450722Y-98706197D01*
X162288319Y-98633891D01*
X162288318Y-98633891D01*
X162282288Y-98631206D01*
X162188888Y-98611353D01*
X162101944Y-98592872D01*
X162101939Y-98592872D01*
X162095487Y-98591500D01*
X161904513Y-98591500D01*
X161898061Y-98592872D01*
X161898056Y-98592872D01*
X161811112Y-98611353D01*
X161717712Y-98631206D01*
X161711682Y-98633891D01*
X161711681Y-98633891D01*
X161549278Y-98706197D01*
X161549276Y-98706198D01*
X161543248Y-98708882D01*
X161388747Y-98821134D01*
X161384332Y-98826037D01*
X161379420Y-98830460D01*
X161378295Y-98829211D01*
X161324986Y-98862051D01*
X161291800Y-98866500D01*
X143814595Y-98866500D01*
X143746474Y-98846498D01*
X143725500Y-98829595D01*
X140036905Y-95141000D01*
X140002879Y-95078688D01*
X140000000Y-95051905D01*
X140000000Y-90832633D01*
X141491244Y-90832633D01*
X141499898Y-91063169D01*
X141547272Y-91288951D01*
X141632011Y-91503523D01*
X141751691Y-91700750D01*
X141755188Y-91704780D01*
X141841812Y-91804605D01*
X141902891Y-91874993D01*
X141907022Y-91878380D01*
X142077159Y-92017885D01*
X142077165Y-92017889D01*
X142081287Y-92021269D01*
X142281779Y-92135395D01*
X142286795Y-92137216D01*
X142286800Y-92137218D01*
X142493619Y-92212290D01*
X142493623Y-92212291D01*
X142498634Y-92214110D01*
X142503883Y-92215059D01*
X142503886Y-92215060D01*
X142721567Y-92254423D01*
X142721574Y-92254424D01*
X142725651Y-92255161D01*
X142743388Y-92255997D01*
X142748336Y-92256231D01*
X142748343Y-92256231D01*
X142749824Y-92256301D01*
X142911969Y-92256301D01*
X142978925Y-92250620D01*
X143078606Y-92242162D01*
X143078610Y-92242161D01*
X143083917Y-92241711D01*
X143089072Y-92240373D01*
X143089078Y-92240372D01*
X143302047Y-92185096D01*
X143302051Y-92185095D01*
X143307216Y-92183754D01*
X143312082Y-92181562D01*
X143312085Y-92181561D01*
X143512693Y-92091194D01*
X143517559Y-92089002D01*
X143521979Y-92086026D01*
X143521983Y-92086024D01*
X143623192Y-92017885D01*
X143708929Y-91960163D01*
X143875856Y-91800923D01*
X144013565Y-91615835D01*
X144068349Y-91508084D01*
X144115702Y-91414947D01*
X144115702Y-91414946D01*
X144118121Y-91410189D01*
X144171719Y-91237577D01*
X144184949Y-91194971D01*
X144184950Y-91194965D01*
X144186533Y-91189868D01*
X144216844Y-90961169D01*
X144208190Y-90730633D01*
X144160816Y-90504851D01*
X144076077Y-90290279D01*
X143956397Y-90093052D01*
X143869472Y-89992879D01*
X143808697Y-89922842D01*
X143808695Y-89922840D01*
X143805197Y-89918809D01*
X143707928Y-89839053D01*
X143630929Y-89775917D01*
X143630923Y-89775913D01*
X143626801Y-89772533D01*
X143426309Y-89658407D01*
X143421293Y-89656586D01*
X143421288Y-89656584D01*
X143214469Y-89581512D01*
X143214465Y-89581511D01*
X143209454Y-89579692D01*
X143204205Y-89578743D01*
X143204202Y-89578742D01*
X142986521Y-89539379D01*
X142986514Y-89539378D01*
X142982437Y-89538641D01*
X142964700Y-89537805D01*
X142959752Y-89537571D01*
X142959745Y-89537571D01*
X142958264Y-89537501D01*
X142796119Y-89537501D01*
X142729163Y-89543182D01*
X142629482Y-89551640D01*
X142629478Y-89551641D01*
X142624171Y-89552091D01*
X142619016Y-89553429D01*
X142619010Y-89553430D01*
X142406041Y-89608706D01*
X142406037Y-89608707D01*
X142400872Y-89610048D01*
X142396006Y-89612240D01*
X142396003Y-89612241D01*
X142195395Y-89702608D01*
X142190529Y-89704800D01*
X142186109Y-89707776D01*
X142186105Y-89707778D01*
X142100193Y-89765618D01*
X141999159Y-89833639D01*
X141832232Y-89992879D01*
X141694523Y-90177967D01*
X141692108Y-90182717D01*
X141607950Y-90348244D01*
X141589967Y-90383613D01*
X141555761Y-90493774D01*
X141523139Y-90598831D01*
X141523138Y-90598837D01*
X141521555Y-90603934D01*
X141491244Y-90832633D01*
X140000000Y-90832633D01*
X140000000Y-90591883D01*
X140020002Y-90523762D01*
X140034150Y-90505630D01*
X140179234Y-90351131D01*
X140179235Y-90351130D01*
X140181945Y-90348244D01*
X140367024Y-90093504D01*
X140419988Y-89997164D01*
X140516813Y-89821039D01*
X140516814Y-89821036D01*
X140518716Y-89817577D01*
X140624008Y-89551640D01*
X140633177Y-89528483D01*
X140633177Y-89528482D01*
X140634630Y-89524813D01*
X140712936Y-89219830D01*
X140752400Y-88907438D01*
X140752400Y-88592562D01*
X140712936Y-88280170D01*
X140634630Y-87975187D01*
X140518716Y-87682423D01*
X140367024Y-87406496D01*
X140202186Y-87179615D01*
X140184273Y-87154960D01*
X140184272Y-87154958D01*
X140181945Y-87151756D01*
X140087753Y-87051452D01*
X140034150Y-86994370D01*
X140002099Y-86931020D01*
X140000000Y-86908117D01*
X140000000Y-85149140D01*
X140686745Y-85149140D01*
X140696548Y-85429865D01*
X140697310Y-85434188D01*
X140697311Y-85434195D01*
X140721087Y-85569031D01*
X140745325Y-85706494D01*
X140832126Y-85973642D01*
X140955263Y-86226109D01*
X140957718Y-86229748D01*
X140957721Y-86229754D01*
X140979757Y-86262423D01*
X141112338Y-86458983D01*
X141300294Y-86667729D01*
X141303656Y-86670550D01*
X141303657Y-86670551D01*
X141351770Y-86710923D01*
X141515473Y-86848286D01*
X141753687Y-86997138D01*
X142010298Y-87111389D01*
X142280313Y-87188814D01*
X142284663Y-87189425D01*
X142284666Y-87189426D01*
X142387613Y-87203894D01*
X142558475Y-87227907D01*
X142769069Y-87227907D01*
X142771255Y-87227754D01*
X142771259Y-87227754D01*
X142974750Y-87213525D01*
X142974755Y-87213524D01*
X142979135Y-87213218D01*
X143253893Y-87154816D01*
X143258022Y-87153313D01*
X143258026Y-87153312D01*
X143513704Y-87060253D01*
X143513708Y-87060251D01*
X143517849Y-87058744D01*
X143765865Y-86926871D01*
X143870819Y-86850618D01*
X143989552Y-86764354D01*
X143989555Y-86764351D01*
X143993115Y-86761765D01*
X144045764Y-86710923D01*
X144192010Y-86569694D01*
X144195175Y-86566638D01*
X144368111Y-86345289D01*
X144370307Y-86341485D01*
X144370312Y-86341478D01*
X144487344Y-86138771D01*
X144508559Y-86102026D01*
X144613785Y-85841583D01*
X144647467Y-85706494D01*
X144680676Y-85573300D01*
X144680677Y-85573295D01*
X144681740Y-85569031D01*
X144711101Y-85289674D01*
X144701298Y-85008949D01*
X144677531Y-84874156D01*
X144653283Y-84736643D01*
X144652521Y-84732320D01*
X144565720Y-84465172D01*
X144442583Y-84212705D01*
X144440128Y-84209066D01*
X144440125Y-84209060D01*
X144359858Y-84090060D01*
X144285508Y-83979831D01*
X144097552Y-83771085D01*
X143882373Y-83590528D01*
X143644159Y-83441676D01*
X143423334Y-83343358D01*
X143391562Y-83329212D01*
X143391560Y-83329211D01*
X143387548Y-83327425D01*
X143117533Y-83250000D01*
X143113183Y-83249389D01*
X143113180Y-83249388D01*
X143010233Y-83234920D01*
X142839371Y-83210907D01*
X142628777Y-83210907D01*
X142626591Y-83211060D01*
X142626587Y-83211060D01*
X142423096Y-83225289D01*
X142423091Y-83225290D01*
X142418711Y-83225596D01*
X142143953Y-83283998D01*
X142139824Y-83285501D01*
X142139820Y-83285502D01*
X141884142Y-83378561D01*
X141884138Y-83378563D01*
X141879997Y-83380070D01*
X141631981Y-83511943D01*
X141628422Y-83514529D01*
X141628420Y-83514530D01*
X141523818Y-83590528D01*
X141404731Y-83677049D01*
X141202671Y-83872176D01*
X141029735Y-84093525D01*
X141027539Y-84097329D01*
X141027534Y-84097336D01*
X140913717Y-84294475D01*
X140889287Y-84336788D01*
X140784061Y-84597231D01*
X140782996Y-84601504D01*
X140782995Y-84601506D01*
X140749302Y-84736643D01*
X140716106Y-84869783D01*
X140686745Y-85149140D01*
X140000000Y-85149140D01*
X140000000Y-80759500D01*
X140020002Y-80691379D01*
X140073658Y-80644886D01*
X140126000Y-80633500D01*
X162791800Y-80633500D01*
X162859921Y-80653502D01*
G37*
%TD.AperFunction*%
%TA.AperFunction,Conductor*%
G36*
X140198669Y-58972475D02*
G01*
X140248978Y-59007992D01*
X140259142Y-59015979D01*
X140264335Y-59020510D01*
X140268459Y-59023112D01*
X140268460Y-59023113D01*
X140283918Y-59032867D01*
X140289345Y-59036491D01*
X140302089Y-59045488D01*
X140302095Y-59045491D01*
X140305757Y-59048077D01*
X140312605Y-59051577D01*
X140322481Y-59057202D01*
X140424127Y-59121341D01*
X140516909Y-59179888D01*
X140527584Y-59187472D01*
X140527999Y-59187753D01*
X140531803Y-59190782D01*
X140553849Y-59203346D01*
X140558643Y-59206223D01*
X140577518Y-59218133D01*
X140581604Y-59219961D01*
X140581608Y-59219963D01*
X140582507Y-59220365D01*
X140593441Y-59225910D01*
X140794045Y-59340236D01*
X140804824Y-59347126D01*
X140810715Y-59351328D01*
X140830364Y-59361189D01*
X140831131Y-59361574D01*
X140836997Y-59364715D01*
X140854146Y-59374488D01*
X140861617Y-59377435D01*
X140871879Y-59382023D01*
X140945541Y-59418991D01*
X141078849Y-59485893D01*
X141090377Y-59492460D01*
X141091333Y-59493073D01*
X141091341Y-59493077D01*
X141095434Y-59495704D01*
X141117445Y-59505431D01*
X141123029Y-59508064D01*
X141137747Y-59515451D01*
X141137752Y-59515453D01*
X141141755Y-59517462D01*
X141146011Y-59518886D01*
X141148189Y-59519615D01*
X141159132Y-59523853D01*
X141369674Y-59616893D01*
X141381629Y-59622956D01*
X141382301Y-59623343D01*
X141382312Y-59623348D01*
X141386532Y-59625779D01*
X141409303Y-59634563D01*
X141414867Y-59636864D01*
X141434360Y-59645478D01*
X141440562Y-59647220D01*
X141451827Y-59650966D01*
X141566434Y-59695175D01*
X141666114Y-59733626D01*
X141678457Y-59739166D01*
X141678697Y-59739289D01*
X141683217Y-59741617D01*
X141706659Y-59749415D01*
X141712214Y-59751409D01*
X141728182Y-59757569D01*
X141728194Y-59757573D01*
X141732361Y-59759180D01*
X141738356Y-59760558D01*
X141749887Y-59763793D01*
X141969427Y-59836818D01*
X141981340Y-59841464D01*
X141987942Y-59844434D01*
X142009962Y-59850486D01*
X142016322Y-59852417D01*
X142030799Y-59857232D01*
X142030807Y-59857234D01*
X142035055Y-59858647D01*
X142042947Y-59860074D01*
X142053925Y-59862570D01*
X142276301Y-59923691D01*
X142289268Y-59928024D01*
X142293874Y-59929847D01*
X142298624Y-59930922D01*
X142298632Y-59930924D01*
X142318359Y-59935387D01*
X142323941Y-59936784D01*
X142345144Y-59942611D01*
X142350833Y-59943331D01*
X142362801Y-59945438D01*
X142587631Y-59996295D01*
X142600076Y-59999790D01*
X142601996Y-60000437D01*
X142602003Y-60000439D01*
X142606617Y-60001994D01*
X142611412Y-60002820D01*
X142611415Y-60002821D01*
X142629459Y-60005930D01*
X142635851Y-60007202D01*
X142655425Y-60011630D01*
X142659890Y-60011989D01*
X142659904Y-60011991D01*
X142663091Y-60012247D01*
X142674385Y-60013671D01*
X142902195Y-60052924D01*
X142915251Y-60055895D01*
X142920734Y-60057454D01*
X142941446Y-60060005D01*
X142944899Y-60060430D01*
X142950864Y-60061310D01*
X142971839Y-60064924D01*
X142978325Y-60065108D01*
X142990140Y-60066001D01*
X143091735Y-60078512D01*
X143218324Y-60094101D01*
X143231546Y-60096450D01*
X143232253Y-60096615D01*
X143232267Y-60096617D01*
X143237006Y-60097723D01*
X143241860Y-60098087D01*
X143241863Y-60098087D01*
X143253240Y-60098939D01*
X143261419Y-60099552D01*
X143267399Y-60100143D01*
X143288587Y-60102753D01*
X143294961Y-60102627D01*
X143306841Y-60102955D01*
X143537063Y-60120202D01*
X143549976Y-60121844D01*
X143556502Y-60123020D01*
X143561366Y-60123136D01*
X143561368Y-60123136D01*
X143566965Y-60123269D01*
X143579935Y-60123578D01*
X143586310Y-60123892D01*
X143606621Y-60125413D01*
X143611090Y-60125111D01*
X143611097Y-60125111D01*
X143614024Y-60124913D01*
X143625514Y-60124662D01*
X143851755Y-60130045D01*
X143858251Y-60130373D01*
X143862988Y-60131110D01*
X143895053Y-60131110D01*
X143898050Y-60131146D01*
X143927010Y-60131835D01*
X143931464Y-60131305D01*
X143932603Y-60131251D01*
X143938563Y-60131110D01*
X151360500Y-60131110D01*
X151428621Y-60151112D01*
X151475114Y-60204768D01*
X151486500Y-60257110D01*
X151486500Y-69374000D01*
X151498234Y-69483149D01*
X151498952Y-69486449D01*
X151498952Y-69486450D01*
X151505961Y-69518669D01*
X151509620Y-69535491D01*
X151544290Y-69639657D01*
X151623308Y-69762612D01*
X151669801Y-69816268D01*
X151673194Y-69819208D01*
X151773450Y-69906081D01*
X151773453Y-69906083D01*
X151780261Y-69911982D01*
X151913210Y-69972698D01*
X151936964Y-69979673D01*
X151977008Y-69991431D01*
X151977012Y-69991432D01*
X151981331Y-69992700D01*
X151985780Y-69993340D01*
X151985786Y-69993341D01*
X152121553Y-70012861D01*
X152121558Y-70012861D01*
X152126000Y-70013500D01*
X159240500Y-70013500D01*
X159308621Y-70033502D01*
X159355114Y-70087158D01*
X159366500Y-70139500D01*
X159366500Y-71297476D01*
X159346498Y-71365597D01*
X159334142Y-71381779D01*
X159260960Y-71463056D01*
X159257659Y-71468774D01*
X159198707Y-71570882D01*
X159165473Y-71628444D01*
X159106458Y-71810072D01*
X159086496Y-72000000D01*
X159106458Y-72189928D01*
X159165473Y-72371556D01*
X159260960Y-72536944D01*
X159388747Y-72678866D01*
X159543248Y-72791118D01*
X159549276Y-72793802D01*
X159549278Y-72793803D01*
X159711681Y-72866109D01*
X159717712Y-72868794D01*
X159811113Y-72888647D01*
X159898056Y-72907128D01*
X159898061Y-72907128D01*
X159904513Y-72908500D01*
X160095487Y-72908500D01*
X160101939Y-72907128D01*
X160101944Y-72907128D01*
X160188887Y-72888647D01*
X160282288Y-72868794D01*
X160288319Y-72866109D01*
X160450722Y-72793803D01*
X160450724Y-72793802D01*
X160456752Y-72791118D01*
X160611253Y-72678866D01*
X160739040Y-72536944D01*
X160834527Y-72371556D01*
X160893542Y-72189928D01*
X160913504Y-72000000D01*
X160893542Y-71810072D01*
X160834527Y-71628444D01*
X160801294Y-71570882D01*
X160742341Y-71468774D01*
X160739040Y-71463056D01*
X160665863Y-71381785D01*
X160635147Y-71317779D01*
X160633500Y-71297476D01*
X160633500Y-70139500D01*
X160653502Y-70071379D01*
X160707158Y-70024886D01*
X160759500Y-70013500D01*
X167874000Y-70013500D01*
X167877346Y-70013140D01*
X167877351Y-70013140D01*
X167979785Y-70002128D01*
X167979792Y-70002127D01*
X167983149Y-70001766D01*
X167986450Y-70001048D01*
X168032210Y-69991094D01*
X168032215Y-69991093D01*
X168035491Y-69990380D01*
X168139657Y-69955710D01*
X168262612Y-69876692D01*
X168316268Y-69830199D01*
X168371888Y-69766010D01*
X168406081Y-69726550D01*
X168406083Y-69726547D01*
X168411982Y-69719739D01*
X168472698Y-69586790D01*
X168492700Y-69518669D01*
X168497333Y-69486450D01*
X168512861Y-69378447D01*
X168512861Y-69378442D01*
X168513500Y-69374000D01*
X168513500Y-60257110D01*
X168533502Y-60188989D01*
X168587158Y-60142496D01*
X168639500Y-60131110D01*
X178059497Y-60131110D01*
X178066528Y-60131526D01*
X178066532Y-60131439D01*
X178071411Y-60131639D01*
X178076235Y-60132212D01*
X178081093Y-60132036D01*
X178081096Y-60132036D01*
X178104336Y-60131193D01*
X178108902Y-60131110D01*
X178133909Y-60131110D01*
X178138344Y-60130475D01*
X178142817Y-60130156D01*
X178142818Y-60130171D01*
X178149841Y-60129543D01*
X178527564Y-60115846D01*
X178539159Y-60115959D01*
X178549436Y-60116534D01*
X178569183Y-60114580D01*
X178577012Y-60114052D01*
X178581429Y-60113892D01*
X178589229Y-60113610D01*
X178589234Y-60113610D01*
X178593718Y-60113447D01*
X178598134Y-60112650D01*
X178598137Y-60112650D01*
X178604633Y-60111478D01*
X178614595Y-60110089D01*
X178718848Y-60099776D01*
X178847915Y-60087009D01*
X178861311Y-60086401D01*
X178866958Y-60086446D01*
X178871767Y-60085736D01*
X178871784Y-60085735D01*
X178891103Y-60082883D01*
X178897098Y-60082144D01*
X178918284Y-60080048D01*
X178924545Y-60078510D01*
X178936188Y-60076227D01*
X179164748Y-60042489D01*
X179177642Y-60041258D01*
X179179618Y-60041172D01*
X179179623Y-60041171D01*
X179184480Y-60040959D01*
X179207298Y-60036376D01*
X179213675Y-60035267D01*
X179229144Y-60032984D01*
X179229148Y-60032983D01*
X179233573Y-60032330D01*
X179240884Y-60030158D01*
X179251950Y-60027410D01*
X179477798Y-59982053D01*
X179491225Y-59980111D01*
X179491349Y-59980090D01*
X179496198Y-59979657D01*
X179520665Y-59973576D01*
X179526233Y-59972326D01*
X179543525Y-59968854D01*
X179543531Y-59968852D01*
X179547920Y-59967971D01*
X179553207Y-59966098D01*
X179564886Y-59962587D01*
X179788572Y-59906998D01*
X179801152Y-59904544D01*
X179808228Y-59903534D01*
X179830171Y-59896837D01*
X179836496Y-59895088D01*
X179843615Y-59893318D01*
X179914545Y-59896301D01*
X179972606Y-59937159D01*
X179999361Y-60002922D01*
X180000000Y-60015599D01*
X180000000Y-77740500D01*
X179979998Y-77808621D01*
X179926342Y-77855114D01*
X179874000Y-77866500D01*
X150208200Y-77866500D01*
X150140079Y-77846498D01*
X150120853Y-77830157D01*
X150120580Y-77830460D01*
X150115668Y-77826037D01*
X150111253Y-77821134D01*
X149956752Y-77708882D01*
X149950724Y-77706198D01*
X149950722Y-77706197D01*
X149788319Y-77633891D01*
X149788318Y-77633891D01*
X149782288Y-77631206D01*
X149688888Y-77611353D01*
X149601944Y-77592872D01*
X149601939Y-77592872D01*
X149595487Y-77591500D01*
X149404513Y-77591500D01*
X149398061Y-77592872D01*
X149398056Y-77592872D01*
X149311112Y-77611353D01*
X149217712Y-77631206D01*
X149211682Y-77633891D01*
X149211681Y-77633891D01*
X149049278Y-77706197D01*
X149049276Y-77706198D01*
X149043248Y-77708882D01*
X148888747Y-77821134D01*
X148884332Y-77826037D01*
X148879420Y-77830460D01*
X148878295Y-77829211D01*
X148824986Y-77862051D01*
X148791800Y-77866500D01*
X140126000Y-77866500D01*
X140057879Y-77846498D01*
X140011386Y-77792842D01*
X140000000Y-77740500D01*
X140000000Y-59075408D01*
X140020002Y-59007287D01*
X140073658Y-58960794D01*
X140143932Y-58950690D01*
X140198669Y-58972475D01*
G37*
%TD.AperFunction*%
%TD*%
M02*
