%TF.GenerationSoftware,KiCad,Pcbnew,(6.0.7-1)-1*%
%TF.CreationDate,2022-12-23T00:58:57+01:00*%
%TF.ProjectId,acacia,61636163-6961-42e6-9b69-6361645f7063,rev?*%
%TF.SameCoordinates,Original*%
%TF.FileFunction,Paste,Bot*%
%TF.FilePolarity,Positive*%
%FSLAX46Y46*%
G04 Gerber Fmt 4.6, Leading zero omitted, Abs format (unit mm)*
G04 Created by KiCad (PCBNEW (6.0.7-1)-1) date 2022-12-23 00:58:57*
%MOMM*%
%LPD*%
G01*
G04 APERTURE LIST*
G04 Aperture macros list*
%AMRoundRect*
0 Rectangle with rounded corners*
0 $1 Rounding radius*
0 $2 $3 $4 $5 $6 $7 $8 $9 X,Y pos of 4 corners*
0 Add a 4 corners polygon primitive as box body*
4,1,4,$2,$3,$4,$5,$6,$7,$8,$9,$2,$3,0*
0 Add four circle primitives for the rounded corners*
1,1,$1+$1,$2,$3*
1,1,$1+$1,$4,$5*
1,1,$1+$1,$6,$7*
1,1,$1+$1,$8,$9*
0 Add four rect primitives between the rounded corners*
20,1,$1+$1,$2,$3,$4,$5,0*
20,1,$1+$1,$4,$5,$6,$7,0*
20,1,$1+$1,$6,$7,$8,$9,0*
20,1,$1+$1,$8,$9,$2,$3,0*%
G04 Aperture macros list end*
%ADD10RoundRect,0.200000X-0.530532X-1.405938X1.418030X-0.497309X0.530532X1.405938X-1.418030X0.497309X0*%
%ADD11RoundRect,0.200000X-1.399810X-0.546494X0.579275X-1.386566X1.399810X0.546494X-0.579275X1.386566X0*%
%ADD12RoundRect,0.200000X-1.310130X-0.735992X0.766610X-1.292453X1.310130X0.735992X-0.766610X1.292453X0*%
%ADD13RoundRect,0.200000X-1.369291X-0.619006X0.651048X-1.354349X1.369291X0.619006X-0.651048X1.354349X0*%
%ADD14RoundRect,0.200000X-1.493556X-0.165575X0.200667X-1.489247X1.493556X0.165575X-0.200667X1.489247X0*%
%ADD15RoundRect,0.200000X-0.766610X-1.292453X1.310130X-0.735992X0.766610X1.292453X-1.310130X0.735992X0*%
%ADD16RoundRect,0.200000X-1.418030X-0.497309X0.530532X-1.405938X1.418030X0.497309X-0.530532X1.405938X0*%
%ADD17RoundRect,0.200000X-1.226021X-0.868906X0.897509X-1.205240X1.226021X0.868906X-0.897509X1.205240X0*%
%ADD18RoundRect,0.200000X-0.651048X-1.354349X1.369291X-0.619006X0.651048X1.354349X-1.369291X0.619006X0*%
%ADD19RoundRect,0.200000X-0.579275X-1.386566X1.399810X-0.546494X0.579275X1.386566X-1.399810X0.546494X0*%
%ADD20RoundRect,0.200000X-1.502602X0.017678X0.017678X-1.502602X1.502602X-0.017678X-0.017678X1.502602X0*%
%ADD21RoundRect,0.200000X-0.431166X-1.439521X1.449266X-0.397180X0.431166X1.439521X-1.449266X0.397180X0*%
%ADD22RoundRect,0.200000X-0.897509X-1.205240X1.226021X-0.868906X0.897509X1.205240X-1.226021X0.868906X0*%
%ADD23RoundRect,0.200000X-1.449266X-0.397180X0.431166X-1.439521X1.449266X0.397180X-0.431166X1.439521X0*%
%ADD24RoundRect,0.200000X-0.017678X-1.502602X1.502602X0.017678X0.017678X1.502602X-1.502602X-0.017678X0*%
%ADD25RoundRect,0.200000X-0.200667X-1.489247X1.493556X-0.165575X0.200667X1.489247X-1.493556X0.165575X0*%
%ADD26RoundRect,0.250000X0.450000X-0.325000X0.450000X0.325000X-0.450000X0.325000X-0.450000X-0.325000X0*%
%ADD27RoundRect,0.250000X-0.475000X0.337500X-0.475000X-0.337500X0.475000X-0.337500X0.475000X0.337500X0*%
%ADD28R,2.000000X4.500000*%
%ADD29RoundRect,0.250000X-0.337500X-0.475000X0.337500X-0.475000X0.337500X0.475000X-0.337500X0.475000X0*%
%ADD30RoundRect,0.250000X-0.450000X0.325000X-0.450000X-0.325000X0.450000X-0.325000X0.450000X0.325000X0*%
%ADD31RoundRect,0.250000X-0.450000X0.350000X-0.450000X-0.350000X0.450000X-0.350000X0.450000X0.350000X0*%
%ADD32RoundRect,0.250000X-0.325000X-0.450000X0.325000X-0.450000X0.325000X0.450000X-0.325000X0.450000X0*%
%ADD33RoundRect,0.025500X-0.229500X-0.354500X0.229500X-0.354500X0.229500X0.354500X-0.229500X0.354500X0*%
%ADD34RoundRect,0.250000X-1.075000X0.400000X-1.075000X-0.400000X1.075000X-0.400000X1.075000X0.400000X0*%
%ADD35R,3.200000X1.000000*%
%ADD36RoundRect,0.250000X0.450000X-0.350000X0.450000X0.350000X-0.450000X0.350000X-0.450000X-0.350000X0*%
%ADD37RoundRect,0.250000X0.325000X0.450000X-0.325000X0.450000X-0.325000X-0.450000X0.325000X-0.450000X0*%
%ADD38RoundRect,0.150000X-0.150000X0.512500X-0.150000X-0.512500X0.150000X-0.512500X0.150000X0.512500X0*%
%ADD39RoundRect,0.250000X0.475000X-0.337500X0.475000X0.337500X-0.475000X0.337500X-0.475000X-0.337500X0*%
%ADD40R,0.600000X1.100000*%
%ADD41R,0.300000X1.100000*%
%ADD42R,1.600000X0.550000*%
%ADD43R,0.550000X1.600000*%
%ADD44RoundRect,0.250000X0.412500X0.650000X-0.412500X0.650000X-0.412500X-0.650000X0.412500X-0.650000X0*%
%ADD45RoundRect,0.250000X0.350000X0.450000X-0.350000X0.450000X-0.350000X-0.450000X0.350000X-0.450000X0*%
%ADD46RoundRect,0.250000X0.337500X0.475000X-0.337500X0.475000X-0.337500X-0.475000X0.337500X-0.475000X0*%
G04 APERTURE END LIST*
D10*
%TO.C,SW29*%
X184255359Y-106692229D03*
X194897749Y-98927021D03*
%TD*%
D11*
%TO.C,SW10*%
X89044515Y-87158674D03*
X101936338Y-89871573D03*
%TD*%
D12*
%TO.C,SW1*%
X49813816Y-79712815D03*
X62957739Y-80605118D03*
%TD*%
D13*
%TO.C,SW6*%
X74711009Y-69689968D03*
X87727147Y-71724443D03*
%TD*%
D10*
%TO.C,SW41*%
X176255359Y-89442229D03*
X186897749Y-81677021D03*
%TD*%
D12*
%TO.C,SW4*%
X28813816Y-83962815D03*
X41957739Y-84855118D03*
%TD*%
D10*
%TO.C,SW26*%
X189505359Y-72692229D03*
X200147749Y-64927021D03*
%TD*%
D14*
%TO.C,SW24*%
X184919265Y-144983709D03*
X196669660Y-150940818D03*
%TD*%
D12*
%TO.C,SW2*%
X44813816Y-98212815D03*
X57957739Y-99105118D03*
%TD*%
D11*
%TO.C,SW8*%
X103720680Y-52393588D03*
X116612503Y-55106487D03*
%TD*%
D15*
%TO.C,SW30*%
X279499015Y-87630281D03*
X291328138Y-81831076D03*
%TD*%
D16*
%TO.C,SW17*%
X93652260Y-122203728D03*
X106441551Y-125364892D03*
%TD*%
%TO.C,SW14*%
X132902260Y-83453728D03*
X145691551Y-86614892D03*
%TD*%
D15*
%TO.C,SW40*%
X263499015Y-101880281D03*
X275328138Y-96081076D03*
%TD*%
D10*
%TO.C,SW27*%
X197505359Y-89942229D03*
X208147749Y-82177021D03*
%TD*%
D16*
%TO.C,SW13*%
X103652260Y-101203728D03*
X116441551Y-104364892D03*
%TD*%
D17*
%TO.C,SW16*%
X65399572Y-115882933D03*
X78564762Y-115396433D03*
%TD*%
D18*
%TO.C,SW35*%
X233973547Y-74536393D03*
X245252222Y-67728280D03*
%TD*%
D19*
%TO.C,SW32*%
X212485766Y-75430248D03*
X223392675Y-68041184D03*
%TD*%
D20*
%TO.C,SW23*%
X198786200Y-129694097D03*
X209723020Y-137038815D03*
%TD*%
D10*
%TO.C,SW28*%
X205505359Y-107192229D03*
X216147749Y-99427021D03*
%TD*%
D12*
%TO.C,SW48*%
X54563816Y-61462815D03*
X67707739Y-62355118D03*
%TD*%
D21*
%TO.C,SW20*%
X136557277Y-169713342D03*
X146632069Y-161224674D03*
%TD*%
D16*
%TO.C,SW12*%
X111652260Y-83953728D03*
X124441551Y-87114892D03*
%TD*%
D15*
%TO.C,SW42*%
X274499015Y-69380281D03*
X286328138Y-63581076D03*
%TD*%
D22*
%TO.C,SW21*%
X242604885Y-118099610D03*
X254975388Y-113568653D03*
%TD*%
D19*
%TO.C,SW33*%
X219911931Y-92945334D03*
X230818840Y-85556270D03*
%TD*%
D18*
%TO.C,SW36*%
X240473547Y-92536393D03*
X251752222Y-85728280D03*
%TD*%
%TO.C,SW34*%
X227473547Y-56786393D03*
X238752222Y-49978280D03*
%TD*%
D23*
%TO.C,SW25*%
X173034736Y-162843590D03*
X185572361Y-166889190D03*
%TD*%
D24*
%TO.C,SW18*%
X113194097Y-139713800D03*
X120538815Y-128776980D03*
%TD*%
D13*
%TO.C,SW7*%
X68211009Y-87689968D03*
X81227147Y-89724443D03*
%TD*%
D25*
%TO.C,SW19*%
X125853164Y-153860414D03*
X134475999Y-143900211D03*
%TD*%
D13*
%TO.C,SW5*%
X81211009Y-51939968D03*
X94227147Y-53974443D03*
%TD*%
D15*
%TO.C,SW39*%
X258499015Y-83380281D03*
X270328138Y-77581076D03*
%TD*%
D16*
%TO.C,SW11*%
X119652260Y-66703728D03*
X132441551Y-69864892D03*
%TD*%
%TO.C,SW15*%
X124902260Y-100453728D03*
X137691551Y-103614892D03*
%TD*%
D15*
%TO.C,SW38*%
X253749015Y-65130281D03*
X265578138Y-59331076D03*
%TD*%
D12*
%TO.C,SW3*%
X33813816Y-65712815D03*
X46957739Y-66605118D03*
%TD*%
D10*
%TO.C,SW22*%
X215505359Y-128192229D03*
X226147749Y-120427021D03*
%TD*%
D19*
%TO.C,SW31*%
X205235766Y-57930248D03*
X216142675Y-50541184D03*
%TD*%
D11*
%TO.C,SW9*%
X96470680Y-69893588D03*
X109362503Y-72606487D03*
%TD*%
D26*
%TO.C,D33*%
X223500000Y-100025000D03*
X223500000Y-97975000D03*
%TD*%
%TO.C,D32*%
X209000000Y-78025000D03*
X209000000Y-75975000D03*
%TD*%
%TO.C,D48*%
X53500000Y-69025000D03*
X53500000Y-66975000D03*
%TD*%
D27*
%TO.C,C1*%
X167500000Y-70962500D03*
X167500000Y-73037500D03*
%TD*%
D28*
%TO.C,Y1*%
X170000000Y-106112500D03*
X170000000Y-114612500D03*
%TD*%
D26*
%TO.C,D15*%
X129000000Y-112025000D03*
X129000000Y-109975000D03*
%TD*%
D29*
%TO.C,C7*%
X143462500Y-121000000D03*
X145537500Y-121000000D03*
%TD*%
D30*
%TO.C,D18*%
X124500000Y-137475000D03*
X124500000Y-139525000D03*
%TD*%
D26*
%TO.C,D30*%
X185000000Y-113525000D03*
X185000000Y-111475000D03*
%TD*%
D31*
%TO.C,R3*%
X158500000Y-90000000D03*
X158500000Y-92000000D03*
%TD*%
D32*
%TO.C,D11*%
X114975000Y-70500000D03*
X117025000Y-70500000D03*
%TD*%
D33*
%TO.C,FL1*%
X159565000Y-79835000D03*
X159565000Y-78165000D03*
X160435000Y-78165000D03*
X160435000Y-79835000D03*
%TD*%
D30*
%TO.C,D13*%
X104000000Y-95475000D03*
X104000000Y-97525000D03*
%TD*%
D32*
%TO.C,D17*%
X84975000Y-119000000D03*
X87025000Y-119000000D03*
%TD*%
%TO.C,D37*%
X249975000Y-69500000D03*
X252025000Y-69500000D03*
%TD*%
D34*
%TO.C,F1*%
X170500000Y-75450000D03*
X170500000Y-78550000D03*
%TD*%
D26*
%TO.C,D35*%
X230500000Y-77525000D03*
X230500000Y-75475000D03*
%TD*%
D30*
%TO.C,D27*%
X195000000Y-84475000D03*
X195000000Y-86525000D03*
%TD*%
D35*
%TO.C,SW43*%
X167600000Y-94000000D03*
X174400000Y-94000000D03*
X167600000Y-98000000D03*
X174400000Y-98000000D03*
%TD*%
D36*
%TO.C,R1*%
X176500000Y-68500000D03*
X176500000Y-66500000D03*
%TD*%
D26*
%TO.C,D31*%
X205500000Y-63525000D03*
X205500000Y-61475000D03*
%TD*%
D35*
%TO.C,SW49*%
X133100000Y-119000000D03*
X139900000Y-119000000D03*
X133100000Y-123000000D03*
X139900000Y-123000000D03*
%TD*%
D37*
%TO.C,D40*%
X277025000Y-75000000D03*
X274975000Y-75000000D03*
%TD*%
D26*
%TO.C,D7*%
X65500000Y-93525000D03*
X65500000Y-91475000D03*
%TD*%
D38*
%TO.C,U1*%
X159050000Y-72862500D03*
X160000000Y-72862500D03*
X160950000Y-72862500D03*
X160950000Y-75137500D03*
X160000000Y-75137500D03*
X159050000Y-75137500D03*
%TD*%
D31*
%TO.C,R2*%
X161000000Y-90000000D03*
X161000000Y-92000000D03*
%TD*%
D37*
%TO.C,D20*%
X157525000Y-163000000D03*
X155475000Y-163000000D03*
%TD*%
D32*
%TO.C,D8*%
X91975000Y-62000000D03*
X94025000Y-62000000D03*
%TD*%
%TO.C,D25*%
X160975000Y-163000000D03*
X163025000Y-163000000D03*
%TD*%
D39*
%TO.C,C2*%
X173500000Y-68537500D03*
X173500000Y-66462500D03*
%TD*%
D32*
%TO.C,D39*%
X259475000Y-98000000D03*
X261525000Y-98000000D03*
%TD*%
D30*
%TO.C,D1*%
X46500000Y-76475000D03*
X46500000Y-78525000D03*
%TD*%
D37*
%TO.C,D3*%
X36025000Y-74500000D03*
X33975000Y-74500000D03*
%TD*%
D26*
%TO.C,D10*%
X86500000Y-93025000D03*
X86500000Y-90975000D03*
%TD*%
D31*
%TO.C,FB2*%
X170500000Y-71000000D03*
X170500000Y-73000000D03*
%TD*%
D26*
%TO.C,D9*%
X93500000Y-76025000D03*
X93500000Y-73975000D03*
%TD*%
D39*
%TO.C,C4*%
X174000000Y-113037500D03*
X174000000Y-110962500D03*
%TD*%
D30*
%TO.C,D19*%
X128000000Y-141475000D03*
X128000000Y-143525000D03*
%TD*%
%TO.C,D38*%
X257000000Y-78475000D03*
X257000000Y-80525000D03*
%TD*%
D37*
%TO.C,D2*%
X47525000Y-92500000D03*
X45475000Y-92500000D03*
%TD*%
D40*
%TO.C,J1*%
X156800000Y-68000000D03*
X157600000Y-68000000D03*
D41*
X158750000Y-68000000D03*
X159750000Y-68000000D03*
X160250000Y-68000000D03*
X161250000Y-68000000D03*
D40*
X162400000Y-68000000D03*
X163200000Y-68000000D03*
D41*
X161750000Y-68000000D03*
X160750000Y-68000000D03*
X159250000Y-68000000D03*
X158250000Y-68000000D03*
%TD*%
D26*
%TO.C,D26*%
X186000000Y-76025000D03*
X186000000Y-73975000D03*
%TD*%
D42*
%TO.C,U2*%
X163250000Y-110200000D03*
X163250000Y-111000000D03*
X163250000Y-111800000D03*
X163250000Y-112600000D03*
X163250000Y-113400000D03*
X163250000Y-114200000D03*
X163250000Y-115000000D03*
X163250000Y-115800000D03*
D43*
X161800000Y-117250000D03*
X161000000Y-117250000D03*
X160200000Y-117250000D03*
X159400000Y-117250000D03*
X158600000Y-117250000D03*
X157800000Y-117250000D03*
X157000000Y-117250000D03*
X156200000Y-117250000D03*
D42*
X154750000Y-115800000D03*
X154750000Y-115000000D03*
X154750000Y-114200000D03*
X154750000Y-113400000D03*
X154750000Y-112600000D03*
X154750000Y-111800000D03*
X154750000Y-111000000D03*
X154750000Y-110200000D03*
D43*
X156200000Y-108750000D03*
X157000000Y-108750000D03*
X157800000Y-108750000D03*
X158600000Y-108750000D03*
X159400000Y-108750000D03*
X160200000Y-108750000D03*
X161000000Y-108750000D03*
X161800000Y-108750000D03*
%TD*%
D26*
%TO.C,D36*%
X240500000Y-100025000D03*
X240500000Y-97975000D03*
%TD*%
D37*
%TO.C,D14*%
X132525000Y-90750000D03*
X130475000Y-90750000D03*
%TD*%
%TO.C,D29*%
X180525000Y-95000000D03*
X178475000Y-95000000D03*
%TD*%
D26*
%TO.C,D6*%
X72000000Y-76025000D03*
X72000000Y-73975000D03*
%TD*%
D37*
%TO.C,D4*%
X30525000Y-90000000D03*
X28475000Y-90000000D03*
%TD*%
D30*
%TO.C,D12*%
X108000000Y-81500000D03*
X108000000Y-83550000D03*
%TD*%
D44*
%TO.C,C6*%
X161312500Y-106000000D03*
X158187500Y-106000000D03*
%TD*%
D39*
%TO.C,C8*%
X165787500Y-115000000D03*
X165787500Y-112925000D03*
%TD*%
D27*
%TO.C,C3*%
X174000000Y-106962500D03*
X174000000Y-109037500D03*
%TD*%
D31*
%TO.C,R7*%
X149500000Y-66500000D03*
X149500000Y-68500000D03*
%TD*%
D32*
%TO.C,D21*%
X235975000Y-115000000D03*
X238025000Y-115000000D03*
%TD*%
%TO.C,D16*%
X59975000Y-114500000D03*
X62025000Y-114500000D03*
%TD*%
D30*
%TO.C,D23*%
X193500000Y-123475000D03*
X193500000Y-125525000D03*
%TD*%
D26*
%TO.C,D41*%
X280000000Y-94025000D03*
X280000000Y-91975000D03*
%TD*%
D31*
%TO.C,R8*%
X147000000Y-66500000D03*
X147000000Y-68500000D03*
%TD*%
%TO.C,R6*%
X158500000Y-120500000D03*
X158500000Y-122500000D03*
%TD*%
D37*
%TO.C,D22*%
X219025000Y-118000000D03*
X216975000Y-118000000D03*
%TD*%
D26*
%TO.C,D34*%
X228500000Y-63525000D03*
X228500000Y-61475000D03*
%TD*%
D30*
%TO.C,D28*%
X203000000Y-101475000D03*
X203000000Y-103525000D03*
%TD*%
%TO.C,D24*%
X185000000Y-137975000D03*
X185000000Y-140025000D03*
%TD*%
D36*
%TO.C,FB1*%
X173500000Y-73000000D03*
X173500000Y-71000000D03*
%TD*%
D32*
%TO.C,D5*%
X75975000Y-55000000D03*
X78025000Y-55000000D03*
%TD*%
D45*
%TO.C,R5*%
X143500000Y-116000000D03*
X141500000Y-116000000D03*
%TD*%
%TO.C,R4*%
X145500000Y-118500000D03*
X143500000Y-118500000D03*
%TD*%
D46*
%TO.C,C5*%
X155825000Y-106000000D03*
X153750000Y-106000000D03*
%TD*%
M02*
