%TF.GenerationSoftware,KiCad,Pcbnew,7.0.8*%
%TF.CreationDate,2023-10-18T22:01:13+02:00*%
%TF.ProjectId,acacia-2,61636163-6961-42d3-922e-6b696361645f,rev?*%
%TF.SameCoordinates,Original*%
%TF.FileFunction,Soldermask,Bot*%
%TF.FilePolarity,Negative*%
%FSLAX46Y46*%
G04 Gerber Fmt 4.6, Leading zero omitted, Abs format (unit mm)*
G04 Created by KiCad (PCBNEW 7.0.8) date 2023-10-18 22:01:13*
%MOMM*%
%LPD*%
G01*
G04 APERTURE LIST*
G04 Aperture macros list*
%AMRoundRect*
0 Rectangle with rounded corners*
0 $1 Rounding radius*
0 $2 $3 $4 $5 $6 $7 $8 $9 X,Y pos of 4 corners*
0 Add a 4 corners polygon primitive as box body*
4,1,4,$2,$3,$4,$5,$6,$7,$8,$9,$2,$3,0*
0 Add four circle primitives for the rounded corners*
1,1,$1+$1,$2,$3*
1,1,$1+$1,$4,$5*
1,1,$1+$1,$6,$7*
1,1,$1+$1,$8,$9*
0 Add four rect primitives between the rounded corners*
20,1,$1+$1,$2,$3,$4,$5,0*
20,1,$1+$1,$4,$5,$6,$7,0*
20,1,$1+$1,$6,$7,$8,$9,0*
20,1,$1+$1,$8,$9,$2,$3,0*%
G04 Aperture macros list end*
%ADD10C,1.701800*%
%ADD11C,3.000000*%
%ADD12C,3.987800*%
%ADD13RoundRect,0.200000X-0.766610X-1.292453X1.310130X-0.735992X0.766610X1.292453X-1.310130X0.735992X0*%
%ADD14RoundRect,0.200000X-1.310130X-0.735992X0.766610X-1.292453X1.310130X0.735992X-0.766610X1.292453X0*%
%ADD15RoundRect,0.200000X-1.292453X0.766610X-0.735992X-1.310130X1.292453X-0.766610X0.735992X1.310130X0*%
%ADD16RoundRect,0.200000X0.735992X-1.310130X1.292453X0.766610X-0.735992X1.310130X-1.292453X-0.766610X0*%
%ADD17C,1.250000*%
%ADD18RoundRect,0.250000X-0.600000X-0.725000X0.600000X-0.725000X0.600000X0.725000X-0.600000X0.725000X0*%
%ADD19O,1.700000X1.950000*%
%ADD20RoundRect,0.250000X0.325000X0.450000X-0.325000X0.450000X-0.325000X-0.450000X0.325000X-0.450000X0*%
%ADD21R,2.000000X4.500000*%
%ADD22RoundRect,0.250000X-0.450000X0.325000X-0.450000X-0.325000X0.450000X-0.325000X0.450000X0.325000X0*%
%ADD23RoundRect,0.250000X-0.450000X0.350000X-0.450000X-0.350000X0.450000X-0.350000X0.450000X0.350000X0*%
%ADD24RoundRect,0.025500X-0.229500X-0.354500X0.229500X-0.354500X0.229500X0.354500X-0.229500X0.354500X0*%
%ADD25RoundRect,0.250000X0.450000X-0.325000X0.450000X0.325000X-0.450000X0.325000X-0.450000X-0.325000X0*%
%ADD26RoundRect,0.250000X0.475000X-0.337500X0.475000X0.337500X-0.475000X0.337500X-0.475000X-0.337500X0*%
%ADD27RoundRect,0.250000X-0.325000X-0.450000X0.325000X-0.450000X0.325000X0.450000X-0.325000X0.450000X0*%
%ADD28RoundRect,0.250000X0.337500X0.475000X-0.337500X0.475000X-0.337500X-0.475000X0.337500X-0.475000X0*%
%ADD29C,3.200000*%
%ADD30R,3.200000X1.000000*%
%ADD31RoundRect,0.250000X0.350000X0.450000X-0.350000X0.450000X-0.350000X-0.450000X0.350000X-0.450000X0*%
%ADD32RoundRect,0.250000X-0.475000X0.337500X-0.475000X-0.337500X0.475000X-0.337500X0.475000X0.337500X0*%
%ADD33RoundRect,0.250000X-0.412500X-0.650000X0.412500X-0.650000X0.412500X0.650000X-0.412500X0.650000X0*%
%ADD34RoundRect,0.250000X0.450000X-0.350000X0.450000X0.350000X-0.450000X0.350000X-0.450000X-0.350000X0*%
%ADD35R,0.550000X1.500000*%
%ADD36R,1.500000X0.550000*%
%ADD37RoundRect,0.150000X-0.150000X0.512500X-0.150000X-0.512500X0.150000X-0.512500X0.150000X0.512500X0*%
%ADD38C,0.650000*%
%ADD39R,0.600000X1.150000*%
%ADD40R,0.300000X1.150000*%
%ADD41O,1.050000X2.100000*%
%ADD42O,1.000000X2.000000*%
%ADD43C,1.500000*%
%ADD44R,0.300000X1.300000*%
%ADD45R,1.800000X2.200000*%
%ADD46RoundRect,0.250000X-0.350000X-0.450000X0.350000X-0.450000X0.350000X0.450000X-0.350000X0.450000X0*%
%ADD47RoundRect,0.250000X-0.625000X0.400000X-0.625000X-0.400000X0.625000X-0.400000X0.625000X0.400000X0*%
G04 APERTURE END LIST*
D10*
%TO.C,SW18*%
X216193097Y-59214801D03*
D11*
X216762422Y-56432649D03*
D12*
X221100000Y-57900000D03*
D11*
X222238651Y-52335696D03*
D10*
X226006903Y-56585199D03*
D13*
X213599015Y-57280281D03*
X225428138Y-51481076D03*
%TD*%
D10*
%TO.C,SW5*%
X126293097Y-66185199D03*
D11*
X128177223Y-64060448D03*
D12*
X131200000Y-67500000D03*
D11*
X134968252Y-63250497D03*
D10*
X136106903Y-68814801D03*
D14*
X125013816Y-63212815D03*
X138157739Y-64105118D03*
%TD*%
D10*
%TO.C,SW10*%
X253693097Y-50814801D03*
D11*
X254262422Y-48032649D03*
D12*
X258600000Y-49500000D03*
D11*
X259738651Y-43935696D03*
D10*
X263506903Y-48185199D03*
D13*
X251099015Y-48880281D03*
X262928138Y-43081076D03*
%TD*%
D10*
%TO.C,SW9*%
X232286194Y-44729602D03*
D11*
X232855519Y-41947450D03*
D12*
X237193097Y-43414801D03*
D11*
X238331748Y-37850497D03*
D10*
X242100000Y-42100000D03*
D13*
X229692112Y-42795082D03*
X241521235Y-36995877D03*
%TD*%
D10*
%TO.C,SW24*%
X84086194Y-74870398D03*
D11*
X85970320Y-72745647D03*
D12*
X88993097Y-76185199D03*
D11*
X92761349Y-71935696D03*
D10*
X93900000Y-77500000D03*
D14*
X82806913Y-71898014D03*
X95950836Y-72790317D03*
%TD*%
D10*
%TO.C,SW28*%
X204586194Y-91429602D03*
D11*
X205155519Y-88647450D03*
D12*
X209493097Y-90114801D03*
D11*
X210631748Y-84550497D03*
D10*
X214400000Y-88800000D03*
D13*
X201992112Y-89495082D03*
X213821235Y-83695877D03*
%TD*%
D10*
%TO.C,SW39*%
X280670398Y-57986194D03*
D11*
X283452550Y-58555519D03*
D12*
X281985199Y-62893097D03*
D11*
X287549503Y-64031748D03*
D10*
X283300000Y-67800000D03*
D15*
X282604918Y-55392112D03*
X288404123Y-67221235D03*
%TD*%
D10*
%TO.C,SW2*%
X72986194Y-42070398D03*
D11*
X74870320Y-39945647D03*
D12*
X77893097Y-43385199D03*
D11*
X81661349Y-39135696D03*
D10*
X82800000Y-44700000D03*
D14*
X71706913Y-39098014D03*
X84850836Y-39990317D03*
%TD*%
D10*
%TO.C,SW25*%
X100586194Y-88870398D03*
D11*
X102470320Y-86745647D03*
D12*
X105493097Y-90185199D03*
D11*
X109261349Y-85935696D03*
D10*
X110400000Y-91500000D03*
D14*
X99306913Y-85898014D03*
X112450836Y-86790317D03*
%TD*%
D10*
%TO.C,SW36*%
X172185199Y-116293097D03*
D11*
X174967351Y-116862422D03*
D12*
X173500000Y-121200000D03*
D11*
X179064304Y-122338651D03*
D10*
X174814801Y-126106903D03*
D15*
X174119719Y-113699015D03*
X179918924Y-125528138D03*
%TD*%
D10*
%TO.C,SW23*%
X63093097Y-78885199D03*
D11*
X64977223Y-76760448D03*
D12*
X68000000Y-80200000D03*
D11*
X71768252Y-75950497D03*
D10*
X72906903Y-81514801D03*
D14*
X61813816Y-75912815D03*
X74957739Y-76805118D03*
%TD*%
D10*
%TO.C,SW32*%
X31685199Y-67813806D03*
D11*
X29560448Y-65929680D03*
D12*
X33000000Y-62906903D03*
D11*
X28750497Y-59138651D03*
D10*
X34314801Y-58000000D03*
D16*
X28712815Y-69093087D03*
X29605118Y-55949164D03*
%TD*%
D10*
%TO.C,SW26*%
X121670398Y-121113806D03*
D11*
X119545647Y-119229680D03*
D12*
X122985199Y-116206903D03*
D11*
X118735696Y-112438651D03*
D10*
X124300000Y-111300000D03*
D16*
X118698014Y-122393087D03*
X119590317Y-109249164D03*
%TD*%
D10*
%TO.C,SW15*%
X121393097Y-84585199D03*
D11*
X123277223Y-82460448D03*
D12*
X126300000Y-85900000D03*
D11*
X130068252Y-81650497D03*
D10*
X131206903Y-87214801D03*
D14*
X120113816Y-81612815D03*
X133257739Y-82505118D03*
%TD*%
D10*
%TO.C,SW16*%
X183793097Y-87314801D03*
D11*
X184362422Y-84532649D03*
D12*
X188700000Y-86000000D03*
D11*
X189838651Y-80435696D03*
D10*
X193606903Y-84685199D03*
D13*
X181199015Y-85380281D03*
X193028138Y-79581076D03*
%TD*%
D10*
%TO.C,SW37*%
X205586194Y-112429602D03*
D11*
X206155519Y-109647450D03*
D12*
X210493097Y-111114801D03*
D11*
X211631748Y-105550497D03*
D10*
X215400000Y-109800000D03*
D13*
X202992112Y-110495082D03*
X214821235Y-104695877D03*
%TD*%
D10*
%TO.C,SW12*%
X67993097Y-60485199D03*
D11*
X69877223Y-58360448D03*
D12*
X72900000Y-61800000D03*
D11*
X76668252Y-57550497D03*
D10*
X77806903Y-63114801D03*
D14*
X66713816Y-57512815D03*
X79857739Y-58405118D03*
%TD*%
D10*
%TO.C,SW31*%
X263600000Y-87500000D03*
D11*
X264169325Y-84717848D03*
D12*
X268506903Y-86185199D03*
D11*
X269645554Y-80620895D03*
D10*
X273413806Y-84870398D03*
D13*
X261005918Y-85565480D03*
X272835041Y-79766275D03*
%TD*%
D10*
%TO.C,SW7*%
X194693097Y-54814801D03*
D11*
X195262422Y-52032649D03*
D12*
X199600000Y-53500000D03*
D11*
X200738651Y-47935696D03*
D10*
X204506903Y-52185199D03*
D13*
X192099015Y-52880281D03*
X203928138Y-47081076D03*
%TD*%
D10*
%TO.C,SW35*%
X140200000Y-126000000D03*
D11*
X138075249Y-124115874D03*
D12*
X141514801Y-121093097D03*
D11*
X137265298Y-117324845D03*
D10*
X142829602Y-116186194D03*
D16*
X137227616Y-127279281D03*
X138119919Y-114135358D03*
%TD*%
D10*
%TO.C,SW4*%
X110393097Y-52185199D03*
D11*
X112277223Y-50060448D03*
D12*
X115300000Y-53500000D03*
D11*
X119068252Y-49250497D03*
D10*
X120206903Y-54814801D03*
D14*
X109113816Y-49212815D03*
X122257739Y-50105118D03*
%TD*%
%TO.C,SW34*%
X111450836Y-107690317D03*
X98306913Y-106798014D03*
D10*
X109400000Y-112400000D03*
D11*
X108261349Y-106835696D03*
D12*
X104493097Y-111085199D03*
D11*
X101470320Y-107645647D03*
D10*
X99586194Y-109770398D03*
%TD*%
%TO.C,SW22*%
X41586194Y-84870398D03*
D11*
X43470320Y-82745647D03*
D12*
X46493097Y-86185199D03*
D11*
X50261349Y-81935696D03*
D10*
X51400000Y-87500000D03*
D14*
X40306913Y-81898014D03*
X53450836Y-82790317D03*
%TD*%
D10*
%TO.C,SW6*%
X178986194Y-68929602D03*
D11*
X179555519Y-66147450D03*
D12*
X183893097Y-67614801D03*
D11*
X185031748Y-62050497D03*
D10*
X188800000Y-66300000D03*
D13*
X176392112Y-66995082D03*
X188221235Y-61195877D03*
%TD*%
D10*
%TO.C,SW8*%
X211286194Y-40829602D03*
D11*
X211855519Y-38047450D03*
D12*
X216193097Y-39514801D03*
D11*
X217331748Y-33950497D03*
D10*
X221100000Y-38200000D03*
D13*
X208692112Y-38895082D03*
X220521235Y-33095877D03*
%TD*%
D10*
%TO.C,SW13*%
X88986194Y-56470398D03*
D11*
X90870320Y-54345647D03*
D12*
X93893097Y-57785199D03*
D11*
X97661349Y-53535696D03*
D10*
X98800000Y-59100000D03*
D14*
X87706913Y-53498014D03*
X100850836Y-54390317D03*
%TD*%
D10*
%TO.C,SW17*%
X199693097Y-73114801D03*
D11*
X200262422Y-70332649D03*
D12*
X204600000Y-71800000D03*
D11*
X205738651Y-66235696D03*
D10*
X209506903Y-70485199D03*
D13*
X197099015Y-71180281D03*
X208928138Y-65381076D03*
%TD*%
D10*
%TO.C,SW1*%
X51393097Y-48085199D03*
D11*
X53277223Y-45960448D03*
D12*
X56300000Y-49400000D03*
D11*
X60068252Y-45150497D03*
D10*
X61206903Y-50714801D03*
D14*
X50113816Y-45112815D03*
X63257739Y-46005118D03*
%TD*%
D10*
%TO.C,SW19*%
X237193097Y-63114801D03*
D11*
X237762422Y-60332649D03*
D12*
X242100000Y-61800000D03*
D11*
X243238651Y-56235696D03*
D10*
X247006903Y-60485199D03*
D13*
X234599015Y-61180281D03*
X246428138Y-55381076D03*
%TD*%
D10*
%TO.C,SW20*%
X258693097Y-69114801D03*
D11*
X259262422Y-66332649D03*
D12*
X263600000Y-67800000D03*
D11*
X264738651Y-62235696D03*
D10*
X268506903Y-66485199D03*
D13*
X256099015Y-67180281D03*
X267928138Y-61381076D03*
%TD*%
D10*
%TO.C,SW11*%
X46486194Y-66470398D03*
D11*
X48370320Y-64345647D03*
D12*
X51393097Y-67785199D03*
D11*
X55161349Y-63535696D03*
D10*
X56300000Y-69100000D03*
D14*
X45206913Y-63498014D03*
X58350836Y-64390317D03*
%TD*%
D10*
%TO.C,SW33*%
X81370398Y-104113806D03*
D11*
X79245647Y-102229680D03*
D12*
X82685199Y-99206903D03*
D11*
X78435696Y-95438651D03*
D10*
X84000000Y-94300000D03*
D16*
X78398014Y-105393087D03*
X79290317Y-92249164D03*
%TD*%
D10*
%TO.C,SW27*%
X190600000Y-111300000D03*
D11*
X193382152Y-111869325D03*
D12*
X191914801Y-116206903D03*
D11*
X197479105Y-117345554D03*
D10*
X193229602Y-121113806D03*
D15*
X192534520Y-108705918D03*
X198333725Y-120535041D03*
%TD*%
D10*
%TO.C,SW30*%
X242093097Y-81514801D03*
D11*
X242662422Y-78732649D03*
D12*
X247000000Y-80200000D03*
D11*
X248138651Y-74635696D03*
D10*
X251906903Y-78885199D03*
D13*
X239499015Y-79580281D03*
X251328138Y-73781076D03*
%TD*%
D10*
%TO.C,SW3*%
X93886194Y-38170398D03*
D11*
X95770320Y-36045647D03*
D12*
X98793097Y-39485199D03*
D11*
X102561349Y-35235696D03*
D10*
X103700000Y-40800000D03*
D14*
X92606913Y-35198014D03*
X105750836Y-36090317D03*
%TD*%
D10*
%TO.C,SW29*%
X221153097Y-77514801D03*
D11*
X221722422Y-74732649D03*
D12*
X226060000Y-76200000D03*
D11*
X227198651Y-70635696D03*
D10*
X230966903Y-74885199D03*
D13*
X218559015Y-75580281D03*
X230388138Y-69781076D03*
%TD*%
D10*
%TO.C,SW14*%
X105583097Y-69805199D03*
D11*
X107467223Y-67680448D03*
D12*
X110490000Y-71120000D03*
D11*
X114258252Y-66870497D03*
D10*
X115396903Y-72434801D03*
D14*
X104303816Y-66832815D03*
X117447739Y-67725118D03*
%TD*%
D17*
%TO.C,J1*%
X137900000Y-96400000D03*
D18*
X139500000Y-98000000D03*
D19*
X142000000Y-98000000D03*
X144500000Y-98000000D03*
X147000000Y-98000000D03*
%TD*%
D10*
%TO.C,SW38*%
X230870398Y-94286194D03*
D11*
X233652550Y-94855519D03*
D12*
X232185199Y-99193097D03*
D11*
X237749503Y-100331748D03*
D10*
X233500000Y-104100000D03*
D15*
X232804918Y-91692112D03*
X238604123Y-103521235D03*
%TD*%
D20*
%TO.C,D21*%
X41550000Y-89500000D03*
X39500000Y-89500000D03*
%TD*%
D21*
%TO.C,Y1*%
X172000000Y-84500000D03*
X172000000Y-76000000D03*
%TD*%
D22*
%TO.C,D6*%
X174500000Y-61450000D03*
X174500000Y-63500000D03*
%TD*%
D23*
%TO.C,R6*%
X147000000Y-51000000D03*
X147000000Y-53000000D03*
%TD*%
D24*
%TO.C,FL1*%
X157065000Y-63670000D03*
X157065000Y-62000000D03*
X157935000Y-62000000D03*
X157935000Y-63670000D03*
%TD*%
D25*
%TO.C,D31*%
X37000000Y-91550000D03*
X37000000Y-89500000D03*
%TD*%
D26*
%TO.C,C5*%
X161500000Y-71575000D03*
X161500000Y-69500000D03*
%TD*%
D23*
%TO.C,R7*%
X149500000Y-51000000D03*
X149500000Y-53000000D03*
%TD*%
D27*
%TO.C,D14*%
X99950000Y-71000000D03*
X102000000Y-71000000D03*
%TD*%
D22*
%TO.C,D25*%
X116000000Y-101950000D03*
X116000000Y-104000000D03*
%TD*%
%TO.C,D35*%
X174000000Y-106950000D03*
X174000000Y-109000000D03*
%TD*%
D28*
%TO.C,C6*%
X142075000Y-110000000D03*
X140000000Y-110000000D03*
%TD*%
D29*
%TO.C,H2*%
X250500000Y-92200000D03*
%TD*%
D22*
%TO.C,D17*%
X195000000Y-65450000D03*
X195000000Y-67500000D03*
%TD*%
D25*
%TO.C,D27*%
X202000000Y-95550000D03*
X202000000Y-93500000D03*
%TD*%
D30*
%TO.C,SW21*%
X150800000Y-57500000D03*
X144000000Y-57500000D03*
X150800000Y-61500000D03*
X144000000Y-61500000D03*
%TD*%
D22*
%TO.C,D34*%
X132000000Y-112950000D03*
X132000000Y-115000000D03*
%TD*%
D26*
%TO.C,C9*%
X150500000Y-86075000D03*
X150500000Y-84000000D03*
%TD*%
D22*
%TO.C,D11*%
X44950000Y-57450000D03*
X44950000Y-59500000D03*
%TD*%
D25*
%TO.C,D13*%
X86000000Y-60050000D03*
X86000000Y-58000000D03*
%TD*%
D20*
%TO.C,D1*%
X51550000Y-51000000D03*
X49500000Y-51000000D03*
%TD*%
D23*
%TO.C,FB1*%
X168000000Y-63000000D03*
X168000000Y-65000000D03*
%TD*%
D27*
%TO.C,D10*%
X248950000Y-52500000D03*
X251000000Y-52500000D03*
%TD*%
D22*
%TO.C,D15*%
X116500000Y-78450000D03*
X116500000Y-80500000D03*
%TD*%
D31*
%TO.C,R5*%
X154500000Y-89000000D03*
X152500000Y-89000000D03*
%TD*%
%TO.C,R10*%
X167000000Y-49500000D03*
X165000000Y-49500000D03*
%TD*%
D25*
%TO.C,D37*%
X227500000Y-98050000D03*
X227500000Y-96000000D03*
%TD*%
D29*
%TO.C,H8*%
X87500000Y-33100000D03*
%TD*%
D32*
%TO.C,C3*%
X176200000Y-81500000D03*
X176200000Y-83575000D03*
%TD*%
D33*
%TO.C,C1*%
X155875000Y-71200000D03*
X159000000Y-71200000D03*
%TD*%
D29*
%TO.C,H3*%
X227500000Y-33200000D03*
%TD*%
D25*
%TO.C,D19*%
X234500000Y-66550000D03*
X234500000Y-64500000D03*
%TD*%
D26*
%TO.C,C4*%
X176200000Y-79000000D03*
X176200000Y-76925000D03*
%TD*%
D28*
%TO.C,C8*%
X167037500Y-52500000D03*
X164962500Y-52500000D03*
%TD*%
D20*
%TO.C,D2*%
X72550000Y-45000000D03*
X70500000Y-45000000D03*
%TD*%
D29*
%TO.C,H10*%
X42500000Y-51100000D03*
%TD*%
D25*
%TO.C,D7*%
X188500000Y-55550000D03*
X188500000Y-53500000D03*
%TD*%
D29*
%TO.C,H5*%
X181500000Y-54200000D03*
%TD*%
D32*
%TO.C,C7*%
X165000000Y-60925000D03*
X165000000Y-63000000D03*
%TD*%
%TO.C,C2*%
X168000000Y-76000000D03*
X168000000Y-78075000D03*
%TD*%
D23*
%TO.C,R8*%
X158500000Y-66000000D03*
X158500000Y-68000000D03*
%TD*%
D25*
%TO.C,D22*%
X59500000Y-81050000D03*
X59500000Y-79000000D03*
%TD*%
D34*
%TO.C,FB2*%
X167000000Y-57500000D03*
X167000000Y-55500000D03*
%TD*%
D31*
%TO.C,R1*%
X151500000Y-64500000D03*
X149500000Y-64500000D03*
%TD*%
D22*
%TO.C,D36*%
X201000000Y-103950000D03*
X201000000Y-106000000D03*
%TD*%
D29*
%TO.C,H6*%
X133500000Y-54200000D03*
%TD*%
%TO.C,H1*%
X272500000Y-51100000D03*
%TD*%
D25*
%TO.C,D9*%
X227000000Y-47525000D03*
X227000000Y-45475000D03*
%TD*%
%TO.C,D24*%
X97500000Y-93500000D03*
X97500000Y-91450000D03*
%TD*%
D20*
%TO.C,D29*%
X239550000Y-84000000D03*
X237500000Y-84000000D03*
%TD*%
D23*
%TO.C,R9*%
X156500000Y-66000000D03*
X156500000Y-68000000D03*
%TD*%
D27*
%TO.C,D18*%
X211450000Y-61000000D03*
X213500000Y-61000000D03*
%TD*%
D35*
%TO.C,U1*%
X155500000Y-74800000D03*
X156300000Y-74800000D03*
X157100000Y-74800000D03*
X157900000Y-74800000D03*
X158700000Y-74800000D03*
X159500000Y-74800000D03*
X160300000Y-74800000D03*
X161100000Y-74800000D03*
X161900000Y-74800000D03*
X162700000Y-74800000D03*
X163500000Y-74800000D03*
D36*
X165200000Y-76500000D03*
X165200000Y-77300000D03*
X165200000Y-78100000D03*
X165200000Y-78900000D03*
X165200000Y-79700000D03*
X165200000Y-80500000D03*
X165200000Y-81300000D03*
X165200000Y-82100000D03*
X165200000Y-82900000D03*
X165200000Y-83700000D03*
X165200000Y-84500000D03*
D35*
X163500000Y-86200000D03*
X162700000Y-86200000D03*
X161900000Y-86200000D03*
X161100000Y-86200000D03*
X160300000Y-86200000D03*
X159500000Y-86200000D03*
X158700000Y-86200000D03*
X157900000Y-86200000D03*
X157100000Y-86200000D03*
X156300000Y-86200000D03*
X155500000Y-86200000D03*
D36*
X153800000Y-84500000D03*
X153800000Y-83700000D03*
X153800000Y-82900000D03*
X153800000Y-82100000D03*
X153800000Y-81300000D03*
X153800000Y-80500000D03*
X153800000Y-79700000D03*
X153800000Y-78900000D03*
X153800000Y-78100000D03*
X153800000Y-77300000D03*
X153800000Y-76500000D03*
%TD*%
D22*
%TO.C,D16*%
X180000000Y-77950000D03*
X180000000Y-80000000D03*
%TD*%
%TO.C,D33*%
X94000000Y-103000000D03*
X94000000Y-105050000D03*
%TD*%
D37*
%TO.C,U2*%
X156550000Y-57000000D03*
X157500000Y-57000000D03*
X158450000Y-57000000D03*
X158450000Y-59275000D03*
X157500000Y-59275000D03*
X156550000Y-59275000D03*
%TD*%
D38*
%TO.C,J3*%
X154720000Y-53000000D03*
X160500000Y-53000000D03*
D39*
X154410000Y-54075000D03*
X155210000Y-54075000D03*
D40*
X156360000Y-54075000D03*
X157360000Y-54075000D03*
X157860000Y-54075000D03*
X158860000Y-54075000D03*
D39*
X160010000Y-54075000D03*
X160810000Y-54075000D03*
D40*
X159360000Y-54075000D03*
X158360000Y-54075000D03*
X156860000Y-54075000D03*
X155860000Y-54075000D03*
D41*
X153290000Y-53500000D03*
D42*
X153290000Y-49320000D03*
X161930000Y-49320000D03*
D41*
X161930000Y-53500000D03*
%TD*%
D20*
%TO.C,D3*%
X94050000Y-41000000D03*
X92000000Y-41000000D03*
%TD*%
D29*
%TO.C,H9*%
X64500000Y-92200000D03*
%TD*%
D25*
%TO.C,D38*%
X279000000Y-70550000D03*
X279000000Y-68500000D03*
%TD*%
%TO.C,D4*%
X107500000Y-55050000D03*
X107500000Y-53000000D03*
%TD*%
D27*
%TO.C,D20*%
X253950000Y-71000000D03*
X256000000Y-71000000D03*
%TD*%
D23*
%TO.C,R3*%
X167500000Y-89500000D03*
X167500000Y-91500000D03*
%TD*%
D22*
%TO.C,D5*%
X121000000Y-60500000D03*
X121000000Y-62550000D03*
%TD*%
D25*
%TO.C,D32*%
X73000000Y-107025000D03*
X73000000Y-104975000D03*
%TD*%
%TO.C,D23*%
X81000000Y-80050000D03*
X81000000Y-78000000D03*
%TD*%
D43*
%TO.C,TP2*%
X165000000Y-70750000D03*
%TD*%
D44*
%TO.C,J2*%
X160500000Y-97750000D03*
X160000000Y-97750000D03*
X159500000Y-97750000D03*
X159000000Y-97750000D03*
X158500000Y-97750000D03*
X158000000Y-97750000D03*
X157500000Y-97750000D03*
X157000000Y-97750000D03*
X156500000Y-97750000D03*
X156000000Y-97750000D03*
X155500000Y-97750000D03*
X155000000Y-97750000D03*
D45*
X162400000Y-101000000D03*
X153100000Y-101000000D03*
%TD*%
D20*
%TO.C,D28*%
X221000000Y-81000000D03*
X218950000Y-81000000D03*
%TD*%
D27*
%TO.C,D30*%
X255450000Y-86500000D03*
X257500000Y-86500000D03*
%TD*%
D46*
%TO.C,R2*%
X149500000Y-67000000D03*
X151500000Y-67000000D03*
%TD*%
D29*
%TO.C,H7*%
X121500000Y-127200000D03*
%TD*%
D25*
%TO.C,D8*%
X208500000Y-44550000D03*
X208500000Y-42500000D03*
%TD*%
D43*
%TO.C,TP1*%
X165000000Y-66750000D03*
%TD*%
D23*
%TO.C,R4*%
X165500000Y-89500000D03*
X165500000Y-91500000D03*
%TD*%
D25*
%TO.C,D12*%
X64500000Y-63550000D03*
X64500000Y-61500000D03*
%TD*%
D22*
%TO.C,D26*%
X195500000Y-103950000D03*
X195500000Y-106000000D03*
%TD*%
D29*
%TO.C,H4*%
X193500000Y-127200000D03*
%TD*%
D47*
%TO.C,F1*%
X161500000Y-57000000D03*
X161500000Y-60100000D03*
%TD*%
M02*
