%TF.GenerationSoftware,KiCad,Pcbnew,7.0.8*%
%TF.CreationDate,2023-10-18T22:01:12+02:00*%
%TF.ProjectId,acacia-2,61636163-6961-42d3-922e-6b696361645f,rev?*%
%TF.SameCoordinates,Original*%
%TF.FileFunction,Copper,L2,Bot*%
%TF.FilePolarity,Positive*%
%FSLAX46Y46*%
G04 Gerber Fmt 4.6, Leading zero omitted, Abs format (unit mm)*
G04 Created by KiCad (PCBNEW 7.0.8) date 2023-10-18 22:01:12*
%MOMM*%
%LPD*%
G01*
G04 APERTURE LIST*
G04 Aperture macros list*
%AMRoundRect*
0 Rectangle with rounded corners*
0 $1 Rounding radius*
0 $2 $3 $4 $5 $6 $7 $8 $9 X,Y pos of 4 corners*
0 Add a 4 corners polygon primitive as box body*
4,1,4,$2,$3,$4,$5,$6,$7,$8,$9,$2,$3,0*
0 Add four circle primitives for the rounded corners*
1,1,$1+$1,$2,$3*
1,1,$1+$1,$4,$5*
1,1,$1+$1,$6,$7*
1,1,$1+$1,$8,$9*
0 Add four rect primitives between the rounded corners*
20,1,$1+$1,$2,$3,$4,$5,0*
20,1,$1+$1,$4,$5,$6,$7,0*
20,1,$1+$1,$6,$7,$8,$9,0*
20,1,$1+$1,$8,$9,$2,$3,0*%
G04 Aperture macros list end*
%TA.AperFunction,SMDPad,CuDef*%
%ADD10RoundRect,0.200000X-0.766610X-1.292453X1.310130X-0.735992X0.766610X1.292453X-1.310130X0.735992X0*%
%TD*%
%TA.AperFunction,SMDPad,CuDef*%
%ADD11RoundRect,0.200000X-1.310130X-0.735992X0.766610X-1.292453X1.310130X0.735992X-0.766610X1.292453X0*%
%TD*%
%TA.AperFunction,SMDPad,CuDef*%
%ADD12RoundRect,0.200000X-1.292453X0.766610X-0.735992X-1.310130X1.292453X-0.766610X0.735992X1.310130X0*%
%TD*%
%TA.AperFunction,SMDPad,CuDef*%
%ADD13RoundRect,0.200000X0.735992X-1.310130X1.292453X0.766610X-0.735992X1.310130X-1.292453X-0.766610X0*%
%TD*%
%TA.AperFunction,ComponentPad*%
%ADD14RoundRect,0.250000X-0.600000X-0.725000X0.600000X-0.725000X0.600000X0.725000X-0.600000X0.725000X0*%
%TD*%
%TA.AperFunction,ComponentPad*%
%ADD15O,1.700000X1.950000*%
%TD*%
%TA.AperFunction,SMDPad,CuDef*%
%ADD16RoundRect,0.250000X0.325000X0.450000X-0.325000X0.450000X-0.325000X-0.450000X0.325000X-0.450000X0*%
%TD*%
%TA.AperFunction,SMDPad,CuDef*%
%ADD17R,2.000000X4.500000*%
%TD*%
%TA.AperFunction,SMDPad,CuDef*%
%ADD18RoundRect,0.250000X-0.450000X0.325000X-0.450000X-0.325000X0.450000X-0.325000X0.450000X0.325000X0*%
%TD*%
%TA.AperFunction,SMDPad,CuDef*%
%ADD19RoundRect,0.250000X-0.450000X0.350000X-0.450000X-0.350000X0.450000X-0.350000X0.450000X0.350000X0*%
%TD*%
%TA.AperFunction,SMDPad,CuDef*%
%ADD20RoundRect,0.025500X-0.229500X-0.354500X0.229500X-0.354500X0.229500X0.354500X-0.229500X0.354500X0*%
%TD*%
%TA.AperFunction,SMDPad,CuDef*%
%ADD21RoundRect,0.250000X0.450000X-0.325000X0.450000X0.325000X-0.450000X0.325000X-0.450000X-0.325000X0*%
%TD*%
%TA.AperFunction,SMDPad,CuDef*%
%ADD22RoundRect,0.250000X0.475000X-0.337500X0.475000X0.337500X-0.475000X0.337500X-0.475000X-0.337500X0*%
%TD*%
%TA.AperFunction,SMDPad,CuDef*%
%ADD23RoundRect,0.250000X-0.325000X-0.450000X0.325000X-0.450000X0.325000X0.450000X-0.325000X0.450000X0*%
%TD*%
%TA.AperFunction,SMDPad,CuDef*%
%ADD24RoundRect,0.250000X0.337500X0.475000X-0.337500X0.475000X-0.337500X-0.475000X0.337500X-0.475000X0*%
%TD*%
%TA.AperFunction,SMDPad,CuDef*%
%ADD25R,3.200000X1.000000*%
%TD*%
%TA.AperFunction,SMDPad,CuDef*%
%ADD26RoundRect,0.250000X0.350000X0.450000X-0.350000X0.450000X-0.350000X-0.450000X0.350000X-0.450000X0*%
%TD*%
%TA.AperFunction,SMDPad,CuDef*%
%ADD27RoundRect,0.250000X-0.475000X0.337500X-0.475000X-0.337500X0.475000X-0.337500X0.475000X0.337500X0*%
%TD*%
%TA.AperFunction,SMDPad,CuDef*%
%ADD28RoundRect,0.250000X-0.412500X-0.650000X0.412500X-0.650000X0.412500X0.650000X-0.412500X0.650000X0*%
%TD*%
%TA.AperFunction,SMDPad,CuDef*%
%ADD29RoundRect,0.250000X0.450000X-0.350000X0.450000X0.350000X-0.450000X0.350000X-0.450000X-0.350000X0*%
%TD*%
%TA.AperFunction,SMDPad,CuDef*%
%ADD30R,0.550000X1.500000*%
%TD*%
%TA.AperFunction,SMDPad,CuDef*%
%ADD31R,1.500000X0.550000*%
%TD*%
%TA.AperFunction,SMDPad,CuDef*%
%ADD32RoundRect,0.150000X-0.150000X0.512500X-0.150000X-0.512500X0.150000X-0.512500X0.150000X0.512500X0*%
%TD*%
%TA.AperFunction,SMDPad,CuDef*%
%ADD33R,0.600000X1.150000*%
%TD*%
%TA.AperFunction,SMDPad,CuDef*%
%ADD34R,0.300000X1.150000*%
%TD*%
%TA.AperFunction,ComponentPad*%
%ADD35O,1.050000X2.100000*%
%TD*%
%TA.AperFunction,ComponentPad*%
%ADD36O,1.000000X2.000000*%
%TD*%
%TA.AperFunction,SMDPad,CuDef*%
%ADD37C,1.500000*%
%TD*%
%TA.AperFunction,SMDPad,CuDef*%
%ADD38R,0.300000X1.300000*%
%TD*%
%TA.AperFunction,SMDPad,CuDef*%
%ADD39R,1.800000X2.200000*%
%TD*%
%TA.AperFunction,SMDPad,CuDef*%
%ADD40RoundRect,0.250000X-0.350000X-0.450000X0.350000X-0.450000X0.350000X0.450000X-0.350000X0.450000X0*%
%TD*%
%TA.AperFunction,SMDPad,CuDef*%
%ADD41RoundRect,0.250000X-0.625000X0.400000X-0.625000X-0.400000X0.625000X-0.400000X0.625000X0.400000X0*%
%TD*%
%TA.AperFunction,ViaPad*%
%ADD42C,0.800000*%
%TD*%
%TA.AperFunction,Conductor*%
%ADD43C,0.500000*%
%TD*%
%TA.AperFunction,Conductor*%
%ADD44C,0.250000*%
%TD*%
%TA.AperFunction,Conductor*%
%ADD45C,0.200000*%
%TD*%
G04 APERTURE END LIST*
D10*
%TO.P,SW18,1,1*%
%TO.N,Net-(D18-A)*%
X213599015Y-57280281D03*
%TO.P,SW18,2,2*%
%TO.N,C7*%
X225428138Y-51481076D03*
%TD*%
D11*
%TO.P,SW5,1,1*%
%TO.N,Net-(D5-A)*%
X125013816Y-63212815D03*
%TO.P,SW5,2,2*%
%TO.N,C4*%
X138157739Y-64105118D03*
%TD*%
D10*
%TO.P,SW10,1,1*%
%TO.N,Net-(D10-A)*%
X251099015Y-48880281D03*
%TO.P,SW10,2,2*%
%TO.N,C9*%
X262928138Y-43081076D03*
%TD*%
%TO.P,SW9,1,1*%
%TO.N,Net-(D9-A)*%
X229692112Y-42795082D03*
%TO.P,SW9,2,2*%
%TO.N,C8*%
X241521235Y-36995877D03*
%TD*%
D11*
%TO.P,SW24,1,1*%
%TO.N,Net-(D23-A)*%
X82806913Y-71898014D03*
%TO.P,SW24,2,2*%
%TO.N,C2*%
X95950836Y-72790317D03*
%TD*%
D10*
%TO.P,SW28,1,1*%
%TO.N,Net-(D27-A)*%
X201992112Y-89495082D03*
%TO.P,SW28,2,2*%
%TO.N,C6*%
X213821235Y-83695877D03*
%TD*%
D12*
%TO.P,SW39,1,1*%
%TO.N,Net-(D38-A)*%
X282604918Y-55392112D03*
%TO.P,SW39,2,2*%
%TO.N,C9*%
X288404123Y-67221235D03*
%TD*%
D11*
%TO.P,SW2,1,1*%
%TO.N,Net-(D2-A)*%
X71706913Y-39098014D03*
%TO.P,SW2,2,2*%
%TO.N,C1*%
X84850836Y-39990317D03*
%TD*%
%TO.P,SW25,1,1*%
%TO.N,Net-(D24-A)*%
X99306913Y-85898014D03*
%TO.P,SW25,2,2*%
%TO.N,C3*%
X112450836Y-86790317D03*
%TD*%
D12*
%TO.P,SW36,1,1*%
%TO.N,Net-(D35-A)*%
X174119719Y-113699015D03*
%TO.P,SW36,2,2*%
%TO.N,C5*%
X179918924Y-125528138D03*
%TD*%
D11*
%TO.P,SW23,1,1*%
%TO.N,Net-(D22-A)*%
X61813816Y-75912815D03*
%TO.P,SW23,2,2*%
%TO.N,C1*%
X74957739Y-76805118D03*
%TD*%
D13*
%TO.P,SW32,1,1*%
%TO.N,Net-(D31-A)*%
X28712815Y-69093087D03*
%TO.P,SW32,2,2*%
%TO.N,C0*%
X29605118Y-55949164D03*
%TD*%
%TO.P,SW26,1,1*%
%TO.N,Net-(D25-A)*%
X118698014Y-122393087D03*
%TO.P,SW26,2,2*%
%TO.N,C4*%
X119590317Y-109249164D03*
%TD*%
D11*
%TO.P,SW15,1,1*%
%TO.N,Net-(D15-A)*%
X120113816Y-81612815D03*
%TO.P,SW15,2,2*%
%TO.N,C4*%
X133257739Y-82505118D03*
%TD*%
D10*
%TO.P,SW16,1,1*%
%TO.N,Net-(D16-A)*%
X181199015Y-85380281D03*
%TO.P,SW16,2,2*%
%TO.N,C5*%
X193028138Y-79581076D03*
%TD*%
%TO.P,SW37,1,1*%
%TO.N,Net-(D36-A)*%
X202992112Y-110495082D03*
%TO.P,SW37,2,2*%
%TO.N,C6*%
X214821235Y-104695877D03*
%TD*%
D11*
%TO.P,SW12,1,1*%
%TO.N,Net-(D12-A)*%
X66713816Y-57512815D03*
%TO.P,SW12,2,2*%
%TO.N,C1*%
X79857739Y-58405118D03*
%TD*%
D10*
%TO.P,SW31,1,1*%
%TO.N,Net-(D30-A)*%
X261005918Y-85565480D03*
%TO.P,SW31,2,2*%
%TO.N,C9*%
X272835041Y-79766275D03*
%TD*%
%TO.P,SW7,1,1*%
%TO.N,Net-(D7-A)*%
X192099015Y-52880281D03*
%TO.P,SW7,2,2*%
%TO.N,C6*%
X203928138Y-47081076D03*
%TD*%
D13*
%TO.P,SW35,1,1*%
%TO.N,Net-(D34-A)*%
X137227616Y-127279281D03*
%TO.P,SW35,2,2*%
%TO.N,C4*%
X138119919Y-114135358D03*
%TD*%
D11*
%TO.P,SW4,1,1*%
%TO.N,Net-(D4-A)*%
X109113816Y-49212815D03*
%TO.P,SW4,2,2*%
%TO.N,C3*%
X122257739Y-50105118D03*
%TD*%
%TO.P,SW34,2,2*%
%TO.N,C3*%
X111450836Y-107690317D03*
%TO.P,SW34,1,1*%
%TO.N,Net-(D33-A)*%
X98306913Y-106798014D03*
%TD*%
%TO.P,SW22,1,1*%
%TO.N,Net-(D21-A)*%
X40306913Y-81898014D03*
%TO.P,SW22,2,2*%
%TO.N,C0*%
X53450836Y-82790317D03*
%TD*%
D10*
%TO.P,SW6,1,1*%
%TO.N,Net-(D6-A)*%
X176392112Y-66995082D03*
%TO.P,SW6,2,2*%
%TO.N,C5*%
X188221235Y-61195877D03*
%TD*%
%TO.P,SW8,1,1*%
%TO.N,Net-(D8-A)*%
X208692112Y-38895082D03*
%TO.P,SW8,2,2*%
%TO.N,C7*%
X220521235Y-33095877D03*
%TD*%
D11*
%TO.P,SW13,1,1*%
%TO.N,Net-(D13-A)*%
X87706913Y-53498014D03*
%TO.P,SW13,2,2*%
%TO.N,C2*%
X100850836Y-54390317D03*
%TD*%
D10*
%TO.P,SW17,1,1*%
%TO.N,Net-(D17-A)*%
X197099015Y-71180281D03*
%TO.P,SW17,2,2*%
%TO.N,C6*%
X208928138Y-65381076D03*
%TD*%
D11*
%TO.P,SW1,1,1*%
%TO.N,Net-(D1-A)*%
X50113816Y-45112815D03*
%TO.P,SW1,2,2*%
%TO.N,C0*%
X63257739Y-46005118D03*
%TD*%
D10*
%TO.P,SW19,1,1*%
%TO.N,Net-(D19-A)*%
X234599015Y-61180281D03*
%TO.P,SW19,2,2*%
%TO.N,C8*%
X246428138Y-55381076D03*
%TD*%
%TO.P,SW20,1,1*%
%TO.N,Net-(D20-A)*%
X256099015Y-67180281D03*
%TO.P,SW20,2,2*%
%TO.N,C9*%
X267928138Y-61381076D03*
%TD*%
D11*
%TO.P,SW11,1,1*%
%TO.N,Net-(D11-A)*%
X45206913Y-63498014D03*
%TO.P,SW11,2,2*%
%TO.N,C0*%
X58350836Y-64390317D03*
%TD*%
D13*
%TO.P,SW33,1,1*%
%TO.N,Net-(D32-A)*%
X78398014Y-105393087D03*
%TO.P,SW33,2,2*%
%TO.N,C2*%
X79290317Y-92249164D03*
%TD*%
D12*
%TO.P,SW27,1,1*%
%TO.N,Net-(D26-A)*%
X192534520Y-108705918D03*
%TO.P,SW27,2,2*%
%TO.N,C5*%
X198333725Y-120535041D03*
%TD*%
D10*
%TO.P,SW30,1,1*%
%TO.N,Net-(D29-A)*%
X239499015Y-79580281D03*
%TO.P,SW30,2,2*%
%TO.N,C8*%
X251328138Y-73781076D03*
%TD*%
D11*
%TO.P,SW3,1,1*%
%TO.N,Net-(D3-A)*%
X92606913Y-35198014D03*
%TO.P,SW3,2,2*%
%TO.N,C2*%
X105750836Y-36090317D03*
%TD*%
D10*
%TO.P,SW29,1,1*%
%TO.N,Net-(D28-A)*%
X218559015Y-75580281D03*
%TO.P,SW29,2,2*%
%TO.N,C7*%
X230388138Y-69781076D03*
%TD*%
D11*
%TO.P,SW14,1,1*%
%TO.N,Net-(D14-A)*%
X104303816Y-66832815D03*
%TO.P,SW14,2,2*%
%TO.N,C3*%
X117447739Y-67725118D03*
%TD*%
D14*
%TO.P,J1,1,Pin_1*%
%TO.N,GNDD*%
X139500000Y-98000000D03*
D15*
%TO.P,J1,2,Pin_2*%
%TO.N,+5V*%
X142000000Y-98000000D03*
%TO.P,J1,3,Pin_3*%
%TO.N,/SDA*%
X144500000Y-98000000D03*
%TO.P,J1,4,Pin_4*%
%TO.N,/SCL*%
X147000000Y-98000000D03*
%TD*%
D12*
%TO.P,SW38,1,1*%
%TO.N,Net-(D37-A)*%
X232804918Y-91692112D03*
%TO.P,SW38,2,2*%
%TO.N,C7*%
X238604123Y-103521235D03*
%TD*%
D16*
%TO.P,D21,1,K*%
%TO.N,R2*%
X41550000Y-89500000D03*
%TO.P,D21,2,A*%
%TO.N,Net-(D21-A)*%
X39500000Y-89500000D03*
%TD*%
D17*
%TO.P,Y1,1,1*%
%TO.N,Net-(U1-XTAL1)*%
X172000000Y-84500000D03*
%TO.P,Y1,2,2*%
%TO.N,Net-(U1-XTAL2)*%
X172000000Y-76000000D03*
%TD*%
D18*
%TO.P,D6,1,K*%
%TO.N,R0*%
X174500000Y-61450000D03*
%TO.P,D6,2,A*%
%TO.N,Net-(D6-A)*%
X174500000Y-63500000D03*
%TD*%
D19*
%TO.P,R6,1*%
%TO.N,Net-(J3-CC1)*%
X147000000Y-51000000D03*
%TO.P,R6,2*%
%TO.N,GND*%
X147000000Y-53000000D03*
%TD*%
D20*
%TO.P,FL1,1,1*%
%TO.N,/DDD-*%
X157065000Y-63670000D03*
%TO.P,FL1,2,2*%
%TO.N,/DD-*%
X157065000Y-62000000D03*
%TO.P,FL1,3,3*%
%TO.N,/DD+*%
X157935000Y-62000000D03*
%TO.P,FL1,4,4*%
%TO.N,/DDD+*%
X157935000Y-63670000D03*
%TD*%
D21*
%TO.P,D31,1,K*%
%TO.N,R3*%
X37000000Y-91550000D03*
%TO.P,D31,2,A*%
%TO.N,Net-(D31-A)*%
X37000000Y-89500000D03*
%TD*%
D22*
%TO.P,C5,1*%
%TO.N,Net-(U1-UCAP)*%
X161500000Y-71575000D03*
%TO.P,C5,2*%
%TO.N,GNDD*%
X161500000Y-69500000D03*
%TD*%
D19*
%TO.P,R7,1*%
%TO.N,Net-(J3-CC2)*%
X149500000Y-51000000D03*
%TO.P,R7,2*%
%TO.N,GND*%
X149500000Y-53000000D03*
%TD*%
D23*
%TO.P,D14,1,K*%
%TO.N,R1*%
X99950000Y-71000000D03*
%TO.P,D14,2,A*%
%TO.N,Net-(D14-A)*%
X102000000Y-71000000D03*
%TD*%
D18*
%TO.P,D25,1,K*%
%TO.N,R2*%
X116000000Y-101950000D03*
%TO.P,D25,2,A*%
%TO.N,Net-(D25-A)*%
X116000000Y-104000000D03*
%TD*%
%TO.P,D35,1,K*%
%TO.N,R3*%
X174000000Y-106950000D03*
%TO.P,D35,2,A*%
%TO.N,Net-(D35-A)*%
X174000000Y-109000000D03*
%TD*%
D24*
%TO.P,C6,1*%
%TO.N,+5V*%
X142075000Y-110000000D03*
%TO.P,C6,2*%
%TO.N,GNDD*%
X140000000Y-110000000D03*
%TD*%
D18*
%TO.P,D17,1,K*%
%TO.N,R1*%
X195000000Y-65450000D03*
%TO.P,D17,2,A*%
%TO.N,Net-(D17-A)*%
X195000000Y-67500000D03*
%TD*%
D21*
%TO.P,D27,1,K*%
%TO.N,R2*%
X202000000Y-95550000D03*
%TO.P,D27,2,A*%
%TO.N,Net-(D27-A)*%
X202000000Y-93500000D03*
%TD*%
D25*
%TO.P,SW21,1,1*%
%TO.N,Net-(R1-Pad2)*%
X150800000Y-57500000D03*
X144000000Y-57500000D03*
%TO.P,SW21,2,2*%
%TO.N,GNDD*%
X150800000Y-61500000D03*
X144000000Y-61500000D03*
%TD*%
D18*
%TO.P,D34,1,K*%
%TO.N,R3*%
X132000000Y-112950000D03*
%TO.P,D34,2,A*%
%TO.N,Net-(D34-A)*%
X132000000Y-115000000D03*
%TD*%
D22*
%TO.P,C9,1*%
%TO.N,+5V*%
X150500000Y-86075000D03*
%TO.P,C9,2*%
%TO.N,GNDD*%
X150500000Y-84000000D03*
%TD*%
D18*
%TO.P,D11,1,K*%
%TO.N,R1*%
X44950000Y-57450000D03*
%TO.P,D11,2,A*%
%TO.N,Net-(D11-A)*%
X44950000Y-59500000D03*
%TD*%
D21*
%TO.P,D13,1,K*%
%TO.N,R1*%
X86000000Y-60050000D03*
%TO.P,D13,2,A*%
%TO.N,Net-(D13-A)*%
X86000000Y-58000000D03*
%TD*%
D16*
%TO.P,D1,1,K*%
%TO.N,R0*%
X51550000Y-51000000D03*
%TO.P,D1,2,A*%
%TO.N,Net-(D1-A)*%
X49500000Y-51000000D03*
%TD*%
D19*
%TO.P,FB1,1*%
%TO.N,Net-(C7-Pad2)*%
X168000000Y-63000000D03*
%TO.P,FB1,2*%
%TO.N,+5V*%
X168000000Y-65000000D03*
%TD*%
D23*
%TO.P,D10,1,K*%
%TO.N,R0*%
X248950000Y-52500000D03*
%TO.P,D10,2,A*%
%TO.N,Net-(D10-A)*%
X251000000Y-52500000D03*
%TD*%
D18*
%TO.P,D15,1,K*%
%TO.N,R1*%
X116500000Y-78450000D03*
%TO.P,D15,2,A*%
%TO.N,Net-(D15-A)*%
X116500000Y-80500000D03*
%TD*%
D26*
%TO.P,R5,1*%
%TO.N,Net-(U1-~{HWB}{slash}PE2)*%
X154500000Y-89000000D03*
%TO.P,R5,2*%
%TO.N,GNDD*%
X152500000Y-89000000D03*
%TD*%
%TO.P,R10,1*%
%TO.N,GND*%
X167000000Y-49500000D03*
%TO.P,R10,2*%
%TO.N,GNDPWR*%
X165000000Y-49500000D03*
%TD*%
D21*
%TO.P,D37,1,K*%
%TO.N,R3*%
X227500000Y-98050000D03*
%TO.P,D37,2,A*%
%TO.N,Net-(D37-A)*%
X227500000Y-96000000D03*
%TD*%
D27*
%TO.P,C3,1*%
%TO.N,Net-(U1-XTAL1)*%
X176200000Y-81500000D03*
%TO.P,C3,2*%
%TO.N,GNDD*%
X176200000Y-83575000D03*
%TD*%
D28*
%TO.P,C1,1*%
%TO.N,+5V*%
X155875000Y-71200000D03*
%TO.P,C1,2*%
%TO.N,GNDD*%
X159000000Y-71200000D03*
%TD*%
D21*
%TO.P,D19,1,K*%
%TO.N,R1*%
X234500000Y-66550000D03*
%TO.P,D19,2,A*%
%TO.N,Net-(D19-A)*%
X234500000Y-64500000D03*
%TD*%
D22*
%TO.P,C4,1*%
%TO.N,Net-(U1-XTAL2)*%
X176200000Y-79000000D03*
%TO.P,C4,2*%
%TO.N,GNDD*%
X176200000Y-76925000D03*
%TD*%
D24*
%TO.P,C8,1*%
%TO.N,GND*%
X167037500Y-52500000D03*
%TO.P,C8,2*%
%TO.N,GNDPWR*%
X164962500Y-52500000D03*
%TD*%
D16*
%TO.P,D2,1,K*%
%TO.N,R0*%
X72550000Y-45000000D03*
%TO.P,D2,2,A*%
%TO.N,Net-(D2-A)*%
X70500000Y-45000000D03*
%TD*%
D21*
%TO.P,D7,1,K*%
%TO.N,R0*%
X188500000Y-55550000D03*
%TO.P,D7,2,A*%
%TO.N,Net-(D7-A)*%
X188500000Y-53500000D03*
%TD*%
D27*
%TO.P,C7,1*%
%TO.N,GNDD*%
X165000000Y-60925000D03*
%TO.P,C7,2*%
%TO.N,Net-(C7-Pad2)*%
X165000000Y-63000000D03*
%TD*%
%TO.P,C2,1*%
%TO.N,+5V*%
X168000000Y-76000000D03*
%TO.P,C2,2*%
%TO.N,GNDD*%
X168000000Y-78075000D03*
%TD*%
D19*
%TO.P,R8,1*%
%TO.N,/DDD+*%
X158500000Y-66000000D03*
%TO.P,R8,2*%
%TO.N,DDDD+*%
X158500000Y-68000000D03*
%TD*%
D21*
%TO.P,D22,1,K*%
%TO.N,R2*%
X59500000Y-81050000D03*
%TO.P,D22,2,A*%
%TO.N,Net-(D22-A)*%
X59500000Y-79000000D03*
%TD*%
D29*
%TO.P,FB2,1*%
%TO.N,GNDD*%
X167000000Y-57500000D03*
%TO.P,FB2,2*%
%TO.N,GND*%
X167000000Y-55500000D03*
%TD*%
D26*
%TO.P,R1,1*%
%TO.N,+5V*%
X151500000Y-64500000D03*
%TO.P,R1,2*%
%TO.N,Net-(R1-Pad2)*%
X149500000Y-64500000D03*
%TD*%
D18*
%TO.P,D36,1,K*%
%TO.N,R3*%
X201000000Y-103950000D03*
%TO.P,D36,2,A*%
%TO.N,Net-(D36-A)*%
X201000000Y-106000000D03*
%TD*%
D21*
%TO.P,D9,1,K*%
%TO.N,R0*%
X227000000Y-47525000D03*
%TO.P,D9,2,A*%
%TO.N,Net-(D9-A)*%
X227000000Y-45475000D03*
%TD*%
%TO.P,D24,1,K*%
%TO.N,R2*%
X97500000Y-93500000D03*
%TO.P,D24,2,A*%
%TO.N,Net-(D24-A)*%
X97500000Y-91450000D03*
%TD*%
D16*
%TO.P,D29,1,K*%
%TO.N,R2*%
X239550000Y-84000000D03*
%TO.P,D29,2,A*%
%TO.N,Net-(D29-A)*%
X237500000Y-84000000D03*
%TD*%
D19*
%TO.P,R9,1*%
%TO.N,/DDD-*%
X156500000Y-66000000D03*
%TO.P,R9,2*%
%TO.N,DDDD-*%
X156500000Y-68000000D03*
%TD*%
D23*
%TO.P,D18,1,K*%
%TO.N,R1*%
X211450000Y-61000000D03*
%TO.P,D18,2,A*%
%TO.N,Net-(D18-A)*%
X213500000Y-61000000D03*
%TD*%
D30*
%TO.P,U1,1,PE6*%
%TO.N,unconnected-(U1-PE6-Pad1)*%
X155500000Y-74800000D03*
%TO.P,U1,2,UVCC*%
%TO.N,+5V*%
X156300000Y-74800000D03*
%TO.P,U1,3,D-*%
%TO.N,DDDD-*%
X157100000Y-74800000D03*
%TO.P,U1,4,D+*%
%TO.N,DDDD+*%
X157900000Y-74800000D03*
%TO.P,U1,5,UGND*%
%TO.N,GNDD*%
X158700000Y-74800000D03*
%TO.P,U1,6,UCAP*%
%TO.N,Net-(U1-UCAP)*%
X159500000Y-74800000D03*
%TO.P,U1,7,VBUS*%
%TO.N,+5V*%
X160300000Y-74800000D03*
%TO.P,U1,8,PB0*%
%TO.N,unconnected-(U1-PB0-Pad8)*%
X161100000Y-74800000D03*
%TO.P,U1,9,PB1*%
%TO.N,unconnected-(U1-PB1-Pad9)*%
X161900000Y-74800000D03*
%TO.P,U1,10,PB2*%
%TO.N,unconnected-(U1-PB2-Pad10)*%
X162700000Y-74800000D03*
%TO.P,U1,11,PB3*%
%TO.N,unconnected-(U1-PB3-Pad11)*%
X163500000Y-74800000D03*
D31*
%TO.P,U1,12,PB7*%
%TO.N,unconnected-(U1-PB7-Pad12)*%
X165200000Y-76500000D03*
%TO.P,U1,13,~{RESET}*%
%TO.N,Net-(U1-~{RESET})*%
X165200000Y-77300000D03*
%TO.P,U1,14,VCC*%
%TO.N,+5V*%
X165200000Y-78100000D03*
%TO.P,U1,15,GND*%
%TO.N,GNDD*%
X165200000Y-78900000D03*
%TO.P,U1,16,XTAL2*%
%TO.N,Net-(U1-XTAL2)*%
X165200000Y-79700000D03*
%TO.P,U1,17,XTAL1*%
%TO.N,Net-(U1-XTAL1)*%
X165200000Y-80500000D03*
%TO.P,U1,18,PD0*%
%TO.N,Net-(U1-PD0)*%
X165200000Y-81300000D03*
%TO.P,U1,19,PD1*%
%TO.N,Net-(U1-PD1)*%
X165200000Y-82100000D03*
%TO.P,U1,20,PD2*%
%TO.N,C5*%
X165200000Y-82900000D03*
%TO.P,U1,21,PD3*%
%TO.N,C8*%
X165200000Y-83700000D03*
%TO.P,U1,22,PD5*%
%TO.N,C9*%
X165200000Y-84500000D03*
D30*
%TO.P,U1,23,GND*%
%TO.N,GNDD*%
X163500000Y-86200000D03*
%TO.P,U1,24,AVCC*%
%TO.N,+5V*%
X162700000Y-86200000D03*
%TO.P,U1,25,PD4*%
%TO.N,R3*%
X161900000Y-86200000D03*
%TO.P,U1,26,PD6*%
%TO.N,C6*%
X161100000Y-86200000D03*
%TO.P,U1,27,PD7*%
%TO.N,C7*%
X160300000Y-86200000D03*
%TO.P,U1,28,PB4*%
%TO.N,R2*%
X159500000Y-86200000D03*
%TO.P,U1,29,PB5*%
%TO.N,RGB*%
X158700000Y-86200000D03*
%TO.P,U1,30,PB6*%
%TO.N,/BTN*%
X157900000Y-86200000D03*
%TO.P,U1,31,PC6*%
%TO.N,unconnected-(U1-PC6-Pad31)*%
X157100000Y-86200000D03*
%TO.P,U1,32,PC7*%
%TO.N,C4*%
X156300000Y-86200000D03*
%TO.P,U1,33,~{HWB}/PE2*%
%TO.N,Net-(U1-~{HWB}{slash}PE2)*%
X155500000Y-86200000D03*
D31*
%TO.P,U1,34,VCC*%
%TO.N,+5V*%
X153800000Y-84500000D03*
%TO.P,U1,35,GND*%
%TO.N,GNDD*%
X153800000Y-83700000D03*
%TO.P,U1,36,PF7*%
%TO.N,C3*%
X153800000Y-82900000D03*
%TO.P,U1,37,PF6*%
%TO.N,C0*%
X153800000Y-82100000D03*
%TO.P,U1,38,PF5*%
%TO.N,C2*%
X153800000Y-81300000D03*
%TO.P,U1,39,PF4*%
%TO.N,C1*%
X153800000Y-80500000D03*
%TO.P,U1,40,PF1*%
%TO.N,R0*%
X153800000Y-79700000D03*
%TO.P,U1,41,PF0*%
%TO.N,R1*%
X153800000Y-78900000D03*
%TO.P,U1,42,AREF*%
%TO.N,unconnected-(U1-AREF-Pad42)*%
X153800000Y-78100000D03*
%TO.P,U1,43,GND*%
%TO.N,GNDD*%
X153800000Y-77300000D03*
%TO.P,U1,44,AVCC*%
%TO.N,+5V*%
X153800000Y-76500000D03*
%TD*%
D18*
%TO.P,D16,1,K*%
%TO.N,R1*%
X180000000Y-77950000D03*
%TO.P,D16,2,A*%
%TO.N,Net-(D16-A)*%
X180000000Y-80000000D03*
%TD*%
%TO.P,D33,1,K*%
%TO.N,R3*%
X94000000Y-103000000D03*
%TO.P,D33,2,A*%
%TO.N,Net-(D33-A)*%
X94000000Y-105050000D03*
%TD*%
D32*
%TO.P,U2,1,I/O1*%
%TO.N,/D-*%
X156550000Y-57000000D03*
%TO.P,U2,2,GND*%
%TO.N,GNDPWR*%
X157500000Y-57000000D03*
%TO.P,U2,3,I/O2*%
%TO.N,/D+*%
X158450000Y-57000000D03*
%TO.P,U2,4,I/O2*%
%TO.N,/DD+*%
X158450000Y-59275000D03*
%TO.P,U2,5,VBUS*%
%TO.N,/VBUS*%
X157500000Y-59275000D03*
%TO.P,U2,6,I/O1*%
%TO.N,/DD-*%
X156550000Y-59275000D03*
%TD*%
D33*
%TO.P,J3,A1,GND_1*%
%TO.N,GND*%
X154410000Y-54075000D03*
%TO.P,J3,A4,VBUS_1*%
%TO.N,/VBUS*%
X155210000Y-54075000D03*
D34*
%TO.P,J3,A5,CC1*%
%TO.N,Net-(J3-CC1)*%
X156360000Y-54075000D03*
%TO.P,J3,A6,DP1*%
%TO.N,/D+*%
X157360000Y-54075000D03*
%TO.P,J3,A7,DN1*%
%TO.N,/D-*%
X157860000Y-54075000D03*
%TO.P,J3,A8,SBU1*%
%TO.N,unconnected-(J3-SBU1-PadA8)*%
X158860000Y-54075000D03*
D33*
%TO.P,J3,A9,VBUS_2*%
%TO.N,/VBUS*%
X160010000Y-54075000D03*
%TO.P,J3,A12,GND_2*%
%TO.N,GND*%
X160810000Y-54075000D03*
D34*
%TO.P,J3,B5,CC2*%
%TO.N,Net-(J3-CC2)*%
X159360000Y-54075000D03*
%TO.P,J3,B6,DP2*%
%TO.N,/D+*%
X158360000Y-54075000D03*
%TO.P,J3,B7,DN2*%
%TO.N,/D-*%
X156860000Y-54075000D03*
%TO.P,J3,B8,SBU2*%
%TO.N,unconnected-(J3-SBU2-PadB8)*%
X155860000Y-54075000D03*
D35*
%TO.P,J3,S1,MH1*%
%TO.N,GNDPWR*%
X153290000Y-53500000D03*
D36*
%TO.P,J3,S2,MH2*%
X153290000Y-49320000D03*
%TO.P,J3,S3,MH3*%
X161930000Y-49320000D03*
D35*
%TO.P,J3,S4,MH4*%
X161930000Y-53500000D03*
%TD*%
D16*
%TO.P,D3,1,K*%
%TO.N,R0*%
X94050000Y-41000000D03*
%TO.P,D3,2,A*%
%TO.N,Net-(D3-A)*%
X92000000Y-41000000D03*
%TD*%
D21*
%TO.P,D38,1,K*%
%TO.N,R3*%
X279000000Y-70550000D03*
%TO.P,D38,2,A*%
%TO.N,Net-(D38-A)*%
X279000000Y-68500000D03*
%TD*%
%TO.P,D4,1,K*%
%TO.N,R0*%
X107500000Y-55050000D03*
%TO.P,D4,2,A*%
%TO.N,Net-(D4-A)*%
X107500000Y-53000000D03*
%TD*%
D23*
%TO.P,D20,1,K*%
%TO.N,R1*%
X253950000Y-71000000D03*
%TO.P,D20,2,A*%
%TO.N,Net-(D20-A)*%
X256000000Y-71000000D03*
%TD*%
D19*
%TO.P,R3,1*%
%TO.N,Net-(U1-PD0)*%
X167500000Y-89500000D03*
%TO.P,R3,2*%
%TO.N,/SCL*%
X167500000Y-91500000D03*
%TD*%
D18*
%TO.P,D5,1,K*%
%TO.N,R0*%
X121000000Y-60500000D03*
%TO.P,D5,2,A*%
%TO.N,Net-(D5-A)*%
X121000000Y-62550000D03*
%TD*%
D21*
%TO.P,D32,1,K*%
%TO.N,R3*%
X73000000Y-107025000D03*
%TO.P,D32,2,A*%
%TO.N,Net-(D32-A)*%
X73000000Y-104975000D03*
%TD*%
%TO.P,D23,1,K*%
%TO.N,R2*%
X81000000Y-80050000D03*
%TO.P,D23,2,A*%
%TO.N,Net-(D23-A)*%
X81000000Y-78000000D03*
%TD*%
D37*
%TO.P,TP2,1,1*%
%TO.N,GNDD*%
X165000000Y-70750000D03*
%TD*%
D38*
%TO.P,J2,1,Pin_1*%
%TO.N,unconnected-(J2-Pin_1-Pad1)*%
X160500000Y-97750000D03*
%TO.P,J2,2,Pin_2*%
%TO.N,unconnected-(J2-Pin_2-Pad2)*%
X160000000Y-97750000D03*
%TO.P,J2,3,Pin_3*%
%TO.N,unconnected-(J2-Pin_3-Pad3)*%
X159500000Y-97750000D03*
%TO.P,J2,4,Pin_4*%
%TO.N,unconnected-(J2-Pin_4-Pad4)*%
X159000000Y-97750000D03*
%TO.P,J2,5,Pin_5*%
%TO.N,unconnected-(J2-Pin_5-Pad5)*%
X158500000Y-97750000D03*
%TO.P,J2,6,Pin_6*%
%TO.N,unconnected-(J2-Pin_6-Pad6)*%
X158000000Y-97750000D03*
%TO.P,J2,7,Pin_7*%
%TO.N,unconnected-(J2-Pin_7-Pad7)*%
X157500000Y-97750000D03*
%TO.P,J2,8,Pin_8*%
%TO.N,/BTN*%
X157000000Y-97750000D03*
%TO.P,J2,9,Pin_9*%
%TO.N,/SCL*%
X156500000Y-97750000D03*
%TO.P,J2,10,Pin_10*%
%TO.N,/SDA*%
X156000000Y-97750000D03*
%TO.P,J2,11,Pin_11*%
%TO.N,GNDD*%
X155500000Y-97750000D03*
%TO.P,J2,12,Pin_12*%
%TO.N,+5V*%
X155000000Y-97750000D03*
D39*
%TO.P,J2,MP*%
%TO.N,N/C*%
X162400000Y-101000000D03*
X153100000Y-101000000D03*
%TD*%
D16*
%TO.P,D28,1,K*%
%TO.N,R2*%
X221000000Y-81000000D03*
%TO.P,D28,2,A*%
%TO.N,Net-(D28-A)*%
X218950000Y-81000000D03*
%TD*%
D23*
%TO.P,D30,1,K*%
%TO.N,R2*%
X255450000Y-86500000D03*
%TO.P,D30,2,A*%
%TO.N,Net-(D30-A)*%
X257500000Y-86500000D03*
%TD*%
D40*
%TO.P,R2,1*%
%TO.N,Net-(R1-Pad2)*%
X149500000Y-67000000D03*
%TO.P,R2,2*%
%TO.N,Net-(U1-~{RESET})*%
X151500000Y-67000000D03*
%TD*%
D21*
%TO.P,D8,1,K*%
%TO.N,R0*%
X208500000Y-44550000D03*
%TO.P,D8,2,A*%
%TO.N,Net-(D8-A)*%
X208500000Y-42500000D03*
%TD*%
D37*
%TO.P,TP1,1,1*%
%TO.N,+5V*%
X165000000Y-66750000D03*
%TD*%
D19*
%TO.P,R4,1*%
%TO.N,Net-(U1-PD1)*%
X165500000Y-89500000D03*
%TO.P,R4,2*%
%TO.N,/SDA*%
X165500000Y-91500000D03*
%TD*%
D21*
%TO.P,D12,1,K*%
%TO.N,R1*%
X64500000Y-63550000D03*
%TO.P,D12,2,A*%
%TO.N,Net-(D12-A)*%
X64500000Y-61500000D03*
%TD*%
D18*
%TO.P,D26,1,K*%
%TO.N,R2*%
X195500000Y-103950000D03*
%TO.P,D26,2,A*%
%TO.N,Net-(D26-A)*%
X195500000Y-106000000D03*
%TD*%
D41*
%TO.P,F1,1*%
%TO.N,/VBUS*%
X161500000Y-57000000D03*
%TO.P,F1,2*%
%TO.N,Net-(C7-Pad2)*%
X161500000Y-60100000D03*
%TD*%
D42*
%TO.N,GNDD*%
X147500000Y-61500000D03*
X140750000Y-111750000D03*
%TO.N,/SDA*%
X155000000Y-100500000D03*
%TO.N,/SCL*%
X156500000Y-99500000D03*
%TO.N,+5V*%
X149000000Y-92500000D03*
X166504866Y-75998010D03*
X154500000Y-65000000D03*
X149000000Y-86000000D03*
X160500000Y-65000000D03*
X148750000Y-124500000D03*
%TO.N,GNDD*%
X168250000Y-72500000D03*
X146411611Y-121088389D03*
X168250000Y-73500000D03*
X167250000Y-72500000D03*
X156000000Y-94000000D03*
X149000000Y-97000000D03*
X167250000Y-73500000D03*
X149000000Y-94000000D03*
X163000000Y-88000000D03*
X174000000Y-96500000D03*
X164500000Y-57000000D03*
%TO.N,GND*%
X149500000Y-54500000D03*
X154410000Y-55410000D03*
X161500000Y-55500000D03*
%TO.N,R0*%
X107500000Y-58500000D03*
X72500000Y-52470647D03*
X174500000Y-58500000D03*
X227000000Y-49000000D03*
X141500000Y-58500000D03*
X188500000Y-58500000D03*
X210500000Y-49000000D03*
X104000000Y-51000000D03*
X248000000Y-49000000D03*
X121000000Y-58500000D03*
X51500000Y-53000000D03*
X94000000Y-51000000D03*
X210500000Y-58500000D03*
%TO.N,R1*%
X191000000Y-65000000D03*
X232000000Y-64000000D03*
X46500000Y-57500000D03*
X234500000Y-69000000D03*
X142500000Y-64500000D03*
X64500000Y-65500000D03*
X100000000Y-75000000D03*
X99500000Y-67500000D03*
X195000000Y-64000000D03*
X142500000Y-75000004D03*
X86000000Y-67500000D03*
X116500000Y-75000000D03*
X211500000Y-64000000D03*
X254000000Y-69000000D03*
%TO.N,R2*%
X221000000Y-86500000D03*
X81000000Y-86500000D03*
X95000000Y-86500000D03*
X221000002Y-100000000D03*
X239500000Y-86500000D03*
X195500000Y-100000006D03*
X202000000Y-100000006D03*
X59500000Y-86500000D03*
X97500000Y-98500000D03*
X159500000Y-94000000D03*
X116000000Y-98500000D03*
%TO.N,R3*%
X132000000Y-103000000D03*
X201000000Y-101500000D03*
X170500000Y-101499996D03*
X214000000Y-101500000D03*
X96500000Y-103000000D03*
X174000000Y-101500000D03*
%TO.N,RGB*%
X134500000Y-95000000D03*
X134500000Y-105500000D03*
X158500000Y-89500000D03*
%TO.N,/BTN*%
X158000000Y-94000000D03*
X158000000Y-99500000D03*
%TO.N,Net-(U1-~{RESET})*%
X151000000Y-77500000D03*
X157000000Y-77500000D03*
%TO.N,C0*%
X139500000Y-82000000D03*
X57000000Y-83000000D03*
%TO.N,C1*%
X82500000Y-59500000D03*
X140500000Y-60500000D03*
%TO.N,C2*%
X139225000Y-73920337D03*
X98000000Y-74000000D03*
%TO.N,C3*%
X138000000Y-72500000D03*
X117500000Y-72500000D03*
%TO.N,C5*%
X161012653Y-82012653D03*
X199354105Y-92000000D03*
%TO.N,C6*%
X162500000Y-94000000D03*
X212780202Y-95000000D03*
%TO.N,C7*%
X160300000Y-93000000D03*
X234620660Y-89500000D03*
%TO.N,C8*%
X162500000Y-82987347D03*
X251000000Y-76000000D03*
%TO.N,C9*%
X163529577Y-89350000D03*
X272500000Y-82500000D03*
%TO.N,Net-(J3-CC1)*%
X151000000Y-52000000D03*
X156322262Y-52752632D03*
%TO.N,Net-(J3-CC2)*%
X151000000Y-51000000D03*
X159000000Y-52900500D03*
%TD*%
D43*
%TO.N,GNDD*%
X140000000Y-110000000D02*
X140000000Y-111000000D01*
X145000000Y-116000000D02*
X145000000Y-119750000D01*
X146338389Y-121088389D02*
X146411611Y-121088389D01*
X140000000Y-111000000D02*
X145000000Y-116000000D01*
X145000000Y-119750000D02*
X146338389Y-121088389D01*
%TO.N,+5V*%
X146000000Y-114999998D02*
X142101041Y-111101039D01*
X148750000Y-122224695D02*
X146000000Y-119474696D01*
X146000000Y-119474696D02*
X146000000Y-114999998D01*
X148750000Y-124500000D02*
X148750000Y-122224695D01*
X142101041Y-111101039D02*
X142101041Y-110138541D01*
X142101041Y-110138541D02*
X141962500Y-110000000D01*
D44*
%TO.N,/SDA*%
X155000000Y-99974695D02*
X155000000Y-100500000D01*
%TO.N,/BTN*%
X158000000Y-99474695D02*
X158000000Y-99500000D01*
%TO.N,/SDA*%
X156000000Y-98974695D02*
X155000000Y-99974695D01*
%TO.N,/SCL*%
X156500000Y-97750000D02*
X156500000Y-99500000D01*
%TO.N,/BTN*%
X157265380Y-98775000D02*
X157300305Y-98775000D01*
X157300305Y-98775000D02*
X158000000Y-99474695D01*
X157000000Y-98509620D02*
X157265380Y-98775000D01*
%TO.N,/SDA*%
X156000000Y-97750000D02*
X156000000Y-98974695D01*
%TO.N,/BTN*%
X157000000Y-97750000D02*
X157000000Y-98509620D01*
D43*
%TO.N,+5V*%
X149000000Y-92500000D02*
X142499999Y-92500000D01*
X141999999Y-93000000D02*
X141999999Y-98000001D01*
X142499999Y-92500000D02*
X141999999Y-93000000D01*
D44*
X141999999Y-97750001D02*
X141999999Y-98000001D01*
D43*
X142075000Y-110000000D02*
X142000000Y-109925000D01*
X142000000Y-98150000D02*
X142075000Y-98075000D01*
X142000000Y-109925000D02*
X142000000Y-98150000D01*
%TO.N,GNDD*%
X140000000Y-110000000D02*
X140000000Y-98500000D01*
X140000000Y-98500000D02*
X139500000Y-98000000D01*
D44*
%TO.N,+5V*%
X142075000Y-98075000D02*
X142000000Y-98000000D01*
%TO.N,C3*%
X153800000Y-82900000D02*
X138900000Y-82900000D01*
X138900000Y-82900000D02*
X138000000Y-82000000D01*
X138000000Y-82000000D02*
X138000000Y-72500000D01*
%TO.N,C4*%
X119590317Y-109249164D02*
X124341153Y-114000000D01*
X137984561Y-114000000D02*
X138119919Y-114135358D01*
X124341153Y-114000000D02*
X137984561Y-114000000D01*
%TO.N,GNDD*%
X153800000Y-83700000D02*
X152250000Y-83700000D01*
D43*
%TO.N,+5V*%
X168000000Y-65000000D02*
X165000000Y-65000000D01*
X165000000Y-65000000D02*
X160500000Y-65000000D01*
D44*
X165000000Y-66750000D02*
X165000000Y-65000000D01*
D43*
X155875000Y-71200000D02*
X154500000Y-69825000D01*
D44*
X154000000Y-64500000D02*
X154500000Y-65000000D01*
X151500000Y-64500000D02*
X154000000Y-64500000D01*
D43*
X154500000Y-69825000D02*
X154500000Y-65000000D01*
D44*
%TO.N,/VBUS*%
X161500000Y-57000000D02*
X160250000Y-57000000D01*
X158140748Y-58250000D02*
X157500000Y-58890748D01*
X157500000Y-58890748D02*
X157500000Y-59275000D01*
X160250000Y-57000000D02*
X159000000Y-58250000D01*
X159000000Y-58250000D02*
X158140748Y-58250000D01*
D45*
%TO.N,/D-*%
X156860000Y-54075000D02*
X156860000Y-55890000D01*
X156860000Y-55890000D02*
X156550000Y-56200000D01*
X156550000Y-56200000D02*
X156550000Y-57000000D01*
X157860000Y-54075000D02*
X157860000Y-53425736D01*
X157634264Y-53200000D02*
X157000000Y-53200000D01*
X157860000Y-53425736D02*
X157634264Y-53200000D01*
X157000000Y-53200000D02*
X156860000Y-53340000D01*
X156860000Y-53340000D02*
X156860000Y-54075000D01*
D44*
%TO.N,/VBUS*%
X160010000Y-54075000D02*
X160010000Y-53540380D01*
X160010000Y-53540380D02*
X159800000Y-53330380D01*
X155210000Y-53500000D02*
X155210000Y-54075000D01*
X159800000Y-53330380D02*
X159800000Y-52300000D01*
X159800000Y-52300000D02*
X159275000Y-51775000D01*
X159275000Y-51775000D02*
X155725000Y-51775000D01*
X155725000Y-51775000D02*
X155500000Y-52000000D01*
X155500000Y-52000000D02*
X155500000Y-53210000D01*
X155500000Y-53210000D02*
X155210000Y-53500000D01*
%TO.N,+5V*%
X160300000Y-75700000D02*
X159500000Y-76500000D01*
X156300000Y-76500000D02*
X156000000Y-76500000D01*
X159500000Y-76500000D02*
X156300000Y-76500000D01*
X155875000Y-71200000D02*
X156300000Y-71625000D01*
X151500000Y-92500000D02*
X149000000Y-92500000D01*
X160300000Y-74800000D02*
X160300000Y-75700000D01*
X156000000Y-76500000D02*
X153800000Y-76500000D01*
X166500000Y-78000000D02*
X166400000Y-78100000D01*
D43*
X150425000Y-86000000D02*
X150500000Y-86075000D01*
D44*
X156000000Y-76500000D02*
X156500000Y-76500000D01*
X168000000Y-76000000D02*
X167974663Y-76000000D01*
X153500000Y-86000000D02*
X150500000Y-86000000D01*
X162700000Y-84700000D02*
X162700000Y-86200000D01*
X156000000Y-84500000D02*
X160000000Y-84500000D01*
X155000000Y-96000000D02*
X151500000Y-92500000D01*
X156300000Y-76500000D02*
X156300000Y-75550000D01*
X156300000Y-71625000D02*
X156300000Y-74800000D01*
X156000000Y-84500000D02*
X153800000Y-84500000D01*
X155000000Y-97750000D02*
X155000000Y-96000000D01*
X162500000Y-84500000D02*
X162700000Y-84700000D01*
D43*
X167998010Y-75998010D02*
X168000000Y-76000000D01*
D44*
X156300000Y-74800000D02*
X156300000Y-75550000D01*
X166500000Y-77474663D02*
X166500000Y-78000000D01*
X166400000Y-78100000D02*
X165200000Y-78100000D01*
D43*
X166504866Y-75998010D02*
X167998010Y-75998010D01*
D44*
X153800000Y-85700000D02*
X153500000Y-86000000D01*
X167974663Y-76000000D02*
X166500000Y-77474663D01*
X160000000Y-84500000D02*
X162500000Y-84500000D01*
X153800000Y-84500000D02*
X153800000Y-85700000D01*
D43*
X149000000Y-86000000D02*
X150425000Y-86000000D01*
D44*
%TO.N,GNDD*%
X155300000Y-77300000D02*
X155500000Y-77500000D01*
X158700000Y-71500000D02*
X158700000Y-74800000D01*
X155700000Y-83700000D02*
X155712347Y-83712347D01*
X167175000Y-78900000D02*
X165200000Y-78900000D01*
X155500000Y-94500000D02*
X155500000Y-98000000D01*
X152200000Y-77300000D02*
X152000000Y-77500000D01*
X155712347Y-83712347D02*
X162601257Y-83712347D01*
X153800000Y-77300000D02*
X152200000Y-77300000D01*
X165200000Y-78900000D02*
X163600000Y-78900000D01*
X163500000Y-84611090D02*
X163500000Y-86200000D01*
X153800000Y-83700000D02*
X155700000Y-83700000D01*
X153800000Y-77300000D02*
X155300000Y-77300000D01*
X162601257Y-83712347D02*
X163500000Y-84611090D01*
X168000000Y-78075000D02*
X167175000Y-78900000D01*
X156000000Y-94000000D02*
X155500000Y-94500000D01*
X163600000Y-78900000D02*
X163500000Y-79000000D01*
X159000000Y-71200000D02*
X158700000Y-71500000D01*
%TO.N,Net-(U1-XTAL1)*%
X172000000Y-80500000D02*
X172000000Y-84500000D01*
X176200000Y-81500000D02*
X175200000Y-80500000D01*
X175200000Y-80500000D02*
X165200000Y-80500000D01*
%TO.N,Net-(U1-XTAL2)*%
X175500000Y-79700000D02*
X171800000Y-79700000D01*
X171800000Y-79700000D02*
X165200000Y-79700000D01*
X172000000Y-79700000D02*
X171800000Y-79700000D01*
X172000000Y-76000000D02*
X172000000Y-79700000D01*
X176200000Y-79000000D02*
X175500000Y-79700000D01*
%TO.N,Net-(U1-UCAP)*%
X161500000Y-71575000D02*
X159500000Y-73575000D01*
X159500000Y-73575000D02*
X159500000Y-74800000D01*
D43*
%TO.N,Net-(C7-Pad2)*%
X161500000Y-60100000D02*
X161500000Y-61425000D01*
X163075000Y-63000000D02*
X168000000Y-63000000D01*
X161500000Y-61425000D02*
X163075000Y-63000000D01*
D44*
%TO.N,GND*%
X167037500Y-55462500D02*
X167000000Y-55500000D01*
X149500000Y-54500000D02*
X149500000Y-53000000D01*
D43*
X167000000Y-55500000D02*
X161500000Y-55500000D01*
D44*
X160810000Y-54106648D02*
X160810000Y-54075000D01*
D43*
X160810000Y-54075000D02*
X160810000Y-54810000D01*
D44*
X167037500Y-49537500D02*
X167037500Y-52500000D01*
D43*
X154410000Y-54075000D02*
X154410000Y-55410000D01*
X154500000Y-55500000D02*
X154410000Y-55410000D01*
X160810000Y-54810000D02*
X161500000Y-55500000D01*
D44*
X149500000Y-53000000D02*
X147000000Y-53000000D01*
X167037500Y-52500000D02*
X167037500Y-55462500D01*
X167000000Y-49500000D02*
X167037500Y-49537500D01*
%TO.N,GNDPWR*%
X157500000Y-58000000D02*
X157500000Y-57000000D01*
X155500000Y-58000000D02*
X157500000Y-58000000D01*
X164962500Y-52500000D02*
X164962500Y-49537500D01*
X153290000Y-55790000D02*
X155500000Y-58000000D01*
X165000000Y-49500000D02*
X164820000Y-49320000D01*
X164820000Y-49320000D02*
X161930000Y-49320000D01*
X153290000Y-53500000D02*
X153290000Y-55790000D01*
X164962500Y-49537500D02*
X165000000Y-49500000D01*
%TO.N,R0*%
X248950000Y-52500000D02*
X248950000Y-49950000D01*
X107500000Y-55050000D02*
X107500000Y-58500000D01*
X72550000Y-52420647D02*
X72500000Y-52470647D01*
X174500000Y-59000000D02*
X174500000Y-58500000D01*
X141500000Y-78800000D02*
X141500000Y-58500000D01*
X210500000Y-49000000D02*
X210500000Y-58500000D01*
X208500000Y-47000000D02*
X210500000Y-49000000D01*
X121000000Y-60500000D02*
X121000000Y-58500000D01*
X51550000Y-52950000D02*
X51500000Y-53000000D01*
X51550000Y-51000000D02*
X51550000Y-52950000D01*
X142400000Y-79700000D02*
X141500000Y-78800000D01*
X94050000Y-41000000D02*
X94050000Y-50950000D01*
X208500000Y-44550000D02*
X208500000Y-47000000D01*
X94050000Y-50950000D02*
X94000000Y-51000000D01*
X72550000Y-45000000D02*
X72550000Y-52420647D01*
X174500000Y-61450000D02*
X174500000Y-59000000D01*
X248950000Y-49950000D02*
X248000000Y-49000000D01*
X107500000Y-55050000D02*
X104000000Y-51550000D01*
X153800000Y-79700000D02*
X142400000Y-79700000D01*
X188500000Y-55550000D02*
X188500000Y-58500000D01*
X227000000Y-47525000D02*
X227000000Y-49000000D01*
X141275000Y-58725000D02*
X141500000Y-58500000D01*
X104000000Y-51550000D02*
X104000000Y-51000000D01*
%TO.N,Net-(D1-A)*%
X49500000Y-45726631D02*
X49500000Y-51000000D01*
X50113816Y-45112815D02*
X49500000Y-45726631D01*
%TO.N,Net-(D2-A)*%
X71706913Y-39098014D02*
X70500000Y-40304927D01*
X70500000Y-40304927D02*
X70500000Y-45000000D01*
%TO.N,Net-(D3-A)*%
X92000000Y-35804927D02*
X92000000Y-41000000D01*
X92606913Y-35198014D02*
X92000000Y-35804927D01*
%TO.N,Net-(D4-A)*%
X107500000Y-50826631D02*
X109113816Y-49212815D01*
X107500000Y-53000000D02*
X107500000Y-50826631D01*
%TO.N,Net-(D5-A)*%
X125013816Y-63212815D02*
X121662815Y-63212815D01*
X121662815Y-63212815D02*
X121000000Y-62550000D01*
%TO.N,Net-(D6-A)*%
X174500000Y-63500000D02*
X174500000Y-65102970D01*
X174500000Y-65102970D02*
X176392112Y-66995082D01*
%TO.N,Net-(D7-A)*%
X188500000Y-53500000D02*
X191479296Y-53500000D01*
X191479296Y-53500000D02*
X192099015Y-52880281D01*
%TO.N,Net-(D8-A)*%
X208692112Y-38895082D02*
X208692112Y-42307888D01*
X208692112Y-42307888D02*
X208500000Y-42500000D01*
%TO.N,Net-(D9-A)*%
X227000000Y-44500000D02*
X228704918Y-42795082D01*
X228704918Y-42795082D02*
X229692112Y-42795082D01*
X227000000Y-45475000D02*
X227000000Y-44500000D01*
%TO.N,Net-(D10-A)*%
X251000000Y-52500000D02*
X251000000Y-48979296D01*
X251000000Y-48979296D02*
X251099015Y-48880281D01*
%TO.N,R1*%
X253950000Y-69050000D02*
X254000000Y-69000000D01*
X142500000Y-64500000D02*
X142500000Y-75000004D01*
X180000000Y-77950000D02*
X180000000Y-73000000D01*
X44950000Y-57450000D02*
X46450000Y-57450000D01*
X99950000Y-74950000D02*
X100000000Y-75000000D01*
X195000000Y-65450000D02*
X195000000Y-64000000D01*
X143400000Y-78900000D02*
X142500000Y-78000000D01*
X253950000Y-71000000D02*
X253950000Y-69050000D01*
X153800000Y-78900000D02*
X143400000Y-78900000D01*
X116500000Y-78450000D02*
X116500000Y-75000000D01*
X191000000Y-65000000D02*
X191000000Y-71500000D01*
X86000000Y-60050000D02*
X86000000Y-67500000D01*
X234500000Y-66550000D02*
X232000000Y-64050000D01*
X232000000Y-64050000D02*
X232000000Y-64000000D01*
X99950000Y-67950000D02*
X99500000Y-67500000D01*
X99950000Y-71000000D02*
X99950000Y-67950000D01*
X99950000Y-71000000D02*
X99950000Y-74950000D01*
X46450000Y-57450000D02*
X46500000Y-57500000D01*
X234500000Y-69000000D02*
X234500000Y-66550000D01*
X181500000Y-71500000D02*
X180000000Y-73000000D01*
X64500000Y-63550000D02*
X64500000Y-65500000D01*
X211450000Y-63950000D02*
X211500000Y-64000000D01*
X191000000Y-71500000D02*
X181500000Y-71500000D01*
X211450000Y-61000000D02*
X211450000Y-63950000D01*
X142500000Y-78000000D02*
X142500000Y-75000004D01*
%TO.N,Net-(D11-A)*%
X45206913Y-63498014D02*
X45206913Y-59756913D01*
X45206913Y-59756913D02*
X44950000Y-59500000D01*
%TO.N,Net-(D12-A)*%
X64500000Y-61500000D02*
X64500000Y-59726631D01*
X64500000Y-59726631D02*
X66713816Y-57512815D01*
%TO.N,Net-(D13-A)*%
X86000000Y-58000000D02*
X86000000Y-55204927D01*
X86000000Y-55204927D02*
X87706913Y-53498014D01*
%TO.N,Net-(D14-A)*%
X102000000Y-69136631D02*
X102000000Y-71000000D01*
X104303816Y-66832815D02*
X102000000Y-69136631D01*
%TO.N,Net-(D15-A)*%
X119001001Y-80500000D02*
X120113816Y-81612815D01*
X116500000Y-80500000D02*
X119001001Y-80500000D01*
%TO.N,Net-(D16-A)*%
X181199015Y-85380281D02*
X180000000Y-84181266D01*
X180000000Y-84181266D02*
X180000000Y-80000000D01*
%TO.N,Net-(D17-A)*%
X195000000Y-69081266D02*
X197099015Y-71180281D01*
X195000000Y-67500000D02*
X195000000Y-69081266D01*
%TO.N,Net-(D18-A)*%
X213500000Y-57379296D02*
X213599015Y-57280281D01*
X213500000Y-61000000D02*
X213500000Y-57379296D01*
%TO.N,Net-(D19-A)*%
X234500000Y-64500000D02*
X234500000Y-61279296D01*
X234500000Y-61279296D02*
X234599015Y-61180281D01*
%TO.N,Net-(D20-A)*%
X256000000Y-67279296D02*
X256099015Y-67180281D01*
X256000000Y-71000000D02*
X256000000Y-67279296D01*
%TO.N,R2*%
X195500000Y-103950000D02*
X195500000Y-100000000D01*
X96800000Y-93500000D02*
X95000000Y-91700000D01*
X81000000Y-80050000D02*
X81000000Y-86500000D01*
X202000000Y-95550000D02*
X202000000Y-100000006D01*
X221000000Y-81000000D02*
X221000000Y-86500000D01*
X195500000Y-100000000D02*
X195500000Y-100000006D01*
X97500000Y-93500000D02*
X97500000Y-98500000D01*
X56500000Y-89500000D02*
X59500000Y-86500000D01*
X221000000Y-86500000D02*
X221000000Y-99999998D01*
X239550000Y-86450000D02*
X239500000Y-86500000D01*
X97500000Y-93500000D02*
X96800000Y-93500000D01*
X255450000Y-86500000D02*
X239500000Y-86500000D01*
X59500000Y-81050000D02*
X59500000Y-86500000D01*
X95000000Y-91700000D02*
X95000000Y-86500000D01*
X116000000Y-101950000D02*
X116000000Y-98500000D01*
X159500000Y-86200000D02*
X159500000Y-94000000D01*
X41550000Y-89500000D02*
X56500000Y-89500000D01*
X221000000Y-99999998D02*
X221000002Y-100000000D01*
X239550000Y-84000000D02*
X239550000Y-86450000D01*
%TO.N,Net-(D21-A)*%
X39500000Y-82704927D02*
X40306913Y-81898014D01*
X39500000Y-89500000D02*
X39500000Y-82704927D01*
%TO.N,Net-(D22-A)*%
X59500000Y-78226631D02*
X59500000Y-79000000D01*
X61813816Y-75912815D02*
X59500000Y-78226631D01*
%TO.N,Net-(D23-A)*%
X81000000Y-73704927D02*
X82806913Y-71898014D01*
X81000000Y-78000000D02*
X81000000Y-73704927D01*
%TO.N,Net-(D24-A)*%
X97500000Y-91450000D02*
X97500000Y-87704927D01*
X97500000Y-87704927D02*
X99306913Y-85898014D01*
%TO.N,Net-(D25-A)*%
X118698014Y-122393087D02*
X116000000Y-119695073D01*
X116000000Y-119695073D02*
X116000000Y-104000000D01*
%TO.N,Net-(D26-A)*%
X195240438Y-106000000D02*
X192534520Y-108705918D01*
X195500000Y-106000000D02*
X195240438Y-106000000D01*
%TO.N,Net-(D27-A)*%
X202000000Y-93500000D02*
X202000000Y-89502970D01*
X202000000Y-89502970D02*
X201992112Y-89495082D01*
%TO.N,Net-(D28-A)*%
X218950000Y-81000000D02*
X218950000Y-75971266D01*
X218950000Y-75971266D02*
X218559015Y-75580281D01*
%TO.N,Net-(D29-A)*%
X237500000Y-84000000D02*
X237500000Y-81579296D01*
X237500000Y-81579296D02*
X239499015Y-79580281D01*
%TO.N,Net-(D30-A)*%
X261005918Y-85565480D02*
X258434520Y-85565480D01*
X258434520Y-85565480D02*
X257500000Y-86500000D01*
%TO.N,R3*%
X227500000Y-108000000D02*
X227500000Y-101500000D01*
X227500000Y-101500000D02*
X227500000Y-98050000D01*
X201000000Y-103950000D02*
X201000000Y-101500000D01*
X94000000Y-103000000D02*
X96500000Y-103000000D01*
X132000000Y-112950000D02*
X132000000Y-103000000D01*
X170500000Y-90500000D02*
X170500004Y-90500004D01*
X227500000Y-101500000D02*
X214000000Y-101500000D01*
X260500000Y-91000000D02*
X243500000Y-108000000D01*
X161900000Y-88975000D02*
X163425000Y-90500000D01*
X88987500Y-108012500D02*
X73987500Y-108012500D01*
X279000000Y-70550000D02*
X279000000Y-87000000D01*
X163425000Y-90500000D02*
X170500000Y-90500000D01*
X73987500Y-108012500D02*
X73000000Y-107025000D01*
X57525000Y-91550000D02*
X73000000Y-107025000D01*
X37000000Y-91550000D02*
X57525000Y-91550000D01*
X243500000Y-108000000D02*
X227500000Y-108000000D01*
X170500004Y-90500004D02*
X170500004Y-101499992D01*
X174000000Y-106950000D02*
X174000000Y-101500000D01*
X94000000Y-103000000D02*
X88987500Y-108012500D01*
X161900000Y-86200000D02*
X161900000Y-88975000D01*
X279000000Y-87000000D02*
X275000000Y-91000000D01*
X170500004Y-101499992D02*
X170500000Y-101499996D01*
X275000000Y-91000000D02*
X260500000Y-91000000D01*
%TO.N,Net-(D31-A)*%
X37000000Y-77380272D02*
X28712815Y-69093087D01*
X37000000Y-89500000D02*
X37000000Y-77380272D01*
%TO.N,Net-(D32-A)*%
X73000000Y-104975000D02*
X77979927Y-104975000D01*
X77979927Y-104975000D02*
X78398014Y-105393087D01*
%TO.N,Net-(D33-A)*%
X96558899Y-105050000D02*
X94000000Y-105050000D01*
X98306913Y-106798014D02*
X96558899Y-105050000D01*
%TO.N,Net-(D34-A)*%
X132000000Y-115000000D02*
X132000000Y-122051665D01*
X132000000Y-122051665D02*
X137227616Y-127279281D01*
%TO.N,Net-(D35-A)*%
X174119719Y-113699015D02*
X174119719Y-109119719D01*
X174119719Y-109119719D02*
X174000000Y-109000000D01*
%TO.N,Net-(D36-A)*%
X201000000Y-106000000D02*
X201000000Y-108502970D01*
X201000000Y-108502970D02*
X202992112Y-110495082D01*
%TO.N,Net-(D37-A)*%
X227500000Y-96000000D02*
X227500000Y-95425000D01*
X231232888Y-91692112D02*
X232804918Y-91692112D01*
X227500000Y-95425000D02*
X231232888Y-91692112D01*
%TO.N,Net-(D38-A)*%
X282604918Y-55392112D02*
X281310822Y-55392112D01*
X279000000Y-57702934D02*
X279000000Y-68500000D01*
X281310822Y-55392112D02*
X279000000Y-57702934D01*
%TO.N,RGB*%
X158500000Y-89500000D02*
X158700000Y-89300000D01*
X158700000Y-89300000D02*
X158700000Y-86200000D01*
X134500000Y-105500000D02*
X134500000Y-95000000D01*
D43*
%TO.N,/VBUS*%
X160010000Y-54075000D02*
X160010000Y-55510000D01*
X160010000Y-55510000D02*
X161500000Y-57000000D01*
D45*
%TO.N,/DDD+*%
X157935000Y-65435000D02*
X158500000Y-66000000D01*
X157935000Y-63670000D02*
X157935000Y-65435000D01*
%TO.N,/DD+*%
X157935000Y-61000000D02*
X157935000Y-62000000D01*
X158450000Y-59275000D02*
X158450000Y-60485000D01*
X158450000Y-60485000D02*
X157935000Y-61000000D01*
%TO.N,/DD-*%
X156550000Y-60550000D02*
X157065000Y-61065000D01*
X156550000Y-59275000D02*
X156550000Y-60550000D01*
X157065000Y-61065000D02*
X157065000Y-62000000D01*
%TO.N,/DDD-*%
X157065000Y-65435000D02*
X156500000Y-66000000D01*
X157065000Y-63670000D02*
X157065000Y-65435000D01*
D44*
%TO.N,/SCL*%
X156974695Y-96000000D02*
X156500000Y-96474695D01*
X167500000Y-91500000D02*
X167500000Y-95000000D01*
X156500000Y-96474695D02*
X156500000Y-97750000D01*
X166500000Y-96000000D02*
X156974695Y-96000000D01*
X167500000Y-95000000D02*
X166500000Y-96000000D01*
%TO.N,/SDA*%
X165000000Y-95000000D02*
X157000000Y-95000000D01*
X165500000Y-91500000D02*
X165500000Y-94500000D01*
X165500000Y-94500000D02*
X165000000Y-95000000D01*
X156000000Y-96000000D02*
X156000000Y-97750000D01*
X157000000Y-95000000D02*
X156000000Y-96000000D01*
%TO.N,/BTN*%
X157775000Y-86325000D02*
X157775000Y-93775000D01*
X157900000Y-86200000D02*
X157775000Y-86325000D01*
X157775000Y-93775000D02*
X158000000Y-94000000D01*
D45*
%TO.N,/D+*%
X157635736Y-55000000D02*
X158360000Y-55000000D01*
X157360000Y-54075000D02*
X157360000Y-54724264D01*
X158360000Y-55000000D02*
X158360000Y-56910000D01*
X157360000Y-54724264D02*
X157635736Y-55000000D01*
X158360000Y-56910000D02*
X158450000Y-57000000D01*
X158360000Y-54075000D02*
X158360000Y-55000000D01*
D44*
%TO.N,Net-(R1-Pad2)*%
X153500000Y-57500000D02*
X150800000Y-57500000D01*
X149500000Y-63000000D02*
X153500000Y-63000000D01*
X149500000Y-67000000D02*
X149500000Y-64500000D01*
X149500000Y-64500000D02*
X149500000Y-63000000D01*
X153500000Y-63000000D02*
X153500000Y-57500000D01*
%TO.N,Net-(U1-~{RESET})*%
X151500000Y-77000000D02*
X151000000Y-77500000D01*
X157200000Y-77300000D02*
X157000000Y-77500000D01*
X151500000Y-67000000D02*
X151500000Y-77000000D01*
X165200000Y-77300000D02*
X157200000Y-77300000D01*
%TO.N,Net-(U1-~{HWB}{slash}PE2)*%
X155500000Y-88000000D02*
X154500000Y-89000000D01*
X155500000Y-86200000D02*
X155500000Y-88000000D01*
D45*
%TO.N,DDDD-*%
X156500000Y-68000000D02*
X157100000Y-68600000D01*
X157100000Y-68600000D02*
X157100000Y-74800000D01*
%TO.N,DDDD+*%
X157900000Y-68600000D02*
X157900000Y-74800000D01*
X158500000Y-68000000D02*
X157900000Y-68600000D01*
D44*
%TO.N,C0*%
X29605118Y-55949164D02*
X58300000Y-55949164D01*
X58350836Y-64390317D02*
X53450836Y-69290317D01*
X58350836Y-50912021D02*
X58350836Y-56000000D01*
X139600000Y-82100000D02*
X139500000Y-82000000D01*
X56790317Y-82790317D02*
X57000000Y-83000000D01*
X53450836Y-82790317D02*
X56790317Y-82790317D01*
X53450836Y-69290317D02*
X53450836Y-82790317D01*
X153800000Y-82100000D02*
X139600000Y-82100000D01*
X58350836Y-56000000D02*
X58350836Y-64390317D01*
X63257739Y-46005118D02*
X58350836Y-50912021D01*
X58300000Y-55949164D02*
X58350836Y-56000000D01*
%TO.N,C1*%
X84850836Y-39990317D02*
X79857739Y-44983414D01*
X74957739Y-63305118D02*
X74957739Y-76805118D01*
X79857739Y-58405118D02*
X74957739Y-63305118D01*
X80952621Y-59500000D02*
X79857739Y-58405118D01*
X82500000Y-59500000D02*
X80952621Y-59500000D01*
X140500000Y-80500000D02*
X140500000Y-60500000D01*
X153800000Y-80500000D02*
X140500000Y-80500000D01*
X79857739Y-44983414D02*
X79857739Y-58405118D01*
%TO.N,C2*%
X95950836Y-72790317D02*
X79290317Y-89450836D01*
X97160519Y-74000000D02*
X95950836Y-72790317D01*
X139225000Y-80250305D02*
X139225000Y-73920337D01*
X98000000Y-74000000D02*
X97160519Y-74000000D01*
X79290317Y-89450836D02*
X79290317Y-92249164D01*
X140249695Y-81275000D02*
X139225000Y-80250305D01*
X153800000Y-81300000D02*
X153775000Y-81275000D01*
X95950836Y-59290317D02*
X95950836Y-72790317D01*
X153775000Y-81275000D02*
X140249695Y-81275000D01*
X105750836Y-36090317D02*
X100850836Y-40990317D01*
X100850836Y-54390317D02*
X95950836Y-59290317D01*
X100850836Y-40990317D02*
X100850836Y-54390317D01*
%TO.N,C3*%
X117447739Y-54915118D02*
X117447739Y-67725118D01*
X117500000Y-72500000D02*
X117447739Y-72447739D01*
X112450836Y-106690317D02*
X111450836Y-107690317D01*
X122257739Y-50105118D02*
X117447739Y-54915118D01*
X112450836Y-72722021D02*
X112450836Y-86790317D01*
X112450836Y-86790317D02*
X112450836Y-106690317D01*
X117447739Y-72447739D02*
X117447739Y-67725118D01*
X117447739Y-67725118D02*
X112450836Y-72722021D01*
%TO.N,C4*%
X133257739Y-82505118D02*
X125131428Y-90631428D01*
X119590317Y-96172540D02*
X119590317Y-109249164D01*
X126000000Y-91500000D02*
X125131428Y-90631428D01*
X125131428Y-90631428D02*
X119590317Y-96172540D01*
X156000000Y-91500000D02*
X126000000Y-91500000D01*
X138157739Y-64105118D02*
X133257739Y-69005118D01*
X156300000Y-91200000D02*
X156000000Y-91500000D01*
X133257739Y-69005118D02*
X133257739Y-82505118D01*
X156300000Y-86200000D02*
X156300000Y-91200000D01*
%TO.N,C5*%
X193028138Y-66002780D02*
X193028138Y-70500000D01*
X193028138Y-70500000D02*
X193028138Y-79581076D01*
X193028138Y-79581076D02*
X199354105Y-85907043D01*
X198333725Y-120535041D02*
X195868766Y-123000000D01*
X195868766Y-123000000D02*
X182447062Y-123000000D01*
X163037958Y-82012653D02*
X161012653Y-82012653D01*
X199354105Y-85907043D02*
X199354105Y-119514661D01*
X163925305Y-82900000D02*
X163037958Y-82012653D01*
X188221235Y-61195877D02*
X193028138Y-66002780D01*
X182447062Y-123000000D02*
X179918924Y-125528138D01*
X165200000Y-82900000D02*
X163925305Y-82900000D01*
X199354105Y-119514661D02*
X198333725Y-120535041D01*
%TO.N,C6*%
X212780202Y-102654844D02*
X212780202Y-95000000D01*
X161100000Y-89600000D02*
X162000000Y-90500000D01*
X162000000Y-93500000D02*
X162500000Y-94000000D01*
X212780202Y-84736910D02*
X212780202Y-95000000D01*
X213821235Y-83695877D02*
X212780202Y-84736910D01*
X213821235Y-70274173D02*
X213821235Y-83695877D01*
X208928138Y-65381076D02*
X213821235Y-70274173D01*
X214821235Y-104695877D02*
X212780202Y-102654844D01*
X161100000Y-86200000D02*
X161100000Y-89600000D01*
X162000000Y-90500000D02*
X162000000Y-93500000D01*
X203928138Y-47081076D02*
X208928138Y-52081076D01*
X208928138Y-52081076D02*
X208928138Y-65381076D01*
%TO.N,C7*%
X239624744Y-102500614D02*
X238604123Y-103521235D01*
X234620660Y-89500000D02*
X234620660Y-91500000D01*
X160300000Y-86200000D02*
X160300000Y-93000000D01*
X230388138Y-69781076D02*
X234620660Y-74013598D01*
X239624744Y-96504084D02*
X239624744Y-102500614D01*
X234620660Y-74013598D02*
X234620660Y-89500000D01*
X234620660Y-91500000D02*
X239624744Y-96504084D01*
X225428138Y-51481076D02*
X230388138Y-56441076D01*
X225428138Y-38002780D02*
X225428138Y-51481076D01*
X220521235Y-33095877D02*
X225428138Y-38002780D01*
X230388138Y-56441076D02*
X230388138Y-69781076D01*
%TO.N,C8*%
X251000000Y-76000000D02*
X251000000Y-74109214D01*
X241521235Y-36995877D02*
X246428138Y-41902780D01*
X162512653Y-82987347D02*
X162500000Y-82987347D01*
X246428138Y-41902780D02*
X246428138Y-53000000D01*
X251328138Y-60281076D02*
X251328138Y-73781076D01*
X163225306Y-83700000D02*
X162512653Y-82987347D01*
X251000000Y-74109214D02*
X251328138Y-73781076D01*
X246428138Y-55381076D02*
X251328138Y-60281076D01*
X165200000Y-83700000D02*
X163225306Y-83700000D01*
X246428138Y-53000000D02*
X246428138Y-55381076D01*
%TO.N,C9*%
X165200000Y-84500000D02*
X165200000Y-86300000D01*
X272500000Y-82500000D02*
X272835041Y-82164959D01*
X164475000Y-87025000D02*
X164475000Y-88404577D01*
X165200000Y-86300000D02*
X164475000Y-87025000D01*
X288404123Y-67221235D02*
X286125358Y-69500000D01*
X267928138Y-48081076D02*
X267928138Y-61381076D01*
X164475000Y-88404577D02*
X163529577Y-89350000D01*
X272835041Y-66287979D02*
X272835041Y-69500000D01*
X262928138Y-43081076D02*
X267928138Y-48081076D01*
X272835041Y-69500000D02*
X272835041Y-79766275D01*
X267928138Y-61381076D02*
X272835041Y-66287979D01*
X286125358Y-69500000D02*
X272835041Y-69500000D01*
X272835041Y-82164959D02*
X272835041Y-79766275D01*
%TO.N,Net-(J3-CC1)*%
X147000000Y-51000000D02*
X148000000Y-52000000D01*
X156360000Y-52790370D02*
X156360000Y-54075000D01*
X148000000Y-52000000D02*
X151000000Y-52000000D01*
X156322262Y-52752632D02*
X156360000Y-52790370D01*
%TO.N,Net-(J3-CC2)*%
X149500000Y-51000000D02*
X151000000Y-51000000D01*
X159350000Y-54065000D02*
X159350000Y-53250500D01*
X159360000Y-54075000D02*
X159350000Y-54065000D01*
X159350000Y-53250500D02*
X159000000Y-52900500D01*
%TO.N,Net-(U1-PD0)*%
X166300000Y-81300000D02*
X167500000Y-82500000D01*
X165200000Y-81300000D02*
X166300000Y-81300000D01*
X167500000Y-82500000D02*
X167500000Y-89500000D01*
%TO.N,Net-(U1-PD1)*%
X166100000Y-82100000D02*
X166500000Y-82500000D01*
X165500000Y-87636396D02*
X165500000Y-89000000D01*
X165200000Y-82100000D02*
X166100000Y-82100000D01*
X166500000Y-82500000D02*
X166500000Y-86636396D01*
X166500000Y-86636396D02*
X165500000Y-87636396D01*
%TD*%
%TA.AperFunction,Conductor*%
%TO.N,GNDD*%
G36*
X137205203Y-96936609D02*
G01*
X137218508Y-96950047D01*
X137294364Y-97039353D01*
X137294367Y-97039356D01*
X137310161Y-97051362D01*
X137445971Y-97154602D01*
X137445972Y-97154602D01*
X137445973Y-97154603D01*
X137445974Y-97154604D01*
X137551758Y-97203543D01*
X137618803Y-97234562D01*
X137618804Y-97234562D01*
X137618806Y-97234563D01*
X137675227Y-97246982D01*
X137804784Y-97275500D01*
X137804785Y-97275500D01*
X137947459Y-97275500D01*
X137947465Y-97275500D01*
X138012595Y-97268416D01*
X138081367Y-97280736D01*
X138132563Y-97328283D01*
X138150000Y-97391689D01*
X138150000Y-97750000D01*
X139096031Y-97750000D01*
X139063481Y-97800649D01*
X139025000Y-97931705D01*
X139025000Y-98068295D01*
X139063481Y-98199351D01*
X139096031Y-98250000D01*
X138150001Y-98250000D01*
X138150001Y-98774986D01*
X138160494Y-98877697D01*
X138215641Y-99044119D01*
X138215643Y-99044124D01*
X138307684Y-99193345D01*
X138431654Y-99317315D01*
X138580875Y-99409356D01*
X138580880Y-99409358D01*
X138747302Y-99464505D01*
X138747309Y-99464506D01*
X138850019Y-99474999D01*
X139249999Y-99474999D01*
X139250000Y-99474998D01*
X139250000Y-98408018D01*
X139364801Y-98460446D01*
X139466025Y-98475000D01*
X139533975Y-98475000D01*
X139635199Y-98460446D01*
X139750000Y-98408018D01*
X139750000Y-99474999D01*
X140149972Y-99474999D01*
X140149986Y-99474998D01*
X140252697Y-99464505D01*
X140419119Y-99409358D01*
X140419124Y-99409356D01*
X140568345Y-99317315D01*
X140692317Y-99193343D01*
X140784338Y-99044153D01*
X140836286Y-98997428D01*
X140905248Y-98986205D01*
X140969331Y-99014048D01*
X140979397Y-99023446D01*
X141099228Y-99148476D01*
X141191235Y-99216523D01*
X141233429Y-99272211D01*
X141241500Y-99316218D01*
X141241500Y-103376000D01*
X141221815Y-103443039D01*
X141169011Y-103488794D01*
X141117500Y-103500000D01*
X137124000Y-103500000D01*
X137056961Y-103480315D01*
X137011206Y-103427511D01*
X137000000Y-103376000D01*
X137000000Y-97030322D01*
X137019685Y-96963283D01*
X137072489Y-96917528D01*
X137141647Y-96907584D01*
X137205203Y-96936609D01*
G37*
%TD.AperFunction*%
%TA.AperFunction,Conductor*%
G36*
X177943039Y-46219186D02*
G01*
X177988794Y-46271990D01*
X178000000Y-46323501D01*
X178000000Y-65279282D01*
X177980315Y-65346321D01*
X177927511Y-65392076D01*
X177858353Y-65402020D01*
X177794797Y-65372995D01*
X177771197Y-65345556D01*
X177711565Y-65251256D01*
X177711561Y-65251251D01*
X177587473Y-65132063D01*
X177587469Y-65132061D01*
X177438473Y-65046037D01*
X177438468Y-65046035D01*
X177273213Y-64998168D01*
X177273203Y-64998166D01*
X177101299Y-64991239D01*
X177101297Y-64991239D01*
X177030665Y-65003449D01*
X177030655Y-65003451D01*
X175732031Y-65351416D01*
X175662182Y-65349753D01*
X175612257Y-65319322D01*
X175169819Y-64876884D01*
X175136334Y-64815561D01*
X175133500Y-64789203D01*
X175133500Y-64652794D01*
X175153185Y-64585755D01*
X175205989Y-64540000D01*
X175218488Y-64535091D01*
X175272738Y-64517115D01*
X175423652Y-64424030D01*
X175549030Y-64298652D01*
X175642115Y-64147738D01*
X175697887Y-63979426D01*
X175708500Y-63875545D01*
X175708499Y-63124456D01*
X175697887Y-63020574D01*
X175642115Y-62852262D01*
X175549030Y-62701348D01*
X175423652Y-62575970D01*
X175423651Y-62575969D01*
X175418970Y-62572268D01*
X175378591Y-62515247D01*
X175375451Y-62445448D01*
X175410545Y-62385032D01*
X175418970Y-62377732D01*
X175423647Y-62374032D01*
X175423652Y-62374030D01*
X175549030Y-62248652D01*
X175642115Y-62097738D01*
X175697887Y-61929426D01*
X175708500Y-61825545D01*
X175708499Y-61074456D01*
X175697887Y-60970574D01*
X175642115Y-60802262D01*
X175549030Y-60651348D01*
X175423652Y-60525970D01*
X175329898Y-60468142D01*
X175272740Y-60432886D01*
X175272739Y-60432885D01*
X175272738Y-60432885D01*
X175218493Y-60414910D01*
X175161051Y-60375138D01*
X175134228Y-60310622D01*
X175133500Y-60297205D01*
X175133500Y-59201756D01*
X175153185Y-59134717D01*
X175165346Y-59118788D01*
X175239040Y-59036944D01*
X175334527Y-58871556D01*
X175393542Y-58689928D01*
X175413504Y-58500000D01*
X175393542Y-58310072D01*
X175334527Y-58128444D01*
X175239040Y-57963056D01*
X175111253Y-57821134D01*
X174956752Y-57708882D01*
X174782288Y-57631206D01*
X174782286Y-57631205D01*
X174595487Y-57591500D01*
X174404513Y-57591500D01*
X174217714Y-57631205D01*
X174043246Y-57708883D01*
X173888745Y-57821135D01*
X173760959Y-57963057D01*
X173665473Y-58128443D01*
X173665470Y-58128450D01*
X173627210Y-58246204D01*
X173606458Y-58310072D01*
X173586496Y-58500000D01*
X173606458Y-58689928D01*
X173606459Y-58689931D01*
X173665470Y-58871549D01*
X173665473Y-58871556D01*
X173748226Y-59014889D01*
X173760960Y-59036944D01*
X173834649Y-59118784D01*
X173864880Y-59181775D01*
X173866500Y-59201756D01*
X173866500Y-60297205D01*
X173846815Y-60364244D01*
X173794011Y-60409999D01*
X173781511Y-60414908D01*
X173727262Y-60432885D01*
X173727259Y-60432886D01*
X173576346Y-60525971D01*
X173450971Y-60651346D01*
X173357886Y-60802259D01*
X173357884Y-60802264D01*
X173302113Y-60970572D01*
X173291500Y-61074447D01*
X173291500Y-61825537D01*
X173291501Y-61825553D01*
X173302113Y-61929427D01*
X173357884Y-62097735D01*
X173357886Y-62097740D01*
X173367599Y-62113487D01*
X173450970Y-62248652D01*
X173576348Y-62374030D01*
X173576351Y-62374032D01*
X173581034Y-62377735D01*
X173621410Y-62434758D01*
X173624547Y-62504557D01*
X173589450Y-62564972D01*
X173581034Y-62572265D01*
X173576345Y-62575972D01*
X173450971Y-62701346D01*
X173357886Y-62852259D01*
X173357884Y-62852264D01*
X173302113Y-63020572D01*
X173291500Y-63124447D01*
X173291500Y-63875537D01*
X173291501Y-63875553D01*
X173302113Y-63979427D01*
X173357884Y-64147735D01*
X173357886Y-64147740D01*
X173371006Y-64169011D01*
X173450970Y-64298652D01*
X173576348Y-64424030D01*
X173727262Y-64517115D01*
X173781502Y-64535088D01*
X173838947Y-64574858D01*
X173865772Y-64639374D01*
X173866500Y-64652794D01*
X173866500Y-65019336D01*
X173864761Y-65035083D01*
X173865032Y-65035109D01*
X173864298Y-65042875D01*
X173866500Y-65112927D01*
X173866500Y-65142829D01*
X173867384Y-65149826D01*
X173867842Y-65155649D01*
X173869326Y-65202859D01*
X173869327Y-65202861D01*
X173875022Y-65222465D01*
X173878967Y-65241512D01*
X173881526Y-65261767D01*
X173881527Y-65261770D01*
X173881528Y-65261773D01*
X173898914Y-65305686D01*
X173900806Y-65311214D01*
X173913981Y-65356562D01*
X173913982Y-65356563D01*
X173923699Y-65372995D01*
X173924372Y-65374132D01*
X173932932Y-65391605D01*
X173940447Y-65410587D01*
X173968209Y-65448797D01*
X173971416Y-65453680D01*
X173995458Y-65494332D01*
X173995462Y-65494336D01*
X174009889Y-65508763D01*
X174022526Y-65523558D01*
X174034528Y-65540077D01*
X174070931Y-65570192D01*
X174075231Y-65574105D01*
X174231379Y-65730253D01*
X174385952Y-65884826D01*
X174419437Y-65946149D01*
X174417375Y-66007005D01*
X174377522Y-66144596D01*
X174377519Y-66144610D01*
X174370591Y-66316512D01*
X174370591Y-66316513D01*
X174382801Y-66387146D01*
X174382803Y-66387156D01*
X174796707Y-67931862D01*
X174955965Y-68526220D01*
X174966165Y-68553955D01*
X174980706Y-68593495D01*
X174986624Y-68602853D01*
X175072663Y-68738913D01*
X175196750Y-68858100D01*
X175345753Y-68944128D01*
X175511016Y-68991997D01*
X175573530Y-68994515D01*
X175682924Y-68998924D01*
X175682926Y-68998924D01*
X175682926Y-68998923D01*
X175682931Y-68998924D01*
X175753561Y-68986714D01*
X177784506Y-68442523D01*
X177854356Y-68444186D01*
X177912219Y-68483348D01*
X177939723Y-68547577D01*
X177933781Y-68602853D01*
X177910972Y-68668756D01*
X177881037Y-68876957D01*
X177891046Y-69087061D01*
X177940636Y-69291473D01*
X177988794Y-69396926D01*
X178000000Y-69448435D01*
X178000000Y-103376000D01*
X177980315Y-103443039D01*
X177927511Y-103488794D01*
X177876000Y-103500000D01*
X174757500Y-103500000D01*
X174690461Y-103480315D01*
X174644706Y-103427511D01*
X174633500Y-103376000D01*
X174633500Y-102201756D01*
X174653185Y-102134717D01*
X174665346Y-102118788D01*
X174739040Y-102036944D01*
X174834527Y-101871556D01*
X174893542Y-101689928D01*
X174913504Y-101500000D01*
X174893542Y-101310072D01*
X174834527Y-101128444D01*
X174739040Y-100963056D01*
X174611253Y-100821134D01*
X174456752Y-100708882D01*
X174282288Y-100631206D01*
X174282286Y-100631205D01*
X174095487Y-100591500D01*
X173904513Y-100591500D01*
X173717714Y-100631205D01*
X173543246Y-100708883D01*
X173388745Y-100821135D01*
X173260959Y-100963057D01*
X173165473Y-101128443D01*
X173165470Y-101128450D01*
X173106459Y-101310068D01*
X173106458Y-101310072D01*
X173086496Y-101500000D01*
X173106458Y-101689928D01*
X173106459Y-101689931D01*
X173165470Y-101871549D01*
X173165473Y-101871556D01*
X173260957Y-102036940D01*
X173260960Y-102036944D01*
X173334649Y-102118784D01*
X173364880Y-102181775D01*
X173366500Y-102201756D01*
X173366500Y-103376000D01*
X173346815Y-103443039D01*
X173294011Y-103488794D01*
X173242500Y-103500000D01*
X142882500Y-103500000D01*
X142815461Y-103480315D01*
X142769706Y-103427511D01*
X142758500Y-103376000D01*
X142758500Y-99322327D01*
X142778185Y-99255288D01*
X142806821Y-99224710D01*
X142806776Y-99224659D01*
X142807305Y-99224192D01*
X142808773Y-99222626D01*
X142810719Y-99221185D01*
X142810730Y-99221179D01*
X142984324Y-99068398D01*
X143129600Y-98888476D01*
X143143030Y-98864434D01*
X143192906Y-98815509D01*
X143261318Y-98801314D01*
X143326545Y-98826359D01*
X143354019Y-98855470D01*
X143439209Y-98981512D01*
X143439212Y-98981516D01*
X143439217Y-98981523D01*
X143599228Y-99148476D01*
X143785153Y-99285985D01*
X143991643Y-99390095D01*
X144212757Y-99457811D01*
X144442135Y-99487184D01*
X144673178Y-99477369D01*
X144899238Y-99428649D01*
X145113813Y-99342426D01*
X145310730Y-99221179D01*
X145484324Y-99068398D01*
X145629600Y-98888476D01*
X145643030Y-98864434D01*
X145692906Y-98815509D01*
X145761318Y-98801314D01*
X145826545Y-98826359D01*
X145854019Y-98855470D01*
X145939209Y-98981512D01*
X145939212Y-98981516D01*
X145939217Y-98981523D01*
X146099228Y-99148476D01*
X146285153Y-99285985D01*
X146491643Y-99390095D01*
X146712757Y-99457811D01*
X146942135Y-99487184D01*
X147173178Y-99477369D01*
X147399238Y-99428649D01*
X147613813Y-99342426D01*
X147810730Y-99221179D01*
X147984324Y-99068398D01*
X148129600Y-98888476D01*
X148242380Y-98686591D01*
X148319419Y-98468550D01*
X148356893Y-98250000D01*
X148358499Y-98240634D01*
X148358500Y-98240623D01*
X148358500Y-97817281D01*
X148343802Y-97644586D01*
X148285530Y-97420793D01*
X148285529Y-97420789D01*
X148190283Y-97210080D01*
X148190276Y-97210068D01*
X148060790Y-97018486D01*
X148060786Y-97018481D01*
X148060783Y-97018477D01*
X147900772Y-96851524D01*
X147714847Y-96714015D01*
X147714846Y-96714014D01*
X147714844Y-96714013D01*
X147508358Y-96609905D01*
X147368474Y-96567066D01*
X147287243Y-96542189D01*
X147287241Y-96542188D01*
X147287242Y-96542188D01*
X147057859Y-96512815D01*
X146826827Y-96522630D01*
X146826821Y-96522630D01*
X146600759Y-96571351D01*
X146386190Y-96657572D01*
X146189270Y-96778820D01*
X146015679Y-96931599D01*
X146015672Y-96931605D01*
X145870404Y-97111517D01*
X145870397Y-97111527D01*
X145856968Y-97135567D01*
X145807089Y-97184493D01*
X145738675Y-97198685D01*
X145673450Y-97173637D01*
X145645980Y-97144529D01*
X145560790Y-97018487D01*
X145560788Y-97018485D01*
X145560783Y-97018477D01*
X145400772Y-96851524D01*
X145214847Y-96714015D01*
X145214846Y-96714014D01*
X145214844Y-96714013D01*
X145008358Y-96609905D01*
X144868474Y-96567066D01*
X144787243Y-96542189D01*
X144787241Y-96542188D01*
X144787242Y-96542188D01*
X144557859Y-96512815D01*
X144326827Y-96522630D01*
X144326821Y-96522630D01*
X144100759Y-96571351D01*
X143886190Y-96657572D01*
X143689270Y-96778820D01*
X143515679Y-96931599D01*
X143515672Y-96931605D01*
X143370404Y-97111517D01*
X143370397Y-97111527D01*
X143356968Y-97135567D01*
X143307089Y-97184493D01*
X143238675Y-97198685D01*
X143173450Y-97173637D01*
X143145980Y-97144529D01*
X143060790Y-97018487D01*
X143060788Y-97018485D01*
X143060783Y-97018477D01*
X142900772Y-96851524D01*
X142900771Y-96851523D01*
X142900770Y-96851522D01*
X142808764Y-96783474D01*
X142766570Y-96727784D01*
X142758499Y-96683779D01*
X142758499Y-93382500D01*
X142778184Y-93315461D01*
X142830988Y-93269706D01*
X142882499Y-93258500D01*
X148458063Y-93258500D01*
X148525102Y-93278185D01*
X148530949Y-93282182D01*
X148543249Y-93291119D01*
X148610220Y-93320935D01*
X148717712Y-93368794D01*
X148904513Y-93408500D01*
X149095487Y-93408500D01*
X149282288Y-93368794D01*
X149456752Y-93291118D01*
X149611253Y-93178866D01*
X149615160Y-93174527D01*
X149674646Y-93137879D01*
X149707309Y-93133500D01*
X151186234Y-93133500D01*
X151253273Y-93153185D01*
X151273915Y-93169819D01*
X154330181Y-96226085D01*
X154363666Y-96287408D01*
X154366500Y-96313766D01*
X154366500Y-96918854D01*
X154358682Y-96962187D01*
X154348011Y-96990796D01*
X154348011Y-96990797D01*
X154341500Y-97051345D01*
X154341500Y-98448654D01*
X154348011Y-98509202D01*
X154348011Y-98509204D01*
X154374122Y-98579207D01*
X154399111Y-98646204D01*
X154486739Y-98763261D01*
X154603796Y-98850889D01*
X154740799Y-98901989D01*
X154768050Y-98904918D01*
X154801345Y-98908499D01*
X154801362Y-98908500D01*
X154870929Y-98908500D01*
X154937968Y-98928185D01*
X154983723Y-98980989D01*
X154993667Y-99050147D01*
X154964642Y-99113703D01*
X154958615Y-99120175D01*
X154865534Y-99213256D01*
X154611182Y-99467607D01*
X154598820Y-99477511D01*
X154598994Y-99477721D01*
X154592985Y-99482692D01*
X154592982Y-99482694D01*
X154592982Y-99482695D01*
X154545015Y-99533774D01*
X154542050Y-99536739D01*
X154540323Y-99538466D01*
X154478995Y-99571941D01*
X154409304Y-99566946D01*
X154370430Y-99541959D01*
X154370360Y-99542054D01*
X154369036Y-99541063D01*
X154364974Y-99538452D01*
X154363263Y-99536741D01*
X154363261Y-99536740D01*
X154363261Y-99536739D01*
X154246204Y-99449111D01*
X154109203Y-99398011D01*
X154048654Y-99391500D01*
X154048638Y-99391500D01*
X152151362Y-99391500D01*
X152151345Y-99391500D01*
X152090797Y-99398011D01*
X152090795Y-99398011D01*
X151953795Y-99449111D01*
X151836739Y-99536739D01*
X151749111Y-99653795D01*
X151698011Y-99790795D01*
X151698011Y-99790797D01*
X151691500Y-99851345D01*
X151691500Y-102148654D01*
X151698011Y-102209202D01*
X151698011Y-102209204D01*
X151728563Y-102291114D01*
X151749111Y-102346204D01*
X151836739Y-102463261D01*
X151953796Y-102550889D01*
X152090799Y-102601989D01*
X152118050Y-102604918D01*
X152151345Y-102608499D01*
X152151362Y-102608500D01*
X154048638Y-102608500D01*
X154048654Y-102608499D01*
X154075692Y-102605591D01*
X154109201Y-102601989D01*
X154246204Y-102550889D01*
X154363261Y-102463261D01*
X154450889Y-102346204D01*
X154501989Y-102209201D01*
X154507907Y-102154158D01*
X154508499Y-102148654D01*
X160991500Y-102148654D01*
X160998011Y-102209202D01*
X160998011Y-102209204D01*
X161028563Y-102291114D01*
X161049111Y-102346204D01*
X161136739Y-102463261D01*
X161253796Y-102550889D01*
X161390799Y-102601989D01*
X161418050Y-102604918D01*
X161451345Y-102608499D01*
X161451362Y-102608500D01*
X163348638Y-102608500D01*
X163348654Y-102608499D01*
X163375692Y-102605591D01*
X163409201Y-102601989D01*
X163546204Y-102550889D01*
X163663261Y-102463261D01*
X163750889Y-102346204D01*
X163801989Y-102209201D01*
X163807907Y-102154158D01*
X163808499Y-102148654D01*
X163808500Y-102148637D01*
X163808500Y-99851362D01*
X163808499Y-99851345D01*
X163805157Y-99820270D01*
X163801989Y-99790799D01*
X163750889Y-99653796D01*
X163663261Y-99536739D01*
X163546204Y-99449111D01*
X163409203Y-99398011D01*
X163348654Y-99391500D01*
X163348638Y-99391500D01*
X161451362Y-99391500D01*
X161451345Y-99391500D01*
X161390797Y-99398011D01*
X161390795Y-99398011D01*
X161253795Y-99449111D01*
X161136739Y-99536739D01*
X161049111Y-99653795D01*
X160998011Y-99790795D01*
X160998011Y-99790797D01*
X160991500Y-99851345D01*
X160991500Y-102148654D01*
X154508499Y-102148654D01*
X154508500Y-102148637D01*
X154508500Y-101466590D01*
X154528185Y-101399551D01*
X154580989Y-101353796D01*
X154650147Y-101343852D01*
X154682932Y-101353309D01*
X154717712Y-101368794D01*
X154904513Y-101408500D01*
X155095487Y-101408500D01*
X155282288Y-101368794D01*
X155456752Y-101291118D01*
X155611253Y-101178866D01*
X155739040Y-101036944D01*
X155834527Y-100871556D01*
X155893542Y-100689928D01*
X155913504Y-100500000D01*
X155906551Y-100433854D01*
X155919120Y-100365130D01*
X155966851Y-100314106D01*
X156034591Y-100296987D01*
X156080303Y-100307616D01*
X156217712Y-100368794D01*
X156404513Y-100408500D01*
X156595487Y-100408500D01*
X156782288Y-100368794D01*
X156956752Y-100291118D01*
X157111253Y-100178866D01*
X157157852Y-100127111D01*
X157217336Y-100090466D01*
X157287193Y-100091795D01*
X157342147Y-100127111D01*
X157388747Y-100178866D01*
X157543248Y-100291118D01*
X157717712Y-100368794D01*
X157904513Y-100408500D01*
X158095487Y-100408500D01*
X158282288Y-100368794D01*
X158456752Y-100291118D01*
X158611253Y-100178866D01*
X158739040Y-100036944D01*
X158834527Y-99871556D01*
X158893542Y-99689928D01*
X158913504Y-99500000D01*
X158893542Y-99310072D01*
X158834527Y-99128444D01*
X158814928Y-99094498D01*
X158798456Y-99026600D01*
X158821308Y-98960573D01*
X158876230Y-98917382D01*
X158922316Y-98908500D01*
X159198638Y-98908500D01*
X159201120Y-98908233D01*
X159236745Y-98904404D01*
X159263255Y-98904404D01*
X159301343Y-98908498D01*
X159301362Y-98908500D01*
X159698638Y-98908500D01*
X159701120Y-98908233D01*
X159736745Y-98904404D01*
X159763255Y-98904404D01*
X159801343Y-98908498D01*
X159801362Y-98908500D01*
X160198638Y-98908500D01*
X160201120Y-98908233D01*
X160236745Y-98904404D01*
X160263255Y-98904404D01*
X160301343Y-98908498D01*
X160301362Y-98908500D01*
X160698638Y-98908500D01*
X160698654Y-98908499D01*
X160725692Y-98905591D01*
X160759201Y-98901989D01*
X160896204Y-98850889D01*
X161013261Y-98763261D01*
X161100889Y-98646204D01*
X161151989Y-98509201D01*
X161157231Y-98460446D01*
X161158499Y-98448654D01*
X161158500Y-98448637D01*
X161158500Y-97051362D01*
X161158499Y-97051345D01*
X161153841Y-97008028D01*
X161151989Y-96990799D01*
X161144279Y-96970129D01*
X161115965Y-96894216D01*
X161100889Y-96853796D01*
X161084430Y-96831810D01*
X161060014Y-96766347D01*
X161074865Y-96698074D01*
X161124271Y-96648668D01*
X161183698Y-96633500D01*
X166416366Y-96633500D01*
X166432113Y-96635238D01*
X166432139Y-96634968D01*
X166439905Y-96635701D01*
X166439909Y-96635702D01*
X166509958Y-96633500D01*
X166539856Y-96633500D01*
X166539857Y-96633500D01*
X166541222Y-96633327D01*
X166546862Y-96632614D01*
X166552685Y-96632156D01*
X166578708Y-96631338D01*
X166599890Y-96630673D01*
X166609681Y-96627827D01*
X166619481Y-96624980D01*
X166638538Y-96621032D01*
X166658797Y-96618474D01*
X166702721Y-96601082D01*
X166708221Y-96599199D01*
X166753593Y-96586018D01*
X166771165Y-96575625D01*
X166788632Y-96567068D01*
X166807617Y-96559552D01*
X166845826Y-96531790D01*
X166850704Y-96528585D01*
X166891362Y-96504542D01*
X166905802Y-96490100D01*
X166920592Y-96477470D01*
X166937107Y-96465472D01*
X166967222Y-96429067D01*
X166971126Y-96424776D01*
X167888815Y-95507087D01*
X167901180Y-95497183D01*
X167901006Y-95496973D01*
X167907012Y-95492003D01*
X167907018Y-95492000D01*
X167954999Y-95440904D01*
X167976135Y-95419769D01*
X167980458Y-95414195D01*
X167984257Y-95409747D01*
X168016585Y-95375322D01*
X168026420Y-95357432D01*
X168037098Y-95341174D01*
X168049614Y-95325040D01*
X168068374Y-95281686D01*
X168070935Y-95276458D01*
X168093695Y-95235060D01*
X168098774Y-95215274D01*
X168105072Y-95196882D01*
X168113181Y-95178145D01*
X168120569Y-95131497D01*
X168121751Y-95125786D01*
X168133500Y-95080030D01*
X168133500Y-95059615D01*
X168135027Y-95040214D01*
X168138220Y-95020057D01*
X168133775Y-94973033D01*
X168133500Y-94967195D01*
X168133500Y-92677794D01*
X168153185Y-92610755D01*
X168205989Y-92565000D01*
X168218488Y-92560091D01*
X168272738Y-92542115D01*
X168423652Y-92449030D01*
X168549030Y-92323652D01*
X168642115Y-92172738D01*
X168697887Y-92004426D01*
X168708500Y-91900545D01*
X168708499Y-91257499D01*
X168728183Y-91190461D01*
X168780987Y-91144706D01*
X168832499Y-91133500D01*
X169742504Y-91133500D01*
X169809543Y-91153185D01*
X169855298Y-91205989D01*
X169866504Y-91257500D01*
X169866504Y-100798234D01*
X169846819Y-100865273D01*
X169834654Y-100881206D01*
X169760959Y-100963053D01*
X169665473Y-101128439D01*
X169665470Y-101128446D01*
X169612616Y-101291116D01*
X169606458Y-101310068D01*
X169586496Y-101499996D01*
X169606458Y-101689924D01*
X169606459Y-101689927D01*
X169665470Y-101871545D01*
X169665472Y-101871549D01*
X169665473Y-101871552D01*
X169760960Y-102036940D01*
X169888747Y-102178862D01*
X170043248Y-102291114D01*
X170217712Y-102368790D01*
X170404513Y-102408496D01*
X170595487Y-102408496D01*
X170782288Y-102368790D01*
X170956752Y-102291114D01*
X171111253Y-102178862D01*
X171239040Y-102036940D01*
X171334527Y-101871552D01*
X171393542Y-101689924D01*
X171413504Y-101499996D01*
X171393542Y-101310068D01*
X171334527Y-101128440D01*
X171239040Y-100963052D01*
X171165354Y-100881215D01*
X171135124Y-100818223D01*
X171133504Y-100798243D01*
X171133504Y-90583638D01*
X171135243Y-90567891D01*
X171134972Y-90567866D01*
X171136440Y-90552331D01*
X171136709Y-90552356D01*
X171137060Y-90547900D01*
X171136785Y-90547883D01*
X171137275Y-90540094D01*
X171135757Y-90515972D01*
X171133625Y-90482082D01*
X171133504Y-90478210D01*
X171133504Y-90460151D01*
X171133504Y-90460148D01*
X171132618Y-90453145D01*
X171132161Y-90447326D01*
X171130678Y-90400116D01*
X171129457Y-90392409D01*
X171129725Y-90392366D01*
X171128957Y-90387963D01*
X171128686Y-90388015D01*
X171127225Y-90380361D01*
X171127225Y-90380350D01*
X171124624Y-90372346D01*
X171119534Y-90349569D01*
X171118478Y-90341208D01*
X171118478Y-90341207D01*
X171101085Y-90297278D01*
X171099205Y-90291783D01*
X171086023Y-90246411D01*
X171086018Y-90246403D01*
X171082923Y-90239249D01*
X171083172Y-90239140D01*
X171081333Y-90235066D01*
X171081085Y-90235184D01*
X171077763Y-90228123D01*
X171073257Y-90221024D01*
X171062657Y-90200219D01*
X171059558Y-90192392D01*
X171059554Y-90192384D01*
X171031798Y-90154182D01*
X171028589Y-90149297D01*
X171024340Y-90142113D01*
X171004546Y-90108642D01*
X171004543Y-90108639D01*
X170999763Y-90102476D01*
X170999978Y-90102309D01*
X170997181Y-90098819D01*
X170996972Y-90098993D01*
X170992003Y-90092987D01*
X170992000Y-90092982D01*
X170985855Y-90087211D01*
X170970427Y-90069712D01*
X170965476Y-90062897D01*
X170929088Y-90032794D01*
X170924766Y-90028861D01*
X170919768Y-90023863D01*
X170917792Y-90022331D01*
X170914183Y-90019531D01*
X170909750Y-90015744D01*
X170875322Y-89983414D01*
X170867936Y-89979354D01*
X170848636Y-89966238D01*
X170842148Y-89960871D01*
X170842145Y-89960869D01*
X170842142Y-89960867D01*
X170835562Y-89956691D01*
X170835708Y-89956460D01*
X170831897Y-89954124D01*
X170831759Y-89954359D01*
X170825041Y-89950386D01*
X170781694Y-89931628D01*
X170776446Y-89929057D01*
X170735063Y-89906306D01*
X170735057Y-89906304D01*
X170726886Y-89904206D01*
X170704931Y-89896301D01*
X170697322Y-89892721D01*
X170697320Y-89892720D01*
X170697317Y-89892719D01*
X170689901Y-89890309D01*
X170689985Y-89890050D01*
X170685712Y-89888735D01*
X170685637Y-89888995D01*
X170678146Y-89886818D01*
X170631496Y-89879430D01*
X170625781Y-89878246D01*
X170605612Y-89873068D01*
X170580032Y-89866500D01*
X170580030Y-89866500D01*
X170571589Y-89866500D01*
X170548356Y-89864304D01*
X170540098Y-89862729D01*
X170532314Y-89862239D01*
X170532331Y-89861968D01*
X170527858Y-89861757D01*
X170527850Y-89862025D01*
X170520057Y-89861780D01*
X170520056Y-89861780D01*
X170473033Y-89866225D01*
X170467195Y-89866500D01*
X168832500Y-89866500D01*
X168765461Y-89846815D01*
X168719706Y-89794011D01*
X168708500Y-89742500D01*
X168708499Y-89099462D01*
X168708498Y-89099446D01*
X168708218Y-89096707D01*
X168697887Y-88995574D01*
X168642115Y-88827262D01*
X168549030Y-88676348D01*
X168423652Y-88550970D01*
X168272738Y-88457885D01*
X168218493Y-88439910D01*
X168161051Y-88400138D01*
X168134228Y-88335622D01*
X168133500Y-88322205D01*
X168133500Y-82583631D01*
X168135238Y-82567881D01*
X168134968Y-82567856D01*
X168135701Y-82560094D01*
X168135702Y-82560091D01*
X168133500Y-82490041D01*
X168133500Y-82460144D01*
X168132614Y-82453136D01*
X168132156Y-82447314D01*
X168130673Y-82400110D01*
X168130672Y-82400108D01*
X168124979Y-82380514D01*
X168121032Y-82361457D01*
X168118474Y-82341203D01*
X168101084Y-82297284D01*
X168099193Y-82291757D01*
X168093210Y-82271162D01*
X168086018Y-82246407D01*
X168075623Y-82228831D01*
X168067064Y-82211356D01*
X168059554Y-82192388D01*
X168059554Y-82192387D01*
X168059553Y-82192385D01*
X168059552Y-82192383D01*
X168031789Y-82154171D01*
X168028587Y-82149297D01*
X168004542Y-82108637D01*
X167990106Y-82094201D01*
X167977469Y-82079406D01*
X167965471Y-82062892D01*
X167929084Y-82032790D01*
X167924762Y-82028857D01*
X167241086Y-81345181D01*
X167207601Y-81283858D01*
X167212585Y-81214166D01*
X167254457Y-81158233D01*
X167319921Y-81133816D01*
X167328767Y-81133500D01*
X171242500Y-81133500D01*
X171309539Y-81153185D01*
X171355294Y-81205989D01*
X171366500Y-81257500D01*
X171366500Y-81617500D01*
X171346815Y-81684539D01*
X171294011Y-81730294D01*
X171242500Y-81741500D01*
X170951345Y-81741500D01*
X170890797Y-81748011D01*
X170890795Y-81748011D01*
X170753795Y-81799111D01*
X170636739Y-81886739D01*
X170549111Y-82003795D01*
X170498011Y-82140795D01*
X170498011Y-82140797D01*
X170491500Y-82201345D01*
X170491500Y-86798654D01*
X170498011Y-86859202D01*
X170498011Y-86859204D01*
X170541255Y-86975142D01*
X170549111Y-86996204D01*
X170636739Y-87113261D01*
X170753796Y-87200889D01*
X170890799Y-87251989D01*
X170918050Y-87254918D01*
X170951345Y-87258499D01*
X170951362Y-87258500D01*
X173048638Y-87258500D01*
X173048654Y-87258499D01*
X173075692Y-87255591D01*
X173109201Y-87251989D01*
X173246204Y-87200889D01*
X173363261Y-87113261D01*
X173450889Y-86996204D01*
X173501989Y-86859201D01*
X173506293Y-86819165D01*
X173508499Y-86798654D01*
X173508500Y-86798637D01*
X173508500Y-83825000D01*
X174975001Y-83825000D01*
X174975001Y-83962486D01*
X174985494Y-84065197D01*
X175040641Y-84231619D01*
X175040643Y-84231624D01*
X175132684Y-84380845D01*
X175256654Y-84504815D01*
X175405875Y-84596856D01*
X175405880Y-84596858D01*
X175572302Y-84652005D01*
X175572309Y-84652006D01*
X175675019Y-84662499D01*
X175949999Y-84662499D01*
X175950000Y-84662498D01*
X175950000Y-83825000D01*
X176450000Y-83825000D01*
X176450000Y-84662499D01*
X176724972Y-84662499D01*
X176724986Y-84662498D01*
X176827697Y-84652005D01*
X176994119Y-84596858D01*
X176994124Y-84596856D01*
X177143345Y-84504815D01*
X177267315Y-84380845D01*
X177359356Y-84231624D01*
X177359358Y-84231619D01*
X177414505Y-84065197D01*
X177414506Y-84065190D01*
X177424999Y-83962486D01*
X177425000Y-83962473D01*
X177425000Y-83825000D01*
X176450000Y-83825000D01*
X175950000Y-83825000D01*
X174975001Y-83825000D01*
X173508500Y-83825000D01*
X173508500Y-82201362D01*
X173508499Y-82201345D01*
X173504079Y-82160238D01*
X173501989Y-82140799D01*
X173501147Y-82138542D01*
X173472931Y-82062892D01*
X173450889Y-82003796D01*
X173363261Y-81886739D01*
X173246204Y-81799111D01*
X173109203Y-81748011D01*
X173048654Y-81741500D01*
X173048638Y-81741500D01*
X172757500Y-81741500D01*
X172690461Y-81721815D01*
X172644706Y-81669011D01*
X172633500Y-81617500D01*
X172633500Y-81257500D01*
X172653185Y-81190461D01*
X172705989Y-81144706D01*
X172757500Y-81133500D01*
X174842500Y-81133500D01*
X174909539Y-81153185D01*
X174955294Y-81205989D01*
X174966500Y-81257500D01*
X174966500Y-81888037D01*
X174966501Y-81888053D01*
X174977113Y-81991927D01*
X175032884Y-82160235D01*
X175032886Y-82160240D01*
X175059004Y-82202584D01*
X175125970Y-82311152D01*
X175251348Y-82436530D01*
X175252031Y-82436951D01*
X175252401Y-82437363D01*
X175257015Y-82441011D01*
X175256391Y-82441798D01*
X175298759Y-82488897D01*
X175309984Y-82557859D01*
X175282144Y-82621942D01*
X175261582Y-82639764D01*
X175262323Y-82640702D01*
X175256655Y-82645183D01*
X175132684Y-82769154D01*
X175040643Y-82918375D01*
X175040641Y-82918380D01*
X174985494Y-83084802D01*
X174985493Y-83084809D01*
X174975000Y-83187513D01*
X174975000Y-83325000D01*
X177424999Y-83325000D01*
X177424999Y-83187528D01*
X177424998Y-83187513D01*
X177414505Y-83084802D01*
X177359358Y-82918380D01*
X177359356Y-82918375D01*
X177267315Y-82769154D01*
X177143344Y-82645183D01*
X177137677Y-82640702D01*
X177139404Y-82638516D01*
X177101240Y-82596089D01*
X177090015Y-82527127D01*
X177117855Y-82463043D01*
X177143106Y-82441164D01*
X177142985Y-82441011D01*
X177146401Y-82438309D01*
X177147969Y-82436951D01*
X177148652Y-82436530D01*
X177274030Y-82311152D01*
X177367115Y-82160238D01*
X177422887Y-81991926D01*
X177433500Y-81888045D01*
X177433499Y-81111956D01*
X177422887Y-81008074D01*
X177367115Y-80839762D01*
X177274030Y-80688848D01*
X177148652Y-80563470D01*
X176997738Y-80470385D01*
X176997735Y-80470384D01*
X176829427Y-80414613D01*
X176725552Y-80404000D01*
X176725545Y-80404000D01*
X176051267Y-80404000D01*
X175984228Y-80384315D01*
X175963586Y-80367681D01*
X175936960Y-80341055D01*
X175903475Y-80279732D01*
X175908459Y-80210040D01*
X175933406Y-80172537D01*
X175932133Y-80171484D01*
X175937105Y-80165473D01*
X175937107Y-80165472D01*
X175957385Y-80140959D01*
X176015284Y-80101852D01*
X176052929Y-80095999D01*
X176725537Y-80095999D01*
X176725544Y-80095999D01*
X176829426Y-80085387D01*
X176997738Y-80029615D01*
X177148652Y-79936530D01*
X177274030Y-79811152D01*
X177367115Y-79660238D01*
X177422887Y-79491926D01*
X177433500Y-79388045D01*
X177433499Y-78611956D01*
X177422887Y-78508074D01*
X177367115Y-78339762D01*
X177274030Y-78188848D01*
X177148652Y-78063470D01*
X177148651Y-78063469D01*
X177147963Y-78063045D01*
X177147590Y-78062630D01*
X177142985Y-78058989D01*
X177143607Y-78058202D01*
X177101238Y-78011098D01*
X177090015Y-77942135D01*
X177117858Y-77878053D01*
X177138423Y-77860242D01*
X177137677Y-77859298D01*
X177143344Y-77854816D01*
X177267315Y-77730845D01*
X177359356Y-77581624D01*
X177359358Y-77581619D01*
X177414505Y-77415197D01*
X177414506Y-77415190D01*
X177424999Y-77312486D01*
X177425000Y-77312473D01*
X177425000Y-77175000D01*
X174975001Y-77175000D01*
X174975001Y-77312486D01*
X174985494Y-77415197D01*
X175040641Y-77581619D01*
X175040643Y-77581624D01*
X175132684Y-77730845D01*
X175256655Y-77854816D01*
X175262323Y-77859298D01*
X175260592Y-77861486D01*
X175298749Y-77903890D01*
X175309987Y-77972850D01*
X175282158Y-78036938D01*
X175256894Y-78058836D01*
X175257015Y-78058989D01*
X175253627Y-78061667D01*
X175252043Y-78063041D01*
X175251350Y-78063468D01*
X175251347Y-78063470D01*
X175125971Y-78188846D01*
X175032886Y-78339759D01*
X175032884Y-78339764D01*
X174977113Y-78508072D01*
X174966500Y-78611947D01*
X174966500Y-78611955D01*
X174966500Y-78830989D01*
X174966501Y-78942500D01*
X174946817Y-79009539D01*
X174894013Y-79055294D01*
X174842501Y-79066500D01*
X172757500Y-79066500D01*
X172690461Y-79046815D01*
X172644706Y-78994011D01*
X172633500Y-78942500D01*
X172633500Y-78882500D01*
X172653185Y-78815461D01*
X172705989Y-78769706D01*
X172757500Y-78758500D01*
X173048638Y-78758500D01*
X173048654Y-78758499D01*
X173075692Y-78755591D01*
X173109201Y-78751989D01*
X173246204Y-78700889D01*
X173363261Y-78613261D01*
X173450889Y-78496204D01*
X173501989Y-78359201D01*
X173505666Y-78325000D01*
X173508499Y-78298654D01*
X173508500Y-78298637D01*
X173508500Y-76675000D01*
X174975000Y-76675000D01*
X175950000Y-76675000D01*
X175950000Y-75837500D01*
X176450000Y-75837500D01*
X176450000Y-76675000D01*
X177424999Y-76675000D01*
X177424999Y-76537528D01*
X177424998Y-76537513D01*
X177414505Y-76434802D01*
X177359358Y-76268380D01*
X177359356Y-76268375D01*
X177267315Y-76119154D01*
X177143345Y-75995184D01*
X176994124Y-75903143D01*
X176994119Y-75903141D01*
X176827697Y-75847994D01*
X176827690Y-75847993D01*
X176724986Y-75837500D01*
X176450000Y-75837500D01*
X175950000Y-75837500D01*
X175675029Y-75837500D01*
X175675012Y-75837501D01*
X175572302Y-75847994D01*
X175405880Y-75903141D01*
X175405875Y-75903143D01*
X175256654Y-75995184D01*
X175132684Y-76119154D01*
X175040643Y-76268375D01*
X175040641Y-76268380D01*
X174985494Y-76434802D01*
X174985493Y-76434809D01*
X174975000Y-76537513D01*
X174975000Y-76675000D01*
X173508500Y-76675000D01*
X173508500Y-73701362D01*
X173508499Y-73701345D01*
X173504533Y-73664460D01*
X173501989Y-73640799D01*
X173489682Y-73607804D01*
X173469966Y-73554943D01*
X173450889Y-73503796D01*
X173363261Y-73386739D01*
X173246204Y-73299111D01*
X173230651Y-73293310D01*
X173109203Y-73248011D01*
X173048654Y-73241500D01*
X173048638Y-73241500D01*
X170951362Y-73241500D01*
X170951345Y-73241500D01*
X170890797Y-73248011D01*
X170890795Y-73248011D01*
X170753795Y-73299111D01*
X170636739Y-73386739D01*
X170549111Y-73503795D01*
X170498011Y-73640795D01*
X170498011Y-73640797D01*
X170491500Y-73701345D01*
X170491500Y-78298654D01*
X170498011Y-78359202D01*
X170498011Y-78359204D01*
X170544634Y-78484201D01*
X170549111Y-78496204D01*
X170636739Y-78613261D01*
X170753796Y-78700889D01*
X170890799Y-78751989D01*
X170918050Y-78754918D01*
X170951345Y-78758499D01*
X170951362Y-78758500D01*
X171242500Y-78758500D01*
X171309539Y-78778185D01*
X171355294Y-78830989D01*
X171366500Y-78882500D01*
X171366500Y-78942500D01*
X171346815Y-79009539D01*
X171294011Y-79055294D01*
X171242500Y-79066500D01*
X169174978Y-79066500D01*
X169107939Y-79046815D01*
X169062184Y-78994011D01*
X169052240Y-78924853D01*
X169069439Y-78877403D01*
X169159356Y-78731624D01*
X169159358Y-78731619D01*
X169214505Y-78565197D01*
X169214506Y-78565190D01*
X169224999Y-78462486D01*
X169225000Y-78462473D01*
X169225000Y-78325000D01*
X167874000Y-78325000D01*
X167806961Y-78305315D01*
X167761206Y-78252511D01*
X167750000Y-78201000D01*
X167750000Y-77949000D01*
X167769685Y-77881961D01*
X167822489Y-77836206D01*
X167874000Y-77825000D01*
X169224999Y-77825000D01*
X169224999Y-77687528D01*
X169224998Y-77687513D01*
X169214505Y-77584802D01*
X169159358Y-77418380D01*
X169159356Y-77418375D01*
X169067315Y-77269154D01*
X168943344Y-77145183D01*
X168937677Y-77140702D01*
X168939404Y-77138516D01*
X168901240Y-77096089D01*
X168890015Y-77027127D01*
X168917855Y-76963043D01*
X168943106Y-76941164D01*
X168942985Y-76941011D01*
X168946401Y-76938309D01*
X168947969Y-76936951D01*
X168948652Y-76936530D01*
X169074030Y-76811152D01*
X169167115Y-76660238D01*
X169222887Y-76491926D01*
X169233500Y-76388045D01*
X169233499Y-75611956D01*
X169222887Y-75508074D01*
X169167115Y-75339762D01*
X169074030Y-75188848D01*
X168948652Y-75063470D01*
X168797738Y-74970385D01*
X168797735Y-74970384D01*
X168629427Y-74914613D01*
X168525546Y-74904000D01*
X167474462Y-74904000D01*
X167474446Y-74904001D01*
X167370572Y-74914613D01*
X167202264Y-74970384D01*
X167202259Y-74970386D01*
X167051349Y-75063469D01*
X166984728Y-75130090D01*
X166923404Y-75163574D01*
X166853713Y-75158589D01*
X166846613Y-75155688D01*
X166787155Y-75129216D01*
X166787152Y-75129215D01*
X166600353Y-75089510D01*
X166409379Y-75089510D01*
X166222580Y-75129215D01*
X166222578Y-75129216D01*
X166084815Y-75190552D01*
X166048112Y-75206893D01*
X165893611Y-75319145D01*
X165765825Y-75461067D01*
X165670339Y-75626453D01*
X165670337Y-75626458D01*
X165668922Y-75630815D01*
X165629486Y-75688492D01*
X165565128Y-75715691D01*
X165550990Y-75716500D01*
X164407500Y-75716500D01*
X164340461Y-75696815D01*
X164294706Y-75644011D01*
X164283500Y-75592500D01*
X164283500Y-74001362D01*
X164283499Y-74001345D01*
X164280157Y-73970270D01*
X164276989Y-73940799D01*
X164225889Y-73803796D01*
X164138261Y-73686739D01*
X164021204Y-73599111D01*
X163884203Y-73548011D01*
X163823654Y-73541500D01*
X163823638Y-73541500D01*
X163176362Y-73541500D01*
X163176359Y-73541500D01*
X163113254Y-73548284D01*
X163086746Y-73548284D01*
X163023640Y-73541500D01*
X163023638Y-73541500D01*
X162376362Y-73541500D01*
X162376359Y-73541500D01*
X162313254Y-73548284D01*
X162286746Y-73548284D01*
X162223640Y-73541500D01*
X162223638Y-73541500D01*
X161576362Y-73541500D01*
X161576359Y-73541500D01*
X161513254Y-73548284D01*
X161486746Y-73548284D01*
X161423640Y-73541500D01*
X161423638Y-73541500D01*
X160776362Y-73541500D01*
X160776359Y-73541500D01*
X160737087Y-73545722D01*
X160668327Y-73533315D01*
X160617191Y-73485705D01*
X160599912Y-73418005D01*
X160621977Y-73351711D01*
X160636148Y-73334755D01*
X161263585Y-72707317D01*
X161324908Y-72673833D01*
X161351266Y-72670999D01*
X162025537Y-72670999D01*
X162025544Y-72670999D01*
X162129426Y-72660387D01*
X162297738Y-72604615D01*
X162448652Y-72511530D01*
X162574030Y-72386152D01*
X162667115Y-72235238D01*
X162722887Y-72066926D01*
X162733500Y-71963045D01*
X162733500Y-71793124D01*
X164310426Y-71793124D01*
X164372611Y-71836666D01*
X164372613Y-71836667D01*
X164570840Y-71929101D01*
X164570849Y-71929105D01*
X164782105Y-71985710D01*
X164782115Y-71985712D01*
X164999999Y-72004775D01*
X165000001Y-72004775D01*
X165217884Y-71985712D01*
X165217894Y-71985710D01*
X165429150Y-71929105D01*
X165429159Y-71929101D01*
X165627387Y-71836666D01*
X165689572Y-71793124D01*
X165000001Y-71103553D01*
X165000000Y-71103553D01*
X164310426Y-71793124D01*
X162733500Y-71793124D01*
X162733499Y-71186956D01*
X162722887Y-71083074D01*
X162667115Y-70914762D01*
X162574030Y-70763848D01*
X162560182Y-70750000D01*
X163745225Y-70750000D01*
X163764287Y-70967884D01*
X163764289Y-70967894D01*
X163820894Y-71179150D01*
X163820898Y-71179159D01*
X163913335Y-71377391D01*
X163956873Y-71439571D01*
X163956875Y-71439572D01*
X164646446Y-70750001D01*
X165353553Y-70750001D01*
X166043124Y-71439572D01*
X166086666Y-71377387D01*
X166179101Y-71179159D01*
X166179105Y-71179150D01*
X166235710Y-70967894D01*
X166235712Y-70967884D01*
X166254775Y-70750000D01*
X166254775Y-70749999D01*
X166235712Y-70532115D01*
X166235710Y-70532105D01*
X166179105Y-70320849D01*
X166179101Y-70320840D01*
X166086668Y-70122615D01*
X166043123Y-70060428D01*
X165353553Y-70749999D01*
X165353553Y-70750001D01*
X164646446Y-70750001D01*
X164646447Y-70750000D01*
X164646447Y-70749999D01*
X163956875Y-70060427D01*
X163956875Y-70060428D01*
X163913333Y-70122612D01*
X163913332Y-70122614D01*
X163820898Y-70320840D01*
X163820894Y-70320849D01*
X163764289Y-70532105D01*
X163764287Y-70532115D01*
X163745225Y-70749999D01*
X163745225Y-70750000D01*
X162560182Y-70750000D01*
X162448652Y-70638470D01*
X162448651Y-70638469D01*
X162447963Y-70638045D01*
X162447590Y-70637630D01*
X162442985Y-70633989D01*
X162443607Y-70633202D01*
X162401238Y-70586098D01*
X162390015Y-70517135D01*
X162417858Y-70453053D01*
X162438423Y-70435242D01*
X162437677Y-70434298D01*
X162443344Y-70429816D01*
X162567315Y-70305845D01*
X162659356Y-70156624D01*
X162659358Y-70156619D01*
X162714505Y-69990197D01*
X162714506Y-69990190D01*
X162724999Y-69887486D01*
X162725000Y-69887473D01*
X162725000Y-69750000D01*
X160275001Y-69750000D01*
X160275001Y-69887486D01*
X160285494Y-69990197D01*
X160340641Y-70156619D01*
X160340643Y-70156624D01*
X160432684Y-70305845D01*
X160556655Y-70429816D01*
X160562323Y-70434298D01*
X160560592Y-70436486D01*
X160598749Y-70478890D01*
X160609987Y-70547850D01*
X160582158Y-70611938D01*
X160556894Y-70633836D01*
X160557015Y-70633989D01*
X160553627Y-70636667D01*
X160552043Y-70638041D01*
X160551350Y-70638468D01*
X160551347Y-70638470D01*
X160425969Y-70763848D01*
X160392037Y-70818861D01*
X160340089Y-70865585D01*
X160271126Y-70876806D01*
X160207044Y-70848962D01*
X160168189Y-70790893D01*
X160162499Y-70753763D01*
X160162499Y-70500028D01*
X160162498Y-70500012D01*
X160152005Y-70397302D01*
X160096858Y-70230880D01*
X160096856Y-70230875D01*
X160004815Y-70081654D01*
X159880845Y-69957684D01*
X159731624Y-69865643D01*
X159731619Y-69865641D01*
X159565197Y-69810494D01*
X159565190Y-69810493D01*
X159462486Y-69800000D01*
X159250000Y-69800000D01*
X159250000Y-72599999D01*
X159279732Y-72599999D01*
X159346771Y-72619684D01*
X159392526Y-72672488D01*
X159402470Y-72741646D01*
X159373445Y-72805202D01*
X159367413Y-72811680D01*
X159111179Y-73067914D01*
X159098820Y-73077818D01*
X159098993Y-73078027D01*
X159092983Y-73082999D01*
X159045015Y-73134079D01*
X159023872Y-73155222D01*
X159023857Y-73155239D01*
X159019531Y-73160814D01*
X159015747Y-73165244D01*
X158983419Y-73199671D01*
X158983412Y-73199681D01*
X158973579Y-73217567D01*
X158962903Y-73233820D01*
X158950386Y-73249957D01*
X158950385Y-73249959D01*
X158931625Y-73293310D01*
X158929055Y-73298556D01*
X158906303Y-73339941D01*
X158906303Y-73339942D01*
X158901225Y-73359720D01*
X158894925Y-73378122D01*
X158886818Y-73396857D01*
X158879431Y-73443495D01*
X158878246Y-73449216D01*
X158866500Y-73494965D01*
X158866500Y-73515384D01*
X158864973Y-73534783D01*
X158861780Y-73554941D01*
X158861780Y-73554942D01*
X158866225Y-73601966D01*
X158866500Y-73607804D01*
X158866500Y-73639107D01*
X158846815Y-73706146D01*
X158841766Y-73713419D01*
X158799265Y-73770192D01*
X158743331Y-73812062D01*
X158673639Y-73817046D01*
X158612317Y-73783560D01*
X158600732Y-73770190D01*
X158533233Y-73680022D01*
X158508816Y-73614558D01*
X158508500Y-73605712D01*
X158508500Y-72723999D01*
X158528185Y-72656960D01*
X158580989Y-72611205D01*
X158632500Y-72599999D01*
X158749999Y-72599999D01*
X158750000Y-72599998D01*
X158750000Y-69800000D01*
X158632500Y-69800000D01*
X158565461Y-69780315D01*
X158519706Y-69727511D01*
X158515217Y-69706875D01*
X164310427Y-69706875D01*
X165000000Y-70396447D01*
X165000001Y-70396447D01*
X165689572Y-69706875D01*
X165689571Y-69706873D01*
X165627391Y-69663335D01*
X165429159Y-69570898D01*
X165429150Y-69570894D01*
X165217894Y-69514289D01*
X165217884Y-69514287D01*
X165000001Y-69495225D01*
X164999999Y-69495225D01*
X164782115Y-69514287D01*
X164782105Y-69514289D01*
X164570849Y-69570894D01*
X164570840Y-69570898D01*
X164372614Y-69663332D01*
X164372612Y-69663333D01*
X164310428Y-69706875D01*
X164310427Y-69706875D01*
X158515217Y-69706875D01*
X158508500Y-69676000D01*
X158508500Y-69250000D01*
X160275000Y-69250000D01*
X161250000Y-69250000D01*
X161250000Y-68412500D01*
X161750000Y-68412500D01*
X161750000Y-69250000D01*
X162724999Y-69250000D01*
X162724999Y-69112528D01*
X162724998Y-69112513D01*
X162714505Y-69009802D01*
X162659358Y-68843380D01*
X162659356Y-68843375D01*
X162567315Y-68694154D01*
X162443345Y-68570184D01*
X162294124Y-68478143D01*
X162294119Y-68478141D01*
X162127697Y-68422994D01*
X162127690Y-68422993D01*
X162024986Y-68412500D01*
X161750000Y-68412500D01*
X161250000Y-68412500D01*
X160975029Y-68412500D01*
X160975012Y-68412501D01*
X160872302Y-68422994D01*
X160705880Y-68478141D01*
X160705875Y-68478143D01*
X160556654Y-68570184D01*
X160432684Y-68694154D01*
X160340643Y-68843375D01*
X160340641Y-68843380D01*
X160285494Y-69009802D01*
X160285493Y-69009809D01*
X160275000Y-69112513D01*
X160275000Y-69250000D01*
X158508500Y-69250000D01*
X158508500Y-69232499D01*
X158528185Y-69165460D01*
X158580989Y-69119705D01*
X158632500Y-69108499D01*
X159000537Y-69108499D01*
X159000544Y-69108499D01*
X159104426Y-69097887D01*
X159272738Y-69042115D01*
X159423652Y-68949030D01*
X159549030Y-68823652D01*
X159642115Y-68672738D01*
X159697887Y-68504426D01*
X159708500Y-68400545D01*
X159708499Y-67599456D01*
X159697887Y-67495574D01*
X159642115Y-67327262D01*
X159549030Y-67176348D01*
X159460363Y-67087681D01*
X159426878Y-67026358D01*
X159431862Y-66956666D01*
X159460363Y-66912319D01*
X159500000Y-66872682D01*
X159549030Y-66823652D01*
X159642115Y-66672738D01*
X159697887Y-66504426D01*
X159708500Y-66400545D01*
X159708499Y-65791270D01*
X159728183Y-65724232D01*
X159780987Y-65678477D01*
X159850146Y-65668533D01*
X159905381Y-65690951D01*
X160043248Y-65791118D01*
X160217712Y-65868794D01*
X160404513Y-65908500D01*
X160595487Y-65908500D01*
X160782288Y-65868794D01*
X160955894Y-65791500D01*
X160956750Y-65791119D01*
X160956750Y-65791118D01*
X160956752Y-65791118D01*
X160969051Y-65782181D01*
X161034858Y-65758702D01*
X161041937Y-65758500D01*
X163919710Y-65758500D01*
X163986749Y-65778185D01*
X164032504Y-65830989D01*
X164042448Y-65900147D01*
X164021285Y-65953621D01*
X163935352Y-66076348D01*
X163905944Y-66118347D01*
X163812881Y-66317920D01*
X163755885Y-66530627D01*
X163755884Y-66530634D01*
X163736693Y-66749997D01*
X163736693Y-66750002D01*
X163750893Y-66912319D01*
X163755885Y-66969371D01*
X163812880Y-67182076D01*
X163812881Y-67182079D01*
X163812882Y-67182081D01*
X163880579Y-67327259D01*
X163905944Y-67381654D01*
X164032251Y-67562038D01*
X164187962Y-67717749D01*
X164368346Y-67844056D01*
X164567924Y-67937120D01*
X164780629Y-67994115D01*
X164937322Y-68007823D01*
X164999998Y-68013307D01*
X165000000Y-68013307D01*
X165000002Y-68013307D01*
X165054842Y-68008509D01*
X165219371Y-67994115D01*
X165432076Y-67937120D01*
X165631654Y-67844056D01*
X165812038Y-67717749D01*
X165967749Y-67562038D01*
X166094056Y-67381654D01*
X166187120Y-67182076D01*
X166244115Y-66969371D01*
X166263307Y-66750000D01*
X166244115Y-66530629D01*
X166187120Y-66317924D01*
X166094056Y-66118347D01*
X165978714Y-65953622D01*
X165956388Y-65887418D01*
X165973398Y-65819650D01*
X166024346Y-65771837D01*
X166080290Y-65758500D01*
X166841577Y-65758500D01*
X166908616Y-65778185D01*
X166947115Y-65817403D01*
X166950967Y-65823648D01*
X166950970Y-65823652D01*
X167076348Y-65949030D01*
X167227262Y-66042115D01*
X167395574Y-66097887D01*
X167499455Y-66108500D01*
X168500544Y-66108499D01*
X168604426Y-66097887D01*
X168772738Y-66042115D01*
X168923652Y-65949030D01*
X169049030Y-65823652D01*
X169142115Y-65672738D01*
X169197887Y-65504426D01*
X169208500Y-65400545D01*
X169208499Y-64599456D01*
X169197887Y-64495574D01*
X169142115Y-64327262D01*
X169049030Y-64176348D01*
X168960363Y-64087681D01*
X168926878Y-64026358D01*
X168931862Y-63956666D01*
X168960363Y-63912319D01*
X168997145Y-63875537D01*
X169049030Y-63823652D01*
X169142115Y-63672738D01*
X169197887Y-63504426D01*
X169208500Y-63400545D01*
X169208499Y-62599456D01*
X169197887Y-62495574D01*
X169142115Y-62327262D01*
X169049030Y-62176348D01*
X168923652Y-62050970D01*
X168793004Y-61970385D01*
X168772740Y-61957886D01*
X168772735Y-61957884D01*
X168604427Y-61902113D01*
X168500546Y-61891500D01*
X167499462Y-61891500D01*
X167499446Y-61891501D01*
X167395572Y-61902113D01*
X167227264Y-61957884D01*
X167227259Y-61957886D01*
X167076346Y-62050971D01*
X166950970Y-62176347D01*
X166950967Y-62176351D01*
X166947115Y-62182597D01*
X166895167Y-62229322D01*
X166841577Y-62241500D01*
X166175695Y-62241500D01*
X166108656Y-62221815D01*
X166078430Y-62194413D01*
X166074032Y-62188851D01*
X166074030Y-62188848D01*
X165948652Y-62063470D01*
X165948651Y-62063469D01*
X165947963Y-62063045D01*
X165947590Y-62062630D01*
X165942985Y-62058989D01*
X165943607Y-62058202D01*
X165901238Y-62011098D01*
X165890015Y-61942135D01*
X165917858Y-61878053D01*
X165938423Y-61860242D01*
X165937677Y-61859298D01*
X165943344Y-61854816D01*
X166067315Y-61730845D01*
X166159356Y-61581624D01*
X166159358Y-61581619D01*
X166214505Y-61415197D01*
X166214506Y-61415190D01*
X166224999Y-61312486D01*
X166225000Y-61312473D01*
X166225000Y-61175000D01*
X163775001Y-61175000D01*
X163775001Y-61312486D01*
X163785494Y-61415197D01*
X163840641Y-61581619D01*
X163840643Y-61581624D01*
X163932684Y-61730845D01*
X164056655Y-61854816D01*
X164062323Y-61859298D01*
X164060592Y-61861486D01*
X164098749Y-61903890D01*
X164109987Y-61972850D01*
X164082158Y-62036938D01*
X164056894Y-62058836D01*
X164057015Y-62058989D01*
X164053627Y-62061667D01*
X164052043Y-62063041D01*
X164051350Y-62063468D01*
X164051347Y-62063470D01*
X163925972Y-62188845D01*
X163921570Y-62194413D01*
X163864547Y-62234788D01*
X163824305Y-62241500D01*
X163440542Y-62241500D01*
X163373503Y-62221815D01*
X163352861Y-62205181D01*
X162491866Y-61344185D01*
X162458381Y-61282862D01*
X162463365Y-61213170D01*
X162505237Y-61157237D01*
X162514437Y-61150974D01*
X162598652Y-61099030D01*
X162724030Y-60973652D01*
X162817115Y-60822738D01*
X162866070Y-60675000D01*
X163775000Y-60675000D01*
X164750000Y-60675000D01*
X164750000Y-59837500D01*
X165250000Y-59837500D01*
X165250000Y-60675000D01*
X166224999Y-60675000D01*
X166224999Y-60537528D01*
X166224998Y-60537513D01*
X166214505Y-60434802D01*
X166159358Y-60268380D01*
X166159356Y-60268375D01*
X166067315Y-60119154D01*
X165943345Y-59995184D01*
X165794124Y-59903143D01*
X165794119Y-59903141D01*
X165627697Y-59847994D01*
X165627690Y-59847993D01*
X165524986Y-59837500D01*
X165250000Y-59837500D01*
X164750000Y-59837500D01*
X164475029Y-59837500D01*
X164475012Y-59837501D01*
X164372302Y-59847994D01*
X164205880Y-59903141D01*
X164205875Y-59903143D01*
X164056654Y-59995184D01*
X163932684Y-60119154D01*
X163840643Y-60268375D01*
X163840641Y-60268380D01*
X163785494Y-60434802D01*
X163785493Y-60434809D01*
X163775000Y-60537513D01*
X163775000Y-60675000D01*
X162866070Y-60675000D01*
X162872887Y-60654426D01*
X162883500Y-60550545D01*
X162883499Y-59649456D01*
X162872887Y-59545574D01*
X162817115Y-59377262D01*
X162724030Y-59226348D01*
X162598652Y-59100970D01*
X162494848Y-59036943D01*
X162447740Y-59007886D01*
X162447735Y-59007884D01*
X162279427Y-58952113D01*
X162175545Y-58941500D01*
X160824462Y-58941500D01*
X160824446Y-58941501D01*
X160720572Y-58952113D01*
X160552264Y-59007884D01*
X160552259Y-59007886D01*
X160401346Y-59100971D01*
X160275971Y-59226346D01*
X160182886Y-59377259D01*
X160182884Y-59377264D01*
X160127113Y-59545572D01*
X160116500Y-59649447D01*
X160116500Y-60550537D01*
X160116501Y-60550553D01*
X160127113Y-60654427D01*
X160182884Y-60822735D01*
X160182886Y-60822740D01*
X160203942Y-60856876D01*
X160275970Y-60973652D01*
X160401348Y-61099030D01*
X160552262Y-61192115D01*
X160656504Y-61226656D01*
X160713948Y-61266428D01*
X160740772Y-61330943D01*
X160741500Y-61344362D01*
X160741500Y-61360706D01*
X160740191Y-61378676D01*
X160736658Y-61402791D01*
X160741264Y-61455420D01*
X160741500Y-61460827D01*
X160741500Y-61469178D01*
X160745347Y-61502096D01*
X160752112Y-61579427D01*
X160753572Y-61586494D01*
X160753526Y-61586503D01*
X160755209Y-61594094D01*
X160755254Y-61594084D01*
X160756919Y-61601110D01*
X160783473Y-61674065D01*
X160804922Y-61738794D01*
X160807886Y-61747737D01*
X160810940Y-61754286D01*
X160810896Y-61754306D01*
X160814284Y-61761304D01*
X160814327Y-61761283D01*
X160817568Y-61767737D01*
X160855594Y-61825553D01*
X160860233Y-61832605D01*
X160900970Y-61898651D01*
X160900972Y-61898653D01*
X160905451Y-61904318D01*
X160905413Y-61904347D01*
X160910320Y-61910372D01*
X160910357Y-61910342D01*
X160915002Y-61915878D01*
X160971482Y-61969163D01*
X162493196Y-63490877D01*
X162504977Y-63504509D01*
X162519531Y-63524058D01*
X162549807Y-63549463D01*
X162560005Y-63558020D01*
X162563995Y-63561676D01*
X162569899Y-63567580D01*
X162595896Y-63588136D01*
X162655360Y-63638032D01*
X162655362Y-63638033D01*
X162661396Y-63642002D01*
X162661369Y-63642042D01*
X162667917Y-63646214D01*
X162667943Y-63646173D01*
X162674090Y-63649964D01*
X162674094Y-63649967D01*
X162744453Y-63682775D01*
X162813812Y-63717609D01*
X162813814Y-63717610D01*
X162820595Y-63720078D01*
X162820578Y-63720123D01*
X162827916Y-63722674D01*
X162827932Y-63722629D01*
X162834788Y-63724900D01*
X162834789Y-63724900D01*
X162834793Y-63724902D01*
X162910822Y-63740600D01*
X162986344Y-63758500D01*
X162986346Y-63758500D01*
X162993517Y-63759339D01*
X162993511Y-63759386D01*
X163001242Y-63760176D01*
X163001247Y-63760129D01*
X163008437Y-63760758D01*
X163008441Y-63760757D01*
X163008442Y-63760758D01*
X163086045Y-63758500D01*
X163824305Y-63758500D01*
X163891344Y-63778185D01*
X163921570Y-63805587D01*
X163925972Y-63811154D01*
X164051347Y-63936529D01*
X164051351Y-63936532D01*
X164173641Y-64011962D01*
X164220366Y-64063910D01*
X164231587Y-64132872D01*
X164203744Y-64196954D01*
X164145675Y-64235810D01*
X164108544Y-64241500D01*
X161041937Y-64241500D01*
X160974898Y-64221815D01*
X160969051Y-64217818D01*
X160956750Y-64208880D01*
X160819413Y-64147735D01*
X160782288Y-64131206D01*
X160782286Y-64131205D01*
X160595487Y-64091500D01*
X160404513Y-64091500D01*
X160217714Y-64131205D01*
X160217712Y-64131206D01*
X160043253Y-64208880D01*
X160043246Y-64208883D01*
X159888745Y-64321135D01*
X159760959Y-64463057D01*
X159665473Y-64628443D01*
X159665470Y-64628450D01*
X159606459Y-64810068D01*
X159606458Y-64810072D01*
X159592160Y-64946111D01*
X159592160Y-64946112D01*
X159565575Y-65010726D01*
X159508278Y-65050711D01*
X159438459Y-65053371D01*
X159403742Y-65038689D01*
X159272740Y-64957886D01*
X159272735Y-64957884D01*
X159104427Y-64902113D01*
X159000552Y-64891500D01*
X159000545Y-64891500D01*
X158667500Y-64891500D01*
X158600461Y-64871815D01*
X158554706Y-64819011D01*
X158543500Y-64767500D01*
X158543500Y-64450172D01*
X158563185Y-64383133D01*
X158568696Y-64375247D01*
X158618122Y-64310068D01*
X158634342Y-64288679D01*
X158688194Y-64152121D01*
X158698500Y-64066302D01*
X158698500Y-63273698D01*
X158688194Y-63187879D01*
X158668627Y-63138262D01*
X158634343Y-63051324D01*
X158634342Y-63051321D01*
X158625828Y-63040094D01*
X158581805Y-62982040D01*
X158545645Y-62934355D01*
X158544922Y-62933807D01*
X158544428Y-62933138D01*
X158539647Y-62928357D01*
X158540364Y-62927639D01*
X158503396Y-62877619D01*
X158498840Y-62807898D01*
X158532701Y-62746782D01*
X158544917Y-62736196D01*
X158545645Y-62735645D01*
X158634342Y-62618679D01*
X158688194Y-62482121D01*
X158698500Y-62396302D01*
X158698500Y-61603698D01*
X158697345Y-61594084D01*
X158688194Y-61517881D01*
X158688192Y-61517873D01*
X158634343Y-61381324D01*
X158634342Y-61381321D01*
X158634340Y-61381319D01*
X158634340Y-61381318D01*
X158604743Y-61342288D01*
X158579920Y-61276976D01*
X158594348Y-61208612D01*
X158615863Y-61179684D01*
X158849203Y-60946344D01*
X158855292Y-60941004D01*
X158883987Y-60918987D01*
X158902267Y-60895164D01*
X158908475Y-60887073D01*
X158908477Y-60887072D01*
X158981524Y-60791876D01*
X159042838Y-60643851D01*
X159048884Y-60597928D01*
X159058500Y-60524885D01*
X159058500Y-60524879D01*
X159063750Y-60485000D01*
X159059030Y-60449151D01*
X159058500Y-60441054D01*
X159058500Y-60311622D01*
X159078185Y-60244583D01*
X159094820Y-60223940D01*
X159124448Y-60194312D01*
X159124453Y-60194307D01*
X159209145Y-60051101D01*
X159255562Y-59891331D01*
X159258500Y-59854002D01*
X159258500Y-58908418D01*
X159278185Y-58841379D01*
X159309610Y-58808103D01*
X159345830Y-58781786D01*
X159350704Y-58778585D01*
X159391362Y-58754542D01*
X159405802Y-58740100D01*
X159420592Y-58727470D01*
X159437107Y-58715472D01*
X159467222Y-58679067D01*
X159471126Y-58674776D01*
X160186431Y-57959471D01*
X160247752Y-57925988D01*
X160317444Y-57930972D01*
X160361791Y-57959473D01*
X160401348Y-57999030D01*
X160552262Y-58092115D01*
X160720574Y-58147887D01*
X160824455Y-58158500D01*
X162175544Y-58158499D01*
X162279426Y-58147887D01*
X162447738Y-58092115D01*
X162598652Y-57999030D01*
X162724030Y-57873652D01*
X162800300Y-57750000D01*
X165800001Y-57750000D01*
X165800001Y-57899986D01*
X165810494Y-58002697D01*
X165865641Y-58169119D01*
X165865643Y-58169124D01*
X165957684Y-58318345D01*
X166081654Y-58442315D01*
X166230875Y-58534356D01*
X166230880Y-58534358D01*
X166397302Y-58589505D01*
X166397309Y-58589506D01*
X166500019Y-58599999D01*
X166749999Y-58599999D01*
X166750000Y-58599998D01*
X166750000Y-57750000D01*
X167250000Y-57750000D01*
X167250000Y-58599999D01*
X167499972Y-58599999D01*
X167499986Y-58599998D01*
X167602697Y-58589505D01*
X167769119Y-58534358D01*
X167769124Y-58534356D01*
X167918345Y-58442315D01*
X168042315Y-58318345D01*
X168134356Y-58169124D01*
X168134358Y-58169119D01*
X168189505Y-58002697D01*
X168189506Y-58002690D01*
X168199999Y-57899986D01*
X168200000Y-57899973D01*
X168200000Y-57750000D01*
X167250000Y-57750000D01*
X166750000Y-57750000D01*
X165800001Y-57750000D01*
X162800300Y-57750000D01*
X162817115Y-57722738D01*
X162859313Y-57595387D01*
X162899085Y-57537944D01*
X162963600Y-57511120D01*
X162994666Y-57511654D01*
X163007499Y-57513500D01*
X163007500Y-57513500D01*
X163375990Y-57513500D01*
X163376000Y-57513500D01*
X163485157Y-57501764D01*
X163536668Y-57490558D01*
X163571440Y-57478984D01*
X163640820Y-57455893D01*
X163640824Y-57455890D01*
X163640827Y-57455890D01*
X163763782Y-57376871D01*
X163816586Y-57331116D01*
X163912297Y-57220661D01*
X163973014Y-57087713D01*
X163992699Y-57020674D01*
X163992700Y-57020670D01*
X164013500Y-56876000D01*
X164013500Y-56382500D01*
X164033185Y-56315461D01*
X164085989Y-56269706D01*
X164137500Y-56258500D01*
X165841577Y-56258500D01*
X165908616Y-56278185D01*
X165947115Y-56317403D01*
X165950967Y-56323648D01*
X165950970Y-56323652D01*
X166045647Y-56418329D01*
X166079132Y-56479652D01*
X166074148Y-56549344D01*
X166045648Y-56593691D01*
X165957682Y-56681657D01*
X165865643Y-56830875D01*
X165865641Y-56830880D01*
X165810494Y-56997302D01*
X165810493Y-56997309D01*
X165800000Y-57100013D01*
X165800000Y-57250000D01*
X168199999Y-57250000D01*
X168199999Y-57100028D01*
X168199998Y-57100013D01*
X168189505Y-56997302D01*
X168134358Y-56830880D01*
X168134356Y-56830875D01*
X168042315Y-56681654D01*
X167954352Y-56593691D01*
X167920867Y-56532368D01*
X167925851Y-56462676D01*
X167954348Y-56418333D01*
X168049030Y-56323652D01*
X168142115Y-56172738D01*
X168197887Y-56004426D01*
X168208500Y-55900545D01*
X168208499Y-55099456D01*
X168197887Y-54995574D01*
X168142115Y-54827262D01*
X168049030Y-54676348D01*
X167923652Y-54550970D01*
X167772738Y-54457885D01*
X167772736Y-54457884D01*
X167772733Y-54457883D01*
X167755993Y-54452336D01*
X167698549Y-54412562D01*
X167671728Y-54348045D01*
X167671000Y-54334631D01*
X167671000Y-53752814D01*
X167690685Y-53685775D01*
X167729903Y-53647276D01*
X167825288Y-53588441D01*
X167848652Y-53574030D01*
X167974030Y-53448652D01*
X168067115Y-53297738D01*
X168122887Y-53129426D01*
X168133500Y-53025545D01*
X168133499Y-51974456D01*
X168122887Y-51870574D01*
X168067115Y-51702262D01*
X167974030Y-51551348D01*
X167848652Y-51425970D01*
X167848648Y-51425967D01*
X167729903Y-51352724D01*
X167683178Y-51300776D01*
X167671000Y-51247186D01*
X167671000Y-50712394D01*
X167690685Y-50645355D01*
X167729903Y-50606856D01*
X167809166Y-50557965D01*
X167823652Y-50549030D01*
X167949030Y-50423652D01*
X168042115Y-50272738D01*
X168097887Y-50104426D01*
X168108500Y-50000545D01*
X168108499Y-48999456D01*
X168097887Y-48895574D01*
X168042115Y-48727262D01*
X167949030Y-48576348D01*
X167823652Y-48450970D01*
X167672738Y-48357885D01*
X167672735Y-48357884D01*
X167504427Y-48302113D01*
X167400546Y-48291500D01*
X166599462Y-48291500D01*
X166599446Y-48291501D01*
X166495572Y-48302113D01*
X166327264Y-48357884D01*
X166327259Y-48357886D01*
X166176346Y-48450971D01*
X166087681Y-48539637D01*
X166026358Y-48573122D01*
X165956666Y-48568138D01*
X165912319Y-48539637D01*
X165823653Y-48450971D01*
X165823652Y-48450970D01*
X165672738Y-48357885D01*
X165672735Y-48357884D01*
X165504427Y-48302113D01*
X165400546Y-48291500D01*
X164599462Y-48291500D01*
X164599446Y-48291501D01*
X164495572Y-48302113D01*
X164327264Y-48357884D01*
X164327255Y-48357888D01*
X164202596Y-48434779D01*
X164135204Y-48453219D01*
X164068541Y-48432296D01*
X164023771Y-48378654D01*
X164013500Y-48329240D01*
X164013500Y-46323501D01*
X164033185Y-46256462D01*
X164085989Y-46210707D01*
X164137500Y-46199501D01*
X177876000Y-46199501D01*
X177943039Y-46219186D01*
G37*
%TD.AperFunction*%
%TA.AperFunction,Conductor*%
G36*
X141561494Y-92153185D02*
G01*
X141607249Y-92205989D01*
X141617193Y-92275147D01*
X141588168Y-92338703D01*
X141582145Y-92345171D01*
X141511260Y-92416056D01*
X141509121Y-92418196D01*
X141495494Y-92429973D01*
X141475940Y-92444531D01*
X141441976Y-92485006D01*
X141438329Y-92488987D01*
X141432417Y-92494900D01*
X141411862Y-92520896D01*
X141361966Y-92580360D01*
X141358000Y-92586391D01*
X141357962Y-92586366D01*
X141353781Y-92592928D01*
X141353820Y-92592952D01*
X141350031Y-92599094D01*
X141317219Y-92669459D01*
X141282390Y-92738810D01*
X141279922Y-92745593D01*
X141279877Y-92745576D01*
X141277321Y-92752932D01*
X141277365Y-92752947D01*
X141275095Y-92759795D01*
X141267243Y-92797822D01*
X141259391Y-92835850D01*
X141247024Y-92888029D01*
X141241497Y-92911351D01*
X141240660Y-92918519D01*
X141240612Y-92918513D01*
X141239822Y-92926244D01*
X141239869Y-92926249D01*
X141239239Y-92933438D01*
X141241499Y-93011079D01*
X141241499Y-96677672D01*
X141221814Y-96744711D01*
X141193180Y-96775291D01*
X141193224Y-96775341D01*
X141192714Y-96775789D01*
X141191244Y-96777360D01*
X141189274Y-96778816D01*
X141015679Y-96931599D01*
X141015671Y-96931607D01*
X140986096Y-96968235D01*
X140928665Y-97008028D01*
X140858838Y-97010453D01*
X140798784Y-96974742D01*
X140784082Y-96955432D01*
X140692315Y-96806654D01*
X140568345Y-96682684D01*
X140419124Y-96590643D01*
X140419119Y-96590641D01*
X140252697Y-96535494D01*
X140252690Y-96535493D01*
X140149986Y-96525000D01*
X139750000Y-96525000D01*
X139750000Y-97591981D01*
X139635199Y-97539554D01*
X139533975Y-97525000D01*
X139466025Y-97525000D01*
X139364801Y-97539554D01*
X139250000Y-97591981D01*
X139250000Y-96525000D01*
X138901021Y-96525000D01*
X138833982Y-96505315D01*
X138788227Y-96452511D01*
X138777203Y-96407712D01*
X138774200Y-96352322D01*
X138769061Y-96257525D01*
X138718114Y-96074033D01*
X138628914Y-95905784D01*
X138628911Y-95905781D01*
X138628911Y-95905779D01*
X138505631Y-95760643D01*
X138354026Y-95645396D01*
X138354025Y-95645395D01*
X138181193Y-95565436D01*
X137995216Y-95524500D01*
X137852535Y-95524500D01*
X137852533Y-95524500D01*
X137710683Y-95539927D01*
X137530217Y-95600734D01*
X137367048Y-95698909D01*
X137228788Y-95829875D01*
X137226633Y-95833055D01*
X137224814Y-95834554D01*
X137224439Y-95834996D01*
X137224359Y-95834928D01*
X137172719Y-95877496D01*
X137103336Y-95885734D01*
X137040515Y-95855153D01*
X137004199Y-95795463D01*
X137000000Y-95763468D01*
X137000000Y-92257500D01*
X137019685Y-92190461D01*
X137072489Y-92144706D01*
X137124000Y-92133500D01*
X141494455Y-92133500D01*
X141561494Y-92153185D01*
G37*
%TD.AperFunction*%
%TA.AperFunction,Conductor*%
G36*
X157065112Y-91336987D02*
G01*
X157119454Y-91380903D01*
X157141427Y-91447228D01*
X157141500Y-91451482D01*
X157141500Y-93682584D01*
X157135431Y-93720902D01*
X157107256Y-93807617D01*
X157106458Y-93810072D01*
X157086496Y-94000000D01*
X157106458Y-94189928D01*
X157106459Y-94189930D01*
X157106459Y-94189931D01*
X157111038Y-94204024D01*
X157113033Y-94273865D01*
X157076952Y-94333698D01*
X157014251Y-94364526D01*
X156997005Y-94366280D01*
X156990029Y-94366500D01*
X156960144Y-94366500D01*
X156960141Y-94366500D01*
X156960129Y-94366501D01*
X156953137Y-94367384D01*
X156947320Y-94367841D01*
X156900111Y-94369325D01*
X156900109Y-94369326D01*
X156880496Y-94375023D01*
X156861459Y-94378965D01*
X156841208Y-94381524D01*
X156841202Y-94381526D01*
X156797299Y-94398907D01*
X156791775Y-94400798D01*
X156746406Y-94413981D01*
X156746401Y-94413983D01*
X156728827Y-94424376D01*
X156711362Y-94432932D01*
X156692387Y-94440445D01*
X156692385Y-94440446D01*
X156654176Y-94468206D01*
X156649294Y-94471412D01*
X156608635Y-94495458D01*
X156594200Y-94509894D01*
X156579412Y-94522525D01*
X156562894Y-94534526D01*
X156562888Y-94534532D01*
X156532780Y-94570925D01*
X156528849Y-94575246D01*
X155611182Y-95492912D01*
X155598820Y-95502816D01*
X155598994Y-95503026D01*
X155592984Y-95507997D01*
X155589001Y-95512239D01*
X155528757Y-95547629D01*
X155458943Y-95544831D01*
X155410934Y-95515029D01*
X152241086Y-92345181D01*
X152207601Y-92283858D01*
X152212585Y-92214166D01*
X152254457Y-92158233D01*
X152319921Y-92133816D01*
X152328767Y-92133500D01*
X155916366Y-92133500D01*
X155932113Y-92135238D01*
X155932139Y-92134968D01*
X155939905Y-92135701D01*
X155939909Y-92135702D01*
X156009958Y-92133500D01*
X156039856Y-92133500D01*
X156039857Y-92133500D01*
X156041222Y-92133327D01*
X156046862Y-92132614D01*
X156052685Y-92132156D01*
X156078708Y-92131338D01*
X156099890Y-92130673D01*
X156109681Y-92127827D01*
X156119481Y-92124980D01*
X156138538Y-92121032D01*
X156158797Y-92118474D01*
X156202721Y-92101082D01*
X156208221Y-92099199D01*
X156253593Y-92086018D01*
X156271165Y-92075625D01*
X156288632Y-92067068D01*
X156307617Y-92059552D01*
X156345826Y-92031790D01*
X156350704Y-92028585D01*
X156391362Y-92004542D01*
X156405802Y-91990100D01*
X156420592Y-91977470D01*
X156437107Y-91965472D01*
X156467221Y-91929068D01*
X156471125Y-91924777D01*
X156688817Y-91707086D01*
X156701181Y-91697182D01*
X156701007Y-91696972D01*
X156707011Y-91692003D01*
X156707018Y-91692000D01*
X156754984Y-91640920D01*
X156776135Y-91619770D01*
X156780461Y-91614192D01*
X156784250Y-91609755D01*
X156816586Y-91575321D01*
X156826419Y-91557432D01*
X156837102Y-91541169D01*
X156849614Y-91525041D01*
X156868371Y-91481691D01*
X156870941Y-91476447D01*
X156893693Y-91435063D01*
X156893695Y-91435060D01*
X156897395Y-91420647D01*
X156933130Y-91360610D01*
X156995653Y-91329422D01*
X157065112Y-91336987D01*
G37*
%TD.AperFunction*%
%TA.AperFunction,Conductor*%
G36*
X137205203Y-72954009D02*
G01*
X137231387Y-72985723D01*
X137260956Y-73036939D01*
X137260958Y-73036941D01*
X137260960Y-73036944D01*
X137334649Y-73118784D01*
X137364880Y-73181775D01*
X137366500Y-73201756D01*
X137366500Y-81916366D01*
X137364761Y-81932113D01*
X137365032Y-81932139D01*
X137364298Y-81939905D01*
X137366500Y-82009957D01*
X137366500Y-82039859D01*
X137367384Y-82046856D01*
X137367842Y-82052679D01*
X137369326Y-82099889D01*
X137369327Y-82099891D01*
X137375022Y-82119495D01*
X137378967Y-82138542D01*
X137381526Y-82158797D01*
X137381527Y-82158800D01*
X137381528Y-82158803D01*
X137398914Y-82202716D01*
X137400806Y-82208244D01*
X137413981Y-82253592D01*
X137424372Y-82271162D01*
X137432932Y-82288635D01*
X137440447Y-82307617D01*
X137468209Y-82345827D01*
X137471418Y-82350712D01*
X137491223Y-82384202D01*
X137495458Y-82391362D01*
X137495462Y-82391366D01*
X137509889Y-82405793D01*
X137522526Y-82420588D01*
X137534528Y-82437107D01*
X137570931Y-82467222D01*
X137575231Y-82471135D01*
X137985542Y-82881446D01*
X138392910Y-83288814D01*
X138402816Y-83301178D01*
X138403026Y-83301005D01*
X138408001Y-83307019D01*
X138459094Y-83354999D01*
X138480225Y-83376129D01*
X138480230Y-83376134D01*
X138485802Y-83380456D01*
X138490242Y-83384249D01*
X138524678Y-83416586D01*
X138542567Y-83426420D01*
X138558833Y-83437104D01*
X138574959Y-83449613D01*
X138618298Y-83468367D01*
X138623545Y-83470937D01*
X138664940Y-83493695D01*
X138684718Y-83498773D01*
X138703119Y-83505073D01*
X138721855Y-83513181D01*
X138766362Y-83520229D01*
X138768503Y-83520569D01*
X138774212Y-83521751D01*
X138819970Y-83533500D01*
X138840384Y-83533500D01*
X138859783Y-83535027D01*
X138879943Y-83538220D01*
X138926966Y-83533775D01*
X138932804Y-83533500D01*
X149151000Y-83533500D01*
X149218039Y-83553185D01*
X149263794Y-83605989D01*
X149275000Y-83657500D01*
X149275000Y-83750000D01*
X151724999Y-83750000D01*
X151724999Y-83657500D01*
X151744684Y-83590461D01*
X151797488Y-83544706D01*
X151848999Y-83533500D01*
X152639108Y-83533500D01*
X152706147Y-83553185D01*
X152713420Y-83558234D01*
X152770192Y-83600734D01*
X152812062Y-83656668D01*
X152817046Y-83726359D01*
X152783560Y-83787682D01*
X152770191Y-83799266D01*
X152686740Y-83861737D01*
X152657863Y-83900312D01*
X152601929Y-83942182D01*
X152558597Y-83950000D01*
X152550000Y-83950000D01*
X152550000Y-84022833D01*
X152554181Y-84061725D01*
X152548384Y-84107914D01*
X152549795Y-84108248D01*
X152548010Y-84115799D01*
X152541500Y-84176345D01*
X152541500Y-84823654D01*
X152548011Y-84884202D01*
X152548011Y-84884204D01*
X152583370Y-84979001D01*
X152599111Y-85021204D01*
X152686739Y-85138261D01*
X152693382Y-85143234D01*
X152735252Y-85199166D01*
X152740237Y-85268857D01*
X152706753Y-85330181D01*
X152645430Y-85363666D01*
X152619071Y-85366500D01*
X151706553Y-85366500D01*
X151639514Y-85346815D01*
X151601016Y-85307599D01*
X151574030Y-85263848D01*
X151448652Y-85138470D01*
X151448651Y-85138469D01*
X151447963Y-85138045D01*
X151447590Y-85137630D01*
X151442985Y-85133989D01*
X151443607Y-85133202D01*
X151401238Y-85086098D01*
X151390015Y-85017135D01*
X151417858Y-84953053D01*
X151438423Y-84935242D01*
X151437677Y-84934298D01*
X151443344Y-84929816D01*
X151567315Y-84805845D01*
X151659356Y-84656624D01*
X151659358Y-84656619D01*
X151714505Y-84490197D01*
X151714506Y-84490190D01*
X151724999Y-84387486D01*
X151725000Y-84387473D01*
X151725000Y-84250000D01*
X149275001Y-84250000D01*
X149275001Y-84387486D01*
X149285494Y-84490197D01*
X149340641Y-84656619D01*
X149340643Y-84656624D01*
X149432684Y-84805845D01*
X149556655Y-84929816D01*
X149562323Y-84934298D01*
X149560592Y-84936486D01*
X149598749Y-84978890D01*
X149609987Y-85047850D01*
X149582158Y-85111938D01*
X149556894Y-85133836D01*
X149557015Y-85133989D01*
X149553627Y-85136667D01*
X149552043Y-85138041D01*
X149551350Y-85138468D01*
X149551345Y-85138472D01*
X149533742Y-85156074D01*
X149472418Y-85189556D01*
X149402726Y-85184569D01*
X149395630Y-85181669D01*
X149282288Y-85131206D01*
X149282286Y-85131205D01*
X149095487Y-85091500D01*
X148904513Y-85091500D01*
X148717714Y-85131205D01*
X148701866Y-85138261D01*
X148554672Y-85203796D01*
X148543246Y-85208883D01*
X148388745Y-85321135D01*
X148260959Y-85463057D01*
X148165473Y-85628443D01*
X148165470Y-85628450D01*
X148116220Y-85780028D01*
X148106458Y-85810072D01*
X148086496Y-86000000D01*
X148106458Y-86189928D01*
X148106459Y-86189931D01*
X148165470Y-86371549D01*
X148165473Y-86371556D01*
X148260960Y-86536944D01*
X148388747Y-86678866D01*
X148543248Y-86791118D01*
X148717712Y-86868794D01*
X148904513Y-86908500D01*
X149095487Y-86908500D01*
X149282288Y-86868794D01*
X149291836Y-86864542D01*
X149361085Y-86855255D01*
X149424363Y-86884881D01*
X149429957Y-86890139D01*
X149551348Y-87011530D01*
X149702262Y-87104615D01*
X149870574Y-87160387D01*
X149974455Y-87171000D01*
X151025544Y-87170999D01*
X151129426Y-87160387D01*
X151297738Y-87104615D01*
X151448652Y-87011530D01*
X151574030Y-86886152D01*
X151667115Y-86735238D01*
X151672662Y-86718496D01*
X151712434Y-86661052D01*
X151776949Y-86634228D01*
X151790368Y-86633500D01*
X153416366Y-86633500D01*
X153432113Y-86635238D01*
X153432139Y-86634968D01*
X153439905Y-86635701D01*
X153439909Y-86635702D01*
X153509958Y-86633500D01*
X153539856Y-86633500D01*
X153539857Y-86633500D01*
X153541222Y-86633327D01*
X153546862Y-86632614D01*
X153552685Y-86632156D01*
X153578708Y-86631338D01*
X153599890Y-86630673D01*
X153609681Y-86627827D01*
X153619481Y-86624980D01*
X153638538Y-86621032D01*
X153658797Y-86618474D01*
X153702721Y-86601082D01*
X153708221Y-86599199D01*
X153753593Y-86586018D01*
X153771165Y-86575625D01*
X153788632Y-86567068D01*
X153807617Y-86559552D01*
X153845826Y-86531790D01*
X153850704Y-86528585D01*
X153891362Y-86504542D01*
X153905802Y-86490100D01*
X153920592Y-86477470D01*
X153937107Y-86465472D01*
X153967221Y-86429068D01*
X153971125Y-86424777D01*
X154188817Y-86207086D01*
X154201181Y-86197182D01*
X154201007Y-86196972D01*
X154207011Y-86192003D01*
X154207018Y-86192000D01*
X154254984Y-86140920D01*
X154276135Y-86119770D01*
X154280461Y-86114192D01*
X154284250Y-86109755D01*
X154316586Y-86075321D01*
X154326419Y-86057432D01*
X154337102Y-86041169D01*
X154349614Y-86025041D01*
X154368371Y-85981691D01*
X154370941Y-85976447D01*
X154393693Y-85935064D01*
X154393693Y-85935063D01*
X154393695Y-85935060D01*
X154398774Y-85915273D01*
X154405070Y-85896885D01*
X154413181Y-85878145D01*
X154420569Y-85831497D01*
X154421751Y-85825786D01*
X154433500Y-85780030D01*
X154433500Y-85759615D01*
X154435027Y-85740214D01*
X154438220Y-85720057D01*
X154433775Y-85673033D01*
X154433500Y-85667195D01*
X154433500Y-85407500D01*
X154453185Y-85340461D01*
X154505989Y-85294706D01*
X154557500Y-85283500D01*
X154592500Y-85283500D01*
X154659539Y-85303185D01*
X154705294Y-85355989D01*
X154716500Y-85407500D01*
X154716500Y-86998654D01*
X154723011Y-87059202D01*
X154723011Y-87059204D01*
X154774111Y-87196206D01*
X154774112Y-87196207D01*
X154841766Y-87286580D01*
X154866184Y-87352044D01*
X154866500Y-87360891D01*
X154866500Y-87667500D01*
X154846815Y-87734539D01*
X154794011Y-87780294D01*
X154742500Y-87791500D01*
X154099462Y-87791500D01*
X154099446Y-87791501D01*
X153995572Y-87802113D01*
X153827264Y-87857884D01*
X153827259Y-87857886D01*
X153676349Y-87950969D01*
X153581670Y-88045648D01*
X153520346Y-88079132D01*
X153450655Y-88074148D01*
X153406308Y-88045647D01*
X153318345Y-87957684D01*
X153169124Y-87865643D01*
X153169119Y-87865641D01*
X153002697Y-87810494D01*
X153002690Y-87810493D01*
X152899986Y-87800000D01*
X152750000Y-87800000D01*
X152750000Y-90199999D01*
X152899972Y-90199999D01*
X152899986Y-90199998D01*
X153002697Y-90189505D01*
X153169119Y-90134358D01*
X153169124Y-90134356D01*
X153318342Y-90042317D01*
X153406307Y-89954352D01*
X153467630Y-89920867D01*
X153537322Y-89925851D01*
X153581670Y-89954352D01*
X153676348Y-90049030D01*
X153827262Y-90142115D01*
X153995574Y-90197887D01*
X154099455Y-90208500D01*
X154900544Y-90208499D01*
X155004426Y-90197887D01*
X155172738Y-90142115D01*
X155323652Y-90049030D01*
X155449030Y-89923652D01*
X155449030Y-89923651D01*
X155454137Y-89918545D01*
X155456250Y-89920658D01*
X155502222Y-89888087D01*
X155572021Y-89884928D01*
X155632446Y-89920007D01*
X155664315Y-89982186D01*
X155666500Y-90005363D01*
X155666500Y-90742500D01*
X155646815Y-90809539D01*
X155594011Y-90855294D01*
X155542500Y-90866500D01*
X137124000Y-90866500D01*
X137056961Y-90846815D01*
X137011206Y-90794011D01*
X137000000Y-90742500D01*
X137000000Y-89250000D01*
X151400001Y-89250000D01*
X151400001Y-89499986D01*
X151410494Y-89602697D01*
X151465641Y-89769119D01*
X151465643Y-89769124D01*
X151557684Y-89918345D01*
X151681654Y-90042315D01*
X151830875Y-90134356D01*
X151830880Y-90134358D01*
X151997302Y-90189505D01*
X151997309Y-90189506D01*
X152100019Y-90199999D01*
X152249999Y-90199999D01*
X152250000Y-90199998D01*
X152250000Y-89250000D01*
X151400001Y-89250000D01*
X137000000Y-89250000D01*
X137000000Y-88750000D01*
X151400000Y-88750000D01*
X152250000Y-88750000D01*
X152250000Y-87800000D01*
X152100027Y-87800000D01*
X152100012Y-87800001D01*
X151997302Y-87810494D01*
X151830880Y-87865641D01*
X151830875Y-87865643D01*
X151681654Y-87957684D01*
X151557684Y-88081654D01*
X151465643Y-88230875D01*
X151465641Y-88230880D01*
X151410494Y-88397302D01*
X151410493Y-88397309D01*
X151400000Y-88500013D01*
X151400000Y-88750000D01*
X137000000Y-88750000D01*
X137000000Y-73047722D01*
X137019685Y-72980683D01*
X137072489Y-72934928D01*
X137141647Y-72924984D01*
X137205203Y-72954009D01*
G37*
%TD.AperFunction*%
%TA.AperFunction,Conductor*%
G36*
X163884539Y-84353185D02*
G01*
X163930294Y-84405989D01*
X163941500Y-84457500D01*
X163941500Y-84826000D01*
X163921815Y-84893039D01*
X163869011Y-84938794D01*
X163817500Y-84950000D01*
X163750000Y-84950000D01*
X163750000Y-87450000D01*
X163763510Y-87463510D01*
X163784539Y-87469685D01*
X163830294Y-87522489D01*
X163841500Y-87574000D01*
X163841500Y-88090810D01*
X163821815Y-88157849D01*
X163805181Y-88178491D01*
X163578491Y-88405181D01*
X163517168Y-88438666D01*
X163490810Y-88441500D01*
X163434090Y-88441500D01*
X163247291Y-88481205D01*
X163160057Y-88520044D01*
X163090594Y-88550971D01*
X163072823Y-88558883D01*
X162918322Y-88671135D01*
X162803786Y-88798341D01*
X162744299Y-88834990D01*
X162674442Y-88833659D01*
X162623955Y-88803050D01*
X162569819Y-88748914D01*
X162536334Y-88687591D01*
X162533500Y-88661233D01*
X162533500Y-87582500D01*
X162553185Y-87515461D01*
X162605989Y-87469706D01*
X162657500Y-87458500D01*
X163023638Y-87458500D01*
X163023654Y-87458499D01*
X163061560Y-87454423D01*
X163084201Y-87451989D01*
X163084207Y-87451986D01*
X163091754Y-87450204D01*
X163092089Y-87451624D01*
X163138281Y-87445818D01*
X163177163Y-87449999D01*
X163177172Y-87450000D01*
X163250000Y-87450000D01*
X163250000Y-87441402D01*
X163269685Y-87374363D01*
X163299691Y-87342134D01*
X163338261Y-87313261D01*
X163425889Y-87196204D01*
X163476989Y-87059201D01*
X163482114Y-87011530D01*
X163483499Y-86998654D01*
X163483500Y-86998637D01*
X163483500Y-85401362D01*
X163483499Y-85401345D01*
X163478622Y-85355989D01*
X163476989Y-85340799D01*
X163469654Y-85321134D01*
X163448287Y-85263848D01*
X163425889Y-85203796D01*
X163390165Y-85156074D01*
X163358233Y-85113417D01*
X163333816Y-85047953D01*
X163333500Y-85039107D01*
X163333500Y-84783632D01*
X163335239Y-84767880D01*
X163334968Y-84767855D01*
X163335700Y-84760099D01*
X163335702Y-84760092D01*
X163333500Y-84690028D01*
X163333500Y-84660144D01*
X163332614Y-84653141D01*
X163332157Y-84647322D01*
X163330674Y-84600111D01*
X163324976Y-84580499D01*
X163321033Y-84561466D01*
X163318474Y-84541203D01*
X163303407Y-84503148D01*
X163297030Y-84433570D01*
X163329282Y-84371590D01*
X163389923Y-84336885D01*
X163418699Y-84333500D01*
X163817500Y-84333500D01*
X163884539Y-84353185D01*
G37*
%TD.AperFunction*%
%TA.AperFunction,Conductor*%
G36*
X156060197Y-77153185D02*
G01*
X156105952Y-77205989D01*
X156115896Y-77275147D01*
X156111089Y-77295816D01*
X156106458Y-77310072D01*
X156086496Y-77500000D01*
X156106458Y-77689928D01*
X156106459Y-77689931D01*
X156165470Y-77871549D01*
X156165473Y-77871556D01*
X156260960Y-78036944D01*
X156388747Y-78178866D01*
X156543248Y-78291118D01*
X156717712Y-78368794D01*
X156904513Y-78408500D01*
X157095487Y-78408500D01*
X157282288Y-78368794D01*
X157456752Y-78291118D01*
X157611253Y-78178866D01*
X157739040Y-78036944D01*
X157762968Y-77995500D01*
X157813535Y-77947284D01*
X157870355Y-77933500D01*
X163817500Y-77933500D01*
X163884539Y-77953185D01*
X163930294Y-78005989D01*
X163941500Y-78057500D01*
X163941500Y-78423654D01*
X163948010Y-78484197D01*
X163949796Y-78491755D01*
X163948381Y-78492089D01*
X163954181Y-78538274D01*
X163950000Y-78577166D01*
X163950000Y-78650000D01*
X163958597Y-78650000D01*
X164025636Y-78669685D01*
X164057863Y-78699688D01*
X164073841Y-78721032D01*
X164084823Y-78735702D01*
X164086740Y-78738262D01*
X164170191Y-78800734D01*
X164212062Y-78856668D01*
X164217046Y-78926359D01*
X164183560Y-78987682D01*
X164170191Y-78999266D01*
X164086740Y-79061737D01*
X164057863Y-79100312D01*
X164001929Y-79142182D01*
X163958597Y-79150000D01*
X163950000Y-79150000D01*
X163950000Y-79222833D01*
X163954181Y-79261725D01*
X163948384Y-79307914D01*
X163949795Y-79308248D01*
X163948010Y-79315799D01*
X163941500Y-79376345D01*
X163941500Y-80023640D01*
X163948284Y-80086746D01*
X163948284Y-80113254D01*
X163941500Y-80176359D01*
X163941500Y-80823640D01*
X163948284Y-80886746D01*
X163948284Y-80913254D01*
X163941500Y-80976359D01*
X163941500Y-81623640D01*
X163948284Y-81686746D01*
X163948284Y-81713255D01*
X163945525Y-81738918D01*
X163918787Y-81803469D01*
X163861394Y-81843317D01*
X163791569Y-81845811D01*
X163734554Y-81813344D01*
X163545046Y-81623836D01*
X163535145Y-81611476D01*
X163534935Y-81611651D01*
X163529960Y-81605639D01*
X163529958Y-81605635D01*
X163503616Y-81580898D01*
X163478880Y-81557669D01*
X163457726Y-81536516D01*
X163455750Y-81534984D01*
X163452141Y-81532184D01*
X163447708Y-81528397D01*
X163413279Y-81496067D01*
X163413277Y-81496065D01*
X163395389Y-81486231D01*
X163379128Y-81475550D01*
X163362997Y-81463037D01*
X163319651Y-81444280D01*
X163314403Y-81441709D01*
X163287209Y-81426759D01*
X163273018Y-81418958D01*
X163269618Y-81418085D01*
X163253245Y-81413881D01*
X163234839Y-81407579D01*
X163216102Y-81399471D01*
X163216104Y-81399471D01*
X163169454Y-81392083D01*
X163163739Y-81390899D01*
X163143570Y-81385721D01*
X163117990Y-81379153D01*
X163117988Y-81379153D01*
X163097574Y-81379153D01*
X163078175Y-81377626D01*
X163058016Y-81374433D01*
X163058015Y-81374433D01*
X163010992Y-81378878D01*
X163005154Y-81379153D01*
X161719962Y-81379153D01*
X161652923Y-81359468D01*
X161627813Y-81338126D01*
X161623907Y-81333788D01*
X161606491Y-81321134D01*
X161469405Y-81221535D01*
X161294941Y-81143859D01*
X161294939Y-81143858D01*
X161108140Y-81104153D01*
X160917166Y-81104153D01*
X160730367Y-81143858D01*
X160709418Y-81153185D01*
X160584323Y-81208881D01*
X160555899Y-81221536D01*
X160401398Y-81333788D01*
X160273612Y-81475710D01*
X160178126Y-81641096D01*
X160178123Y-81641103D01*
X160122159Y-81813344D01*
X160119111Y-81822725D01*
X160099149Y-82012653D01*
X160119111Y-82202581D01*
X160119112Y-82202584D01*
X160178123Y-82384202D01*
X160178126Y-82384209D01*
X160273613Y-82549597D01*
X160401400Y-82691519D01*
X160555901Y-82803771D01*
X160730365Y-82881447D01*
X160917166Y-82921153D01*
X161108140Y-82921153D01*
X161294941Y-82881447D01*
X161416282Y-82827422D01*
X161485529Y-82818138D01*
X161548806Y-82847766D01*
X161586019Y-82906901D01*
X161590036Y-82953662D01*
X161586496Y-82987347D01*
X161606458Y-83177275D01*
X161606459Y-83177278D01*
X161665470Y-83358896D01*
X161665473Y-83358903D01*
X161760960Y-83524291D01*
X161840220Y-83612318D01*
X161882728Y-83659528D01*
X161912958Y-83722519D01*
X161904333Y-83791855D01*
X161859591Y-83845520D01*
X161792939Y-83866478D01*
X161790578Y-83866500D01*
X154960892Y-83866500D01*
X154893853Y-83846815D01*
X154886589Y-83841772D01*
X154829807Y-83799266D01*
X154787937Y-83743333D01*
X154782953Y-83673642D01*
X154816438Y-83612318D01*
X154829808Y-83600733D01*
X154913261Y-83538261D01*
X154938105Y-83505074D01*
X154942137Y-83499688D01*
X154998071Y-83457818D01*
X155041403Y-83450000D01*
X155050000Y-83450000D01*
X155050000Y-83377172D01*
X155049999Y-83377163D01*
X155045818Y-83338281D01*
X155051624Y-83292089D01*
X155050204Y-83291754D01*
X155051986Y-83284207D01*
X155051989Y-83284201D01*
X155054423Y-83261560D01*
X155058499Y-83223654D01*
X155058500Y-83223637D01*
X155058500Y-82576362D01*
X155058499Y-82576348D01*
X155053474Y-82529615D01*
X155051989Y-82515799D01*
X155051988Y-82515796D01*
X155051715Y-82513257D01*
X155051715Y-82486743D01*
X155051988Y-82484203D01*
X155051989Y-82484201D01*
X155056923Y-82438309D01*
X155058499Y-82423651D01*
X155058500Y-82423637D01*
X155058500Y-81776362D01*
X155058499Y-81776348D01*
X155053547Y-81730294D01*
X155051989Y-81715799D01*
X155051988Y-81715796D01*
X155051715Y-81713257D01*
X155051715Y-81686743D01*
X155051988Y-81684203D01*
X155051989Y-81684201D01*
X155056623Y-81641096D01*
X155058499Y-81623651D01*
X155058500Y-81623637D01*
X155058500Y-80976362D01*
X155058499Y-80976348D01*
X155055690Y-80950228D01*
X155051989Y-80915799D01*
X155051988Y-80915796D01*
X155051715Y-80913257D01*
X155051715Y-80886743D01*
X155051988Y-80884203D01*
X155051989Y-80884201D01*
X155058500Y-80823638D01*
X155058500Y-80176362D01*
X155058500Y-80176359D01*
X155058499Y-80176348D01*
X155054694Y-80140960D01*
X155051989Y-80115799D01*
X155051988Y-80115796D01*
X155051715Y-80113257D01*
X155051715Y-80086743D01*
X155051988Y-80084203D01*
X155051989Y-80084201D01*
X155056074Y-80046198D01*
X155058499Y-80023651D01*
X155058500Y-80023637D01*
X155058500Y-79376362D01*
X155058499Y-79376348D01*
X155055690Y-79350228D01*
X155051989Y-79315799D01*
X155051988Y-79315796D01*
X155051715Y-79313257D01*
X155051715Y-79286743D01*
X155051988Y-79284203D01*
X155051989Y-79284201D01*
X155058500Y-79223638D01*
X155058500Y-78576362D01*
X155058499Y-78576348D01*
X155054332Y-78537595D01*
X155051989Y-78515799D01*
X155051988Y-78515796D01*
X155051715Y-78513257D01*
X155051715Y-78486743D01*
X155051988Y-78484203D01*
X155051989Y-78484201D01*
X155056644Y-78440904D01*
X155058499Y-78423651D01*
X155058500Y-78423637D01*
X155058500Y-77776362D01*
X155058499Y-77776345D01*
X155051989Y-77715799D01*
X155050205Y-77708249D01*
X155051623Y-77707913D01*
X155045818Y-77661719D01*
X155049999Y-77622836D01*
X155050000Y-77622827D01*
X155050000Y-77550000D01*
X155041403Y-77550000D01*
X154974364Y-77530315D01*
X154942137Y-77500312D01*
X154930049Y-77484166D01*
X154913261Y-77461739D01*
X154829807Y-77399266D01*
X154787937Y-77343333D01*
X154782953Y-77273641D01*
X154816438Y-77212318D01*
X154829808Y-77200733D01*
X154886582Y-77158232D01*
X154952046Y-77133816D01*
X154960892Y-77133500D01*
X155919970Y-77133500D01*
X155993158Y-77133500D01*
X156060197Y-77153185D01*
G37*
%TD.AperFunction*%
%TA.AperFunction,Conductor*%
G36*
X166799810Y-78683751D02*
G01*
X166835575Y-78726261D01*
X166836851Y-78725475D01*
X166930561Y-78877403D01*
X166949001Y-78944796D01*
X166928078Y-79011459D01*
X166874436Y-79056229D01*
X166825022Y-79066500D01*
X166360892Y-79066500D01*
X166293853Y-79046815D01*
X166286589Y-79041772D01*
X166229807Y-78999266D01*
X166187937Y-78943333D01*
X166182953Y-78873642D01*
X166216438Y-78812318D01*
X166229808Y-78800734D01*
X166284344Y-78759908D01*
X166349808Y-78735490D01*
X166354749Y-78735235D01*
X166409958Y-78733500D01*
X166439856Y-78733500D01*
X166439857Y-78733500D01*
X166441222Y-78733327D01*
X166446862Y-78732614D01*
X166452685Y-78732156D01*
X166478708Y-78731338D01*
X166499890Y-78730673D01*
X166509681Y-78727827D01*
X166519481Y-78724980D01*
X166538538Y-78721032D01*
X166558797Y-78718474D01*
X166602721Y-78701082D01*
X166608221Y-78699199D01*
X166653593Y-78686018D01*
X166665828Y-78678781D01*
X166733546Y-78661596D01*
X166799810Y-78683751D01*
G37*
%TD.AperFunction*%
%TA.AperFunction,Conductor*%
G36*
X150929539Y-46219186D02*
G01*
X150975294Y-46271990D01*
X150986500Y-46323501D01*
X150986500Y-49973660D01*
X150966815Y-50040699D01*
X150914011Y-50086454D01*
X150888281Y-50094950D01*
X150717713Y-50131205D01*
X150717708Y-50131207D01*
X150647613Y-50162415D01*
X150578363Y-50171699D01*
X150515087Y-50142070D01*
X150509498Y-50136816D01*
X150423653Y-50050971D01*
X150423652Y-50050970D01*
X150287039Y-49966706D01*
X150272740Y-49957886D01*
X150272735Y-49957884D01*
X150104427Y-49902113D01*
X150000546Y-49891500D01*
X148999462Y-49891500D01*
X148999446Y-49891501D01*
X148895572Y-49902113D01*
X148727264Y-49957884D01*
X148727259Y-49957886D01*
X148576346Y-50050971D01*
X148450970Y-50176347D01*
X148450967Y-50176351D01*
X148355538Y-50331066D01*
X148303590Y-50377791D01*
X148234628Y-50389012D01*
X148170546Y-50361169D01*
X148144462Y-50331066D01*
X148049032Y-50176351D01*
X148049029Y-50176347D01*
X147923653Y-50050971D01*
X147923652Y-50050970D01*
X147787039Y-49966706D01*
X147772740Y-49957886D01*
X147772735Y-49957884D01*
X147604427Y-49902113D01*
X147500546Y-49891500D01*
X146499462Y-49891500D01*
X146499446Y-49891501D01*
X146395572Y-49902113D01*
X146227264Y-49957884D01*
X146227259Y-49957886D01*
X146076346Y-50050971D01*
X145950971Y-50176346D01*
X145857886Y-50327259D01*
X145857884Y-50327264D01*
X145802113Y-50495572D01*
X145791500Y-50599447D01*
X145791500Y-51400537D01*
X145791501Y-51400553D01*
X145802113Y-51504427D01*
X145857884Y-51672735D01*
X145857886Y-51672740D01*
X145950971Y-51823653D01*
X146039637Y-51912319D01*
X146073122Y-51973642D01*
X146068138Y-52043334D01*
X146039637Y-52087681D01*
X145950971Y-52176346D01*
X145857886Y-52327259D01*
X145857884Y-52327264D01*
X145802113Y-52495572D01*
X145791500Y-52599447D01*
X145791500Y-53400537D01*
X145791501Y-53400553D01*
X145802113Y-53504427D01*
X145857884Y-53672735D01*
X145857886Y-53672740D01*
X145874222Y-53699224D01*
X145950970Y-53823652D01*
X146076348Y-53949030D01*
X146227262Y-54042115D01*
X146395574Y-54097887D01*
X146499455Y-54108500D01*
X147500544Y-54108499D01*
X147604426Y-54097887D01*
X147772738Y-54042115D01*
X147923652Y-53949030D01*
X148049030Y-53823652D01*
X148129986Y-53692402D01*
X148181933Y-53645678D01*
X148235524Y-53633500D01*
X148264476Y-53633500D01*
X148331515Y-53653185D01*
X148370013Y-53692401D01*
X148395363Y-53733499D01*
X148450971Y-53823653D01*
X148576347Y-53949029D01*
X148576351Y-53949032D01*
X148616656Y-53973893D01*
X148663381Y-54025841D01*
X148674602Y-54094803D01*
X148667001Y-54122107D01*
X148667481Y-54122263D01*
X148665473Y-54128444D01*
X148606458Y-54310072D01*
X148586496Y-54500000D01*
X148606458Y-54689928D01*
X148606459Y-54689931D01*
X148665470Y-54871549D01*
X148665473Y-54871556D01*
X148760960Y-55036944D01*
X148888747Y-55178866D01*
X149043248Y-55291118D01*
X149217712Y-55368794D01*
X149404513Y-55408500D01*
X149595487Y-55408500D01*
X149782288Y-55368794D01*
X149956752Y-55291118D01*
X150111253Y-55178866D01*
X150239040Y-55036944D01*
X150334527Y-54871556D01*
X150393542Y-54689928D01*
X150413504Y-54500000D01*
X150393542Y-54310072D01*
X150334527Y-54128444D01*
X150332519Y-54122263D01*
X150334074Y-54121757D01*
X150325875Y-54060622D01*
X150355501Y-53997344D01*
X150383344Y-53973892D01*
X150423652Y-53949030D01*
X150549030Y-53823652D01*
X150642115Y-53672738D01*
X150697887Y-53504426D01*
X150708500Y-53400545D01*
X150708499Y-53019961D01*
X150728183Y-52952923D01*
X150780987Y-52907168D01*
X150850146Y-52897224D01*
X150858256Y-52898667D01*
X150888283Y-52905050D01*
X150949763Y-52938242D01*
X150983539Y-52999405D01*
X150986500Y-53026339D01*
X150986500Y-56367500D01*
X150966815Y-56434539D01*
X150914011Y-56480294D01*
X150862500Y-56491500D01*
X149151345Y-56491500D01*
X149090797Y-56498011D01*
X149090795Y-56498011D01*
X148953795Y-56549111D01*
X148836739Y-56636739D01*
X148749111Y-56753795D01*
X148698011Y-56890795D01*
X148698011Y-56890797D01*
X148691500Y-56951345D01*
X148691500Y-58048654D01*
X148698011Y-58109202D01*
X148698011Y-58109204D01*
X148749111Y-58246204D01*
X148836739Y-58363261D01*
X148953796Y-58450889D01*
X149090799Y-58501989D01*
X149118050Y-58504918D01*
X149151345Y-58508499D01*
X149151362Y-58508500D01*
X152448638Y-58508500D01*
X152448654Y-58508499D01*
X152475692Y-58505591D01*
X152509201Y-58501989D01*
X152646204Y-58450889D01*
X152668189Y-58434430D01*
X152733653Y-58410014D01*
X152801926Y-58424865D01*
X152851332Y-58474271D01*
X152866500Y-58533698D01*
X152866500Y-60476918D01*
X152846815Y-60543957D01*
X152794011Y-60589712D01*
X152724853Y-60599656D01*
X152668190Y-60576185D01*
X152642093Y-60556649D01*
X152642086Y-60556645D01*
X152507379Y-60506403D01*
X152507372Y-60506401D01*
X152447844Y-60500000D01*
X151050000Y-60500000D01*
X151050000Y-61626000D01*
X151030315Y-61693039D01*
X150977511Y-61738794D01*
X150926000Y-61750000D01*
X148700000Y-61750000D01*
X148700000Y-62047844D01*
X148706401Y-62107372D01*
X148706403Y-62107379D01*
X148756645Y-62242086D01*
X148756649Y-62242093D01*
X148842809Y-62357186D01*
X148961901Y-62446339D01*
X149003772Y-62502273D01*
X149008756Y-62571965D01*
X148987914Y-62618483D01*
X148983417Y-62624673D01*
X148979355Y-62632062D01*
X148966241Y-62651358D01*
X148960866Y-62657855D01*
X148936097Y-62710491D01*
X148934330Y-62713959D01*
X148906305Y-62764939D01*
X148906302Y-62764945D01*
X148904207Y-62773107D01*
X148896309Y-62795048D01*
X148892717Y-62802683D01*
X148892715Y-62802689D01*
X148881817Y-62859814D01*
X148880968Y-62863614D01*
X148866500Y-62919965D01*
X148866500Y-62928393D01*
X148864304Y-62951628D01*
X148862725Y-62959903D01*
X148862725Y-62959906D01*
X148866378Y-63017981D01*
X148866500Y-63021852D01*
X148866500Y-63264476D01*
X148846815Y-63331515D01*
X148807598Y-63370013D01*
X148758100Y-63400545D01*
X148676346Y-63450971D01*
X148550971Y-63576346D01*
X148457886Y-63727259D01*
X148457884Y-63727264D01*
X148402113Y-63895572D01*
X148391500Y-63999447D01*
X148391500Y-65000537D01*
X148391501Y-65000553D01*
X148402113Y-65104427D01*
X148457884Y-65272735D01*
X148457886Y-65272740D01*
X148479882Y-65308400D01*
X148550970Y-65423652D01*
X148676348Y-65549030D01*
X148807597Y-65629985D01*
X148854321Y-65681932D01*
X148866500Y-65735523D01*
X148866500Y-65764476D01*
X148846815Y-65831515D01*
X148807598Y-65870013D01*
X148720186Y-65923930D01*
X148676346Y-65950971D01*
X148550971Y-66076346D01*
X148457886Y-66227259D01*
X148457884Y-66227264D01*
X148402113Y-66395572D01*
X148391500Y-66499447D01*
X148391500Y-67500537D01*
X148391501Y-67500553D01*
X148402113Y-67604427D01*
X148457884Y-67772735D01*
X148457885Y-67772738D01*
X148550970Y-67923652D01*
X148676348Y-68049030D01*
X148827262Y-68142115D01*
X148995574Y-68197887D01*
X149099455Y-68208500D01*
X149900544Y-68208499D01*
X150004426Y-68197887D01*
X150172738Y-68142115D01*
X150323652Y-68049030D01*
X150412319Y-67960363D01*
X150473642Y-67926878D01*
X150543334Y-67931862D01*
X150587681Y-67960363D01*
X150676348Y-68049030D01*
X150807597Y-68129985D01*
X150854321Y-68181932D01*
X150866500Y-68235523D01*
X150866500Y-76499166D01*
X150846815Y-76566205D01*
X150794011Y-76611960D01*
X150768283Y-76620456D01*
X150717713Y-76631205D01*
X150543244Y-76708884D01*
X150388745Y-76821135D01*
X150260959Y-76963057D01*
X150165473Y-77128443D01*
X150165470Y-77128450D01*
X150111111Y-77295751D01*
X150106458Y-77310072D01*
X150086496Y-77500000D01*
X150106458Y-77689928D01*
X150106459Y-77689931D01*
X150165470Y-77871549D01*
X150165473Y-77871556D01*
X150260956Y-78036938D01*
X150260957Y-78036939D01*
X150260960Y-78036944D01*
X150281296Y-78059529D01*
X150311525Y-78122519D01*
X150302900Y-78191854D01*
X150258159Y-78245520D01*
X150191506Y-78266478D01*
X150189145Y-78266500D01*
X143713767Y-78266500D01*
X143646728Y-78246815D01*
X143626086Y-78230181D01*
X143169819Y-77773914D01*
X143136334Y-77712591D01*
X143133500Y-77686233D01*
X143133500Y-75701760D01*
X143153185Y-75634721D01*
X143165346Y-75618792D01*
X143239040Y-75536948D01*
X143334527Y-75371560D01*
X143393542Y-75189932D01*
X143413504Y-75000004D01*
X143393542Y-74810076D01*
X143334527Y-74628448D01*
X143239040Y-74463060D01*
X143239036Y-74463054D01*
X143165350Y-74381217D01*
X143135120Y-74318225D01*
X143133500Y-74298245D01*
X143133500Y-65201756D01*
X143153185Y-65134717D01*
X143165346Y-65118788D01*
X143239040Y-65036944D01*
X143334527Y-64871556D01*
X143393542Y-64689928D01*
X143413504Y-64500000D01*
X143393542Y-64310072D01*
X143334527Y-64128444D01*
X143239040Y-63963056D01*
X143111253Y-63821134D01*
X142956752Y-63708882D01*
X142782288Y-63631206D01*
X142782286Y-63631205D01*
X142595487Y-63591500D01*
X142404513Y-63591500D01*
X142404512Y-63591500D01*
X142283280Y-63617268D01*
X142213613Y-63611952D01*
X142157880Y-63569815D01*
X142133775Y-63504235D01*
X142133500Y-63495978D01*
X142133500Y-62612713D01*
X142153185Y-62545674D01*
X142205989Y-62499919D01*
X142275147Y-62489975D01*
X142286013Y-62492036D01*
X142292624Y-62493598D01*
X142352155Y-62499999D01*
X142352172Y-62500000D01*
X143750000Y-62500000D01*
X143750000Y-61750000D01*
X144250000Y-61750000D01*
X144250000Y-62500000D01*
X145647828Y-62500000D01*
X145647844Y-62499999D01*
X145707372Y-62493598D01*
X145707379Y-62493596D01*
X145842086Y-62443354D01*
X145842093Y-62443350D01*
X145957187Y-62357190D01*
X145957190Y-62357187D01*
X146043350Y-62242093D01*
X146043354Y-62242086D01*
X146093596Y-62107379D01*
X146093598Y-62107372D01*
X146099999Y-62047844D01*
X146100000Y-62047827D01*
X146100000Y-61750000D01*
X144250000Y-61750000D01*
X143750000Y-61750000D01*
X143750000Y-60500000D01*
X144250000Y-60500000D01*
X144250000Y-61250000D01*
X146100000Y-61250000D01*
X148700000Y-61250000D01*
X150550000Y-61250000D01*
X150550000Y-60500000D01*
X149152155Y-60500000D01*
X149092627Y-60506401D01*
X149092620Y-60506403D01*
X148957913Y-60556645D01*
X148957906Y-60556649D01*
X148842812Y-60642809D01*
X148842809Y-60642812D01*
X148756649Y-60757906D01*
X148756645Y-60757913D01*
X148706403Y-60892620D01*
X148706401Y-60892627D01*
X148700000Y-60952155D01*
X148700000Y-61250000D01*
X146100000Y-61250000D01*
X146100000Y-60952172D01*
X146099999Y-60952155D01*
X146093598Y-60892627D01*
X146093596Y-60892620D01*
X146043354Y-60757913D01*
X146043350Y-60757906D01*
X145957190Y-60642812D01*
X145957187Y-60642809D01*
X145842093Y-60556649D01*
X145842086Y-60556645D01*
X145707379Y-60506403D01*
X145707372Y-60506401D01*
X145647844Y-60500000D01*
X144250000Y-60500000D01*
X143750000Y-60500000D01*
X142352155Y-60500000D01*
X142292621Y-60506402D01*
X142286005Y-60507965D01*
X142216236Y-60504219D01*
X142159568Y-60463347D01*
X142133993Y-60398327D01*
X142133500Y-60387286D01*
X142133500Y-59201756D01*
X142153185Y-59134717D01*
X142165346Y-59118788D01*
X142239040Y-59036944D01*
X142334527Y-58871556D01*
X142393542Y-58689928D01*
X142400940Y-58619536D01*
X142427525Y-58554923D01*
X142484823Y-58514939D01*
X142524261Y-58508500D01*
X145648638Y-58508500D01*
X145648654Y-58508499D01*
X145675692Y-58505591D01*
X145709201Y-58501989D01*
X145846204Y-58450889D01*
X145963261Y-58363261D01*
X146050889Y-58246204D01*
X146101989Y-58109201D01*
X146105591Y-58075692D01*
X146108499Y-58048654D01*
X146108500Y-58048637D01*
X146108500Y-56951362D01*
X146108499Y-56951345D01*
X146105157Y-56920270D01*
X146101989Y-56890799D01*
X146096469Y-56876000D01*
X146079522Y-56830564D01*
X146050889Y-56753796D01*
X145963261Y-56636739D01*
X145846204Y-56549111D01*
X145801315Y-56532368D01*
X145709203Y-56498011D01*
X145648654Y-56491500D01*
X145648638Y-56491500D01*
X142351362Y-56491500D01*
X142351345Y-56491500D01*
X142290797Y-56498011D01*
X142290795Y-56498011D01*
X142153795Y-56549111D01*
X142036739Y-56636739D01*
X141949111Y-56753795D01*
X141898011Y-56890795D01*
X141898011Y-56890797D01*
X141891500Y-56951345D01*
X141891500Y-57501292D01*
X141871815Y-57568331D01*
X141819011Y-57614086D01*
X141749853Y-57624030D01*
X141741719Y-57622582D01*
X141595487Y-57591500D01*
X141404513Y-57591500D01*
X141217714Y-57631205D01*
X141043246Y-57708883D01*
X140888745Y-57821135D01*
X140760959Y-57963057D01*
X140665473Y-58128443D01*
X140665470Y-58128450D01*
X140627210Y-58246204D01*
X140606458Y-58310072D01*
X140586496Y-58500000D01*
X140606458Y-58689928D01*
X140606459Y-58689931D01*
X140642988Y-58802357D01*
X140648506Y-58829002D01*
X140651842Y-58864287D01*
X140651845Y-58864299D01*
X140706059Y-59014886D01*
X140706059Y-59014887D01*
X140796025Y-59147267D01*
X140796029Y-59147272D01*
X140824502Y-59172374D01*
X140861772Y-59231473D01*
X140866500Y-59265388D01*
X140866500Y-59495978D01*
X140846815Y-59563017D01*
X140794011Y-59608772D01*
X140724853Y-59618716D01*
X140716720Y-59617268D01*
X140595488Y-59591500D01*
X140595487Y-59591500D01*
X140404513Y-59591500D01*
X140217714Y-59631205D01*
X140043246Y-59708883D01*
X139888745Y-59821135D01*
X139760959Y-59963057D01*
X139665473Y-60128443D01*
X139665470Y-60128450D01*
X139606459Y-60310068D01*
X139606458Y-60310072D01*
X139586496Y-60500000D01*
X139606458Y-60689928D01*
X139606459Y-60689931D01*
X139665470Y-60871549D01*
X139665473Y-60871556D01*
X139746183Y-61011351D01*
X139760960Y-61036944D01*
X139834649Y-61118784D01*
X139864880Y-61181775D01*
X139866500Y-61201756D01*
X139866500Y-62580901D01*
X139846815Y-62647940D01*
X139794011Y-62693695D01*
X139724853Y-62703639D01*
X139709331Y-62700088D01*
X139709271Y-62700316D01*
X137519195Y-62113488D01*
X137519189Y-62113487D01*
X137448558Y-62101276D01*
X137448556Y-62101276D01*
X137448550Y-62101275D01*
X137276647Y-62108202D01*
X137276635Y-62108204D01*
X137158498Y-62142423D01*
X137088629Y-62142167D01*
X137029990Y-62104178D01*
X137001198Y-62040516D01*
X137000000Y-62023319D01*
X137000000Y-46323501D01*
X137019685Y-46256462D01*
X137072489Y-46210707D01*
X137124000Y-46199501D01*
X150862500Y-46199501D01*
X150929539Y-46219186D01*
G37*
%TD.AperFunction*%
%TA.AperFunction,Conductor*%
G36*
X153565071Y-65153185D02*
G01*
X153610826Y-65205989D01*
X153615963Y-65219182D01*
X153665470Y-65371549D01*
X153665473Y-65371556D01*
X153721715Y-65468970D01*
X153724887Y-65474463D01*
X153741500Y-65536463D01*
X153741500Y-69760706D01*
X153740191Y-69778676D01*
X153736658Y-69802791D01*
X153741264Y-69855420D01*
X153741500Y-69860827D01*
X153741500Y-69869178D01*
X153745347Y-69902096D01*
X153752112Y-69979427D01*
X153753572Y-69986494D01*
X153753526Y-69986503D01*
X153755209Y-69994094D01*
X153755254Y-69994084D01*
X153756919Y-70001110D01*
X153783473Y-70074065D01*
X153807886Y-70147737D01*
X153810940Y-70154286D01*
X153810896Y-70154306D01*
X153814284Y-70161304D01*
X153814327Y-70161283D01*
X153817563Y-70167728D01*
X153817565Y-70167732D01*
X153860233Y-70232605D01*
X153900970Y-70298651D01*
X153900972Y-70298653D01*
X153905451Y-70304318D01*
X153905413Y-70304347D01*
X153910320Y-70310372D01*
X153910357Y-70310342D01*
X153915002Y-70315878D01*
X153971482Y-70369163D01*
X154667681Y-71065362D01*
X154701166Y-71126685D01*
X154704000Y-71153043D01*
X154704000Y-71900537D01*
X154704001Y-71900553D01*
X154714613Y-72004427D01*
X154770384Y-72172735D01*
X154770386Y-72172740D01*
X154786584Y-72199001D01*
X154863470Y-72323652D01*
X154988848Y-72449030D01*
X155139762Y-72542115D01*
X155308074Y-72597887D01*
X155411955Y-72608500D01*
X155542500Y-72608499D01*
X155609539Y-72628183D01*
X155655294Y-72680987D01*
X155666500Y-72732499D01*
X155666500Y-73417500D01*
X155646815Y-73484539D01*
X155594011Y-73530294D01*
X155542500Y-73541500D01*
X155176345Y-73541500D01*
X155115797Y-73548011D01*
X155115795Y-73548011D01*
X154978795Y-73599111D01*
X154861739Y-73686739D01*
X154774111Y-73803795D01*
X154723011Y-73940795D01*
X154723011Y-73940797D01*
X154716500Y-74001345D01*
X154716500Y-75592500D01*
X154696815Y-75659539D01*
X154644011Y-75705294D01*
X154592500Y-75716500D01*
X153001345Y-75716500D01*
X152940797Y-75723011D01*
X152940795Y-75723011D01*
X152803795Y-75774111D01*
X152686739Y-75861739D01*
X152599111Y-75978795D01*
X152548011Y-76115795D01*
X152548011Y-76115797D01*
X152541500Y-76176345D01*
X152541500Y-76823654D01*
X152548010Y-76884197D01*
X152549796Y-76891755D01*
X152548381Y-76892089D01*
X152554181Y-76938274D01*
X152550000Y-76977166D01*
X152550000Y-77050000D01*
X152558597Y-77050000D01*
X152625636Y-77069685D01*
X152657863Y-77099688D01*
X152686740Y-77138262D01*
X152770191Y-77200734D01*
X152812062Y-77256668D01*
X152817046Y-77326359D01*
X152783560Y-77387682D01*
X152770191Y-77399266D01*
X152686740Y-77461737D01*
X152657863Y-77500312D01*
X152601929Y-77542182D01*
X152558597Y-77550000D01*
X152550000Y-77550000D01*
X152550000Y-77622833D01*
X152554181Y-77661725D01*
X152548384Y-77707914D01*
X152549795Y-77708248D01*
X152548010Y-77715799D01*
X152541500Y-77776345D01*
X152541500Y-78142500D01*
X152521815Y-78209539D01*
X152469011Y-78255294D01*
X152417500Y-78266500D01*
X151810855Y-78266500D01*
X151743816Y-78246815D01*
X151698061Y-78194011D01*
X151688117Y-78124853D01*
X151717142Y-78061297D01*
X151718644Y-78059596D01*
X151739040Y-78036944D01*
X151739042Y-78036939D01*
X151739044Y-78036938D01*
X151787398Y-77953185D01*
X151834527Y-77871556D01*
X151893542Y-77689928D01*
X151910906Y-77524711D01*
X151937489Y-77460101D01*
X151943838Y-77452789D01*
X151954985Y-77440919D01*
X151954984Y-77440919D01*
X151976135Y-77419770D01*
X151980461Y-77414192D01*
X151984250Y-77409755D01*
X152016586Y-77375321D01*
X152026419Y-77357432D01*
X152037102Y-77341169D01*
X152049614Y-77325041D01*
X152068371Y-77281691D01*
X152070941Y-77276447D01*
X152093693Y-77235064D01*
X152093693Y-77235063D01*
X152093695Y-77235060D01*
X152098774Y-77215273D01*
X152105070Y-77196885D01*
X152113181Y-77178145D01*
X152120569Y-77131497D01*
X152121751Y-77125786D01*
X152133500Y-77080030D01*
X152133500Y-77059615D01*
X152135027Y-77040214D01*
X152138220Y-77020057D01*
X152133775Y-76973033D01*
X152133500Y-76967195D01*
X152133500Y-68235523D01*
X152153185Y-68168484D01*
X152192401Y-68129986D01*
X152323652Y-68049030D01*
X152449030Y-67923652D01*
X152542115Y-67772738D01*
X152597887Y-67604426D01*
X152608500Y-67500545D01*
X152608499Y-66499456D01*
X152597887Y-66395574D01*
X152542115Y-66227262D01*
X152449030Y-66076348D01*
X152323652Y-65950970D01*
X152172738Y-65857885D01*
X152172734Y-65857883D01*
X152168933Y-65855539D01*
X152122209Y-65803591D01*
X152110986Y-65734628D01*
X152138830Y-65670546D01*
X152168933Y-65644461D01*
X152172734Y-65642116D01*
X152172738Y-65642115D01*
X152323652Y-65549030D01*
X152449030Y-65423652D01*
X152542115Y-65272738D01*
X152542117Y-65272733D01*
X152560089Y-65218497D01*
X152599861Y-65161052D01*
X152664376Y-65134228D01*
X152677795Y-65133500D01*
X153498032Y-65133500D01*
X153565071Y-65153185D01*
G37*
%TD.AperFunction*%
%TD*%
%TA.AperFunction,Conductor*%
%TO.N,GNDPWR*%
G36*
X163443039Y-46219186D02*
G01*
X163488794Y-46271990D01*
X163500000Y-46323501D01*
X163500000Y-54617500D01*
X163480315Y-54684539D01*
X163427511Y-54730294D01*
X163376000Y-54741500D01*
X162916139Y-54741500D01*
X162849100Y-54721815D01*
X162803345Y-54669011D01*
X162793401Y-54599853D01*
X162806781Y-54559046D01*
X162881557Y-54419152D01*
X162940170Y-54225932D01*
X162955000Y-54075357D01*
X162955000Y-53750000D01*
X162230000Y-53750000D01*
X162230000Y-53250000D01*
X162955000Y-53250000D01*
X162955000Y-52924642D01*
X162940170Y-52774067D01*
X162881556Y-52580845D01*
X162786384Y-52402790D01*
X162786379Y-52402784D01*
X162658292Y-52246707D01*
X162502215Y-52118620D01*
X162502209Y-52118615D01*
X162324150Y-52023441D01*
X162180000Y-51979712D01*
X162180000Y-52783889D01*
X162155543Y-52744390D01*
X162066038Y-52676799D01*
X161958160Y-52646105D01*
X161846479Y-52656454D01*
X161746078Y-52706448D01*
X161680000Y-52778930D01*
X161680000Y-51979712D01*
X161535849Y-52023441D01*
X161357790Y-52118615D01*
X161357784Y-52118620D01*
X161201707Y-52246707D01*
X161073620Y-52402784D01*
X161073618Y-52402787D01*
X161024263Y-52495122D01*
X160975300Y-52544966D01*
X160907162Y-52560426D01*
X160841482Y-52536594D01*
X160839468Y-52535081D01*
X160790233Y-52497302D01*
X160790229Y-52497300D01*
X160726801Y-52471027D01*
X160650236Y-52439313D01*
X160566493Y-52428288D01*
X160541754Y-52425031D01*
X160477858Y-52396764D01*
X160439387Y-52338440D01*
X160434001Y-52305987D01*
X160433809Y-52299887D01*
X160433500Y-52290041D01*
X160433500Y-52260144D01*
X160432614Y-52253136D01*
X160432156Y-52247314D01*
X160430673Y-52200110D01*
X160430672Y-52200108D01*
X160424977Y-52180508D01*
X160421032Y-52161457D01*
X160418474Y-52141203D01*
X160409940Y-52119650D01*
X160401086Y-52097286D01*
X160399193Y-52091757D01*
X160396135Y-52081233D01*
X160386018Y-52046407D01*
X160375622Y-52028829D01*
X160367066Y-52011362D01*
X160359552Y-51992383D01*
X160331794Y-51954179D01*
X160328587Y-51949296D01*
X160318873Y-51932871D01*
X160304542Y-51908638D01*
X160290108Y-51894204D01*
X160277471Y-51879409D01*
X160265472Y-51862893D01*
X160265470Y-51862890D01*
X160229073Y-51832781D01*
X160224751Y-51828847D01*
X159782087Y-51386182D01*
X159772180Y-51373816D01*
X159771971Y-51373990D01*
X159767003Y-51367984D01*
X159715921Y-51320016D01*
X159694768Y-51298863D01*
X159692792Y-51297331D01*
X159689183Y-51294531D01*
X159684750Y-51290744D01*
X159650321Y-51258414D01*
X159650319Y-51258412D01*
X159632431Y-51248578D01*
X159616170Y-51237897D01*
X159600039Y-51225384D01*
X159556693Y-51206627D01*
X159551445Y-51204056D01*
X159524022Y-51188981D01*
X159510060Y-51181305D01*
X159506660Y-51180432D01*
X159490287Y-51176228D01*
X159471881Y-51169926D01*
X159453144Y-51161818D01*
X159453146Y-51161818D01*
X159406496Y-51154430D01*
X159400781Y-51153246D01*
X159380612Y-51148068D01*
X159355032Y-51141500D01*
X159355030Y-51141500D01*
X159334616Y-51141500D01*
X159315217Y-51139973D01*
X159295058Y-51136780D01*
X159295057Y-51136780D01*
X159248034Y-51141225D01*
X159242196Y-51141500D01*
X155808634Y-51141500D01*
X155792886Y-51139761D01*
X155792861Y-51140032D01*
X155785094Y-51139298D01*
X155785091Y-51139298D01*
X155715042Y-51141500D01*
X155685137Y-51141500D01*
X155678143Y-51142384D01*
X155672320Y-51142842D01*
X155625112Y-51144326D01*
X155625109Y-51144327D01*
X155605506Y-51150022D01*
X155586458Y-51153966D01*
X155566203Y-51156526D01*
X155552834Y-51161819D01*
X155522285Y-51173913D01*
X155516759Y-51175805D01*
X155471407Y-51188981D01*
X155453833Y-51199374D01*
X155436372Y-51207928D01*
X155417386Y-51215446D01*
X155417384Y-51215447D01*
X155379172Y-51243208D01*
X155374290Y-51246415D01*
X155333637Y-51270457D01*
X155319201Y-51284894D01*
X155304415Y-51297523D01*
X155287893Y-51309528D01*
X155287891Y-51309530D01*
X155287890Y-51309531D01*
X155257786Y-51345918D01*
X155253854Y-51350240D01*
X155111177Y-51492916D01*
X155098821Y-51502816D01*
X155098994Y-51503025D01*
X155092985Y-51507996D01*
X155045015Y-51559079D01*
X155023872Y-51580222D01*
X155023857Y-51580239D01*
X155019531Y-51585814D01*
X155015747Y-51590244D01*
X154983419Y-51624671D01*
X154983412Y-51624681D01*
X154973579Y-51642567D01*
X154962903Y-51658820D01*
X154950386Y-51674957D01*
X154950385Y-51674959D01*
X154931625Y-51718310D01*
X154929055Y-51723556D01*
X154906303Y-51764941D01*
X154906303Y-51764942D01*
X154901225Y-51784720D01*
X154894925Y-51803122D01*
X154886818Y-51821857D01*
X154879431Y-51868495D01*
X154878246Y-51874216D01*
X154866500Y-51919965D01*
X154866500Y-51940384D01*
X154864973Y-51959783D01*
X154861780Y-51979941D01*
X154861780Y-51979942D01*
X154866225Y-52026966D01*
X154866500Y-52032804D01*
X154866500Y-52300500D01*
X154846815Y-52367539D01*
X154794011Y-52413294D01*
X154742500Y-52424500D01*
X154682272Y-52424500D01*
X154569764Y-52439313D01*
X154569763Y-52439313D01*
X154429769Y-52497300D01*
X154429766Y-52497302D01*
X154380580Y-52535044D01*
X154315411Y-52560238D01*
X154246966Y-52546199D01*
X154196976Y-52497385D01*
X154195736Y-52495122D01*
X154146381Y-52402786D01*
X154146379Y-52402784D01*
X154018292Y-52246707D01*
X153862215Y-52118620D01*
X153862209Y-52118615D01*
X153684150Y-52023441D01*
X153540000Y-51979712D01*
X153540000Y-52783889D01*
X153515543Y-52744390D01*
X153426038Y-52676799D01*
X153318160Y-52646105D01*
X153206479Y-52656454D01*
X153106078Y-52706448D01*
X153040000Y-52778930D01*
X153040000Y-51979712D01*
X152895849Y-52023441D01*
X152717790Y-52118615D01*
X152717784Y-52118620D01*
X152561707Y-52246707D01*
X152433620Y-52402784D01*
X152433615Y-52402790D01*
X152338443Y-52580845D01*
X152279829Y-52774067D01*
X152265000Y-52924642D01*
X152265000Y-53250000D01*
X152990000Y-53250000D01*
X152990000Y-53750000D01*
X152265000Y-53750000D01*
X152265000Y-54075357D01*
X152279829Y-54225932D01*
X152338443Y-54419154D01*
X152433615Y-54597209D01*
X152433620Y-54597215D01*
X152561707Y-54753292D01*
X152717784Y-54881379D01*
X152717790Y-54881384D01*
X152895846Y-54976557D01*
X153040000Y-55020285D01*
X153040000Y-54216110D01*
X153064457Y-54255610D01*
X153153962Y-54323201D01*
X153261840Y-54353895D01*
X153373521Y-54343546D01*
X153473922Y-54293552D01*
X153540000Y-54221069D01*
X153540000Y-55042557D01*
X153543840Y-55047639D01*
X153549137Y-55117308D01*
X153545785Y-55129812D01*
X153528497Y-55183020D01*
X153516458Y-55220072D01*
X153496496Y-55410000D01*
X153516458Y-55599928D01*
X153516459Y-55599931D01*
X153575470Y-55781549D01*
X153575473Y-55781556D01*
X153670960Y-55946944D01*
X153767500Y-56054163D01*
X153791382Y-56080687D01*
X153798747Y-56088866D01*
X153953248Y-56201118D01*
X154127712Y-56278794D01*
X154314513Y-56318500D01*
X154505487Y-56318500D01*
X154692288Y-56278794D01*
X154866752Y-56201118D01*
X155021253Y-56088866D01*
X155149040Y-55946944D01*
X155244527Y-55781556D01*
X155303542Y-55599928D01*
X155323504Y-55410000D01*
X155311465Y-55295459D01*
X155324034Y-55226732D01*
X155371766Y-55175708D01*
X155434786Y-55158500D01*
X155558638Y-55158500D01*
X155561120Y-55158233D01*
X155596745Y-55154404D01*
X155623255Y-55154404D01*
X155661343Y-55158498D01*
X155661362Y-55158500D01*
X156058638Y-55158500D01*
X156061120Y-55158233D01*
X156096745Y-55154404D01*
X156123252Y-55154403D01*
X156133341Y-55155487D01*
X156140752Y-55156284D01*
X156205304Y-55183020D01*
X156245153Y-55240412D01*
X156251500Y-55279574D01*
X156251500Y-55586587D01*
X156231815Y-55653626D01*
X156215181Y-55674269D01*
X156150796Y-55738652D01*
X156144694Y-55744004D01*
X156116013Y-55766012D01*
X156091522Y-55797929D01*
X156018477Y-55893122D01*
X155996348Y-55946543D01*
X155969470Y-55986767D01*
X155875552Y-56080686D01*
X155875544Y-56080696D01*
X155790855Y-56223898D01*
X155790853Y-56223903D01*
X155744438Y-56383664D01*
X155744437Y-56383670D01*
X155741500Y-56420995D01*
X155741500Y-56876000D01*
X155721815Y-56943039D01*
X155669011Y-56988794D01*
X155617500Y-57000000D01*
X153937328Y-57000000D01*
X153877580Y-56984656D01*
X153867927Y-56979348D01*
X153848638Y-56966238D01*
X153842147Y-56960869D01*
X153842144Y-56960866D01*
X153789508Y-56936098D01*
X153786037Y-56934329D01*
X153735063Y-56906306D01*
X153735060Y-56906305D01*
X153726892Y-56904207D01*
X153704944Y-56896305D01*
X153697320Y-56892717D01*
X153697312Y-56892715D01*
X153640191Y-56881819D01*
X153636391Y-56880969D01*
X153580034Y-56866500D01*
X153580030Y-56866500D01*
X153571605Y-56866500D01*
X153548374Y-56864304D01*
X153540096Y-56862725D01*
X153540092Y-56862725D01*
X153531042Y-56863294D01*
X153482019Y-56866378D01*
X153478147Y-56866500D01*
X152979020Y-56866500D01*
X152911981Y-56846815D01*
X152866226Y-56794011D01*
X152862839Y-56785834D01*
X152850889Y-56753796D01*
X152763261Y-56636739D01*
X152646204Y-56549111D01*
X152509203Y-56498011D01*
X152448654Y-56491500D01*
X152448638Y-56491500D01*
X151624000Y-56491500D01*
X151556961Y-56471815D01*
X151511206Y-56419011D01*
X151500000Y-56367500D01*
X151500000Y-52822876D01*
X151519685Y-52755837D01*
X151551112Y-52722561D01*
X151611253Y-52678866D01*
X151613115Y-52676799D01*
X151640751Y-52646105D01*
X151739040Y-52536944D01*
X151834527Y-52371556D01*
X151893542Y-52189928D01*
X151913504Y-52000000D01*
X151893542Y-51810072D01*
X151834527Y-51628444D01*
X151796164Y-51561998D01*
X151779692Y-51494101D01*
X151796164Y-51438001D01*
X151834527Y-51371556D01*
X151893542Y-51189928D01*
X151913504Y-51000000D01*
X151893542Y-50810072D01*
X151834527Y-50628444D01*
X151739040Y-50463056D01*
X151611253Y-50321134D01*
X151611249Y-50321131D01*
X151551114Y-50277439D01*
X151508448Y-50222109D01*
X151500000Y-50177122D01*
X151500000Y-49870713D01*
X152290000Y-49870713D01*
X152305418Y-50022338D01*
X152366299Y-50216381D01*
X152366304Y-50216391D01*
X152465005Y-50394215D01*
X152465005Y-50394216D01*
X152597478Y-50548530D01*
X152597479Y-50548531D01*
X152758304Y-50673018D01*
X152940907Y-50762589D01*
X153040000Y-50788244D01*
X153040000Y-49886110D01*
X153064457Y-49925610D01*
X153153962Y-49993201D01*
X153261840Y-50023895D01*
X153373521Y-50013546D01*
X153473922Y-49963552D01*
X153540000Y-49891069D01*
X153540000Y-50793366D01*
X153541944Y-50793069D01*
X153541945Y-50793069D01*
X153732660Y-50722436D01*
X153732664Y-50722434D01*
X153905267Y-50614850D01*
X154052668Y-50474735D01*
X154052669Y-50474733D01*
X154168856Y-50307804D01*
X154249059Y-50120907D01*
X154290000Y-49921690D01*
X154290000Y-49870713D01*
X160930000Y-49870713D01*
X160945418Y-50022338D01*
X161006299Y-50216381D01*
X161006304Y-50216391D01*
X161105005Y-50394215D01*
X161105005Y-50394216D01*
X161237478Y-50548530D01*
X161237479Y-50548531D01*
X161398304Y-50673018D01*
X161580907Y-50762589D01*
X161680000Y-50788244D01*
X161680000Y-49886110D01*
X161704457Y-49925610D01*
X161793962Y-49993201D01*
X161901840Y-50023895D01*
X162013521Y-50013546D01*
X162113922Y-49963552D01*
X162180000Y-49891069D01*
X162180000Y-50793366D01*
X162181944Y-50793069D01*
X162181945Y-50793069D01*
X162372660Y-50722436D01*
X162372664Y-50722434D01*
X162545267Y-50614850D01*
X162692668Y-50474735D01*
X162692669Y-50474733D01*
X162808856Y-50307804D01*
X162889059Y-50120907D01*
X162930000Y-49921690D01*
X162930000Y-49570000D01*
X162230000Y-49570000D01*
X162230000Y-49070000D01*
X162930000Y-49070000D01*
X162930000Y-48769286D01*
X162914581Y-48617661D01*
X162853700Y-48423618D01*
X162853695Y-48423608D01*
X162754994Y-48245784D01*
X162754994Y-48245783D01*
X162622521Y-48091469D01*
X162622520Y-48091468D01*
X162461695Y-47966981D01*
X162279093Y-47877411D01*
X162180000Y-47851753D01*
X162180000Y-48753889D01*
X162155543Y-48714390D01*
X162066038Y-48646799D01*
X161958160Y-48616105D01*
X161846479Y-48626454D01*
X161746078Y-48676448D01*
X161680000Y-48748930D01*
X161680000Y-47846633D01*
X161678053Y-47846931D01*
X161678047Y-47846933D01*
X161487342Y-47917562D01*
X161487335Y-47917565D01*
X161314732Y-48025149D01*
X161167331Y-48165264D01*
X161167330Y-48165266D01*
X161051143Y-48332195D01*
X160970940Y-48519092D01*
X160930000Y-48718309D01*
X160930000Y-49070000D01*
X161630000Y-49070000D01*
X161630000Y-49570000D01*
X160930000Y-49570000D01*
X160930000Y-49870713D01*
X154290000Y-49870713D01*
X154290000Y-49570000D01*
X153590000Y-49570000D01*
X153590000Y-49070000D01*
X154290000Y-49070000D01*
X154290000Y-48769286D01*
X154274581Y-48617661D01*
X154213700Y-48423618D01*
X154213695Y-48423608D01*
X154114994Y-48245784D01*
X154114994Y-48245783D01*
X153982521Y-48091469D01*
X153982520Y-48091468D01*
X153821695Y-47966981D01*
X153639093Y-47877411D01*
X153540000Y-47851753D01*
X153540000Y-48753889D01*
X153515543Y-48714390D01*
X153426038Y-48646799D01*
X153318160Y-48616105D01*
X153206479Y-48626454D01*
X153106078Y-48676448D01*
X153040000Y-48748930D01*
X153040000Y-47846633D01*
X153038053Y-47846931D01*
X153038047Y-47846933D01*
X152847342Y-47917562D01*
X152847335Y-47917565D01*
X152674732Y-48025149D01*
X152527331Y-48165264D01*
X152527330Y-48165266D01*
X152411143Y-48332195D01*
X152330940Y-48519092D01*
X152290000Y-48718309D01*
X152290000Y-49070000D01*
X152990000Y-49070000D01*
X152990000Y-49570000D01*
X152290000Y-49570000D01*
X152290000Y-49870713D01*
X151500000Y-49870713D01*
X151500000Y-46323501D01*
X151519685Y-46256462D01*
X151572489Y-46210707D01*
X151624000Y-46199501D01*
X163376000Y-46199501D01*
X163443039Y-46219186D01*
G37*
%TD.AperFunction*%
%TD*%
M02*
