M48
; DRILL file {KiCad 7.0.8} date 2023 October 18, Wednesday 22:01:19
; FORMAT={-:-/ absolute / inch / decimal}
; #@! TF.CreationDate,2023-10-18T22:01:19+02:00
; #@! TF.GenerationSoftware,Kicad,Pcbnew,7.0.8
; #@! TF.FileFunction,NonPlated,1,2,NPTH
FMAT,2
INCH
; #@! TA.AperFunction,NonPlated,NPTH,ComponentDrill
T1C0.0256
; #@! TA.AperFunction,NonPlated,NPTH,ComponentDrill
T2C0.0492
; #@! TA.AperFunction,NonPlated,NPTH,ComponentDrill
T3C0.0670
; #@! TA.AperFunction,NonPlated,NPTH,ComponentDrill
T4C0.1181
; #@! TA.AperFunction,NonPlated,NPTH,ComponentDrill
T5C0.1260
; #@! TA.AperFunction,NonPlated,NPTH,ComponentDrill
T6C0.1570
%
G90
G05
T1
X6.0913Y-2.0866
X6.3189Y-2.0866
T2
X5.4291Y-3.7953
T3
X1.2474Y-2.6698
X1.351Y-2.2835
X1.6373Y-3.3414
X1.8302Y-2.6169
X2.0234Y-1.8931
X2.0236Y-3.4449
X2.2165Y-2.7205
X2.4097Y-1.9966
X2.484Y-3.1057
X2.6769Y-2.3813
X2.8704Y-3.2092
X2.8735Y-1.6563
X3.0633Y-2.4848
X3.2036Y-4.099
X3.2598Y-1.7598
X3.3071Y-3.7126
X3.3105Y-2.9477
X3.5034Y-2.2232
X3.6963Y-1.5028
X3.6969Y-3.0512
X3.8898Y-2.3268
X3.9207Y-4.3217
X3.9601Y-3.4988
X4.0827Y-1.6063
X4.1568Y-2.7482
X4.3071Y-4.4252
X4.3462Y-2.0545
X4.3465Y-3.6024
X4.5432Y-2.8518
X4.7326Y-2.1581
X4.7793Y-3.3301
X4.7902Y-4.7683
X4.8937Y-4.3819
X4.9722Y-2.6057
X5.1656Y-3.4337
X5.3585Y-2.7092
X5.5197Y-4.9606
X5.6232Y-4.5743
X6.7789Y-4.5785
X6.8825Y-4.9648
X7.0467Y-2.7138
X7.2359Y-3.4376
X7.4331Y-2.6102
X7.5039Y-4.3819
X7.6075Y-4.7683
X7.6223Y-3.3341
X7.6651Y-2.1581
X7.8619Y-2.8785
X8.0515Y-2.0545
X8.0546Y-3.5996
X8.0939Y-4.4264
X8.2483Y-2.775
X8.3184Y-1.6075
X8.4409Y-3.4961
X8.4803Y-4.3228
X8.5115Y-2.3313
X8.7047Y-1.5039
X8.7068Y-3.0518
X8.8979Y-2.2278
X9.0894Y-3.7121
X9.0932Y-2.9482
X9.1451Y-1.761
X9.1929Y-4.0984
X9.3383Y-2.4848
X9.5312Y-3.2092
X9.5315Y-1.6575
X9.7247Y-2.3813
X9.9176Y-3.1057
X9.9879Y-2.0006
X10.1848Y-2.7211
X10.3743Y-1.8971
X10.378Y-3.4449
X10.5711Y-2.6175
X10.7643Y-3.3414
X11.05Y-2.2829
X11.1535Y-2.6693
T4
X1.1319Y-2.3283
X1.1638Y-2.5957
X1.7114Y-3.2577
X1.9043Y-2.5333
X1.9788Y-3.2258
X2.0975Y-1.8095
X2.1717Y-2.5014
X2.3649Y-1.7776
X2.5582Y-3.0221
X2.7511Y-2.2977
X2.8255Y-2.9902
X2.9477Y-1.5727
X3.0184Y-2.2658
X3.088Y-3.7574
X3.1199Y-4.0248
X3.215Y-1.5408
X3.3847Y-2.864
X3.5776Y-2.1396
X3.652Y-2.8321
X3.7705Y-1.4191
X3.8449Y-2.1077
X3.9949Y-4.238
X4.0343Y-3.4152
X4.0378Y-1.3872
X4.231Y-2.6646
X4.2623Y-4.2061
X4.3016Y-3.3833
X4.4204Y-1.9709
X4.4984Y-2.6327
X4.6746Y-4.4267
X4.6877Y-1.939
X4.7065Y-4.6941
X4.8534Y-3.2465
X5.0463Y-2.5221
X5.1208Y-3.2146
X5.3137Y-2.4902
X5.4041Y-4.6191
X5.436Y-4.8865
X6.8885Y-4.6009
X7.0498Y-4.8165
X7.0691Y-2.6042
X7.2584Y-3.3281
X7.2847Y-2.4429
X7.474Y-3.1668
X7.6135Y-4.4043
X7.6875Y-2.0485
X7.7748Y-4.6199
X7.8843Y-2.769
X7.9031Y-1.8872
X8.077Y-3.4901
X8.0999Y-2.6077
X8.1164Y-4.3168
X8.2926Y-3.3288
X8.332Y-4.1555
X8.3408Y-1.4979
X8.534Y-2.2218
X8.5564Y-1.3366
X8.7292Y-2.9422
X8.7496Y-2.0605
X8.9448Y-2.7809
X9.1675Y-1.6515
X9.1989Y-3.7345
X9.3602Y-3.9501
X9.3607Y-2.3753
X9.3831Y-1.4902
X9.5536Y-3.0997
X9.5763Y-2.214
X9.7692Y-2.9384
X10.0103Y-1.891
X10.2072Y-2.6115
X10.2259Y-1.7298
X10.4004Y-3.3353
X10.4228Y-2.4502
X10.616Y-3.1741
X11.1595Y-2.3053
X11.3208Y-2.5209
T5
X1.6732Y-2.0118
X2.5394Y-3.6299
X3.4449Y-1.3031
X4.7835Y-5.0079
X5.2559Y-2.1339
X7.1457Y-2.1339
X7.6181Y-5.0079
X8.9567Y-1.3071
X9.8622Y-3.6299
X10.7283Y-2.0118
T6
X1.2992Y-2.4766
X1.8304Y-3.3931
X2.0234Y-2.6687
X2.2165Y-1.9449
X2.6772Y-3.1575
X2.8701Y-2.4331
X3.0667Y-1.7081
X3.2553Y-3.9058
X3.5037Y-2.9994
X3.6966Y-2.275
X3.8895Y-1.5545
X4.1139Y-4.3734
X4.1533Y-3.5506
X4.35Y-2.8
X4.5394Y-2.1063
X4.8419Y-4.5751
X4.9724Y-3.3819
X5.1654Y-2.6575
X5.5714Y-4.7674
X6.8307Y-4.7717
X7.2399Y-2.662
X7.4291Y-3.3858
X7.5557Y-4.5751
X7.8583Y-2.1063
X8.0551Y-2.8268
X8.2478Y-3.5478
X8.2871Y-4.3746
X8.5115Y-1.5557
X8.7047Y-2.2795
X8.9Y-3.0
X9.1411Y-3.9052
X9.3383Y-1.7092
X9.5315Y-2.4331
X9.7244Y-3.1575
X10.1811Y-1.9488
X10.378Y-2.6693
X10.5711Y-3.3931
X11.1018Y-2.4761
T0
M30
