%TF.GenerationSoftware,KiCad,Pcbnew,(6.0.7-1)-1*%
%TF.CreationDate,2022-12-23T00:58:57+01:00*%
%TF.ProjectId,acacia,61636163-6961-42e6-9b69-6361645f7063,rev?*%
%TF.SameCoordinates,Original*%
%TF.FileFunction,Legend,Top*%
%TF.FilePolarity,Positive*%
%FSLAX46Y46*%
G04 Gerber Fmt 4.6, Leading zero omitted, Abs format (unit mm)*
G04 Created by KiCad (PCBNEW (6.0.7-1)-1) date 2022-12-23 00:58:57*
%MOMM*%
%LPD*%
G01*
G04 APERTURE LIST*
%ADD10C,0.150000*%
%ADD11C,0.300000*%
G04 APERTURE END LIST*
D10*
X159285714Y-142742619D02*
X159333333Y-142695000D01*
X159428571Y-142647380D01*
X159666666Y-142647380D01*
X159761904Y-142695000D01*
X159809523Y-142742619D01*
X159857142Y-142837857D01*
X159857142Y-142933095D01*
X159809523Y-143075952D01*
X159238095Y-143647380D01*
X159857142Y-143647380D01*
X160476190Y-142647380D02*
X160571428Y-142647380D01*
X160666666Y-142695000D01*
X160714285Y-142742619D01*
X160761904Y-142837857D01*
X160809523Y-143028333D01*
X160809523Y-143266428D01*
X160761904Y-143456904D01*
X160714285Y-143552142D01*
X160666666Y-143599761D01*
X160571428Y-143647380D01*
X160476190Y-143647380D01*
X160380952Y-143599761D01*
X160333333Y-143552142D01*
X160285714Y-143456904D01*
X160238095Y-143266428D01*
X160238095Y-143028333D01*
X160285714Y-142837857D01*
X160333333Y-142742619D01*
X160380952Y-142695000D01*
X160476190Y-142647380D01*
X161190476Y-142742619D02*
X161238095Y-142695000D01*
X161333333Y-142647380D01*
X161571428Y-142647380D01*
X161666666Y-142695000D01*
X161714285Y-142742619D01*
X161761904Y-142837857D01*
X161761904Y-142933095D01*
X161714285Y-143075952D01*
X161142857Y-143647380D01*
X161761904Y-143647380D01*
X162142857Y-142742619D02*
X162190476Y-142695000D01*
X162285714Y-142647380D01*
X162523809Y-142647380D01*
X162619047Y-142695000D01*
X162666666Y-142742619D01*
X162714285Y-142837857D01*
X162714285Y-142933095D01*
X162666666Y-143075952D01*
X162095238Y-143647380D01*
X162714285Y-143647380D01*
X158095238Y-144590714D02*
X158095238Y-145447857D01*
X158047619Y-145543095D01*
X157952380Y-145590714D01*
X157904761Y-145590714D01*
X158095238Y-144257380D02*
X158047619Y-144305000D01*
X158095238Y-144352619D01*
X158142857Y-144305000D01*
X158095238Y-144257380D01*
X158095238Y-144352619D01*
X158571428Y-144590714D02*
X158571428Y-145590714D01*
X158571428Y-144638333D02*
X158666666Y-144590714D01*
X158857142Y-144590714D01*
X158952380Y-144638333D01*
X159000000Y-144685952D01*
X159047619Y-144781190D01*
X159047619Y-145066904D01*
X159000000Y-145162142D01*
X158952380Y-145209761D01*
X158857142Y-145257380D01*
X158666666Y-145257380D01*
X158571428Y-145209761D01*
X159428571Y-145209761D02*
X159523809Y-145257380D01*
X159714285Y-145257380D01*
X159809523Y-145209761D01*
X159857142Y-145114523D01*
X159857142Y-145066904D01*
X159809523Y-144971666D01*
X159714285Y-144924047D01*
X159571428Y-144924047D01*
X159476190Y-144876428D01*
X159428571Y-144781190D01*
X159428571Y-144733571D01*
X159476190Y-144638333D01*
X159571428Y-144590714D01*
X159714285Y-144590714D01*
X159809523Y-144638333D01*
X160666666Y-145209761D02*
X160571428Y-145257380D01*
X160380952Y-145257380D01*
X160285714Y-145209761D01*
X160238095Y-145114523D01*
X160238095Y-144733571D01*
X160285714Y-144638333D01*
X160380952Y-144590714D01*
X160571428Y-144590714D01*
X160666666Y-144638333D01*
X160714285Y-144733571D01*
X160714285Y-144828809D01*
X160238095Y-144924047D01*
X161571428Y-145209761D02*
X161476190Y-145257380D01*
X161285714Y-145257380D01*
X161190476Y-145209761D01*
X161142857Y-145162142D01*
X161095238Y-145066904D01*
X161095238Y-144781190D01*
X161142857Y-144685952D01*
X161190476Y-144638333D01*
X161285714Y-144590714D01*
X161476190Y-144590714D01*
X161571428Y-144638333D01*
X162000000Y-145257380D02*
X162000000Y-144257380D01*
X162428571Y-145257380D02*
X162428571Y-144733571D01*
X162380952Y-144638333D01*
X162285714Y-144590714D01*
X162142857Y-144590714D01*
X162047619Y-144638333D01*
X162000000Y-144685952D01*
X163285714Y-145209761D02*
X163190476Y-145257380D01*
X163000000Y-145257380D01*
X162904761Y-145209761D01*
X162857142Y-145114523D01*
X162857142Y-144733571D01*
X162904761Y-144638333D01*
X163000000Y-144590714D01*
X163190476Y-144590714D01*
X163285714Y-144638333D01*
X163333333Y-144733571D01*
X163333333Y-144828809D01*
X162857142Y-144924047D01*
X163761904Y-145257380D02*
X163761904Y-144590714D01*
X163761904Y-144781190D02*
X163809523Y-144685952D01*
X163857142Y-144638333D01*
X163952380Y-144590714D01*
X164047619Y-144590714D01*
D11*
X154285714Y-140000000D02*
X155714285Y-140000000D01*
X154000000Y-140857142D02*
X155000000Y-137857142D01*
X156000000Y-140857142D01*
X158285714Y-140714285D02*
X158000000Y-140857142D01*
X157428571Y-140857142D01*
X157142857Y-140714285D01*
X157000000Y-140571428D01*
X156857142Y-140285714D01*
X156857142Y-139428571D01*
X157000000Y-139142857D01*
X157142857Y-139000000D01*
X157428571Y-138857142D01*
X158000000Y-138857142D01*
X158285714Y-139000000D01*
X160857142Y-140857142D02*
X160857142Y-139285714D01*
X160714285Y-139000000D01*
X160428571Y-138857142D01*
X159857142Y-138857142D01*
X159571428Y-139000000D01*
X160857142Y-140714285D02*
X160571428Y-140857142D01*
X159857142Y-140857142D01*
X159571428Y-140714285D01*
X159428571Y-140428571D01*
X159428571Y-140142857D01*
X159571428Y-139857142D01*
X159857142Y-139714285D01*
X160571428Y-139714285D01*
X160857142Y-139571428D01*
X163571428Y-140714285D02*
X163285714Y-140857142D01*
X162714285Y-140857142D01*
X162428571Y-140714285D01*
X162285714Y-140571428D01*
X162142857Y-140285714D01*
X162142857Y-139428571D01*
X162285714Y-139142857D01*
X162428571Y-139000000D01*
X162714285Y-138857142D01*
X163285714Y-138857142D01*
X163571428Y-139000000D01*
X164857142Y-140857142D02*
X164857142Y-138857142D01*
X164857142Y-137857142D02*
X164714285Y-138000000D01*
X164857142Y-138142857D01*
X165000000Y-138000000D01*
X164857142Y-137857142D01*
X164857142Y-138142857D01*
X167571428Y-140857142D02*
X167571428Y-139285714D01*
X167428571Y-139000000D01*
X167142857Y-138857142D01*
X166571428Y-138857142D01*
X166285714Y-139000000D01*
X167571428Y-140714285D02*
X167285714Y-140857142D01*
X166571428Y-140857142D01*
X166285714Y-140714285D01*
X166142857Y-140428571D01*
X166142857Y-140142857D01*
X166285714Y-139857142D01*
X166571428Y-139714285D01*
X167285714Y-139714285D01*
X167571428Y-139571428D01*
M02*
