%TF.GenerationSoftware,KiCad,Pcbnew,(6.0.7-1)-1*%
%TF.CreationDate,2022-12-23T00:58:57+01:00*%
%TF.ProjectId,acacia,61636163-6961-42e6-9b69-6361645f7063,rev?*%
%TF.SameCoordinates,Original*%
%TF.FileFunction,Soldermask,Bot*%
%TF.FilePolarity,Negative*%
%FSLAX46Y46*%
G04 Gerber Fmt 4.6, Leading zero omitted, Abs format (unit mm)*
G04 Created by KiCad (PCBNEW (6.0.7-1)-1) date 2022-12-23 00:58:57*
%MOMM*%
%LPD*%
G01*
G04 APERTURE LIST*
G04 Aperture macros list*
%AMRoundRect*
0 Rectangle with rounded corners*
0 $1 Rounding radius*
0 $2 $3 $4 $5 $6 $7 $8 $9 X,Y pos of 4 corners*
0 Add a 4 corners polygon primitive as box body*
4,1,4,$2,$3,$4,$5,$6,$7,$8,$9,$2,$3,0*
0 Add four circle primitives for the rounded corners*
1,1,$1+$1,$2,$3*
1,1,$1+$1,$4,$5*
1,1,$1+$1,$6,$7*
1,1,$1+$1,$8,$9*
0 Add four rect primitives between the rounded corners*
20,1,$1+$1,$2,$3,$4,$5,0*
20,1,$1+$1,$4,$5,$6,$7,0*
20,1,$1+$1,$6,$7,$8,$9,0*
20,1,$1+$1,$8,$9,$2,$3,0*%
G04 Aperture macros list end*
%ADD10C,3.200000*%
%ADD11C,3.000000*%
%ADD12C,1.701800*%
%ADD13C,3.987800*%
%ADD14RoundRect,0.200000X-0.530532X-1.405938X1.418030X-0.497309X0.530532X1.405938X-1.418030X0.497309X0*%
%ADD15RoundRect,0.200000X-1.399810X-0.546494X0.579275X-1.386566X1.399810X0.546494X-0.579275X1.386566X0*%
%ADD16RoundRect,0.200000X-1.310130X-0.735992X0.766610X-1.292453X1.310130X0.735992X-0.766610X1.292453X0*%
%ADD17RoundRect,0.200000X-1.369291X-0.619006X0.651048X-1.354349X1.369291X0.619006X-0.651048X1.354349X0*%
%ADD18RoundRect,0.200000X-1.493556X-0.165575X0.200667X-1.489247X1.493556X0.165575X-0.200667X1.489247X0*%
%ADD19RoundRect,0.200000X-0.766610X-1.292453X1.310130X-0.735992X0.766610X1.292453X-1.310130X0.735992X0*%
%ADD20RoundRect,0.200000X-1.418030X-0.497309X0.530532X-1.405938X1.418030X0.497309X-0.530532X1.405938X0*%
%ADD21RoundRect,0.200000X-1.226021X-0.868906X0.897509X-1.205240X1.226021X0.868906X-0.897509X1.205240X0*%
%ADD22RoundRect,0.200000X-0.651048X-1.354349X1.369291X-0.619006X0.651048X1.354349X-1.369291X0.619006X0*%
%ADD23RoundRect,0.200000X-0.579275X-1.386566X1.399810X-0.546494X0.579275X1.386566X-1.399810X0.546494X0*%
%ADD24RoundRect,0.200000X-1.502602X0.017678X0.017678X-1.502602X1.502602X-0.017678X-0.017678X1.502602X0*%
%ADD25RoundRect,0.200000X-0.431166X-1.439521X1.449266X-0.397180X0.431166X1.439521X-1.449266X0.397180X0*%
%ADD26RoundRect,0.200000X-0.897509X-1.205240X1.226021X-0.868906X0.897509X1.205240X-1.226021X0.868906X0*%
%ADD27RoundRect,0.200000X-1.449266X-0.397180X0.431166X-1.439521X1.449266X0.397180X-0.431166X1.439521X0*%
%ADD28RoundRect,0.200000X-0.017678X-1.502602X1.502602X0.017678X0.017678X1.502602X-1.502602X-0.017678X0*%
%ADD29RoundRect,0.200000X-0.200667X-1.489247X1.493556X-0.165575X0.200667X1.489247X-1.493556X0.165575X0*%
%ADD30RoundRect,0.250000X0.450000X-0.325000X0.450000X0.325000X-0.450000X0.325000X-0.450000X-0.325000X0*%
%ADD31RoundRect,0.250000X-0.475000X0.337500X-0.475000X-0.337500X0.475000X-0.337500X0.475000X0.337500X0*%
%ADD32R,2.000000X4.500000*%
%ADD33R,1.000000X1.000000*%
%ADD34RoundRect,0.250000X-0.337500X-0.475000X0.337500X-0.475000X0.337500X0.475000X-0.337500X0.475000X0*%
%ADD35RoundRect,0.250000X-0.450000X0.325000X-0.450000X-0.325000X0.450000X-0.325000X0.450000X0.325000X0*%
%ADD36RoundRect,0.250000X-0.450000X0.350000X-0.450000X-0.350000X0.450000X-0.350000X0.450000X0.350000X0*%
%ADD37RoundRect,0.250000X-0.325000X-0.450000X0.325000X-0.450000X0.325000X0.450000X-0.325000X0.450000X0*%
%ADD38RoundRect,0.025500X-0.229500X-0.354500X0.229500X-0.354500X0.229500X0.354500X-0.229500X0.354500X0*%
%ADD39RoundRect,0.250000X-1.075000X0.400000X-1.075000X-0.400000X1.075000X-0.400000X1.075000X0.400000X0*%
%ADD40R,3.200000X1.000000*%
%ADD41RoundRect,0.250000X0.450000X-0.350000X0.450000X0.350000X-0.450000X0.350000X-0.450000X-0.350000X0*%
%ADD42RoundRect,0.250000X0.325000X0.450000X-0.325000X0.450000X-0.325000X-0.450000X0.325000X-0.450000X0*%
%ADD43RoundRect,0.150000X-0.150000X0.512500X-0.150000X-0.512500X0.150000X-0.512500X0.150000X0.512500X0*%
%ADD44RoundRect,0.250000X0.475000X-0.337500X0.475000X0.337500X-0.475000X0.337500X-0.475000X-0.337500X0*%
%ADD45R,0.600000X1.100000*%
%ADD46R,0.300000X1.100000*%
%ADD47C,2.280000*%
%ADD48C,2.850000*%
%ADD49R,1.600000X0.550000*%
%ADD50R,0.550000X1.600000*%
%ADD51RoundRect,0.250000X0.412500X0.650000X-0.412500X0.650000X-0.412500X-0.650000X0.412500X-0.650000X0*%
%ADD52RoundRect,0.250000X0.350000X0.450000X-0.350000X0.450000X-0.350000X-0.450000X0.350000X-0.450000X0*%
%ADD53RoundRect,0.250000X0.337500X0.475000X-0.337500X0.475000X-0.337500X-0.475000X0.337500X-0.475000X0*%
G04 APERTURE END LIST*
D10*
%TO.C,H6*%
X48000000Y-58500000D03*
%TD*%
D11*
%TO.C,SW29*%
X187223517Y-105308154D03*
D12*
X196354044Y-103853099D03*
X187145956Y-108146901D03*
D13*
X191750000Y-106000000D03*
D11*
X191905121Y-100322506D03*
D14*
X184255359Y-106692229D03*
X194897749Y-98927021D03*
%TD*%
D12*
%TO.C,SW10*%
X89897670Y-90280172D03*
D11*
X92059169Y-88438318D03*
X98896831Y-88581378D03*
D13*
X94573835Y-92265086D03*
D12*
X99250000Y-94250000D03*
D15*
X89044515Y-87158674D03*
X101936338Y-89871573D03*
%TD*%
D10*
%TO.C,H9*%
X123000000Y-119500000D03*
%TD*%
D11*
%TO.C,SW1*%
X52977223Y-80560448D03*
D13*
X56000000Y-84000000D03*
D12*
X60906903Y-85314801D03*
D11*
X59768252Y-79750497D03*
D12*
X51093097Y-82685199D03*
D16*
X49813816Y-79712815D03*
X62957739Y-80605118D03*
%TD*%
D12*
%TO.C,SW6*%
X75726361Y-72762538D03*
X85273639Y-76237462D03*
D11*
X77788502Y-70810084D03*
X84624282Y-70595093D03*
D13*
X80500000Y-74500000D03*
D17*
X74711009Y-69689968D03*
X87727147Y-71724443D03*
%TD*%
D12*
%TO.C,SW41*%
X179145956Y-90896901D03*
D11*
X179223517Y-88058154D03*
D12*
X188354044Y-86603099D03*
D13*
X183750000Y-88750000D03*
D11*
X183905121Y-83072506D03*
D14*
X176255359Y-89442229D03*
X186897749Y-81677021D03*
%TD*%
D13*
%TO.C,SW4*%
X35000000Y-88250000D03*
D12*
X39906903Y-89564801D03*
D11*
X31977223Y-84810448D03*
D12*
X30093097Y-86935199D03*
D11*
X38768252Y-84000497D03*
D16*
X28813816Y-83962815D03*
X41957739Y-84855118D03*
%TD*%
D12*
%TO.C,SW26*%
X192395956Y-74146901D03*
X201604044Y-69853099D03*
D11*
X197155121Y-66322506D03*
X192473517Y-71308154D03*
D13*
X197000000Y-72000000D03*
D14*
X189505359Y-72692229D03*
X200147749Y-64927021D03*
%TD*%
D11*
%TO.C,SW24*%
X187500000Y-147000000D03*
X194067649Y-148907904D03*
D13*
X188938541Y-151347218D03*
D12*
X192941636Y-154474778D03*
X184935446Y-148219658D03*
D18*
X184919265Y-144983709D03*
X196669660Y-150940818D03*
%TD*%
D13*
%TO.C,SW2*%
X51000000Y-102500000D03*
D12*
X46093097Y-101185199D03*
D11*
X54768252Y-98250497D03*
D12*
X55906903Y-103814801D03*
D11*
X47977223Y-99060448D03*
D16*
X44813816Y-98212815D03*
X57957739Y-99105118D03*
%TD*%
D12*
%TO.C,SW8*%
X104573835Y-55515086D03*
D11*
X113572996Y-53816292D03*
D12*
X113926165Y-59484914D03*
D11*
X106735334Y-53673232D03*
D13*
X109250000Y-57500000D03*
D15*
X103720680Y-52393588D03*
X116612503Y-55106487D03*
%TD*%
D11*
%TO.C,SW30*%
X282662422Y-86782649D03*
D12*
X282093097Y-89564801D03*
D13*
X287000000Y-88250000D03*
D12*
X291906903Y-86935199D03*
D11*
X288138651Y-82685696D03*
D19*
X279499015Y-87630281D03*
X291328138Y-81831076D03*
%TD*%
D11*
%TO.C,SW17*%
X96620418Y-123587803D03*
D12*
X94395956Y-125353099D03*
D13*
X99000000Y-127500000D03*
D12*
X103604044Y-129646901D03*
D11*
X103448923Y-123969407D03*
D20*
X93652260Y-122203728D03*
X106441551Y-125364892D03*
%TD*%
D10*
%TO.C,H8*%
X257000000Y-104500000D03*
%TD*%
D11*
%TO.C,SW14*%
X142698923Y-85219407D03*
D12*
X142854044Y-90896901D03*
D13*
X138250000Y-88750000D03*
D12*
X133645956Y-86603099D03*
D11*
X135870418Y-84837803D03*
D20*
X132902260Y-83453728D03*
X145691551Y-86614892D03*
%TD*%
D11*
%TO.C,SW40*%
X266662422Y-101032649D03*
D12*
X266093097Y-103814801D03*
X275906903Y-101185199D03*
D11*
X272138651Y-96935696D03*
D13*
X271000000Y-102500000D03*
D19*
X263499015Y-101880281D03*
X275328138Y-96081076D03*
%TD*%
D11*
%TO.C,SW27*%
X200473517Y-88558154D03*
D12*
X200395956Y-91396901D03*
D11*
X205155121Y-83572506D03*
D12*
X209604044Y-87103099D03*
D13*
X205000000Y-89250000D03*
D14*
X197505359Y-89942229D03*
X208147749Y-82177021D03*
%TD*%
D10*
%TO.C,H4*%
X65000000Y-104500000D03*
%TD*%
D12*
%TO.C,SW13*%
X104395956Y-104353099D03*
X113604044Y-108646901D03*
D11*
X113448923Y-102969407D03*
X106620418Y-102587803D03*
D13*
X109000000Y-106500000D03*
D20*
X103652260Y-101203728D03*
X116441551Y-104364892D03*
%TD*%
D11*
%TO.C,SW16*%
X68634251Y-116395256D03*
D12*
X66982543Y-118705313D03*
D13*
X72000000Y-119500000D03*
D11*
X75303415Y-114879887D03*
D12*
X77017457Y-120294687D03*
D21*
X65399572Y-115882933D03*
X78564762Y-115396433D03*
%TD*%
D11*
%TO.C,SW35*%
X237051040Y-73416277D03*
D13*
X241500000Y-74500000D03*
D11*
X242149357Y-68857630D03*
D12*
X246273639Y-72762538D03*
X236726361Y-76237462D03*
D22*
X233973547Y-74536393D03*
X245252222Y-67728280D03*
%TD*%
D13*
%TO.C,SW32*%
X220000000Y-75000000D03*
D11*
X220353168Y-69331378D03*
D12*
X215323835Y-76984914D03*
D11*
X215500419Y-74150603D03*
D12*
X224676165Y-73015086D03*
D23*
X212485766Y-75430248D03*
X223392675Y-68041184D03*
%TD*%
D11*
%TO.C,SW23*%
X201101974Y-132009872D03*
X207388154Y-134703949D03*
D13*
X202000000Y-136500000D03*
D12*
X205592102Y-140092102D03*
X198407898Y-132907898D03*
D24*
X198786200Y-129694097D03*
X209723020Y-137038815D03*
%TD*%
D11*
%TO.C,SW28*%
X213155121Y-100822506D03*
X208473517Y-105808154D03*
D13*
X213000000Y-106500000D03*
D12*
X208395956Y-108646901D03*
X217604044Y-104353099D03*
D14*
X205505359Y-107192229D03*
X216147749Y-99427021D03*
%TD*%
D11*
%TO.C,SW48*%
X64518252Y-61500497D03*
D12*
X65656903Y-67064801D03*
D13*
X60750000Y-65750000D03*
D11*
X57727223Y-62310448D03*
D12*
X55843097Y-64435199D03*
D16*
X54563816Y-61462815D03*
X67707739Y-62355118D03*
%TD*%
D10*
%TO.C,H1*%
X197000000Y-56500000D03*
%TD*%
D11*
%TO.C,SW20*%
X143744075Y-162825515D03*
D13*
X143985374Y-168500000D03*
D11*
X139421656Y-168125591D03*
D12*
X148428442Y-166037167D03*
X139542306Y-170962833D03*
D25*
X136557277Y-169713342D03*
X146632069Y-161224674D03*
%TD*%
D11*
%TO.C,SW12*%
X121448923Y-85719407D03*
D12*
X121604044Y-91396901D03*
D13*
X117000000Y-89250000D03*
D11*
X114620418Y-85337803D03*
D12*
X112395956Y-87103099D03*
D20*
X111652260Y-83953728D03*
X124441551Y-87114892D03*
%TD*%
D13*
%TO.C,SW42*%
X282000000Y-70000000D03*
D11*
X283138651Y-64435696D03*
X277662422Y-68532649D03*
D12*
X286906903Y-68685199D03*
X277093097Y-71314801D03*
D19*
X274499015Y-69380281D03*
X286328138Y-63581076D03*
%TD*%
D12*
%TO.C,SW21*%
X244982543Y-120294687D03*
D13*
X250000000Y-119500000D03*
D11*
X245839564Y-117587287D03*
D12*
X255017457Y-118705313D03*
D11*
X251714041Y-114085200D03*
D26*
X242604885Y-118099610D03*
X254975388Y-113568653D03*
%TD*%
D10*
%TO.C,H2*%
X183000000Y-181500000D03*
%TD*%
D12*
%TO.C,SW33*%
X222750000Y-94500000D03*
X232102330Y-90530172D03*
D13*
X227426165Y-92515086D03*
D11*
X227779333Y-86846464D03*
X222926584Y-91665689D03*
D23*
X219911931Y-92945334D03*
X230818840Y-85556270D03*
%TD*%
D12*
%TO.C,SW36*%
X243226361Y-94237462D03*
D11*
X248649357Y-86857630D03*
X243551040Y-91416277D03*
D13*
X248000000Y-92500000D03*
D12*
X252773639Y-90762538D03*
D22*
X240473547Y-92536393D03*
X251752222Y-85728280D03*
%TD*%
D13*
%TO.C,SW34*%
X235000000Y-56750000D03*
D12*
X230226361Y-58487462D03*
D11*
X230551040Y-55666277D03*
X235649357Y-51107630D03*
D12*
X239773639Y-55012538D03*
D22*
X227473547Y-56786393D03*
X238752222Y-49978280D03*
%TD*%
D12*
%TO.C,SW25*%
X173556932Y-166037167D03*
D11*
X182684367Y-165288348D03*
D12*
X182443068Y-170962833D03*
D11*
X175899115Y-164431341D03*
D13*
X178000000Y-168500000D03*
D27*
X173034736Y-162843590D03*
X185572361Y-166889190D03*
%TD*%
D11*
%TO.C,SW18*%
X115509872Y-137398026D03*
X118203949Y-131111846D03*
D12*
X123592102Y-132907898D03*
D13*
X120000000Y-136500000D03*
D12*
X116407898Y-140092102D03*
D28*
X113194097Y-139713800D03*
X120538815Y-128776980D03*
%TD*%
D10*
%TO.C,H3*%
X125000000Y-56500000D03*
%TD*%
D11*
%TO.C,SW7*%
X71288502Y-88810084D03*
X78124282Y-88595093D03*
D12*
X69226361Y-90762538D03*
D13*
X74000000Y-92500000D03*
D12*
X78773639Y-94237462D03*
D17*
X68211009Y-87689968D03*
X81227147Y-89724443D03*
%TD*%
D13*
%TO.C,SW19*%
X133000000Y-151500000D03*
D11*
X128433899Y-151844123D03*
D12*
X128996905Y-154627560D03*
X137003095Y-148372440D03*
D11*
X131873987Y-145933125D03*
D29*
X125853164Y-153860414D03*
X134475999Y-143900211D03*
%TD*%
D11*
%TO.C,SW5*%
X84288502Y-53060084D03*
D13*
X87000000Y-56750000D03*
D12*
X82226361Y-55012538D03*
X91773639Y-58487462D03*
D11*
X91124282Y-52845093D03*
D17*
X81211009Y-51939968D03*
X94227147Y-53974443D03*
%TD*%
D12*
%TO.C,SW39*%
X261093097Y-85314801D03*
X270906903Y-82685199D03*
D11*
X267138651Y-78435696D03*
D13*
X266000000Y-84000000D03*
D11*
X261662422Y-82532649D03*
D19*
X258499015Y-83380281D03*
X270328138Y-77581076D03*
%TD*%
D10*
%TO.C,H7*%
X199000000Y-119500000D03*
%TD*%
D12*
%TO.C,SW11*%
X129604044Y-74146901D03*
D13*
X125000000Y-72000000D03*
D11*
X122620418Y-68087803D03*
X129448923Y-68469407D03*
D12*
X120395956Y-69853099D03*
D20*
X119652260Y-66703728D03*
X132441551Y-69864892D03*
%TD*%
D13*
%TO.C,SW15*%
X130250000Y-105750000D03*
D11*
X134698923Y-102219407D03*
D12*
X134854044Y-107896901D03*
D11*
X127870418Y-101837803D03*
D12*
X125645956Y-103603099D03*
D20*
X124902260Y-100453728D03*
X137691551Y-103614892D03*
%TD*%
D13*
%TO.C,SW38*%
X261250000Y-65750000D03*
D11*
X256912422Y-64282649D03*
D12*
X266156903Y-64435199D03*
X256343097Y-67064801D03*
D11*
X262388651Y-60185696D03*
D19*
X253749015Y-65130281D03*
X265578138Y-59331076D03*
%TD*%
D10*
%TO.C,H5*%
X274000000Y-58500000D03*
%TD*%
D11*
%TO.C,SW3*%
X43768252Y-65750497D03*
D12*
X44906903Y-71314801D03*
X35093097Y-68685199D03*
D11*
X36977223Y-66560448D03*
D13*
X40000000Y-70000000D03*
D16*
X33813816Y-65712815D03*
X46957739Y-66605118D03*
%TD*%
D13*
%TO.C,SW22*%
X223000000Y-127500000D03*
D11*
X218473517Y-126808154D03*
X223155121Y-121822506D03*
D12*
X227604044Y-125353099D03*
X218395956Y-129646901D03*
D14*
X215505359Y-128192229D03*
X226147749Y-120427021D03*
%TD*%
D13*
%TO.C,SW31*%
X212750000Y-57500000D03*
D11*
X213103168Y-51831378D03*
X208250419Y-56650603D03*
D12*
X208073835Y-59484914D03*
X217426165Y-55515086D03*
D23*
X205235766Y-57930248D03*
X216142675Y-50541184D03*
%TD*%
D10*
%TO.C,H10*%
X139000000Y-181500000D03*
%TD*%
D11*
%TO.C,SW9*%
X99485334Y-71173232D03*
X106322996Y-71316292D03*
D13*
X102000000Y-75000000D03*
D12*
X106676165Y-76984914D03*
X97323835Y-73015086D03*
D15*
X96470680Y-69893588D03*
X109362503Y-72606487D03*
%TD*%
D30*
%TO.C,D33*%
X223500000Y-100025000D03*
X223500000Y-97975000D03*
%TD*%
%TO.C,D32*%
X209000000Y-78025000D03*
X209000000Y-75975000D03*
%TD*%
%TO.C,D48*%
X53500000Y-69025000D03*
X53500000Y-66975000D03*
%TD*%
D31*
%TO.C,C1*%
X167500000Y-70962500D03*
X167500000Y-73037500D03*
%TD*%
D32*
%TO.C,Y1*%
X170000000Y-106112500D03*
X170000000Y-114612500D03*
%TD*%
D33*
%TO.C,TP4*%
X151500000Y-92500000D03*
%TD*%
D30*
%TO.C,D15*%
X129000000Y-112025000D03*
X129000000Y-109975000D03*
%TD*%
D34*
%TO.C,C7*%
X143462500Y-121000000D03*
X145537500Y-121000000D03*
%TD*%
D35*
%TO.C,D18*%
X124500000Y-137475000D03*
X124500000Y-139525000D03*
%TD*%
D30*
%TO.C,D30*%
X185000000Y-113525000D03*
X185000000Y-111475000D03*
%TD*%
D36*
%TO.C,R3*%
X158500000Y-90000000D03*
X158500000Y-92000000D03*
%TD*%
D37*
%TO.C,D11*%
X114975000Y-70500000D03*
X117025000Y-70500000D03*
%TD*%
D38*
%TO.C,FL1*%
X159565000Y-79835000D03*
X159565000Y-78165000D03*
X160435000Y-78165000D03*
X160435000Y-79835000D03*
%TD*%
D35*
%TO.C,D13*%
X104000000Y-95475000D03*
X104000000Y-97525000D03*
%TD*%
D37*
%TO.C,D17*%
X84975000Y-119000000D03*
X87025000Y-119000000D03*
%TD*%
%TO.C,D37*%
X249975000Y-69500000D03*
X252025000Y-69500000D03*
%TD*%
D39*
%TO.C,F1*%
X170500000Y-75450000D03*
X170500000Y-78550000D03*
%TD*%
D30*
%TO.C,D35*%
X230500000Y-77525000D03*
X230500000Y-75475000D03*
%TD*%
D35*
%TO.C,D27*%
X195000000Y-84475000D03*
X195000000Y-86525000D03*
%TD*%
D40*
%TO.C,SW43*%
X167600000Y-94000000D03*
X174400000Y-94000000D03*
X167600000Y-98000000D03*
X174400000Y-98000000D03*
%TD*%
D41*
%TO.C,R1*%
X176500000Y-68500000D03*
X176500000Y-66500000D03*
%TD*%
D30*
%TO.C,D31*%
X205500000Y-63525000D03*
X205500000Y-61475000D03*
%TD*%
D40*
%TO.C,SW49*%
X133100000Y-119000000D03*
X139900000Y-119000000D03*
X133100000Y-123000000D03*
X139900000Y-123000000D03*
%TD*%
D42*
%TO.C,D40*%
X277025000Y-75000000D03*
X274975000Y-75000000D03*
%TD*%
D30*
%TO.C,D7*%
X65500000Y-93525000D03*
X65500000Y-91475000D03*
%TD*%
D43*
%TO.C,U1*%
X159050000Y-72862500D03*
X160000000Y-72862500D03*
X160950000Y-72862500D03*
X160950000Y-75137500D03*
X160000000Y-75137500D03*
X159050000Y-75137500D03*
%TD*%
D36*
%TO.C,R2*%
X161000000Y-90000000D03*
X161000000Y-92000000D03*
%TD*%
D33*
%TO.C,TP3*%
X151500000Y-94500000D03*
%TD*%
D42*
%TO.C,D20*%
X157525000Y-163000000D03*
X155475000Y-163000000D03*
%TD*%
D37*
%TO.C,D8*%
X91975000Y-62000000D03*
X94025000Y-62000000D03*
%TD*%
%TO.C,D25*%
X160975000Y-163000000D03*
X163025000Y-163000000D03*
%TD*%
D44*
%TO.C,C2*%
X173500000Y-68537500D03*
X173500000Y-66462500D03*
%TD*%
D37*
%TO.C,D39*%
X259475000Y-98000000D03*
X261525000Y-98000000D03*
%TD*%
D35*
%TO.C,D1*%
X46500000Y-76475000D03*
X46500000Y-78525000D03*
%TD*%
D42*
%TO.C,D3*%
X36025000Y-74500000D03*
X33975000Y-74500000D03*
%TD*%
D30*
%TO.C,D10*%
X86500000Y-93025000D03*
X86500000Y-90975000D03*
%TD*%
D36*
%TO.C,FB2*%
X170500000Y-71000000D03*
X170500000Y-73000000D03*
%TD*%
D30*
%TO.C,D9*%
X93500000Y-76025000D03*
X93500000Y-73975000D03*
%TD*%
D44*
%TO.C,C4*%
X174000000Y-113037500D03*
X174000000Y-110962500D03*
%TD*%
D33*
%TO.C,TP7*%
X151500000Y-100500000D03*
%TD*%
D35*
%TO.C,D19*%
X128000000Y-141475000D03*
X128000000Y-143525000D03*
%TD*%
%TO.C,D38*%
X257000000Y-78475000D03*
X257000000Y-80525000D03*
%TD*%
D42*
%TO.C,D2*%
X47525000Y-92500000D03*
X45475000Y-92500000D03*
%TD*%
D45*
%TO.C,J1*%
X156800000Y-68000000D03*
X157600000Y-68000000D03*
D46*
X158750000Y-68000000D03*
X159750000Y-68000000D03*
X160250000Y-68000000D03*
X161250000Y-68000000D03*
D45*
X162400000Y-68000000D03*
X163200000Y-68000000D03*
D46*
X161750000Y-68000000D03*
X160750000Y-68000000D03*
X159250000Y-68000000D03*
X158250000Y-68000000D03*
D47*
X154380000Y-66850000D03*
X165620000Y-66850000D03*
D48*
X154380000Y-62850000D03*
X165620000Y-62850000D03*
%TD*%
D30*
%TO.C,D26*%
X186000000Y-76025000D03*
X186000000Y-73975000D03*
%TD*%
D49*
%TO.C,U2*%
X163250000Y-110200000D03*
X163250000Y-111000000D03*
X163250000Y-111800000D03*
X163250000Y-112600000D03*
X163250000Y-113400000D03*
X163250000Y-114200000D03*
X163250000Y-115000000D03*
X163250000Y-115800000D03*
D50*
X161800000Y-117250000D03*
X161000000Y-117250000D03*
X160200000Y-117250000D03*
X159400000Y-117250000D03*
X158600000Y-117250000D03*
X157800000Y-117250000D03*
X157000000Y-117250000D03*
X156200000Y-117250000D03*
D49*
X154750000Y-115800000D03*
X154750000Y-115000000D03*
X154750000Y-114200000D03*
X154750000Y-113400000D03*
X154750000Y-112600000D03*
X154750000Y-111800000D03*
X154750000Y-111000000D03*
X154750000Y-110200000D03*
D50*
X156200000Y-108750000D03*
X157000000Y-108750000D03*
X157800000Y-108750000D03*
X158600000Y-108750000D03*
X159400000Y-108750000D03*
X160200000Y-108750000D03*
X161000000Y-108750000D03*
X161800000Y-108750000D03*
%TD*%
D33*
%TO.C,TP1*%
X168500000Y-84000000D03*
%TD*%
D30*
%TO.C,D36*%
X240500000Y-100025000D03*
X240500000Y-97975000D03*
%TD*%
D42*
%TO.C,D14*%
X132525000Y-90750000D03*
X130475000Y-90750000D03*
%TD*%
%TO.C,D29*%
X180525000Y-95000000D03*
X178475000Y-95000000D03*
%TD*%
D30*
%TO.C,D6*%
X72000000Y-76025000D03*
X72000000Y-73975000D03*
%TD*%
D42*
%TO.C,D4*%
X30525000Y-90000000D03*
X28475000Y-90000000D03*
%TD*%
D33*
%TO.C,TP2*%
X168550000Y-81500000D03*
%TD*%
%TO.C,TP6*%
X151500000Y-98500000D03*
%TD*%
D35*
%TO.C,D12*%
X108000000Y-81500000D03*
X108000000Y-83550000D03*
%TD*%
D51*
%TO.C,C6*%
X161312500Y-106000000D03*
X158187500Y-106000000D03*
%TD*%
D44*
%TO.C,C8*%
X165787500Y-115000000D03*
X165787500Y-112925000D03*
%TD*%
D31*
%TO.C,C3*%
X174000000Y-106962500D03*
X174000000Y-109037500D03*
%TD*%
D33*
%TO.C,TP5*%
X151500000Y-96500000D03*
%TD*%
D36*
%TO.C,R7*%
X149500000Y-66500000D03*
X149500000Y-68500000D03*
%TD*%
D37*
%TO.C,D21*%
X235975000Y-115000000D03*
X238025000Y-115000000D03*
%TD*%
%TO.C,D16*%
X59975000Y-114500000D03*
X62025000Y-114500000D03*
%TD*%
D35*
%TO.C,D23*%
X193500000Y-123475000D03*
X193500000Y-125525000D03*
%TD*%
D30*
%TO.C,D41*%
X280000000Y-94025000D03*
X280000000Y-91975000D03*
%TD*%
D36*
%TO.C,R8*%
X147000000Y-66500000D03*
X147000000Y-68500000D03*
%TD*%
%TO.C,R6*%
X158500000Y-120500000D03*
X158500000Y-122500000D03*
%TD*%
D42*
%TO.C,D22*%
X219025000Y-118000000D03*
X216975000Y-118000000D03*
%TD*%
D30*
%TO.C,D34*%
X228500000Y-63525000D03*
X228500000Y-61475000D03*
%TD*%
D35*
%TO.C,D28*%
X203000000Y-101475000D03*
X203000000Y-103525000D03*
%TD*%
%TO.C,D24*%
X185000000Y-137975000D03*
X185000000Y-140025000D03*
%TD*%
D41*
%TO.C,FB1*%
X173500000Y-73000000D03*
X173500000Y-71000000D03*
%TD*%
D37*
%TO.C,D5*%
X75975000Y-55000000D03*
X78025000Y-55000000D03*
%TD*%
D52*
%TO.C,R5*%
X143500000Y-116000000D03*
X141500000Y-116000000D03*
%TD*%
%TO.C,R4*%
X145500000Y-118500000D03*
X143500000Y-118500000D03*
%TD*%
D53*
%TO.C,C5*%
X155825000Y-106000000D03*
X153750000Y-106000000D03*
%TD*%
M02*
