M48
; DRILL file {KiCad (6.0.7-1)-1} date Friday, 23 December 2022 at 00.59.03
; FORMAT={-:-/ absolute / metric / decimal}
; #@! TF.CreationDate,2022-12-23T00:59:03+01:00
; #@! TF.GenerationSoftware,Kicad,Pcbnew,(6.0.7-1)-1
; #@! TF.FileFunction,NonPlated,1,2,NPTH
FMAT,2
METRIC
; #@! TA.AperFunction,NonPlated,NPTH,ComponentDrill
T1C1.702
; #@! TA.AperFunction,NonPlated,NPTH,ComponentDrill
T2C3.000
; #@! TA.AperFunction,NonPlated,NPTH,ComponentDrill
T3C3.200
; #@! TA.AperFunction,NonPlated,NPTH,ComponentDrill
T4C3.988
%
G90
G05
T1
X30.093Y-86.935
X35.093Y-68.685
X39.907Y-89.565
X44.907Y-71.315
X46.093Y-101.185
X51.093Y-82.685
X55.843Y-64.435
X55.907Y-103.815
X60.907Y-85.315
X65.657Y-67.065
X66.983Y-118.705
X69.226Y-90.763
X75.726Y-72.763
X77.017Y-120.295
X78.774Y-94.237
X82.226Y-55.013
X85.274Y-76.237
X89.898Y-90.28
X91.774Y-58.487
X94.396Y-125.353
X97.324Y-73.015
X99.25Y-94.25
X103.604Y-129.647
X104.396Y-104.353
X104.574Y-55.515
X106.676Y-76.985
X112.396Y-87.103
X113.604Y-108.647
X113.926Y-59.485
X116.408Y-140.092
X120.396Y-69.853
X121.604Y-91.397
X123.592Y-132.908
X125.646Y-103.603
X128.997Y-154.628
X129.604Y-74.147
X133.646Y-86.603
X134.854Y-107.897
X137.003Y-148.372
X139.542Y-170.963
X142.854Y-90.897
X148.428Y-166.037
X173.557Y-166.037
X179.146Y-90.897
X182.443Y-170.963
X184.935Y-148.22
X187.146Y-108.147
X188.354Y-86.603
X192.396Y-74.147
X192.942Y-154.475
X196.354Y-103.853
X198.408Y-132.908
X200.396Y-91.397
X201.604Y-69.853
X205.592Y-140.092
X208.074Y-59.485
X208.396Y-108.647
X209.604Y-87.103
X215.324Y-76.985
X217.426Y-55.515
X217.604Y-104.353
X218.396Y-129.647
X222.75Y-94.5
X224.676Y-73.015
X227.604Y-125.353
X230.226Y-58.487
X232.102Y-90.53
X236.726Y-76.237
X239.774Y-55.013
X243.226Y-94.237
X244.983Y-120.295
X246.274Y-72.763
X252.774Y-90.763
X255.017Y-118.705
X256.343Y-67.065
X261.093Y-85.315
X266.093Y-103.815
X266.157Y-64.435
X270.907Y-82.685
X275.907Y-101.185
X277.093Y-71.315
X282.093Y-89.565
X286.907Y-68.685
X291.907Y-86.935
T2
X31.977Y-84.81
X36.977Y-66.56
X38.768Y-84.0
X43.768Y-65.75
X47.977Y-99.06
X52.977Y-80.56
X54.768Y-98.25
X57.727Y-62.31
X59.768Y-79.75
X64.518Y-61.5
X68.634Y-116.395
X71.289Y-88.81
X75.303Y-114.88
X77.789Y-70.81
X78.124Y-88.595
X84.289Y-53.06
X84.624Y-70.595
X91.124Y-52.845
X92.059Y-88.438
X96.62Y-123.588
X98.897Y-88.581
X99.485Y-71.173
X103.449Y-123.969
X106.323Y-71.316
X106.62Y-102.588
X106.735Y-53.673
X113.449Y-102.969
X113.573Y-53.816
X114.62Y-85.338
X115.51Y-137.398
X118.204Y-131.112
X121.449Y-85.719
X122.62Y-68.088
X127.87Y-101.838
X128.434Y-151.844
X129.449Y-68.469
X131.874Y-145.933
X134.699Y-102.219
X135.87Y-84.838
X139.422Y-168.126
X142.699Y-85.219
X143.744Y-162.826
X175.899Y-164.431
X179.224Y-88.058
X182.684Y-165.288
X183.905Y-83.073
X187.224Y-105.308
X187.5Y-147.0
X191.905Y-100.323
X192.474Y-71.308
X194.068Y-148.908
X197.155Y-66.323
X200.474Y-88.558
X201.102Y-132.01
X205.155Y-83.573
X207.388Y-134.704
X208.25Y-56.651
X208.474Y-105.808
X213.103Y-51.831
X213.155Y-100.823
X215.5Y-74.151
X218.474Y-126.808
X220.353Y-69.331
X222.927Y-91.666
X223.155Y-121.823
X227.779Y-86.846
X230.551Y-55.666
X235.649Y-51.108
X237.051Y-73.416
X242.149Y-68.858
X243.551Y-91.416
X245.84Y-117.587
X248.649Y-86.858
X251.714Y-114.085
X256.912Y-64.283
X261.662Y-82.533
X262.389Y-60.186
X266.662Y-101.033
X267.139Y-78.436
X272.139Y-96.936
X277.662Y-68.533
X282.662Y-86.783
X283.139Y-64.436
X288.139Y-82.686
T3
X48.0Y-58.5
X65.0Y-104.5
X123.0Y-119.5
X125.0Y-56.5
X139.0Y-181.5
X183.0Y-181.5
X197.0Y-56.5
X199.0Y-119.5
X257.0Y-104.5
X274.0Y-58.5
T4
X35.0Y-88.25
X40.0Y-70.0
X51.0Y-102.5
X56.0Y-84.0
X60.75Y-65.75
X72.0Y-119.5
X74.0Y-92.5
X80.5Y-74.5
X87.0Y-56.75
X94.574Y-92.265
X99.0Y-127.5
X102.0Y-75.0
X109.0Y-106.5
X109.25Y-57.5
X117.0Y-89.25
X120.0Y-136.5
X125.0Y-72.0
X130.25Y-105.75
X133.0Y-151.5
X138.25Y-88.75
X143.985Y-168.5
X178.0Y-168.5
X183.75Y-88.75
X188.939Y-151.347
X191.75Y-106.0
X197.0Y-72.0
X202.0Y-136.5
X205.0Y-89.25
X212.75Y-57.5
X213.0Y-106.5
X220.0Y-75.0
X223.0Y-127.5
X227.426Y-92.515
X235.0Y-56.75
X241.5Y-74.5
X248.0Y-92.5
X250.0Y-119.5
X261.25Y-65.75
X266.0Y-84.0
X271.0Y-102.5
X282.0Y-70.0
X287.0Y-88.25
T0
M30
