M48
; DRILL file {KiCad (6.0.7-1)-1} date Friday, 23 December 2022 at 00.59.03
; FORMAT={-:-/ absolute / metric / decimal}
; #@! TF.CreationDate,2022-12-23T00:59:03+01:00
; #@! TF.GenerationSoftware,Kicad,Pcbnew,(6.0.7-1)-1
; #@! TF.FileFunction,Plated,1,2,PTH
FMAT,2
METRIC
; #@! TA.AperFunction,Plated,PTH,ViaDrill
T1C0.400
; #@! TA.AperFunction,Plated,PTH,ComponentDrill
T2C1.520
; #@! TA.AperFunction,Plated,PTH,ComponentDrill
T3C1.900
%
G90
G05
T1
X37.0Y-122.5
X38.5Y-95.5
X41.0Y-111.5
X46.5Y-75.0
X49.5Y-92.5
X53.0Y-73.5
X58.5Y-111.5
X65.5Y-95.5
X66.5Y-73.5
X72.0Y-80.0
X81.5Y-111.5
X85.0Y-80.0
X86.5Y-95.5
X92.0Y-78.5
X93.5Y-80.0
X101.5Y-110.5
X105.5Y-95.5
X108.0Y-80.0
X115.0Y-78.5
X117.5Y-107.5
X120.5Y-95.5
X129.0Y-124.0
X132.5Y-97.5
X138.0Y-110.0
X141.5Y-109.0
X145.0Y-97.0
X145.0Y-112.0
X146.5Y-96.0
X148.0Y-94.5
X148.0Y-113.0
X148.0Y-118.5
X149.5Y-78.5
X149.5Y-93.0
X153.0Y-104.081
X153.012Y-108.988
X154.993Y-102.999
X155.983Y-103.133
X156.326Y-112.431
X156.974Y-103.0
X156.988Y-110.512
X157.0Y-73.5
X157.0Y-74.5
X157.0Y-91.0
X157.0Y-122.5
X157.051Y-111.641
X157.238Y-66.762
X157.775Y-113.0
X158.0Y-104.5
X158.5Y-114.5
X159.012Y-66.488
X159.483Y-115.724
X160.0Y-72.0
X160.5Y-66.5
X160.5Y-111.8
X160.72Y-115.724
X161.0Y-124.017
X161.85Y-116.0
X162.0Y-99.5
X162.0Y-102.5
X162.5Y-66.5
X162.5Y-91.0
X163.0Y-122.5
X163.5Y-73.5
X163.5Y-74.5
X163.5Y-80.0
X163.5Y-103.0
X165.0Y-118.5
X165.0Y-104.5
X165.5Y-107.0
X167.0Y-113.0
X168.5Y-86.0
X171.5Y-91.0
X171.9Y-94.5
X172.0Y-110.0
X180.5Y-100.5
X185.0Y-124.0
X186.0Y-78.5
X192.5Y-97.0
X195.0Y-80.0
X200.0Y-101.5
X206.5Y-78.5
X211.5Y-80.0
X214.0Y-97.0
X216.0Y-80.0
X223.5Y-102.5
X228.5Y-78.5
X230.5Y-80.0
X230.5Y-99.5
X236.0Y-79.0
X240.5Y-102.5
X250.0Y-78.5
X251.0Y-98.0
X254.5Y-80.0
X257.5Y-100.0
X275.5Y-94.0
X278.0Y-107.5
X280.0Y-124.5
X290.5Y-90.5
T2
X154.38Y-66.85
X165.62Y-66.85
T3
X154.38Y-62.85
X165.62Y-62.85
T0
M30
