M48
; DRILL file {KiCad 7.0.8} date 2023 October 18, Wednesday 22:01:19
; FORMAT={-:-/ absolute / inch / decimal}
; #@! TF.CreationDate,2023-10-18T22:01:19+02:00
; #@! TF.GenerationSoftware,Kicad,Pcbnew,7.0.8
; #@! TF.FileFunction,Plated,1,2,PTH
FMAT,2
INCH
; #@! TA.AperFunction,Plated,PTH,ViaDrill
T1C0.0157
; #@! TA.AperFunction,Plated,PTH,ComponentDrill
T2C0.0236
; #@! TA.AperFunction,Plated,PTH,ComponentDrill
T3C0.0374
%
G90
G05
T1
X1.8307Y-2.2638
X2.0276Y-2.0866
X2.2441Y-3.2677
X2.3425Y-3.4055
X2.5394Y-2.5787
X2.8543Y-2.0658
X3.189Y-3.4055
X3.248Y-2.3425
X3.3858Y-2.6575
X3.7008Y-2.0079
X3.7402Y-3.4055
X3.7992Y-4.0551
X3.8386Y-3.878
X3.8583Y-2.9134
X3.9173Y-2.6575
X3.937Y-2.9528
X4.0945Y-2.0079
X4.2323Y-2.3031
X4.5669Y-3.878
X4.5866Y-2.9528
X4.626Y-2.8543
X4.7638Y-2.3031
X5.1969Y-4.0551
X5.2953Y-3.7402
X5.2953Y-4.1535
X5.4331Y-2.8543
X5.4813Y-2.9102
X5.4921Y-3.2283
X5.5315Y-2.3819
X5.5413Y-4.3996
X5.5709Y-2.3031
X5.6102Y-2.5394
X5.6102Y-2.9528
X5.7642Y-4.7673
X5.8071Y-2.4213
X5.8563Y-4.9016
X5.8661Y-3.3858
X5.8661Y-3.6417
X5.8661Y-3.7008
X5.8661Y-3.8189
X5.8858Y-2.1457
X5.9449Y-2.0079
X5.9449Y-2.0472
X5.9449Y-3.0512
X6.0791Y-2.1815
X6.0827Y-2.5591
X6.1024Y-3.9567
X6.1417Y-3.7008
X6.1544Y-2.0769
X6.1614Y-3.9173
X6.1811Y-3.0512
X6.2205Y-3.7008
X6.2205Y-3.9173
X6.2402Y-3.5236
X6.2598Y-2.0827
X6.2795Y-3.7008
X6.311Y-3.6614
X6.3189Y-2.5591
X6.3391Y-3.2288
X6.3583Y-2.185
X6.3976Y-3.2672
X6.3976Y-3.7008
X6.4173Y-3.4646
X6.4382Y-3.5177
X6.4764Y-2.2441
X6.5553Y-2.992
X6.5846Y-2.8543
X6.5846Y-2.8937
X6.624Y-2.8543
X6.624Y-2.8937
X6.7126Y-3.9961
X6.8504Y-3.7992
X6.8504Y-3.9961
X6.8701Y-2.3031
X7.4213Y-2.3031
X7.5197Y-2.5591
X7.6772Y-2.5197
X7.6969Y-3.937
X7.8486Y-3.622
X7.9134Y-3.9961
X7.9528Y-3.937
X8.2874Y-1.9291
X8.2874Y-2.3031
X8.3268Y-2.5197
X8.3772Y-3.7402
X8.4252Y-3.9961
X8.7008Y-3.4055
X8.7008Y-3.937
X8.937Y-1.9291
X9.1339Y-2.5197
X9.2323Y-2.7165
X9.237Y-3.5236
X9.4291Y-3.4055
X9.7638Y-1.9291
X9.8819Y-2.9921
X10.0Y-2.7165
X10.7283Y-3.248
T3
X5.4921Y-3.8583
X5.5906Y-3.8583
X5.689Y-3.8583
X5.7874Y-3.8583
T2
G00X6.035Y-1.926
M15
G01X6.035Y-1.9575
M16
G05
G00X6.035Y-2.0846
M15
G01X6.035Y-2.128
M16
G05
G00X6.3752Y-1.926
M15
G01X6.3752Y-1.9575
M16
G05
G00X6.3752Y-2.0846
M15
G01X6.3752Y-2.128
M16
G05
T0
M30
