%TF.GenerationSoftware,KiCad,Pcbnew,(6.0.7-1)-1*%
%TF.CreationDate,2022-12-04T14:42:11+01:00*%
%TF.ProjectId,pork-chop-control,706f726b-2d63-4686-9f70-2d636f6e7472,rev?*%
%TF.SameCoordinates,Original*%
%TF.FileFunction,Paste,Top*%
%TF.FilePolarity,Positive*%
%FSLAX46Y46*%
G04 Gerber Fmt 4.6, Leading zero omitted, Abs format (unit mm)*
G04 Created by KiCad (PCBNEW (6.0.7-1)-1) date 2022-12-04 14:42:11*
%MOMM*%
%LPD*%
G01*
G04 APERTURE LIST*
G04 Aperture macros list*
%AMRoundRect*
0 Rectangle with rounded corners*
0 $1 Rounding radius*
0 $2 $3 $4 $5 $6 $7 $8 $9 X,Y pos of 4 corners*
0 Add a 4 corners polygon primitive as box body*
4,1,4,$2,$3,$4,$5,$6,$7,$8,$9,$2,$3,0*
0 Add four circle primitives for the rounded corners*
1,1,$1+$1,$2,$3*
1,1,$1+$1,$4,$5*
1,1,$1+$1,$6,$7*
1,1,$1+$1,$8,$9*
0 Add four rect primitives between the rounded corners*
20,1,$1+$1,$2,$3,$4,$5,0*
20,1,$1+$1,$4,$5,$6,$7,0*
20,1,$1+$1,$6,$7,$8,$9,0*
20,1,$1+$1,$8,$9,$2,$3,0*%
G04 Aperture macros list end*
%ADD10RoundRect,0.250000X-0.475000X0.337500X-0.475000X-0.337500X0.475000X-0.337500X0.475000X0.337500X0*%
%ADD11RoundRect,0.250000X0.350000X0.450000X-0.350000X0.450000X-0.350000X-0.450000X0.350000X-0.450000X0*%
%ADD12RoundRect,0.250000X-0.412500X-0.650000X0.412500X-0.650000X0.412500X0.650000X-0.412500X0.650000X0*%
%ADD13RoundRect,0.250000X-1.075000X0.400000X-1.075000X-0.400000X1.075000X-0.400000X1.075000X0.400000X0*%
%ADD14R,3.200000X1.000000*%
%ADD15RoundRect,0.250000X0.412500X0.650000X-0.412500X0.650000X-0.412500X-0.650000X0.412500X-0.650000X0*%
%ADD16RoundRect,0.250000X0.475000X-0.337500X0.475000X0.337500X-0.475000X0.337500X-0.475000X-0.337500X0*%
%ADD17R,2.000000X4.500000*%
%ADD18RoundRect,0.250000X-0.350000X-0.450000X0.350000X-0.450000X0.350000X0.450000X-0.350000X0.450000X0*%
%ADD19RoundRect,0.250000X0.450000X-0.350000X0.450000X0.350000X-0.450000X0.350000X-0.450000X-0.350000X0*%
%ADD20RoundRect,0.025500X-0.354500X0.229500X-0.354500X-0.229500X0.354500X-0.229500X0.354500X0.229500X0*%
%ADD21R,1.600000X0.550000*%
%ADD22R,0.550000X1.600000*%
%ADD23RoundRect,0.150000X0.150000X-0.512500X0.150000X0.512500X-0.150000X0.512500X-0.150000X-0.512500X0*%
%ADD24RoundRect,0.250000X-0.450000X0.350000X-0.450000X-0.350000X0.450000X-0.350000X0.450000X0.350000X0*%
G04 APERTURE END LIST*
D10*
%TO.C,C8*%
X121000000Y-74000000D03*
X121000000Y-76075000D03*
%TD*%
D11*
%TO.C,R6*%
X126000000Y-79500000D03*
X124000000Y-79500000D03*
%TD*%
D10*
%TO.C,C3*%
X114000000Y-89962500D03*
X114000000Y-92037500D03*
%TD*%
D12*
%TO.C,C6*%
X122625000Y-84500000D03*
X125750000Y-84500000D03*
%TD*%
D13*
%TO.C,F1*%
X110000000Y-75950000D03*
X110000000Y-79050000D03*
%TD*%
D14*
%TO.C,SW1*%
X139100000Y-84500000D03*
X145900000Y-84500000D03*
X139100000Y-80500000D03*
X145900000Y-80500000D03*
%TD*%
D15*
%TO.C,C4*%
X131625000Y-84500000D03*
X128500000Y-84500000D03*
%TD*%
D16*
%TO.C,C2*%
X114000000Y-88037500D03*
X114000000Y-85962500D03*
%TD*%
D14*
%TO.C,SW2*%
X145900000Y-89000000D03*
X139100000Y-89000000D03*
X139100000Y-93000000D03*
X145900000Y-93000000D03*
%TD*%
D11*
%TO.C,R5*%
X126000000Y-81500000D03*
X124000000Y-81500000D03*
%TD*%
D17*
%TO.C,Y1*%
X109500000Y-85000000D03*
X109500000Y-93500000D03*
%TD*%
D18*
%TO.C,FB2*%
X116500000Y-78500000D03*
X118500000Y-78500000D03*
%TD*%
D16*
%TO.C,C7*%
X113500000Y-76075000D03*
X113500000Y-74000000D03*
%TD*%
D19*
%TO.C,R4*%
X118500000Y-76000000D03*
X118500000Y-74000000D03*
%TD*%
D16*
%TO.C,C5*%
X117500000Y-93537500D03*
X117500000Y-91462500D03*
%TD*%
D20*
%TO.C,FL1*%
X131170000Y-80065000D03*
X129500000Y-80065000D03*
X129500000Y-80935000D03*
X131170000Y-80935000D03*
%TD*%
D19*
%TO.C,R1*%
X134000000Y-76000000D03*
X134000000Y-74000000D03*
%TD*%
D21*
%TO.C,U1*%
X120750000Y-89200000D03*
X120750000Y-90000000D03*
X120750000Y-90800000D03*
X120750000Y-91600000D03*
X120750000Y-92400000D03*
X120750000Y-93200000D03*
X120750000Y-94000000D03*
X120750000Y-94800000D03*
D22*
X122200000Y-96250000D03*
X123000000Y-96250000D03*
X123800000Y-96250000D03*
X124600000Y-96250000D03*
X125400000Y-96250000D03*
X126200000Y-96250000D03*
X127000000Y-96250000D03*
X127800000Y-96250000D03*
D21*
X129250000Y-94800000D03*
X129250000Y-94000000D03*
X129250000Y-93200000D03*
X129250000Y-92400000D03*
X129250000Y-91600000D03*
X129250000Y-90800000D03*
X129250000Y-90000000D03*
X129250000Y-89200000D03*
D22*
X127800000Y-87750000D03*
X127000000Y-87750000D03*
X126200000Y-87750000D03*
X125400000Y-87750000D03*
X124600000Y-87750000D03*
X123800000Y-87750000D03*
X123000000Y-87750000D03*
X122200000Y-87750000D03*
%TD*%
D23*
%TO.C,U2*%
X129500000Y-76775000D03*
X130450000Y-76775000D03*
X131400000Y-76775000D03*
X131400000Y-74500000D03*
X130450000Y-74500000D03*
X129500000Y-74500000D03*
%TD*%
D10*
%TO.C,C1*%
X139000000Y-73925000D03*
X139000000Y-76000000D03*
%TD*%
D24*
%TO.C,R3*%
X125000000Y-99500000D03*
X125000000Y-101500000D03*
%TD*%
%TO.C,R2*%
X136500000Y-74000000D03*
X136500000Y-76000000D03*
%TD*%
%TO.C,FB1*%
X116000000Y-74000000D03*
X116000000Y-76000000D03*
%TD*%
M02*
