<?xml version="1.0" standalone="no"?>
<!DOCTYPE svg PUBLIC "-//W3C//DTD SVG 1.1//EN" "http://www.w3.org/Graphics/SVG/1.1/DTD/svg11.dtd">
<svg width="292mm" height="173mm" viewBox="-146 -173 292 173" xmlns="http://www.w3.org/2000/svg" version="1.1">
<title>OpenSCAD Model</title>
<path d="
M 35.3198,-0.00602722 L 35.5646,-0.0240784 L 35.8081,-0.0541229 L 36.0499,-0.0960846 L 36.2894,-0.149857 L 36.5259,-0.215302
 L 36.7589,-0.292282 L 36.9879,-0.380615 L 37.2123,-0.480057 L 37.4315,-0.590408 L 37.645,-0.711365 L 37.8523,-0.842667
 L 38.053,-0.983963 L 38.2464,-1.13495 L 38.4323,-1.29526 L 38.61,-1.46448 L 38.7792,-1.64221 L 38.9395,-1.82805
 L 39.0905,-2.02151 L 39.2318,-2.22215 L 39.3631,-2.42949 L 39.4841,-2.64302 L 39.5944,-2.86223 L 39.6939,-3.08659
 L 39.7822,-3.31555 L 39.8592,-3.54858 L 39.9246,-3.78511 L 40.2476,-5.22331 L 41.2295,-8.77135 L 42.3842,-12.2667
 L 43.709,-15.7013 L 45.2008,-19.0666 L 46.8559,-22.3548 L 48.6703,-25.5577 L 50.6398,-28.6677 L 52.7594,-31.6774
 L 55.0242,-34.5795 L 57.4286,-37.3669 L 59.967,-40.033 L 62.6331,-42.5713 L 65.4205,-44.9758 L 68.3225,-47.2406
 L 71.3322,-49.3602 L 74.4423,-51.3297 L 77.6452,-53.1441 L 80.9333,-54.7992 L 84.2987,-56.2909 L 87.7332,-57.6158
 L 91.2287,-58.7705 L 94.7766,-59.7524 L 98.3681,-60.5589 L 101.995,-61.1882 L 105.649,-61.6389 L 109.32,-61.9097
 L 113,-62 L 116.68,-61.9097 L 120.351,-61.6389 L 124.005,-61.1882 L 127.632,-60.5589 L 130.158,-59.9916
 L 130.4,-59.9497 L 130.643,-59.9196 L 130.888,-59.9016 L 131.133,-59.8955 L 131.379,-59.9016 L 131.624,-59.9196
 L 131.867,-59.9497 L 132.109,-59.9916 L 132.348,-60.0454 L 132.585,-60.1108 L 132.818,-60.1878 L 133.047,-60.2762
 L 133.271,-60.3756 L 133.49,-60.4859 L 133.704,-60.6069 L 133.911,-60.7382 L 134.112,-60.8795 L 134.305,-61.0305
 L 134.491,-61.1908 L 134.669,-61.36 L 134.838,-61.5378 L 134.998,-61.7236 L 135.149,-61.9171 L 135.291,-62.1177
 L 135.514,-62.4705 L 137.28,-65.588 L 138.891,-68.7885 L 140.343,-72.0641 L 141.633,-75.407 L 142.757,-78.8092
 L 143.712,-82.2625 L 144.497,-85.7584 L 145.11,-89.2887 L 145.548,-92.8447 L 145.812,-96.4181 L 145.9,-100
 L 145.812,-103.582 L 145.548,-107.155 L 145.11,-110.711 L 144.497,-114.242 L 143.712,-117.738 L 142.757,-121.191
 L 141.633,-124.593 L 140.343,-127.936 L 138.891,-131.212 L 137.28,-134.412 L 135.514,-137.529 L 133.597,-140.557
 L 131.534,-143.486 L 129.33,-146.311 L 126.989,-149.024 L 124.519,-151.619 L 121.924,-154.089 L 119.211,-156.43
 L 116.386,-158.634 L 113.457,-160.697 L 110.429,-162.614 L 107.312,-164.38 L 104.112,-165.991 L 100.836,-167.443
 L 97.493,-168.733 L 94.0908,-169.857 L 90.6375,-170.812 L 87.1416,-171.597 L 83.6113,-172.21 L 80.0552,-172.648
 L 76.4819,-172.912 L 72.9,-173 L 69.3181,-172.912 L 65.7448,-172.648 L 62.1887,-172.21 L 58.6584,-171.597
 L 55.1624,-170.812 L 51.7092,-169.857 L 48.307,-168.733 L 44.9641,-167.443 L 41.6885,-165.991 L 38.488,-164.38
 L 35.3705,-162.614 L 32.3434,-160.697 L 29.414,-158.634 L 26.5893,-156.43 L 23.8762,-154.089 L 21.2812,-151.619
 L 18.8106,-149.024 L 16.4702,-146.311 L 15.4474,-145 L -15.4474,-145 L -16.4702,-146.311 L -18.8106,-149.024
 L -21.2812,-151.619 L -23.8762,-154.089 L -26.5893,-156.43 L -29.414,-158.634 L -32.3434,-160.697 L -35.3705,-162.614
 L -38.488,-164.38 L -41.6885,-165.991 L -44.9641,-167.443 L -48.307,-168.733 L -51.7092,-169.857 L -55.1624,-170.812
 L -58.6584,-171.597 L -62.1887,-172.21 L -65.7448,-172.648 L -69.3181,-172.912 L -72.9,-173 L -76.4819,-172.912
 L -80.0552,-172.648 L -83.6113,-172.21 L -87.1416,-171.597 L -90.6375,-170.812 L -94.0908,-169.857 L -97.493,-168.733
 L -100.836,-167.443 L -104.112,-165.991 L -107.312,-164.38 L -110.429,-162.614 L -113.457,-160.697 L -116.386,-158.634
 L -119.211,-156.43 L -121.924,-154.089 L -124.519,-151.619 L -126.989,-149.024 L -129.33,-146.311 L -131.534,-143.486
 L -133.597,-140.557 L -135.514,-137.529 L -137.28,-134.412 L -138.891,-131.212 L -140.343,-127.936 L -141.633,-124.593
 L -142.757,-121.191 L -143.712,-117.738 L -144.497,-114.242 L -145.11,-110.711 L -145.548,-107.155 L -145.812,-103.582
 L -145.9,-100 L -145.812,-96.4181 L -145.548,-92.8447 L -145.11,-89.2887 L -144.497,-85.7584 L -143.712,-82.2625
 L -142.757,-78.8092 L -141.633,-75.407 L -140.343,-72.0641 L -138.891,-68.7885 L -137.28,-65.588 L -135.514,-62.4705
 L -135.291,-62.1177 L -135.149,-61.9171 L -134.998,-61.7236 L -134.838,-61.5378 L -134.669,-61.36 L -134.491,-61.1908
 L -134.305,-61.0305 L -134.112,-60.8795 L -133.911,-60.7382 L -133.704,-60.6069 L -133.49,-60.4859 L -133.271,-60.3756
 L -133.047,-60.2762 L -132.818,-60.1878 L -132.585,-60.1108 L -132.348,-60.0454 L -132.109,-59.9916 L -131.867,-59.9497
 L -131.624,-59.9196 L -131.379,-59.9016 L -131.133,-59.8955 L -130.888,-59.9016 L -130.643,-59.9196 L -130.4,-59.9497
 L -130.158,-59.9916 L -127.632,-60.5589 L -124.005,-61.1882 L -120.351,-61.6389 L -116.68,-61.9097 L -113,-62
 L -109.32,-61.9097 L -105.649,-61.6389 L -101.995,-61.1882 L -98.3681,-60.5589 L -94.7766,-59.7524 L -91.2287,-58.7705
 L -87.7332,-57.6158 L -84.2987,-56.2909 L -80.9333,-54.7992 L -77.6452,-53.1441 L -74.4423,-51.3297 L -71.3322,-49.3602
 L -68.3225,-47.2406 L -65.4205,-44.9758 L -62.6331,-42.5713 L -59.967,-40.033 L -57.4286,-37.3669 L -55.0242,-34.5795
 L -52.7594,-31.6774 L -50.6398,-28.6677 L -48.6703,-25.5577 L -46.8559,-22.3548 L -45.2008,-19.0666 L -43.709,-15.7013
 L -42.3842,-12.2667 L -41.2295,-8.77135 L -40.2476,-5.22331 L -39.9246,-3.78511 L -39.8592,-3.54858 L -39.7822,-3.31555
 L -39.6939,-3.08659 L -39.5944,-2.86223 L -39.4841,-2.64302 L -39.3631,-2.42949 L -39.2318,-2.22215 L -39.0905,-2.02151
 L -38.9395,-1.82805 L -38.7792,-1.64221 L -38.61,-1.46448 L -38.4323,-1.29526 L -38.2464,-1.13495 L -38.053,-0.983963
 L -37.8523,-0.842667 L -37.645,-0.711365 L -37.4315,-0.590408 L -37.2123,-0.480057 L -36.9879,-0.380615 L -36.7589,-0.292282
 L -36.5259,-0.215302 L -36.2894,-0.149857 L -36.0499,-0.0960846 L -35.8081,-0.0541229 L -35.5646,-0.0240784 L -35.3198,-0.00602722
 L -35.0745,-0 L 35.0745,-0 z
M -69.8195,-127.736 L -82.9752,-132.525 L -78.1869,-145.68 L -65.0312,-140.892 z
M 65.0312,-140.892 L 78.1869,-145.68 L 82.9752,-132.525 L 69.8195,-127.736 z
M 42.4736,-139.688 L 55.3606,-145.158 L 60.8309,-132.271 L 47.9438,-126.801 z
M -47.9438,-126.801 L -60.8309,-132.271 L -55.3606,-145.158 L -42.4736,-139.688 z
M -108.738,-122.755 L -105.115,-136.278 L -91.5917,-132.655 L -95.2151,-119.132 z
M 91.5917,-132.655 L 105.115,-136.278 L 108.738,-122.755 L 95.2151,-119.132 z
M -116.026,-114.873 L -129.549,-118.497 L -125.926,-132.02 L -112.403,-128.396 z
M 112.403,-128.396 L 125.926,-132.02 L 129.549,-118.497 L 116.026,-114.873 z
M 26.638,-124.826 L 39.3263,-130.742 L 45.243,-118.054 L 32.5547,-112.137 z
M -32.5547,-112.137 L -45.243,-118.054 L -39.3263,-130.742 L -26.638,-124.826 z
M -76.3179,-109.882 L -89.4736,-114.67 L -84.6853,-127.826 L -71.5296,-123.038 z
M 71.5296,-123.038 L 84.6853,-127.826 L 89.4736,-114.67 L 76.3179,-109.882 z
M -55.3677,-109.311 L -68.2548,-114.781 L -62.7845,-127.668 L -49.8974,-122.198 z
M 49.8974,-122.198 L 62.7845,-127.668 L 68.2548,-114.781 L 55.3677,-109.311 z
M 96.5092,-114.302 L 110.032,-117.926 L 113.656,-104.403 L 100.133,-100.779 z
M -100.133,-100.779 L -113.656,-104.403 L -110.032,-117.926 L -96.5092,-114.302 z
M 13.433,-108.186 L 26.1214,-114.103 L 32.038,-101.414 L 19.3497,-95.4975 z
M -19.3497,-95.4975 L -32.038,-101.414 L -26.1214,-114.103 L -13.433,-108.186 z
M 117.321,-110.044 L 130.844,-113.667 L 134.467,-100.144 L 120.944,-96.5206 z
M -134.467,-100.144 L -130.844,-113.667 L -117.321,-110.044 L -120.944,-96.5206 z
M 34.6678,-107.606 L 47.3561,-113.522 L 53.2727,-100.834 L 40.5844,-94.9174 z
M -40.5844,-94.9174 L -53.2727,-100.834 L -47.3561,-113.522 L -34.6678,-107.606 z
M -62.7916,-91.8214 L -75.6786,-97.2916 L -70.2084,-110.179 L -57.3213,-104.708 z
M 57.3213,-104.708 L 70.2084,-110.179 L 75.6786,-97.2916 L 62.7916,-91.8214 z
M -82.8163,-92.028 L -95.972,-96.8163 L -91.1837,-109.972 L -78.028,-105.184 z
M 78.028,-105.184 L 91.1837,-109.972 L 95.972,-96.8163 L 82.8163,-92.028 z
M -118.573,-86.0502 L -114.95,-99.5732 L -101.427,-95.9497 L -105.05,-82.4268 z
M 21.4628,-90.966 L 34.1511,-96.8827 L 40.0677,-84.1944 L 27.3794,-78.2777 z
M -27.3794,-78.2777 L -40.0677,-84.1944 L -34.1511,-96.8827 L -21.4628,-90.966 z
M 42.6975,-90.3858 L 55.3858,-96.3025 L 61.3025,-83.6142 L 48.6142,-77.6975 z
M -48.6142,-77.6975 L -61.3025,-83.6142 L -55.3858,-96.3025 L -42.6975,-90.3858 z
M -83.8163,-70.028 L -96.972,-74.8163 L -92.1837,-87.972 L -79.028,-83.1837 z
M 79.028,-83.1837 L 92.1837,-87.972 L 96.972,-74.8163 L 83.8163,-70.028 z
M -58.6142,-56.6975 L -71.3025,-62.6142 L -65.3858,-75.3025 L -52.6975,-69.3858 z
M 52.6975,-69.3858 L 65.3858,-75.3025 L 71.3025,-62.6142 L 58.6142,-56.6975 z
M 31.1005,-57 L 41,-66.8995 L 50.8995,-57 L 41,-47.1005 z
M -50.8995,-57 L -41,-66.8995 L -31.1005,-57 L -41,-47.1005 z
M 32.7287,-28.484 L 20.484,-35.2713 L 27.2713,-47.516 L 39.516,-40.7287 z
M -39.516,-40.7287 L -27.2713,-47.516 L -20.484,-35.2713 L -32.7287,-28.484 z
M 13.6048,-12.7541 L 16.7541,-26.3952 L 30.3952,-23.2459 L 27.2459,-9.60475 z
M -30.3952,-23.2459 L -16.7541,-26.3952 L -13.6048,-12.7541 L -27.2459,-9.60475 z
M 101.427,-95.9497 L 114.95,-99.5732 L 118.573,-86.0502 L 105.05,-82.4268 z
" stroke="black" fill="lightgray" stroke-width="0.5"/>
</svg>
