<?xml version="1.0" standalone="no"?>
<!DOCTYPE svg PUBLIC "-//W3C//DTD SVG 1.1//EN" "http://www.w3.org/Graphics/SVG/1.1/DTD/svg11.dtd">
<svg width="280mm" height="161mm" viewBox="-140 -167 280 161" xmlns="http://www.w3.org/2000/svg" version="1.1">
<title>OpenSCAD Model</title>
<path d="
M 34.3934,-6.53789 L 34.4649,-6.82359 L 35.4468,-10.3716 L 35.5323,-10.6534 L 36.687,-14.1488 L 36.7862,-14.4261
 L 38.1111,-17.8606 L 38.2238,-18.1327 L 39.7155,-21.4981 L 39.8414,-21.7643 L 41.4966,-25.0524 L 41.6354,-25.3121
 L 43.4498,-28.5151 L 43.6012,-28.7677 L 45.5706,-31.8777 L 45.7343,-32.1226 L 47.8539,-35.1323 L 48.0293,-35.3688
 L 50.2941,-38.2709 L 50.4809,-38.4985 L 52.8854,-41.286 L 53.0832,-41.5042 L 55.6215,-44.1702 L 55.8297,-44.3785
 L 58.4958,-46.9168 L 58.714,-47.1146 L 61.5014,-49.519 L 61.7291,-49.7059 L 64.6312,-51.9706 L 64.8677,-52.1461
 L 67.8774,-54.2657 L 68.1223,-54.4294 L 71.2323,-56.3988 L 71.4849,-56.5502 L 74.6878,-58.3646 L 74.9475,-58.5034
 L 78.2357,-60.1585 L 78.5019,-60.2845 L 81.8672,-61.7762 L 82.1393,-61.8889 L 85.5739,-63.2137 L 85.8512,-63.313
 L 89.3466,-64.4677 L 89.6284,-64.5532 L 93.1763,-65.535 L 93.462,-65.6066 L 97.0535,-66.4131 L 97.3424,-66.4706
 L 100.969,-67.0999 L 101.261,-67.1431 L 104.914,-67.5937 L 105.207,-67.6226 L 108.878,-67.8934 L 109.173,-67.9079
 L 112.853,-67.9982 L 113.147,-67.9982 L 116.827,-67.9079 L 117.121,-67.8934 L 120.793,-67.6226 L 121.086,-67.5937
 L 124.739,-67.1431 L 125.031,-67.0999 L 128.658,-66.4706 L 128.946,-66.4131 L 130.637,-66.0335 L 131.987,-68.4174
 L 133.466,-71.3545 L 134.798,-74.3611 L 135.982,-77.4288 L 137.013,-80.5517 L 137.89,-83.7205 L 138.611,-86.9294
 L 139.173,-90.1693 L 139.576,-93.433 L 139.817,-96.7125 L 139.898,-100 L 139.817,-103.287 L 139.576,-106.567
 L 139.173,-109.831 L 138.611,-113.071 L 137.89,-116.279 L 137.013,-119.448 L 135.982,-122.571 L 134.798,-125.639
 L 133.466,-128.645 L 131.987,-131.583 L 130.366,-134.444 L 128.607,-137.222 L 126.713,-139.911 L 124.69,-142.503
 L 122.542,-144.993 L 120.275,-147.375 L 117.893,-149.642 L 115.403,-151.79 L 112.811,-153.813 L 110.122,-155.707
 L 107.344,-157.466 L 104.483,-159.087 L 101.545,-160.566 L 98.5391,-161.898 L 95.471,-163.082 L 92.3485,-164.113
 L 89.1792,-164.99 L 85.9709,-165.711 L 82.7307,-166.273 L 79.4668,-166.676 L 76.1877,-166.917 L 72.9,-166.998
 L 69.6123,-166.917 L 66.3332,-166.676 L 63.0693,-166.273 L 59.8294,-165.711 L 56.6205,-164.99 L 53.4516,-164.113
 L 50.3289,-163.082 L 47.2609,-161.898 L 44.2547,-160.566 L 41.3173,-159.087 L 38.4559,-157.466 L 35.6778,-155.707
 L 32.9892,-153.813 L 30.3969,-151.79 L 27.9067,-149.642 L 25.5251,-147.375 L 23.2575,-144.993 L 21.1098,-142.503
 L 20.1774,-141.309 L 19.9906,-141.081 L 19.7928,-140.863 L 19.5846,-140.655 L 19.3664,-140.457 L 19.1387,-140.27
 L 18.9022,-140.094 L 18.6573,-139.931 L 18.4047,-139.779 L 18.145,-139.641 L 17.8788,-139.515 L 17.6067,-139.402
 L 17.3294,-139.303 L 17.0476,-139.217 L 16.7619,-139.146 L 16.4731,-139.088 L 16.1818,-139.045 L 15.8887,-139.016
 L 15.4474,-139 L -15.4474,-139 L -15.7418,-139.007 L -16.0355,-139.029 L -16.3277,-139.065 L -16.6179,-139.115
 L -16.9052,-139.18 L -17.1891,-139.258 L -17.4687,-139.351 L -17.7435,-139.457 L -18.0127,-139.576 L -18.2757,-139.708
 L -18.532,-139.854 L -18.7808,-140.011 L -19.0215,-140.181 L -19.2537,-140.362 L -19.4767,-140.554 L -19.69,-140.757
 L -19.8931,-140.971 L -20.1774,-141.309 L -21.1098,-142.503 L -23.2575,-144.993 L -25.5251,-147.375 L -27.9067,-149.642
 L -30.3969,-151.79 L -32.9892,-153.813 L -35.6778,-155.707 L -38.4559,-157.466 L -41.3173,-159.087 L -44.2547,-160.566
 L -47.2609,-161.898 L -50.3289,-163.082 L -53.4516,-164.113 L -56.6205,-164.99 L -59.8294,-165.711 L -63.0693,-166.273
 L -66.3332,-166.676 L -69.6123,-166.917 L -72.9,-166.998 L -76.1877,-166.917 L -79.4668,-166.676 L -82.7307,-166.273
 L -85.9709,-165.711 L -89.1792,-164.99 L -92.3485,-164.113 L -95.471,-163.082 L -98.5391,-161.898 L -101.545,-160.566
 L -104.483,-159.087 L -107.344,-157.466 L -110.122,-155.707 L -112.811,-153.813 L -115.403,-151.79 L -117.893,-149.642
 L -120.275,-147.375 L -122.542,-144.993 L -124.69,-142.503 L -126.713,-139.911 L -128.607,-137.222 L -130.366,-134.444
 L -131.987,-131.583 L -133.466,-128.645 L -134.798,-125.639 L -135.982,-122.571 L -137.013,-119.448 L -137.89,-116.279
 L -138.611,-113.071 L -139.173,-109.831 L -139.576,-106.567 L -139.817,-103.287 L -139.898,-100 L -139.817,-96.7125
 L -139.576,-93.433 L -139.173,-90.1693 L -138.611,-86.9294 L -137.89,-83.7205 L -137.013,-80.5517 L -135.982,-77.4288
 L -134.798,-74.3611 L -133.466,-71.3545 L -131.987,-68.4174 L -130.637,-66.0335 L -128.946,-66.4131 L -128.658,-66.4706
 L -125.031,-67.0999 L -124.739,-67.1431 L -121.086,-67.5937 L -120.793,-67.6226 L -117.121,-67.8934 L -116.827,-67.9079
 L -113.147,-67.9982 L -112.853,-67.9982 L -109.173,-67.9079 L -108.878,-67.8934 L -105.207,-67.6226 L -104.914,-67.5937
 L -101.261,-67.1431 L -100.969,-67.0999 L -97.3424,-66.4706 L -97.0535,-66.4131 L -93.462,-65.6066 L -93.1763,-65.535
 L -89.6284,-64.5532 L -89.3466,-64.4677 L -85.8512,-63.313 L -85.5739,-63.2137 L -82.1393,-61.8889 L -81.8672,-61.7762
 L -78.5019,-60.2845 L -78.2357,-60.1585 L -74.9475,-58.5034 L -74.6878,-58.3646 L -71.4849,-56.5502 L -71.2323,-56.3988
 L -68.1223,-54.4294 L -67.8774,-54.2657 L -64.8677,-52.1461 L -64.6312,-51.9706 L -61.7291,-49.7059 L -61.5014,-49.519
 L -58.714,-47.1146 L -58.4958,-46.9168 L -55.8297,-44.3785 L -55.6215,-44.1702 L -53.0832,-41.5042 L -52.8854,-41.286
 L -50.4809,-38.4985 L -50.2941,-38.2709 L -48.0293,-35.3688 L -47.8539,-35.1323 L -45.7343,-32.1226 L -45.5706,-31.8777
 L -43.6012,-28.7677 L -43.4498,-28.5151 L -41.6354,-25.3121 L -41.4966,-25.0524 L -39.8414,-21.7643 L -39.7155,-21.4981
 L -38.2238,-18.1327 L -38.1111,-17.8606 L -36.7862,-14.4261 L -36.687,-14.1488 L -35.5323,-10.6534 L -35.4468,-10.3716
 L -34.4649,-6.82359 L -34.3934,-6.53789 L -34.2726,-6 L 34.2726,-6 z
M -74.0481,-129.275 L -74.2191,-128.806 L -78.9176,-130.516 L -78.7466,-130.986 L -82.9752,-132.525 L -78.1869,-145.68
 L -73.9583,-144.141 L -73.7873,-144.611 L -69.0889,-142.901 L -69.2599,-142.431 L -65.0312,-140.892 L -69.8195,-127.736
 z
M 65.0312,-140.892 L 69.2599,-142.431 L 69.0889,-142.901 L 73.7873,-144.611 L 73.9583,-144.141 L 78.1869,-145.68
 L 82.9752,-132.525 L 78.7466,-130.986 L 78.9176,-130.516 L 74.2191,-128.806 L 74.0481,-129.275 L 69.8195,-127.736
 z
M 42.4736,-139.688 L 46.6158,-141.446 L 46.4205,-141.906 L 51.023,-143.86 L 51.2184,-143.4 L 55.3606,-145.158
 L 60.8309,-132.271 L 56.6886,-130.512 L 56.884,-130.052 L 52.2814,-128.099 L 52.0861,-128.559 L 47.9438,-126.801
 z
M -52.0861,-128.559 L -52.2814,-128.099 L -56.884,-130.052 L -56.6886,-130.512 L -60.8309,-132.271 L -55.3606,-145.158
 L -51.2184,-143.4 L -51.023,-143.86 L -46.4205,-141.906 L -46.6158,-141.446 L -42.4736,-139.688 L -47.9438,-126.801
 z
M 91.5917,-132.655 L 95.9383,-133.82 L 95.8089,-134.303 L 100.639,-135.597 L 100.768,-135.114 L 105.115,-136.278
 L 108.738,-122.755 L 104.391,-121.591 L 104.521,-121.108 L 99.6912,-119.814 L 99.5618,-120.297 L 95.2151,-119.132
 z
M -99.5618,-120.297 L -99.6912,-119.814 L -104.521,-121.108 L -104.391,-121.591 L -108.738,-122.755 L -105.115,-136.278
 L -100.768,-135.114 L -100.639,-135.597 L -95.8089,-134.303 L -95.9383,-133.82 L -91.5917,-132.655 L -95.2151,-119.132
 z
M -120.373,-116.038 L -120.503,-115.555 L -125.332,-116.849 L -125.203,-117.332 L -129.549,-118.497 L -125.926,-132.02
 L -121.579,-130.855 L -121.45,-131.338 L -116.62,-130.044 L -116.75,-129.561 L -112.403,-128.396 L -116.026,-114.873
 z
M 112.403,-128.396 L 116.75,-129.561 L 116.62,-130.044 L 121.45,-131.338 L 121.579,-130.855 L 125.926,-132.02
 L 129.549,-118.497 L 125.203,-117.332 L 125.332,-116.849 L 120.503,-115.555 L 120.373,-116.038 L 116.026,-114.873
 z
M 26.638,-124.826 L 30.7164,-126.727 L 30.5051,-127.18 L 35.0366,-129.294 L 35.2479,-128.84 L 39.3263,-130.742
 L 45.243,-118.054 L 41.1646,-116.152 L 41.3759,-115.699 L 36.8444,-113.586 L 36.6331,-114.039 L 32.5547,-112.137
 z
M -36.6331,-114.039 L -36.8444,-113.586 L -41.3759,-115.699 L -41.1646,-116.152 L -45.243,-118.054 L -39.3263,-130.742
 L -35.2479,-128.84 L -35.0366,-129.294 L -30.5051,-127.18 L -30.7164,-126.727 L -26.638,-124.826 L -32.5547,-112.137
 z
M -80.5465,-111.421 L -80.7175,-110.951 L -85.416,-112.662 L -85.245,-113.131 L -89.4736,-114.67 L -84.6853,-127.826
 L -80.4567,-126.287 L -80.2857,-126.757 L -75.5872,-125.047 L -75.7582,-124.577 L -71.5296,-123.038 L -76.3179,-109.882
 z
M 71.5296,-123.038 L 75.7582,-124.577 L 75.5872,-125.047 L 80.2857,-126.757 L 80.4567,-126.287 L 84.6853,-127.826
 L 89.4736,-114.67 L 85.245,-113.131 L 85.416,-112.662 L 80.7175,-110.951 L 80.5465,-111.421 L 76.3179,-109.882
 z
M 49.8974,-122.198 L 54.0397,-123.956 L 53.8444,-124.417 L 58.4469,-126.37 L 58.6422,-125.91 L 62.7845,-127.668
 L 68.2548,-114.781 L 64.1125,-113.023 L 64.3078,-112.563 L 59.7053,-110.609 L 59.51,-111.069 L 55.3677,-109.311
 z
M -59.51,-111.069 L -59.7053,-110.609 L -64.3078,-112.563 L -64.1125,-113.023 L -68.2548,-114.781 L -62.7845,-127.668
 L -58.6422,-125.91 L -58.4469,-126.37 L -53.8444,-124.417 L -54.0397,-123.956 L -49.8974,-122.198 L -55.3677,-109.311
 z
M 96.5092,-114.302 L 100.856,-115.467 L 100.726,-115.95 L 105.556,-117.244 L 105.686,-116.761 L 110.032,-117.926
 L 113.656,-104.403 L 109.309,-103.238 L 109.438,-102.755 L 104.609,-101.461 L 104.479,-101.944 L 100.133,-100.779
 z
M -104.479,-101.944 L -104.609,-101.461 L -109.438,-102.755 L -109.309,-103.238 L -113.656,-104.403 L -110.032,-117.926
 L -105.686,-116.761 L -105.556,-117.244 L -100.726,-115.95 L -100.856,-115.467 L -96.5092,-114.302 L -100.133,-100.779
 z
M -23.4281,-97.3993 L -23.6394,-96.9462 L -28.1709,-99.0593 L -27.9596,-99.5124 L -32.038,-101.414 L -26.1214,-114.103
 L -22.043,-112.201 L -21.8317,-112.654 L -17.3001,-110.541 L -17.5114,-110.088 L -13.433,-108.186 L -19.3497,-95.4975
 z
M 13.433,-108.186 L 17.5114,-110.088 L 17.3001,-110.541 L 21.8317,-112.654 L 22.043,-112.201 L 26.1214,-114.103
 L 32.038,-101.414 L 27.9596,-99.5124 L 28.1709,-99.0593 L 23.6394,-96.9462 L 23.4281,-97.3993 L 19.3497,-95.4975
 z
M 117.321,-110.044 L 121.667,-111.208 L 121.538,-111.691 L 126.367,-112.985 L 126.497,-112.502 L 130.844,-113.667
 L 134.467,-100.144 L 130.12,-98.9794 L 130.25,-98.4965 L 125.42,-97.2024 L 125.291,-97.6853 L 120.944,-96.5206
 z
M -125.291,-97.6853 L -125.42,-97.2024 L -130.25,-98.4965 L -130.12,-98.9794 L -134.467,-100.144 L -130.844,-113.667
 L -126.497,-112.502 L -126.367,-112.985 L -121.538,-111.691 L -121.667,-111.208 L -117.321,-110.044 L -120.944,-96.5206
 z
M -44.6628,-96.8191 L -44.8741,-96.366 L -49.4057,-98.4791 L -49.1944,-98.9322 L -53.2727,-100.834 L -47.3561,-113.522
 L -43.2777,-111.621 L -43.0664,-112.074 L -38.5348,-109.961 L -38.7462,-109.507 L -34.6678,-107.606 L -40.5844,-94.9174
 z
M 34.6678,-107.606 L 38.7462,-109.507 L 38.5348,-109.961 L 43.0664,-112.074 L 43.2777,-111.621 L 47.3561,-113.522
 L 53.2727,-100.834 L 49.1944,-98.9322 L 49.4057,-98.4791 L 44.8741,-96.366 L 44.6628,-96.8191 L 40.5844,-94.9174
 z
M -66.9339,-93.5796 L -67.1292,-93.1194 L -71.7317,-95.073 L -71.5364,-95.5333 L -75.6786,-97.2916 L -70.2084,-110.179
 L -66.0661,-108.42 L -65.8708,-108.881 L -61.2682,-106.927 L -61.4636,-106.467 L -57.3213,-104.708 L -62.7916,-91.8214
 z
M 57.3213,-104.708 L 61.4636,-106.467 L 61.2682,-106.927 L 65.8708,-108.881 L 66.0661,-108.42 L 70.2084,-110.179
 L 75.6786,-97.2916 L 71.5364,-95.5333 L 71.7317,-95.073 L 67.1292,-93.1194 L 66.9339,-93.5796 L 62.7916,-91.8214
 z
M -87.0449,-93.5671 L -87.2159,-93.0972 L -91.9144,-94.8074 L -91.7434,-95.2772 L -95.972,-96.8163 L -91.1837,-109.972
 L -86.9551,-108.433 L -86.7841,-108.903 L -82.0856,-107.193 L -82.2566,-106.723 L -78.028,-105.184 L -82.8163,-92.028
 z
M 78.028,-105.184 L 82.2566,-106.723 L 82.0856,-107.193 L 86.7841,-108.903 L 86.9551,-108.433 L 91.1837,-109.972
 L 95.972,-96.8163 L 91.7434,-95.2772 L 91.9144,-94.8074 L 87.2159,-93.0972 L 87.0449,-93.5671 L 82.8163,-92.028
 z
M 101.427,-95.9497 L 105.773,-97.1144 L 105.644,-97.5974 L 110.474,-98.8915 L 110.603,-98.4085 L 114.95,-99.5732
 L 118.573,-86.0502 L 114.227,-84.8856 L 114.356,-84.4026 L 109.526,-83.1085 L 109.397,-83.5915 L 105.05,-82.4268
 z
M -109.397,-83.5915 L -109.526,-83.1085 L -114.356,-84.4026 L -114.227,-84.8856 L -118.573,-86.0502 L -114.95,-99.5732
 L -110.603,-98.4085 L -110.474,-98.8915 L -105.644,-97.5974 L -105.773,-97.1144 L -101.427,-95.9497 L -105.05,-82.4268
 z
M -31.4578,-80.1795 L -31.6691,-79.7263 L -36.2007,-81.8394 L -35.9894,-82.2926 L -40.0677,-84.1944 L -34.1511,-96.8827
 L -30.0727,-94.9809 L -29.8614,-95.434 L -25.3299,-93.3209 L -25.5412,-92.8678 L -21.4628,-90.966 L -27.3794,-78.2777
 z
M 21.4628,-90.966 L 25.5412,-92.8678 L 25.3299,-93.3209 L 29.8614,-95.434 L 30.0727,-94.9809 L 34.1511,-96.8827
 L 40.0677,-84.1944 L 35.9894,-82.2926 L 36.2007,-81.8394 L 31.6691,-79.7263 L 31.4578,-80.1795 L 27.3794,-78.2777
 z
M -52.6926,-79.5993 L -52.9039,-79.1461 L -57.4354,-81.2592 L -57.2241,-81.7124 L -61.3025,-83.6142 L -55.3858,-96.3025
 L -51.3074,-94.4007 L -51.0961,-94.8539 L -46.5646,-92.7408 L -46.7759,-92.2876 L -42.6975,-90.3858 L -48.6142,-77.6975
 z
M 42.6975,-90.3858 L 46.7759,-92.2876 L 46.5646,-92.7408 L 51.0961,-94.8539 L 51.3074,-94.4007 L 55.3858,-96.3025
 L 61.3025,-83.6142 L 57.2241,-81.7124 L 57.4354,-81.2592 L 52.9039,-79.1461 L 52.6926,-79.5993 L 48.6142,-77.6975
 z
M -88.0449,-71.5671 L -88.2159,-71.0972 L -92.9144,-72.8074 L -92.7434,-73.2772 L -96.972,-74.8163 L -92.1837,-87.972
 L -87.9551,-86.4329 L -87.7841,-86.9027 L -83.0856,-85.1926 L -83.2566,-84.7228 L -79.028,-83.1837 L -83.8163,-70.028
 z
M 79.028,-83.1837 L 83.2566,-84.7228 L 83.0856,-85.1926 L 87.7841,-86.9027 L 87.9551,-86.4329 L 92.1837,-87.972
 L 96.972,-74.8163 L 92.7434,-73.2772 L 92.9144,-72.8074 L 88.2159,-71.0972 L 88.0449,-71.5671 L 83.8163,-70.028
 z
M -62.6926,-58.5993 L -62.9039,-58.1461 L -67.4354,-60.2592 L -67.2241,-60.7124 L -71.3025,-62.6142 L -65.3858,-75.3025
 L -61.3074,-73.4007 L -61.0961,-73.8539 L -56.5646,-71.7408 L -56.7759,-71.2876 L -52.6975,-69.3858 L -58.6142,-56.6975
 z
M 52.6975,-69.3858 L 56.7759,-71.2876 L 56.5646,-71.7408 L 61.0961,-73.8539 L 61.3074,-73.4007 L 65.3858,-75.3025
 L 71.3025,-62.6142 L 67.2241,-60.7124 L 67.4354,-60.2592 L 62.9039,-58.1461 L 62.6926,-58.5993 L 58.6142,-56.6975
 z
M 37.818,-50.2825 L 37.4645,-49.9289 L 33.9289,-53.4645 L 34.2825,-53.818 L 31.1005,-57 L 41,-66.8995
 L 44.182,-63.7175 L 44.5355,-64.0711 L 48.0711,-60.5355 L 47.7175,-60.182 L 50.8995,-57 L 41,-47.1005
 z
M -50.8995,-57 L -47.7175,-60.182 L -48.0711,-60.5355 L -44.5355,-64.0711 L -44.182,-63.7175 L -41,-66.8995
 L -31.1005,-57 L -34.2825,-53.818 L -33.9289,-53.4645 L -37.4645,-49.9289 L -37.818,-50.2825 L -41,-47.1005
 z
M 28.7929,-30.6656 L 28.5505,-30.2283 L 24.1774,-32.6524 L 24.4198,-33.0897 L 20.484,-35.2713 L 27.2713,-47.516
 L 31.2071,-45.3344 L 31.4495,-45.7717 L 35.8226,-43.3476 L 35.5802,-42.9103 L 39.516,-40.7287 L 32.7287,-28.484
 z
M -39.516,-40.7287 L -35.5802,-42.9103 L -35.8226,-43.3476 L -31.4495,-45.7717 L -31.2071,-45.3344 L -27.2713,-47.516
 L -20.484,-35.2713 L -24.4198,-33.0897 L -24.1774,-32.6524 L -28.5505,-30.2283 L -28.7929,-30.6656 L -32.7287,-28.484
 z
M -17.9894,-11.7418 L -17.8769,-11.2546 L -22.7488,-10.1298 L -22.8613,-10.617 L -27.2459,-9.60475 L -30.3952,-23.2459
 L -26.0106,-24.2582 L -26.123,-24.7454 L -21.2512,-25.8701 L -21.1387,-25.383 L -16.7541,-26.3952 L -13.6048,-12.7541
 z
M 22.8613,-10.617 L 22.7488,-10.1298 L 17.8769,-11.2546 L 17.9894,-11.7418 L 13.6048,-12.7541 L 16.7541,-26.3952
 L 21.1387,-25.383 L 21.2512,-25.8701 L 26.123,-24.7454 L 26.0106,-24.2582 L 30.3952,-23.2459 L 27.2459,-9.60475
 z
" stroke="black" fill="lightgray" stroke-width="0.5"/>
</svg>
