<?xml version="1.0" standalone="no"?>
<!DOCTYPE svg PUBLIC "-//W3C//DTD SVG 1.1//EN" "http://www.w3.org/Graphics/SVG/1.1/DTD/svg11.dtd">
<svg width="274mm" height="158mm" viewBox="-137 -164 274 158" xmlns="http://www.w3.org/2000/svg" version="1.1">
<title>OpenSCAD Model</title>
<path d="
M 29.687,-9.14883 L 29.7862,-9.42612 L 31.1111,-12.8606 L 31.2238,-13.1327 L 32.7155,-16.4981 L 32.8414,-16.7643
 L 34.4966,-20.0524 L 34.6354,-20.3121 L 36.4498,-23.5151 L 36.6012,-23.7677 L 38.5706,-26.8777 L 38.7343,-27.1226
 L 40.8539,-30.1323 L 41.0293,-30.3688 L 43.2941,-33.2709 L 43.4809,-33.4985 L 45.8854,-36.286 L 46.0832,-36.5042
 L 48.6215,-39.1702 L 48.8297,-39.3785 L 51.4958,-41.9168 L 51.714,-42.1146 L 54.5014,-44.519 L 54.7291,-44.7059
 L 57.6312,-46.9706 L 57.8677,-47.1461 L 60.8774,-49.2657 L 61.1223,-49.4294 L 64.2323,-51.3988 L 64.4849,-51.5502
 L 67.6878,-53.3646 L 67.9475,-53.5034 L 71.2357,-55.1585 L 71.5019,-55.2845 L 74.8672,-56.7762 L 75.1393,-56.8889
 L 78.5739,-58.2137 L 78.8512,-58.313 L 82.3466,-59.4677 L 82.6284,-59.5532 L 86.1763,-60.535 L 86.462,-60.6066
 L 90.0535,-61.4131 L 90.3424,-61.4706 L 93.9694,-62.0999 L 94.2606,-62.1431 L 97.9142,-62.5937 L 98.2073,-62.6226
 L 101.878,-62.8934 L 102.173,-62.9079 L 105.853,-62.9982 L 106.147,-62.9982 L 109.827,-62.9079 L 110.121,-62.8934
 L 113.793,-62.6226 L 114.086,-62.5937 L 117.739,-62.1431 L 118.031,-62.0999 L 121.658,-61.4706 L 121.947,-61.4131
 L 122.838,-61.213 L 124.601,-63.472 L 126.381,-65.9999 L 128.035,-68.6125 L 129.559,-71.3029 L 130.95,-74.0648
 L 132.203,-76.8914 L 133.316,-79.7766 L 134.285,-82.7125 L 135.11,-85.6929 L 135.788,-88.7095 L 136.316,-91.7562
 L 136.695,-94.8251 L 136.922,-97.9088 L 136.998,-101 L 136.922,-104.091 L 136.695,-107.175 L 136.316,-110.244
 L 135.788,-113.29 L 135.11,-116.307 L 134.285,-119.287 L 133.316,-122.223 L 132.203,-125.109 L 130.95,-127.935
 L 129.559,-130.697 L 128.035,-133.387 L 126.381,-136 L 124.601,-138.528 L 122.698,-140.965 L 120.679,-143.307
 L 118.546,-145.546 L 116.307,-147.679 L 113.965,-149.698 L 111.528,-151.601 L 109,-153.381 L 106.387,-155.035
 L 103.697,-156.559 L 100.935,-157.95 L 98.1085,-159.203 L 95.2234,-160.316 L 92.2875,-161.285 L 89.3071,-162.11
 L 86.2905,-162.788 L 83.2438,-163.316 L 80.1749,-163.695 L 77.0912,-163.922 L 74,-163.998 L 70.9088,-163.922
 L 67.8251,-163.695 L 64.7562,-163.316 L 61.7095,-162.788 L 58.6929,-162.11 L 55.7125,-161.285 L 52.7766,-160.316
 L 49.8914,-159.203 L 47.0648,-157.95 L 44.3029,-156.559 L 41.6125,-155.035 L 38.9999,-153.381 L 36.472,-151.601
 L 34.0345,-149.698 L 31.6929,-147.679 L 29.4536,-145.546 L 27.3215,-143.307 L 25.3016,-140.965 L 23.3994,-138.528
 L 22.0029,-136.545 L 21.8275,-136.309 L 21.6407,-136.081 L 21.4429,-135.863 L 21.2346,-135.655 L 21.0164,-135.457
 L 20.7888,-135.27 L 20.5523,-135.094 L 20.3074,-134.931 L 20.0548,-134.779 L 19.7951,-134.641 L 19.5289,-134.515
 L 19.2568,-134.402 L 18.9795,-134.303 L 18.6977,-134.217 L 18.412,-134.146 L 18.1232,-134.088 L 17.8319,-134.045
 L 17.5388,-134.016 L 17.0974,-134 L -17.0974,-134 L -17.3918,-134.007 L -17.6855,-134.029 L -17.9778,-134.065
 L -18.268,-134.115 L -18.5553,-134.18 L -18.8391,-134.258 L -19.1187,-134.351 L -19.3935,-134.457 L -19.6628,-134.576
 L -19.9258,-134.708 L -20.182,-134.854 L -20.4308,-135.011 L -20.6716,-135.181 L -20.9038,-135.362 L -21.1268,-135.554
 L -21.3401,-135.757 L -21.5431,-135.971 L -21.7355,-136.194 L -22.0029,-136.545 L -23.3994,-138.528 L -25.3016,-140.965
 L -27.3215,-143.307 L -29.4536,-145.546 L -31.6929,-147.679 L -34.0345,-149.698 L -36.472,-151.601 L -38.9999,-153.381
 L -41.6125,-155.035 L -44.3029,-156.559 L -47.0648,-157.95 L -49.8914,-159.203 L -52.7766,-160.316 L -55.7125,-161.285
 L -58.6929,-162.11 L -61.7095,-162.788 L -64.7562,-163.316 L -67.8251,-163.695 L -70.9088,-163.922 L -74,-163.998
 L -77.0912,-163.922 L -80.1749,-163.695 L -83.2438,-163.316 L -86.2905,-162.788 L -89.3071,-162.11 L -92.2875,-161.285
 L -95.2234,-160.316 L -98.1085,-159.203 L -100.935,-157.95 L -103.697,-156.559 L -106.387,-155.035 L -109,-153.381
 L -111.528,-151.601 L -113.965,-149.698 L -116.307,-147.679 L -118.546,-145.546 L -120.679,-143.307 L -122.698,-140.965
 L -124.601,-138.528 L -126.381,-136 L -128.035,-133.387 L -129.559,-130.697 L -130.95,-127.935 L -132.203,-125.109
 L -133.316,-122.223 L -134.285,-119.287 L -135.11,-116.307 L -135.788,-113.29 L -136.316,-110.244 L -136.695,-107.175
 L -136.922,-104.091 L -136.998,-101 L -136.922,-97.9088 L -136.695,-94.8251 L -136.316,-91.7562 L -135.788,-88.7095
 L -135.11,-85.6929 L -134.285,-82.7125 L -133.316,-79.7766 L -132.203,-76.8914 L -130.95,-74.0648 L -129.559,-71.3029
 L -128.035,-68.6125 L -126.381,-65.9999 L -124.601,-63.472 L -122.838,-61.213 L -121.947,-61.4131 L -121.658,-61.4706
 L -118.031,-62.0999 L -117.739,-62.1431 L -114.086,-62.5937 L -113.793,-62.6226 L -110.121,-62.8934 L -109.827,-62.9079
 L -106.147,-62.9982 L -105.853,-62.9982 L -102.173,-62.9079 L -101.878,-62.8934 L -98.2073,-62.6226 L -97.9142,-62.5937
 L -94.2606,-62.1431 L -93.9694,-62.0999 L -90.3424,-61.4706 L -90.0535,-61.4131 L -86.462,-60.6066 L -86.1763,-60.535
 L -82.6284,-59.5532 L -82.3466,-59.4677 L -78.8512,-58.313 L -78.5739,-58.2137 L -75.1393,-56.8889 L -74.8672,-56.7762
 L -71.5019,-55.2845 L -71.2357,-55.1585 L -67.9475,-53.5034 L -67.6878,-53.3646 L -64.4849,-51.5502 L -64.2323,-51.3988
 L -61.1223,-49.4294 L -60.8774,-49.2657 L -57.8677,-47.1461 L -57.6312,-46.9706 L -54.7291,-44.7059 L -54.5014,-44.519
 L -51.714,-42.1146 L -51.4958,-41.9168 L -48.8297,-39.3785 L -48.6215,-39.1702 L -46.0832,-36.5042 L -45.8854,-36.286
 L -43.4809,-33.4985 L -43.2941,-33.2709 L -41.0293,-30.3688 L -40.8539,-30.1323 L -38.7343,-27.1226 L -38.5706,-26.8777
 L -36.6012,-23.7677 L -36.4498,-23.5151 L -34.6354,-20.3121 L -34.4966,-20.0524 L -32.8414,-16.7643 L -32.7155,-16.4981
 L -31.2238,-13.1327 L -31.1111,-12.8606 L -29.7862,-9.42612 L -29.687,-9.14883 L -28.6468,-6 L 28.6468,-6
 z
" stroke="black" fill="lightgray" stroke-width="0.5"/>
</svg>
