%TF.GenerationSoftware,KiCad,Pcbnew,(6.0.7-1)-1*%
%TF.CreationDate,2022-12-04T14:42:11+01:00*%
%TF.ProjectId,pork-chop-control,706f726b-2d63-4686-9f70-2d636f6e7472,rev?*%
%TF.SameCoordinates,Original*%
%TF.FileFunction,Copper,L2,Bot*%
%TF.FilePolarity,Positive*%
%FSLAX46Y46*%
G04 Gerber Fmt 4.6, Leading zero omitted, Abs format (unit mm)*
G04 Created by KiCad (PCBNEW (6.0.7-1)-1) date 2022-12-04 14:42:11*
%MOMM*%
%LPD*%
G01*
G04 APERTURE LIST*
G04 Aperture macros list*
%AMRoundRect*
0 Rectangle with rounded corners*
0 $1 Rounding radius*
0 $2 $3 $4 $5 $6 $7 $8 $9 X,Y pos of 4 corners*
0 Add a 4 corners polygon primitive as box body*
4,1,4,$2,$3,$4,$5,$6,$7,$8,$9,$2,$3,0*
0 Add four circle primitives for the rounded corners*
1,1,$1+$1,$2,$3*
1,1,$1+$1,$4,$5*
1,1,$1+$1,$6,$7*
1,1,$1+$1,$8,$9*
0 Add four rect primitives between the rounded corners*
20,1,$1+$1,$2,$3,$4,$5,0*
20,1,$1+$1,$4,$5,$6,$7,0*
20,1,$1+$1,$6,$7,$8,$9,0*
20,1,$1+$1,$8,$9,$2,$3,0*%
G04 Aperture macros list end*
%TA.AperFunction,ComponentPad*%
%ADD10C,3.500000*%
%TD*%
%TA.AperFunction,ComponentPad*%
%ADD11C,1.478000*%
%TD*%
%TA.AperFunction,ComponentPad*%
%ADD12R,1.478000X1.478000*%
%TD*%
%TA.AperFunction,ComponentPad*%
%ADD13RoundRect,0.250000X0.600000X0.600000X-0.600000X0.600000X-0.600000X-0.600000X0.600000X-0.600000X0*%
%TD*%
%TA.AperFunction,ComponentPad*%
%ADD14C,1.700000*%
%TD*%
%TA.AperFunction,ComponentPad*%
%ADD15RoundRect,0.250000X-0.600000X-0.600000X0.600000X-0.600000X0.600000X0.600000X-0.600000X0.600000X0*%
%TD*%
%TA.AperFunction,ComponentPad*%
%ADD16C,5.600000*%
%TD*%
%TA.AperFunction,ViaPad*%
%ADD17C,0.800000*%
%TD*%
%TA.AperFunction,Conductor*%
%ADD18C,0.250000*%
%TD*%
G04 APERTURE END LIST*
D10*
%TO.P,J1,5,Shield*%
%TO.N,GNDPWR*%
X121000000Y-63000000D03*
X129000000Y-63000000D03*
D11*
%TO.P,J1,4,GND*%
%TO.N,Net-(C8-Pad2)*%
X123750000Y-67490000D03*
%TO.P,J1,3,D+*%
%TO.N,/D+*%
X126250000Y-67490000D03*
%TO.P,J1,2,D-*%
%TO.N,/D-*%
X126250000Y-69490000D03*
D12*
%TO.P,J1,1,VBUS*%
%TO.N,Net-(FB2-Pad2)*%
X123750000Y-69490000D03*
%TD*%
D13*
%TO.P,J2,1,Pin_1*%
%TO.N,C0*%
X117697500Y-113080000D03*
D14*
%TO.P,J2,2,Pin_2*%
%TO.N,C1*%
X115157500Y-113080000D03*
%TO.P,J2,3,Pin_3*%
%TO.N,C2*%
X117697500Y-110540000D03*
%TO.P,J2,4,Pin_4*%
%TO.N,C3*%
X115157500Y-110540000D03*
%TO.P,J2,5,Pin_5*%
%TO.N,C4*%
X117697500Y-108000000D03*
%TO.P,J2,6,Pin_6*%
%TO.N,R0*%
X115157500Y-108000000D03*
%TO.P,J2,7,Pin_7*%
%TO.N,R1*%
X117697500Y-105460000D03*
%TO.P,J2,8,Pin_8*%
%TO.N,R2*%
X115157500Y-105460000D03*
%TO.P,J2,9,Pin_9*%
%TO.N,R3*%
X117697500Y-102920000D03*
%TO.P,J2,10,Pin_10*%
%TO.N,R4*%
X115157500Y-102920000D03*
%TD*%
D15*
%TO.P,J3,1,Pin_1*%
%TO.N,R0*%
X132302500Y-102920000D03*
D14*
%TO.P,J3,2,Pin_2*%
%TO.N,R1*%
X134842500Y-102920000D03*
%TO.P,J3,3,Pin_3*%
%TO.N,R2*%
X132302500Y-105460000D03*
%TO.P,J3,4,Pin_4*%
%TO.N,R3*%
X134842500Y-105460000D03*
%TO.P,J3,5,Pin_5*%
%TO.N,R4*%
X132302500Y-108000000D03*
%TO.P,J3,6,Pin_6*%
%TO.N,C5*%
X134842500Y-108000000D03*
%TO.P,J3,7,Pin_7*%
%TO.N,C6*%
X132302500Y-110540000D03*
%TO.P,J3,8,Pin_8*%
%TO.N,C7*%
X134842500Y-110540000D03*
%TO.P,J3,9,Pin_9*%
%TO.N,C8*%
X132302500Y-113080000D03*
%TO.P,J3,10,Pin_10*%
%TO.N,C9*%
X134842500Y-113080000D03*
%TD*%
D16*
%TO.P,H1,1,1*%
%TO.N,GNDPWR*%
X146000000Y-64000000D03*
%TD*%
D17*
%TO.N,GND*%
X127000000Y-84500000D03*
X115000000Y-72500000D03*
X116000000Y-72500000D03*
X122500000Y-91000000D03*
X128500000Y-107250000D03*
X113000000Y-72500000D03*
X112000000Y-86000000D03*
X121000000Y-98000000D03*
X123500000Y-100500000D03*
X118000000Y-98000000D03*
X114000000Y-72500000D03*
X112000000Y-92000000D03*
X135000000Y-87000000D03*
X133500000Y-99000000D03*
%TO.N,+5V*%
X123000000Y-86000000D03*
X129000000Y-87000000D03*
%TO.N,R0*%
X123012299Y-102012299D03*
%TO.N,R1*%
X117000000Y-99500000D03*
%TO.N,R3*%
X141000000Y-105500000D03*
%TO.N,C8*%
X130750000Y-90800000D03*
X136000000Y-89500000D03*
%TD*%
D18*
%TO.N,+5V*%
X123000000Y-86000000D02*
X126000000Y-86000000D01*
X126000000Y-86000000D02*
X127000000Y-87000000D01*
X127000000Y-87000000D02*
X129000000Y-87000000D01*
%TO.N,R0*%
X123024598Y-102000000D02*
X123012299Y-102012299D01*
X131382500Y-102000000D02*
X123024598Y-102000000D01*
X132302500Y-102920000D02*
X131382500Y-102000000D01*
%TO.N,R1*%
X134842500Y-102920000D02*
X131422500Y-99500000D01*
X131422500Y-99500000D02*
X117000000Y-99500000D01*
%TO.N,R2*%
X130960000Y-105460000D02*
X129750000Y-104250000D01*
X132302500Y-105460000D02*
X130960000Y-105460000D01*
X129750000Y-104250000D02*
X116367500Y-104250000D01*
X116367500Y-104250000D02*
X115157500Y-105460000D01*
%TO.N,R3*%
X117697500Y-102920000D02*
X129670000Y-102920000D01*
X140960000Y-105460000D02*
X141000000Y-105500000D01*
X129670000Y-102920000D02*
X131000000Y-104250000D01*
X131000000Y-104250000D02*
X133632500Y-104250000D01*
X134842500Y-105460000D02*
X140960000Y-105460000D01*
X133632500Y-104250000D02*
X134842500Y-105460000D01*
%TO.N,R4*%
X131052500Y-106750000D02*
X132302500Y-108000000D01*
X114250000Y-106750000D02*
X118750000Y-106750000D01*
X113750000Y-104327500D02*
X113750000Y-106250000D01*
X129000000Y-106000000D02*
X129750000Y-106750000D01*
X115157500Y-102920000D02*
X113750000Y-104327500D01*
X119500000Y-106000000D02*
X129000000Y-106000000D01*
X129750000Y-106750000D02*
X131052500Y-106750000D01*
X118750000Y-106750000D02*
X119500000Y-106000000D01*
X113750000Y-106250000D02*
X114250000Y-106750000D01*
%TO.N,C8*%
X136000000Y-89500000D02*
X134700000Y-90800000D01*
X134700000Y-90800000D02*
X130750000Y-90800000D01*
%TD*%
%TA.AperFunction,Conductor*%
%TO.N,GNDPWR*%
G36*
X120837509Y-60520002D02*
G01*
X120884002Y-60573658D01*
X120894106Y-60643932D01*
X120864612Y-60708512D01*
X120804886Y-60746896D01*
X120777629Y-60751730D01*
X120708751Y-60756244D01*
X120700600Y-60757317D01*
X120418383Y-60813454D01*
X120410420Y-60815588D01*
X120137953Y-60908078D01*
X120130349Y-60911228D01*
X119872282Y-61038492D01*
X119865145Y-61042613D01*
X119625901Y-61202470D01*
X119619361Y-61207488D01*
X119604926Y-61220147D01*
X119596528Y-61233386D01*
X119602362Y-61243151D01*
X120987190Y-62627980D01*
X121001131Y-62635592D01*
X121002966Y-62635461D01*
X121009580Y-62631210D01*
X122395884Y-61244905D01*
X122403399Y-61231144D01*
X122396941Y-61221784D01*
X122380639Y-61207488D01*
X122374099Y-61202470D01*
X122134856Y-61042613D01*
X122127719Y-61038492D01*
X121869651Y-60911228D01*
X121862047Y-60908078D01*
X121589580Y-60815588D01*
X121581617Y-60813454D01*
X121299400Y-60757317D01*
X121291249Y-60756244D01*
X121222371Y-60751730D01*
X121155705Y-60727316D01*
X121112820Y-60670734D01*
X121107334Y-60599950D01*
X121140988Y-60537436D01*
X121203097Y-60503041D01*
X121230612Y-60500000D01*
X128769388Y-60500000D01*
X128837509Y-60520002D01*
X128884002Y-60573658D01*
X128894106Y-60643932D01*
X128864612Y-60708512D01*
X128804886Y-60746896D01*
X128777629Y-60751730D01*
X128708751Y-60756244D01*
X128700600Y-60757317D01*
X128418383Y-60813454D01*
X128410420Y-60815588D01*
X128137953Y-60908078D01*
X128130349Y-60911228D01*
X127872282Y-61038492D01*
X127865145Y-61042613D01*
X127625901Y-61202470D01*
X127619361Y-61207488D01*
X127604926Y-61220147D01*
X127596528Y-61233386D01*
X127602362Y-61243151D01*
X128987190Y-62627980D01*
X129001131Y-62635592D01*
X129002966Y-62635461D01*
X129009580Y-62631210D01*
X130395884Y-61244905D01*
X130403399Y-61231144D01*
X130396941Y-61221784D01*
X130380639Y-61207488D01*
X130374099Y-61202470D01*
X130134856Y-61042613D01*
X130127719Y-61038492D01*
X129869651Y-60911228D01*
X129862047Y-60908078D01*
X129589580Y-60815588D01*
X129581617Y-60813454D01*
X129299400Y-60757317D01*
X129291249Y-60756244D01*
X129222371Y-60751730D01*
X129155705Y-60727316D01*
X129112820Y-60670734D01*
X129107334Y-60599950D01*
X129140988Y-60537436D01*
X129203097Y-60503041D01*
X129230612Y-60500000D01*
X132500000Y-60500000D01*
X132500000Y-75124000D01*
X132479998Y-75192121D01*
X132426342Y-75238614D01*
X132374000Y-75250000D01*
X117626000Y-75250000D01*
X117557879Y-75229998D01*
X117511386Y-75176342D01*
X117500000Y-75124000D01*
X117500000Y-67490000D01*
X122805325Y-67490000D01*
X122825968Y-67686409D01*
X122886996Y-67874234D01*
X122985742Y-68045266D01*
X123117889Y-68192030D01*
X123277662Y-68308113D01*
X123283694Y-68310798D01*
X123289414Y-68314101D01*
X123288315Y-68316004D01*
X123334633Y-68355372D01*
X123355283Y-68423299D01*
X123335931Y-68491608D01*
X123282721Y-68538610D01*
X123229289Y-68550500D01*
X122991252Y-68550500D01*
X122985184Y-68551707D01*
X122944939Y-68559712D01*
X122944938Y-68559712D01*
X122932769Y-68562133D01*
X122866448Y-68606448D01*
X122822133Y-68672769D01*
X122810500Y-68731252D01*
X122810500Y-70248748D01*
X122822133Y-70307231D01*
X122866448Y-70373552D01*
X122932769Y-70417867D01*
X122944938Y-70420288D01*
X122944939Y-70420288D01*
X122984354Y-70428128D01*
X122991252Y-70429500D01*
X124508748Y-70429500D01*
X124515646Y-70428128D01*
X124555061Y-70420288D01*
X124555062Y-70420288D01*
X124567231Y-70417867D01*
X124633552Y-70373552D01*
X124677867Y-70307231D01*
X124689500Y-70248748D01*
X124689500Y-69490000D01*
X125305325Y-69490000D01*
X125325968Y-69686409D01*
X125386996Y-69874234D01*
X125485742Y-70045266D01*
X125617889Y-70192030D01*
X125687438Y-70242561D01*
X125759698Y-70295061D01*
X125777662Y-70308113D01*
X125783691Y-70310797D01*
X125783694Y-70310799D01*
X125952043Y-70385752D01*
X125952046Y-70385753D01*
X125958079Y-70388439D01*
X126000666Y-70397491D01*
X126144798Y-70428128D01*
X126144802Y-70428128D01*
X126151255Y-70429500D01*
X126348745Y-70429500D01*
X126355198Y-70428128D01*
X126355202Y-70428128D01*
X126499334Y-70397491D01*
X126541921Y-70388439D01*
X126547954Y-70385753D01*
X126547957Y-70385752D01*
X126716306Y-70310799D01*
X126716309Y-70310797D01*
X126722338Y-70308113D01*
X126740303Y-70295061D01*
X126812562Y-70242561D01*
X126882111Y-70192030D01*
X127014258Y-70045266D01*
X127113004Y-69874234D01*
X127174032Y-69686409D01*
X127194675Y-69490000D01*
X127174032Y-69293591D01*
X127113004Y-69105766D01*
X127014258Y-68934734D01*
X126882111Y-68787970D01*
X126781133Y-68714604D01*
X126727680Y-68675768D01*
X126727678Y-68675767D01*
X126722338Y-68671887D01*
X126716309Y-68669203D01*
X126716306Y-68669201D01*
X126572346Y-68605107D01*
X126518250Y-68559127D01*
X126497600Y-68491200D01*
X126516952Y-68422892D01*
X126572346Y-68374893D01*
X126716306Y-68310799D01*
X126716309Y-68310797D01*
X126722338Y-68308113D01*
X126882111Y-68192030D01*
X127014258Y-68045266D01*
X127113004Y-67874234D01*
X127174032Y-67686409D01*
X127194675Y-67490000D01*
X127174032Y-67293591D01*
X127113004Y-67105766D01*
X127014258Y-66934734D01*
X126882111Y-66787970D01*
X126722338Y-66671887D01*
X126716309Y-66669203D01*
X126716306Y-66669201D01*
X126547957Y-66594248D01*
X126547954Y-66594247D01*
X126541921Y-66591561D01*
X126499334Y-66582509D01*
X126355202Y-66551872D01*
X126355198Y-66551872D01*
X126348745Y-66550500D01*
X126151255Y-66550500D01*
X126144802Y-66551872D01*
X126144798Y-66551872D01*
X126054667Y-66571030D01*
X125958079Y-66591561D01*
X125952049Y-66594246D01*
X125952048Y-66594246D01*
X125783693Y-66669202D01*
X125783691Y-66669203D01*
X125777663Y-66671887D01*
X125617889Y-66787970D01*
X125485742Y-66934734D01*
X125386996Y-67105766D01*
X125325968Y-67293591D01*
X125305325Y-67490000D01*
X125325968Y-67686409D01*
X125386996Y-67874234D01*
X125485742Y-68045266D01*
X125617889Y-68192030D01*
X125777662Y-68308113D01*
X125883809Y-68355372D01*
X125927654Y-68374893D01*
X125981750Y-68420873D01*
X126002399Y-68488800D01*
X125983047Y-68557108D01*
X125927654Y-68605107D01*
X125783693Y-68669202D01*
X125783691Y-68669203D01*
X125777663Y-68671887D01*
X125772322Y-68675767D01*
X125772321Y-68675768D01*
X125720614Y-68713335D01*
X125617889Y-68787970D01*
X125485742Y-68934734D01*
X125386996Y-69105766D01*
X125325968Y-69293591D01*
X125305325Y-69490000D01*
X124689500Y-69490000D01*
X124689500Y-68731252D01*
X124677867Y-68672769D01*
X124633552Y-68606448D01*
X124567231Y-68562133D01*
X124555062Y-68559712D01*
X124555061Y-68559712D01*
X124514816Y-68551707D01*
X124508748Y-68550500D01*
X124270711Y-68550500D01*
X124202590Y-68530498D01*
X124156097Y-68476842D01*
X124145993Y-68406568D01*
X124175487Y-68341988D01*
X124211343Y-68315412D01*
X124210586Y-68314101D01*
X124216306Y-68310798D01*
X124222338Y-68308113D01*
X124382111Y-68192030D01*
X124514258Y-68045266D01*
X124613004Y-67874234D01*
X124674032Y-67686409D01*
X124694675Y-67490000D01*
X124674032Y-67293591D01*
X124613004Y-67105766D01*
X124514258Y-66934734D01*
X124382111Y-66787970D01*
X124222338Y-66671887D01*
X124216309Y-66669203D01*
X124216306Y-66669201D01*
X124047957Y-66594248D01*
X124047954Y-66594247D01*
X124041921Y-66591561D01*
X123999334Y-66582509D01*
X123855202Y-66551872D01*
X123855198Y-66551872D01*
X123848745Y-66550500D01*
X123651255Y-66550500D01*
X123644802Y-66551872D01*
X123644798Y-66551872D01*
X123554667Y-66571030D01*
X123458079Y-66591561D01*
X123452049Y-66594246D01*
X123452048Y-66594246D01*
X123283693Y-66669202D01*
X123283691Y-66669203D01*
X123277663Y-66671887D01*
X123117889Y-66787970D01*
X122985742Y-66934734D01*
X122886996Y-67105766D01*
X122825968Y-67293591D01*
X122805325Y-67490000D01*
X117500000Y-67490000D01*
X117500000Y-64768856D01*
X119596601Y-64768856D01*
X119603059Y-64778216D01*
X119619361Y-64792512D01*
X119625901Y-64797530D01*
X119865144Y-64957387D01*
X119872281Y-64961508D01*
X120130349Y-65088772D01*
X120137953Y-65091922D01*
X120410420Y-65184412D01*
X120418383Y-65186546D01*
X120700600Y-65242683D01*
X120708751Y-65243756D01*
X120995881Y-65262575D01*
X121004119Y-65262575D01*
X121291249Y-65243756D01*
X121299400Y-65242683D01*
X121581617Y-65186546D01*
X121589580Y-65184412D01*
X121862047Y-65091922D01*
X121869651Y-65088772D01*
X122127719Y-64961508D01*
X122134856Y-64957387D01*
X122374099Y-64797530D01*
X122380639Y-64792512D01*
X122395074Y-64779853D01*
X122402050Y-64768856D01*
X127596601Y-64768856D01*
X127603059Y-64778216D01*
X127619361Y-64792512D01*
X127625901Y-64797530D01*
X127865144Y-64957387D01*
X127872281Y-64961508D01*
X128130349Y-65088772D01*
X128137953Y-65091922D01*
X128410420Y-65184412D01*
X128418383Y-65186546D01*
X128700600Y-65242683D01*
X128708751Y-65243756D01*
X128995881Y-65262575D01*
X129004119Y-65262575D01*
X129291249Y-65243756D01*
X129299400Y-65242683D01*
X129581617Y-65186546D01*
X129589580Y-65184412D01*
X129862047Y-65091922D01*
X129869651Y-65088772D01*
X130127719Y-64961508D01*
X130134856Y-64957387D01*
X130374099Y-64797530D01*
X130380639Y-64792512D01*
X130395074Y-64779853D01*
X130403472Y-64766614D01*
X130397638Y-64756849D01*
X129012810Y-63372020D01*
X128998869Y-63364408D01*
X128997034Y-63364539D01*
X128990420Y-63368790D01*
X127604116Y-64755095D01*
X127596601Y-64768856D01*
X122402050Y-64768856D01*
X122403472Y-64766614D01*
X122397638Y-64756849D01*
X121012810Y-63372020D01*
X120998869Y-63364408D01*
X120997034Y-63364539D01*
X120990420Y-63368790D01*
X119604116Y-64755095D01*
X119596601Y-64768856D01*
X117500000Y-64768856D01*
X117500000Y-63004119D01*
X118737425Y-63004119D01*
X118756244Y-63291249D01*
X118757317Y-63299400D01*
X118813454Y-63581617D01*
X118815588Y-63589580D01*
X118908078Y-63862047D01*
X118911228Y-63869651D01*
X119038492Y-64127718D01*
X119042613Y-64134855D01*
X119202470Y-64374099D01*
X119207488Y-64380639D01*
X119220147Y-64395074D01*
X119233386Y-64403472D01*
X119243151Y-64397638D01*
X120627980Y-63012810D01*
X120634357Y-63001131D01*
X121364408Y-63001131D01*
X121364539Y-63002966D01*
X121368790Y-63009580D01*
X122755095Y-64395884D01*
X122768856Y-64403399D01*
X122778216Y-64396941D01*
X122792512Y-64380639D01*
X122797530Y-64374099D01*
X122957387Y-64134855D01*
X122961508Y-64127718D01*
X123088772Y-63869651D01*
X123091922Y-63862047D01*
X123184412Y-63589580D01*
X123186546Y-63581617D01*
X123242683Y-63299400D01*
X123243756Y-63291249D01*
X123262575Y-63004119D01*
X126737425Y-63004119D01*
X126756244Y-63291249D01*
X126757317Y-63299400D01*
X126813454Y-63581617D01*
X126815588Y-63589580D01*
X126908078Y-63862047D01*
X126911228Y-63869651D01*
X127038492Y-64127718D01*
X127042613Y-64134855D01*
X127202470Y-64374099D01*
X127207488Y-64380639D01*
X127220147Y-64395074D01*
X127233386Y-64403472D01*
X127243151Y-64397638D01*
X128627980Y-63012810D01*
X128634357Y-63001131D01*
X129364408Y-63001131D01*
X129364539Y-63002966D01*
X129368790Y-63009580D01*
X130755095Y-64395884D01*
X130768856Y-64403399D01*
X130778216Y-64396941D01*
X130792512Y-64380639D01*
X130797530Y-64374099D01*
X130957387Y-64134855D01*
X130961508Y-64127718D01*
X131088772Y-63869651D01*
X131091922Y-63862047D01*
X131184412Y-63589580D01*
X131186546Y-63581617D01*
X131242683Y-63299400D01*
X131243756Y-63291249D01*
X131262575Y-63004119D01*
X131262575Y-62995881D01*
X131243756Y-62708751D01*
X131242683Y-62700600D01*
X131186546Y-62418383D01*
X131184412Y-62410420D01*
X131091922Y-62137953D01*
X131088772Y-62130349D01*
X130961508Y-61872282D01*
X130957387Y-61865145D01*
X130797530Y-61625901D01*
X130792512Y-61619361D01*
X130779853Y-61604926D01*
X130766614Y-61596528D01*
X130756849Y-61602362D01*
X129372020Y-62987190D01*
X129364408Y-63001131D01*
X128634357Y-63001131D01*
X128635592Y-62998869D01*
X128635461Y-62997034D01*
X128631210Y-62990420D01*
X127244905Y-61604116D01*
X127231144Y-61596601D01*
X127221784Y-61603059D01*
X127207488Y-61619361D01*
X127202470Y-61625901D01*
X127042613Y-61865145D01*
X127038492Y-61872282D01*
X126911228Y-62130349D01*
X126908078Y-62137953D01*
X126815588Y-62410420D01*
X126813454Y-62418383D01*
X126757317Y-62700600D01*
X126756244Y-62708751D01*
X126737425Y-62995881D01*
X126737425Y-63004119D01*
X123262575Y-63004119D01*
X123262575Y-62995881D01*
X123243756Y-62708751D01*
X123242683Y-62700600D01*
X123186546Y-62418383D01*
X123184412Y-62410420D01*
X123091922Y-62137953D01*
X123088772Y-62130349D01*
X122961508Y-61872282D01*
X122957387Y-61865145D01*
X122797530Y-61625901D01*
X122792512Y-61619361D01*
X122779853Y-61604926D01*
X122766614Y-61596528D01*
X122756849Y-61602362D01*
X121372020Y-62987190D01*
X121364408Y-63001131D01*
X120634357Y-63001131D01*
X120635592Y-62998869D01*
X120635461Y-62997034D01*
X120631210Y-62990420D01*
X119244905Y-61604116D01*
X119231144Y-61596601D01*
X119221784Y-61603059D01*
X119207488Y-61619361D01*
X119202470Y-61625901D01*
X119042613Y-61865145D01*
X119038492Y-61872282D01*
X118911228Y-62130349D01*
X118908078Y-62137953D01*
X118815588Y-62410420D01*
X118813454Y-62418383D01*
X118757317Y-62700600D01*
X118756244Y-62708751D01*
X118737425Y-62995881D01*
X118737425Y-63004119D01*
X117500000Y-63004119D01*
X117500000Y-60626000D01*
X117520002Y-60557879D01*
X117573658Y-60511386D01*
X117626000Y-60500000D01*
X120769388Y-60500000D01*
X120837509Y-60520002D01*
G37*
%TD.AperFunction*%
%TD*%
%TA.AperFunction,Conductor*%
%TO.N,GNDPWR*%
G36*
X145422863Y-60520002D02*
G01*
X145469356Y-60573658D01*
X145479460Y-60643932D01*
X145449966Y-60708512D01*
X145390240Y-60746896D01*
X145381584Y-60749108D01*
X145123586Y-60805361D01*
X145117011Y-60807172D01*
X144783683Y-60918702D01*
X144777361Y-60921205D01*
X144458034Y-61068079D01*
X144451991Y-61071265D01*
X144150401Y-61251763D01*
X144144755Y-61255571D01*
X143864408Y-61467596D01*
X143859211Y-61471987D01*
X143857972Y-61473155D01*
X143849950Y-61486862D01*
X143849986Y-61487704D01*
X143855037Y-61495826D01*
X146250000Y-63890790D01*
X146250000Y-64109210D01*
X146000000Y-64359210D01*
X143856774Y-66502437D01*
X143849160Y-66516381D01*
X143849237Y-66517469D01*
X143851699Y-66521207D01*
X144125632Y-66731404D01*
X144131262Y-66735259D01*
X144431591Y-66917862D01*
X144437593Y-66921080D01*
X144755897Y-67070184D01*
X144762202Y-67072732D01*
X145094743Y-67186587D01*
X145101313Y-67188446D01*
X145379259Y-67251083D01*
X145441316Y-67285571D01*
X145474876Y-67348136D01*
X145469283Y-67418912D01*
X145426314Y-67475428D01*
X145359610Y-67499742D01*
X145351559Y-67500000D01*
X132500000Y-67500000D01*
X132500000Y-63991832D01*
X142687333Y-63991832D01*
X142705117Y-64342893D01*
X142705827Y-64349649D01*
X142761420Y-64696723D01*
X142762859Y-64703378D01*
X142855608Y-65042410D01*
X142857757Y-65048871D01*
X142986581Y-65375912D01*
X142989412Y-65382095D01*
X143152803Y-65693310D01*
X143156286Y-65699152D01*
X143352330Y-65990896D01*
X143356433Y-65996340D01*
X143476425Y-66138836D01*
X143489164Y-66147279D01*
X143499608Y-66141181D01*
X145627980Y-64012810D01*
X145635592Y-63998869D01*
X145635461Y-63997034D01*
X145631210Y-63990420D01*
X143500992Y-61860203D01*
X143487455Y-61852811D01*
X143477753Y-61859599D01*
X143370430Y-61985257D01*
X143366296Y-61990664D01*
X143168215Y-62281041D01*
X143164697Y-62286851D01*
X142999134Y-62596922D01*
X142996259Y-62603087D01*
X142865155Y-62929218D01*
X142862962Y-62935658D01*
X142767846Y-63274044D01*
X142766363Y-63280679D01*
X142708350Y-63627354D01*
X142707591Y-63634126D01*
X142687357Y-63985037D01*
X142687333Y-63991832D01*
X132500000Y-63991832D01*
X132500000Y-60500000D01*
X145354742Y-60500000D01*
X145422863Y-60520002D01*
G37*
%TD.AperFunction*%
%TD*%
%TA.AperFunction,Conductor*%
%TO.N,GND*%
G36*
X116928621Y-60528502D02*
G01*
X116975114Y-60582158D01*
X116986500Y-60634500D01*
X116986500Y-75124000D01*
X116998234Y-75233149D01*
X116998952Y-75236449D01*
X116998952Y-75236450D01*
X117005961Y-75268669D01*
X117009620Y-75285491D01*
X117044290Y-75389657D01*
X117123308Y-75512612D01*
X117169801Y-75566268D01*
X117173194Y-75569208D01*
X117273450Y-75656081D01*
X117273453Y-75656083D01*
X117280261Y-75661982D01*
X117413210Y-75722698D01*
X117436964Y-75729673D01*
X117477008Y-75741431D01*
X117477012Y-75741432D01*
X117481331Y-75742700D01*
X117485780Y-75743340D01*
X117485786Y-75743341D01*
X117621553Y-75762861D01*
X117621558Y-75762861D01*
X117626000Y-75763500D01*
X132374000Y-75763500D01*
X132377346Y-75763140D01*
X132377351Y-75763140D01*
X132479785Y-75752128D01*
X132479792Y-75752127D01*
X132483149Y-75751766D01*
X132486450Y-75751048D01*
X132532210Y-75741094D01*
X132532215Y-75741093D01*
X132535491Y-75740380D01*
X132639657Y-75705710D01*
X132762612Y-75626692D01*
X132816268Y-75580199D01*
X132871888Y-75516010D01*
X132906081Y-75476550D01*
X132906083Y-75476547D01*
X132911982Y-75469739D01*
X132972698Y-75336790D01*
X132992700Y-75268669D01*
X132997333Y-75236450D01*
X133012861Y-75128447D01*
X133012861Y-75128442D01*
X133013500Y-75124000D01*
X133013500Y-68139500D01*
X133033502Y-68071379D01*
X133087158Y-68024886D01*
X133139500Y-68013500D01*
X145351559Y-68013500D01*
X145368006Y-68013237D01*
X145368517Y-68013221D01*
X145368543Y-68013220D01*
X145373492Y-68013061D01*
X145376057Y-68012979D01*
X145380674Y-68012757D01*
X145387429Y-68012433D01*
X145387432Y-68012433D01*
X145392421Y-68012193D01*
X145535466Y-67982191D01*
X145539691Y-67980651D01*
X145597938Y-67959420D01*
X145597943Y-67959418D01*
X145602170Y-67957877D01*
X145606134Y-67955751D01*
X145606140Y-67955748D01*
X145666766Y-67923228D01*
X145730968Y-67888790D01*
X145745923Y-67874056D01*
X145831876Y-67789377D01*
X145831879Y-67789373D01*
X145835085Y-67786215D01*
X145878054Y-67729699D01*
X145949055Y-67601946D01*
X145981187Y-67459365D01*
X145983887Y-67425202D01*
X146009194Y-67358869D01*
X146066346Y-67316749D01*
X146110152Y-67309132D01*
X146161857Y-67309403D01*
X146165242Y-67309053D01*
X146165246Y-67309053D01*
X146514932Y-67272917D01*
X146514941Y-67272916D01*
X146518324Y-67272566D01*
X146521657Y-67271852D01*
X146521660Y-67271851D01*
X146694186Y-67234864D01*
X146868727Y-67197446D01*
X147208968Y-67084922D01*
X147535066Y-66936311D01*
X147629052Y-66880506D01*
X147840262Y-66755099D01*
X147840267Y-66755096D01*
X147843207Y-66753350D01*
X148129786Y-66538180D01*
X148391451Y-66293319D01*
X148625140Y-66021630D01*
X148772136Y-65807750D01*
X148826190Y-65729101D01*
X148826195Y-65729094D01*
X148828120Y-65726292D01*
X148829732Y-65723298D01*
X148829737Y-65723290D01*
X148996395Y-65413772D01*
X148998017Y-65410760D01*
X149132842Y-65078724D01*
X149231020Y-64734070D01*
X149241301Y-64673924D01*
X149272495Y-64610148D01*
X149333217Y-64573360D01*
X149404189Y-64575241D01*
X149462877Y-64615193D01*
X149490649Y-64680533D01*
X149491500Y-64695154D01*
X149491500Y-116950633D01*
X149490000Y-116970018D01*
X149487690Y-116984851D01*
X149487690Y-116984855D01*
X149486309Y-116993724D01*
X149488558Y-117010919D01*
X149489391Y-117034863D01*
X149473794Y-117292710D01*
X149471960Y-117307814D01*
X149420477Y-117588754D01*
X149416836Y-117603526D01*
X149356175Y-117798196D01*
X149331859Y-117876227D01*
X149326466Y-117890445D01*
X149234911Y-118093873D01*
X149209243Y-118150906D01*
X149202172Y-118164379D01*
X149054405Y-118408813D01*
X149045762Y-118421334D01*
X148869615Y-118646171D01*
X148859525Y-118657560D01*
X148657560Y-118859525D01*
X148646171Y-118869615D01*
X148421334Y-119045762D01*
X148408813Y-119054405D01*
X148164379Y-119202172D01*
X148150908Y-119209242D01*
X147890445Y-119326466D01*
X147876231Y-119331858D01*
X147603527Y-119416836D01*
X147588760Y-119420475D01*
X147379786Y-119458771D01*
X147307814Y-119471960D01*
X147292710Y-119473794D01*
X147042096Y-119488953D01*
X147015284Y-119487692D01*
X147015148Y-119487690D01*
X147006276Y-119486309D01*
X146997374Y-119487473D01*
X146997372Y-119487473D01*
X146982707Y-119489391D01*
X146974714Y-119490436D01*
X146958379Y-119491500D01*
X103049367Y-119491500D01*
X103029982Y-119490000D01*
X103015149Y-119487690D01*
X103015145Y-119487690D01*
X103006276Y-119486309D01*
X102989077Y-119488558D01*
X102965137Y-119489391D01*
X102707290Y-119473794D01*
X102692186Y-119471960D01*
X102620214Y-119458771D01*
X102411240Y-119420475D01*
X102396473Y-119416836D01*
X102123769Y-119331858D01*
X102109555Y-119326466D01*
X101849092Y-119209242D01*
X101835621Y-119202172D01*
X101591187Y-119054405D01*
X101578666Y-119045762D01*
X101353829Y-118869615D01*
X101342440Y-118859525D01*
X101140475Y-118657560D01*
X101130385Y-118646171D01*
X100954238Y-118421334D01*
X100945595Y-118408813D01*
X100797828Y-118164379D01*
X100790757Y-118150906D01*
X100765089Y-118093873D01*
X100673534Y-117890445D01*
X100668141Y-117876227D01*
X100643826Y-117798196D01*
X100583164Y-117603526D01*
X100579523Y-117588754D01*
X100528040Y-117307814D01*
X100526206Y-117292710D01*
X100511269Y-117045768D01*
X100512520Y-117022216D01*
X100512334Y-117022199D01*
X100512769Y-117017350D01*
X100513576Y-117012552D01*
X100513729Y-117000000D01*
X100509773Y-116972376D01*
X100508500Y-116954514D01*
X100508500Y-116132703D01*
X122890743Y-116132703D01*
X122928268Y-116417734D01*
X123004129Y-116695036D01*
X123005813Y-116698984D01*
X123114807Y-116954514D01*
X123116923Y-116959476D01*
X123264561Y-117206161D01*
X123444313Y-117430528D01*
X123461397Y-117446740D01*
X123611049Y-117588754D01*
X123652851Y-117628423D01*
X123886317Y-117796186D01*
X123890112Y-117798195D01*
X123890113Y-117798196D01*
X123911869Y-117809715D01*
X124140392Y-117930712D01*
X124410373Y-118029511D01*
X124691264Y-118090755D01*
X124719841Y-118093004D01*
X124914282Y-118108307D01*
X124914291Y-118108307D01*
X124916739Y-118108500D01*
X125072271Y-118108500D01*
X125074407Y-118108354D01*
X125074418Y-118108354D01*
X125282548Y-118094165D01*
X125282554Y-118094164D01*
X125286825Y-118093873D01*
X125291020Y-118093004D01*
X125291022Y-118093004D01*
X125427583Y-118064724D01*
X125568342Y-118035574D01*
X125839343Y-117939607D01*
X126094812Y-117807750D01*
X126098313Y-117805289D01*
X126098317Y-117805287D01*
X126269041Y-117685300D01*
X126330023Y-117642441D01*
X126540622Y-117446740D01*
X126722713Y-117224268D01*
X126872927Y-116979142D01*
X126988483Y-116715898D01*
X127067244Y-116439406D01*
X127107751Y-116154784D01*
X127107845Y-116136951D01*
X127109235Y-115871583D01*
X127109235Y-115871576D01*
X127109257Y-115867297D01*
X127071732Y-115582266D01*
X126995871Y-115304964D01*
X126883077Y-115040524D01*
X126735439Y-114793839D01*
X126555687Y-114569472D01*
X126365541Y-114389030D01*
X126350258Y-114374527D01*
X126350255Y-114374525D01*
X126347149Y-114371577D01*
X126113683Y-114203814D01*
X126091843Y-114192250D01*
X126018284Y-114153303D01*
X125859608Y-114069288D01*
X125589627Y-113970489D01*
X125308736Y-113909245D01*
X125277685Y-113906801D01*
X125085718Y-113891693D01*
X125085709Y-113891693D01*
X125083261Y-113891500D01*
X124927729Y-113891500D01*
X124925593Y-113891646D01*
X124925582Y-113891646D01*
X124717452Y-113905835D01*
X124717446Y-113905836D01*
X124713175Y-113906127D01*
X124708980Y-113906996D01*
X124708978Y-113906996D01*
X124572417Y-113935276D01*
X124431658Y-113964426D01*
X124160657Y-114060393D01*
X124156848Y-114062359D01*
X123970611Y-114158483D01*
X123905188Y-114192250D01*
X123901687Y-114194711D01*
X123901683Y-114194713D01*
X123898953Y-114196632D01*
X123669977Y-114357559D01*
X123459378Y-114553260D01*
X123277287Y-114775732D01*
X123127073Y-115020858D01*
X123011517Y-115284102D01*
X122932756Y-115560594D01*
X122892249Y-115845216D01*
X122892227Y-115849505D01*
X122892226Y-115849512D01*
X122890765Y-116128417D01*
X122890743Y-116132703D01*
X100508500Y-116132703D01*
X100508500Y-104307443D01*
X113111780Y-104307443D01*
X113112526Y-104315335D01*
X113115941Y-104351461D01*
X113116500Y-104363319D01*
X113116500Y-106171233D01*
X113115973Y-106182416D01*
X113114298Y-106189909D01*
X113114547Y-106197835D01*
X113114547Y-106197836D01*
X113116438Y-106257986D01*
X113116500Y-106261945D01*
X113116500Y-106289856D01*
X113116997Y-106293790D01*
X113116997Y-106293791D01*
X113117005Y-106293856D01*
X113117938Y-106305693D01*
X113119327Y-106349889D01*
X113124978Y-106369339D01*
X113128987Y-106388700D01*
X113131526Y-106408797D01*
X113134445Y-106416168D01*
X113134445Y-106416170D01*
X113147804Y-106449912D01*
X113151649Y-106461142D01*
X113163982Y-106503593D01*
X113168015Y-106510412D01*
X113168017Y-106510417D01*
X113174293Y-106521028D01*
X113182988Y-106538776D01*
X113190448Y-106557617D01*
X113195110Y-106564033D01*
X113195110Y-106564034D01*
X113216436Y-106593387D01*
X113222952Y-106603307D01*
X113245458Y-106641362D01*
X113259779Y-106655683D01*
X113272619Y-106670716D01*
X113284528Y-106687107D01*
X113316413Y-106713484D01*
X113318593Y-106715288D01*
X113327374Y-106723278D01*
X113746353Y-107142258D01*
X113753887Y-107150537D01*
X113758000Y-107157018D01*
X113779095Y-107176827D01*
X113807651Y-107203643D01*
X113810493Y-107206398D01*
X113830230Y-107226135D01*
X113833427Y-107228615D01*
X113842447Y-107236318D01*
X113874679Y-107266586D01*
X113881622Y-107270403D01*
X113885046Y-107272891D01*
X113928398Y-107329115D01*
X113934472Y-107399851D01*
X113925270Y-107427875D01*
X113878188Y-107529305D01*
X113818489Y-107744570D01*
X113794751Y-107966695D01*
X113795048Y-107971848D01*
X113795048Y-107971851D01*
X113800511Y-108066590D01*
X113807610Y-108189715D01*
X113808747Y-108194761D01*
X113808748Y-108194767D01*
X113828619Y-108282939D01*
X113856722Y-108407639D01*
X113940766Y-108614616D01*
X113991519Y-108697438D01*
X114054791Y-108800688D01*
X114057487Y-108805088D01*
X114203750Y-108973938D01*
X114375626Y-109116632D01*
X114446095Y-109157811D01*
X114448945Y-109159476D01*
X114497669Y-109211114D01*
X114510740Y-109280897D01*
X114484009Y-109346669D01*
X114443555Y-109380027D01*
X114431107Y-109386507D01*
X114426974Y-109389610D01*
X114426971Y-109389612D01*
X114402747Y-109407800D01*
X114252465Y-109520635D01*
X114098129Y-109682138D01*
X113972243Y-109866680D01*
X113878188Y-110069305D01*
X113818489Y-110284570D01*
X113794751Y-110506695D01*
X113795048Y-110511848D01*
X113795048Y-110511851D01*
X113800511Y-110606590D01*
X113807610Y-110729715D01*
X113808747Y-110734761D01*
X113808748Y-110734767D01*
X113828619Y-110822939D01*
X113856722Y-110947639D01*
X113940766Y-111154616D01*
X113991519Y-111237438D01*
X114054791Y-111340688D01*
X114057487Y-111345088D01*
X114203750Y-111513938D01*
X114375626Y-111656632D01*
X114398460Y-111669975D01*
X114448945Y-111699476D01*
X114497669Y-111751114D01*
X114510740Y-111820897D01*
X114484009Y-111886669D01*
X114443555Y-111920027D01*
X114431107Y-111926507D01*
X114426974Y-111929610D01*
X114426971Y-111929612D01*
X114256600Y-112057530D01*
X114252465Y-112060635D01*
X114098129Y-112222138D01*
X113972243Y-112406680D01*
X113878188Y-112609305D01*
X113818489Y-112824570D01*
X113794751Y-113046695D01*
X113795048Y-113051848D01*
X113795048Y-113051851D01*
X113800511Y-113146590D01*
X113807610Y-113269715D01*
X113808747Y-113274761D01*
X113808748Y-113274767D01*
X113828619Y-113362939D01*
X113856722Y-113487639D01*
X113940766Y-113694616D01*
X113991519Y-113777438D01*
X114054791Y-113880688D01*
X114057487Y-113885088D01*
X114203750Y-114053938D01*
X114375626Y-114196632D01*
X114568500Y-114309338D01*
X114777192Y-114389030D01*
X114782260Y-114390061D01*
X114782263Y-114390062D01*
X114889517Y-114411883D01*
X114996097Y-114433567D01*
X115001272Y-114433757D01*
X115001274Y-114433757D01*
X115214173Y-114441564D01*
X115214177Y-114441564D01*
X115219337Y-114441753D01*
X115224457Y-114441097D01*
X115224459Y-114441097D01*
X115435788Y-114414025D01*
X115435789Y-114414025D01*
X115440916Y-114413368D01*
X115445866Y-114411883D01*
X115649929Y-114350661D01*
X115649934Y-114350659D01*
X115654884Y-114349174D01*
X115855494Y-114250896D01*
X116037360Y-114121173D01*
X116195596Y-113963489D01*
X116196171Y-113964066D01*
X116251891Y-113927562D01*
X116322885Y-113926939D01*
X116382946Y-113964796D01*
X116402551Y-113994691D01*
X116403633Y-113997000D01*
X116405950Y-114003946D01*
X116499022Y-114154348D01*
X116624197Y-114279305D01*
X116630427Y-114283145D01*
X116630428Y-114283146D01*
X116767590Y-114367694D01*
X116774762Y-114372115D01*
X116828871Y-114390062D01*
X116936111Y-114425632D01*
X116936113Y-114425632D01*
X116942639Y-114427797D01*
X116949475Y-114428497D01*
X116949478Y-114428498D01*
X116988872Y-114432534D01*
X117047100Y-114438500D01*
X118347900Y-114438500D01*
X118351146Y-114438163D01*
X118351150Y-114438163D01*
X118446808Y-114428238D01*
X118446812Y-114428237D01*
X118453666Y-114427526D01*
X118460202Y-114425345D01*
X118460204Y-114425345D01*
X118612523Y-114374527D01*
X118621446Y-114371550D01*
X118771848Y-114278478D01*
X118896805Y-114153303D01*
X118954958Y-114058962D01*
X118985775Y-114008968D01*
X118985776Y-114008966D01*
X118989615Y-114002738D01*
X119045297Y-113834861D01*
X119056000Y-113730400D01*
X119056000Y-112429600D01*
X119055663Y-112426350D01*
X119045738Y-112330692D01*
X119045737Y-112330688D01*
X119045026Y-112323834D01*
X119011098Y-112222138D01*
X118991368Y-112163002D01*
X118989050Y-112156054D01*
X118895978Y-112005652D01*
X118770803Y-111880695D01*
X118755666Y-111871364D01*
X118654726Y-111809144D01*
X118620238Y-111787885D01*
X118613285Y-111785579D01*
X118612404Y-111785168D01*
X118559118Y-111738252D01*
X118539656Y-111669975D01*
X118560196Y-111602015D01*
X118578029Y-111581844D01*
X118577360Y-111581173D01*
X118731935Y-111427137D01*
X118735596Y-111423489D01*
X118795094Y-111340689D01*
X118862935Y-111246277D01*
X118865953Y-111242077D01*
X118886820Y-111199857D01*
X118962636Y-111046453D01*
X118962637Y-111046451D01*
X118964930Y-111041811D01*
X119029870Y-110828069D01*
X119059029Y-110606590D01*
X119060656Y-110540000D01*
X119042352Y-110317361D01*
X118987931Y-110100702D01*
X118898854Y-109895840D01*
X118777514Y-109708277D01*
X118627170Y-109543051D01*
X118623119Y-109539852D01*
X118623115Y-109539848D01*
X118455914Y-109407800D01*
X118455910Y-109407798D01*
X118451859Y-109404598D01*
X118410553Y-109381796D01*
X118360584Y-109331364D01*
X118345812Y-109261921D01*
X118370928Y-109195516D01*
X118398280Y-109168909D01*
X118442103Y-109137650D01*
X118577360Y-109041173D01*
X118735596Y-108883489D01*
X118795094Y-108800689D01*
X118862935Y-108706277D01*
X118865953Y-108702077D01*
X118886820Y-108659857D01*
X118962636Y-108506453D01*
X118962637Y-108506451D01*
X118964930Y-108501811D01*
X119029870Y-108288069D01*
X119059029Y-108066590D01*
X119060656Y-108000000D01*
X119042352Y-107777361D01*
X118987931Y-107560702D01*
X118985869Y-107555959D01*
X118985867Y-107555954D01*
X118957795Y-107491395D01*
X118948974Y-107420948D01*
X118979640Y-107356916D01*
X119009203Y-107332700D01*
X119021035Y-107325702D01*
X119038776Y-107317012D01*
X119057617Y-107309552D01*
X119077987Y-107294753D01*
X119093387Y-107283564D01*
X119103307Y-107277048D01*
X119134535Y-107258580D01*
X119134538Y-107258578D01*
X119141362Y-107254542D01*
X119155683Y-107240221D01*
X119170717Y-107227380D01*
X119172432Y-107226134D01*
X119187107Y-107215472D01*
X119215298Y-107181395D01*
X119223288Y-107172616D01*
X119725499Y-106670405D01*
X119787811Y-106636379D01*
X119814594Y-106633500D01*
X128685406Y-106633500D01*
X128753527Y-106653502D01*
X128774501Y-106670405D01*
X129246343Y-107142247D01*
X129253887Y-107150537D01*
X129258000Y-107157018D01*
X129263777Y-107162443D01*
X129307667Y-107203658D01*
X129310494Y-107206398D01*
X129330230Y-107226134D01*
X129333420Y-107228608D01*
X129342447Y-107236318D01*
X129374679Y-107266586D01*
X129381628Y-107270406D01*
X129392432Y-107276346D01*
X129408956Y-107287199D01*
X129424959Y-107299613D01*
X129465543Y-107317176D01*
X129476173Y-107322383D01*
X129514940Y-107343695D01*
X129522617Y-107345666D01*
X129522622Y-107345668D01*
X129534558Y-107348732D01*
X129553266Y-107355137D01*
X129571855Y-107363181D01*
X129579683Y-107364421D01*
X129579690Y-107364423D01*
X129615524Y-107370099D01*
X129627144Y-107372505D01*
X129662289Y-107381528D01*
X129669970Y-107383500D01*
X129690224Y-107383500D01*
X129709934Y-107385051D01*
X129729943Y-107388220D01*
X129737835Y-107387474D01*
X129773961Y-107384059D01*
X129785819Y-107383500D01*
X130737906Y-107383500D01*
X130806027Y-107403502D01*
X130827001Y-107420405D01*
X130952278Y-107545682D01*
X130986304Y-107607994D01*
X130984600Y-107668448D01*
X130963489Y-107744570D01*
X130962941Y-107749700D01*
X130962940Y-107749704D01*
X130959433Y-107782522D01*
X130939751Y-107966695D01*
X130940048Y-107971848D01*
X130940048Y-107971851D01*
X130945511Y-108066590D01*
X130952610Y-108189715D01*
X130953747Y-108194761D01*
X130953748Y-108194767D01*
X130973619Y-108282939D01*
X131001722Y-108407639D01*
X131085766Y-108614616D01*
X131136519Y-108697438D01*
X131199791Y-108800688D01*
X131202487Y-108805088D01*
X131348750Y-108973938D01*
X131520626Y-109116632D01*
X131591095Y-109157811D01*
X131593945Y-109159476D01*
X131642669Y-109211114D01*
X131655740Y-109280897D01*
X131629009Y-109346669D01*
X131588555Y-109380027D01*
X131576107Y-109386507D01*
X131571974Y-109389610D01*
X131571971Y-109389612D01*
X131547747Y-109407800D01*
X131397465Y-109520635D01*
X131243129Y-109682138D01*
X131117243Y-109866680D01*
X131023188Y-110069305D01*
X130963489Y-110284570D01*
X130939751Y-110506695D01*
X130940048Y-110511848D01*
X130940048Y-110511851D01*
X130945511Y-110606590D01*
X130952610Y-110729715D01*
X130953747Y-110734761D01*
X130953748Y-110734767D01*
X130973619Y-110822939D01*
X131001722Y-110947639D01*
X131085766Y-111154616D01*
X131136519Y-111237438D01*
X131199791Y-111340688D01*
X131202487Y-111345088D01*
X131348750Y-111513938D01*
X131520626Y-111656632D01*
X131543460Y-111669975D01*
X131593945Y-111699476D01*
X131642669Y-111751114D01*
X131655740Y-111820897D01*
X131629009Y-111886669D01*
X131588555Y-111920027D01*
X131576107Y-111926507D01*
X131571974Y-111929610D01*
X131571971Y-111929612D01*
X131401600Y-112057530D01*
X131397465Y-112060635D01*
X131243129Y-112222138D01*
X131117243Y-112406680D01*
X131023188Y-112609305D01*
X130963489Y-112824570D01*
X130939751Y-113046695D01*
X130940048Y-113051848D01*
X130940048Y-113051851D01*
X130945511Y-113146590D01*
X130952610Y-113269715D01*
X130953747Y-113274761D01*
X130953748Y-113274767D01*
X130973619Y-113362939D01*
X131001722Y-113487639D01*
X131085766Y-113694616D01*
X131136519Y-113777438D01*
X131199791Y-113880688D01*
X131202487Y-113885088D01*
X131348750Y-114053938D01*
X131520626Y-114196632D01*
X131713500Y-114309338D01*
X131922192Y-114389030D01*
X131927260Y-114390061D01*
X131927263Y-114390062D01*
X132034517Y-114411883D01*
X132141097Y-114433567D01*
X132146272Y-114433757D01*
X132146274Y-114433757D01*
X132359173Y-114441564D01*
X132359177Y-114441564D01*
X132364337Y-114441753D01*
X132369457Y-114441097D01*
X132369459Y-114441097D01*
X132580788Y-114414025D01*
X132580789Y-114414025D01*
X132585916Y-114413368D01*
X132590866Y-114411883D01*
X132794929Y-114350661D01*
X132794934Y-114350659D01*
X132799884Y-114349174D01*
X133000494Y-114250896D01*
X133182360Y-114121173D01*
X133340596Y-113963489D01*
X133379816Y-113908909D01*
X133470953Y-113782077D01*
X133472276Y-113783028D01*
X133519145Y-113739857D01*
X133589080Y-113727625D01*
X133654526Y-113755144D01*
X133682375Y-113786994D01*
X133742487Y-113885088D01*
X133888750Y-114053938D01*
X134060626Y-114196632D01*
X134253500Y-114309338D01*
X134462192Y-114389030D01*
X134467260Y-114390061D01*
X134467263Y-114390062D01*
X134574517Y-114411883D01*
X134681097Y-114433567D01*
X134686272Y-114433757D01*
X134686274Y-114433757D01*
X134899173Y-114441564D01*
X134899177Y-114441564D01*
X134904337Y-114441753D01*
X134909457Y-114441097D01*
X134909459Y-114441097D01*
X135120788Y-114414025D01*
X135120789Y-114414025D01*
X135125916Y-114413368D01*
X135130866Y-114411883D01*
X135334929Y-114350661D01*
X135334934Y-114350659D01*
X135339884Y-114349174D01*
X135540494Y-114250896D01*
X135722360Y-114121173D01*
X135880596Y-113963489D01*
X135919816Y-113908909D01*
X136007935Y-113786277D01*
X136010953Y-113782077D01*
X136031820Y-113739857D01*
X136107636Y-113586453D01*
X136107637Y-113586451D01*
X136109930Y-113581811D01*
X136174870Y-113368069D01*
X136204029Y-113146590D01*
X136205656Y-113080000D01*
X136187352Y-112857361D01*
X136132931Y-112640702D01*
X136043854Y-112435840D01*
X135971394Y-112323834D01*
X135925322Y-112252617D01*
X135925320Y-112252614D01*
X135922514Y-112248277D01*
X135772170Y-112083051D01*
X135768119Y-112079852D01*
X135768115Y-112079848D01*
X135600914Y-111947800D01*
X135600910Y-111947798D01*
X135596859Y-111944598D01*
X135555553Y-111921796D01*
X135505584Y-111871364D01*
X135490812Y-111801921D01*
X135515928Y-111735516D01*
X135543280Y-111708909D01*
X135597863Y-111669975D01*
X135722360Y-111581173D01*
X135880596Y-111423489D01*
X135940094Y-111340689D01*
X136007935Y-111246277D01*
X136010953Y-111242077D01*
X136031820Y-111199857D01*
X136107636Y-111046453D01*
X136107637Y-111046451D01*
X136109930Y-111041811D01*
X136174870Y-110828069D01*
X136204029Y-110606590D01*
X136205656Y-110540000D01*
X136187352Y-110317361D01*
X136132931Y-110100702D01*
X136043854Y-109895840D01*
X135922514Y-109708277D01*
X135772170Y-109543051D01*
X135768119Y-109539852D01*
X135768115Y-109539848D01*
X135600914Y-109407800D01*
X135600910Y-109407798D01*
X135596859Y-109404598D01*
X135555553Y-109381796D01*
X135505584Y-109331364D01*
X135490812Y-109261921D01*
X135515928Y-109195516D01*
X135543280Y-109168909D01*
X135587103Y-109137650D01*
X135722360Y-109041173D01*
X135880596Y-108883489D01*
X135940094Y-108800689D01*
X136007935Y-108706277D01*
X136010953Y-108702077D01*
X136031820Y-108659857D01*
X136107636Y-108506453D01*
X136107637Y-108506451D01*
X136109930Y-108501811D01*
X136174870Y-108288069D01*
X136204029Y-108066590D01*
X136205656Y-108000000D01*
X136187352Y-107777361D01*
X136132931Y-107560702D01*
X136043854Y-107355840D01*
X135922514Y-107168277D01*
X135772170Y-107003051D01*
X135768119Y-106999852D01*
X135768115Y-106999848D01*
X135600914Y-106867800D01*
X135600910Y-106867798D01*
X135596859Y-106864598D01*
X135555553Y-106841796D01*
X135505584Y-106791364D01*
X135490812Y-106721921D01*
X135515928Y-106655516D01*
X135543280Y-106628909D01*
X135593080Y-106593387D01*
X135722360Y-106501173D01*
X135773801Y-106449912D01*
X135845100Y-106378861D01*
X135880596Y-106343489D01*
X135916308Y-106293791D01*
X136007935Y-106166277D01*
X136010953Y-106162077D01*
X136013246Y-106157437D01*
X136014946Y-106154608D01*
X136067174Y-106106518D01*
X136122951Y-106093500D01*
X140255784Y-106093500D01*
X140323905Y-106113502D01*
X140349420Y-106135189D01*
X140388747Y-106178866D01*
X140394565Y-106183093D01*
X140512792Y-106268990D01*
X140543248Y-106291118D01*
X140549276Y-106293802D01*
X140549278Y-106293803D01*
X140669069Y-106347137D01*
X140717712Y-106368794D01*
X140811113Y-106388647D01*
X140898056Y-106407128D01*
X140898061Y-106407128D01*
X140904513Y-106408500D01*
X141095487Y-106408500D01*
X141101939Y-106407128D01*
X141101944Y-106407128D01*
X141188887Y-106388647D01*
X141282288Y-106368794D01*
X141330931Y-106347137D01*
X141450722Y-106293803D01*
X141450724Y-106293802D01*
X141456752Y-106291118D01*
X141487209Y-106268990D01*
X141585143Y-106197836D01*
X141611253Y-106178866D01*
X141650580Y-106135189D01*
X141734621Y-106041852D01*
X141734622Y-106041851D01*
X141739040Y-106036944D01*
X141834527Y-105871556D01*
X141893542Y-105689928D01*
X141902180Y-105607747D01*
X141912814Y-105506565D01*
X141913504Y-105500000D01*
X141904231Y-105411772D01*
X141894232Y-105316635D01*
X141894232Y-105316633D01*
X141893542Y-105310072D01*
X141834527Y-105128444D01*
X141739040Y-104963056D01*
X141685418Y-104903502D01*
X141615675Y-104826045D01*
X141615674Y-104826044D01*
X141611253Y-104821134D01*
X141456752Y-104708882D01*
X141450724Y-104706198D01*
X141450722Y-104706197D01*
X141288319Y-104633891D01*
X141288318Y-104633891D01*
X141282288Y-104631206D01*
X141188888Y-104611353D01*
X141101944Y-104592872D01*
X141101939Y-104592872D01*
X141095487Y-104591500D01*
X140904513Y-104591500D01*
X140898061Y-104592872D01*
X140898056Y-104592872D01*
X140811112Y-104611353D01*
X140717712Y-104631206D01*
X140711682Y-104633891D01*
X140711681Y-104633891D01*
X140549278Y-104706197D01*
X140549276Y-104706198D01*
X140543248Y-104708882D01*
X140537907Y-104712762D01*
X140537906Y-104712763D01*
X140414482Y-104802436D01*
X140347614Y-104826295D01*
X140340421Y-104826500D01*
X136119305Y-104826500D01*
X136051184Y-104806498D01*
X136013513Y-104768940D01*
X135925322Y-104632617D01*
X135925320Y-104632614D01*
X135922514Y-104628277D01*
X135772170Y-104463051D01*
X135768119Y-104459852D01*
X135768115Y-104459848D01*
X135600914Y-104327800D01*
X135600910Y-104327798D01*
X135596859Y-104324598D01*
X135555553Y-104301796D01*
X135505584Y-104251364D01*
X135490812Y-104181921D01*
X135515928Y-104115516D01*
X135543280Y-104088909D01*
X135654282Y-104009732D01*
X135722360Y-103961173D01*
X135731386Y-103952179D01*
X135876935Y-103807137D01*
X135880596Y-103803489D01*
X136010953Y-103622077D01*
X136013710Y-103616500D01*
X136107636Y-103426453D01*
X136107637Y-103426451D01*
X136109930Y-103421811D01*
X136174870Y-103208069D01*
X136204029Y-102986590D01*
X136205656Y-102920000D01*
X136187352Y-102697361D01*
X136132931Y-102480702D01*
X136043854Y-102275840D01*
X135922514Y-102088277D01*
X135772170Y-101923051D01*
X135768119Y-101919852D01*
X135768115Y-101919848D01*
X135600914Y-101787800D01*
X135600910Y-101787798D01*
X135596859Y-101784598D01*
X135401289Y-101676638D01*
X135396420Y-101674914D01*
X135396416Y-101674912D01*
X135195587Y-101603795D01*
X135195583Y-101603794D01*
X135190712Y-101602069D01*
X135185619Y-101601162D01*
X135185616Y-101601161D01*
X134975873Y-101563800D01*
X134975867Y-101563799D01*
X134970784Y-101562894D01*
X134896952Y-101561992D01*
X134752581Y-101560228D01*
X134752579Y-101560228D01*
X134747411Y-101560165D01*
X134526591Y-101593955D01*
X134514032Y-101598060D01*
X134443068Y-101600210D01*
X134385794Y-101567389D01*
X131926152Y-99107747D01*
X131918612Y-99099461D01*
X131914500Y-99092982D01*
X131864848Y-99046356D01*
X131862007Y-99043602D01*
X131842270Y-99023865D01*
X131839073Y-99021385D01*
X131830051Y-99013680D01*
X131803600Y-98988841D01*
X131797821Y-98983414D01*
X131790875Y-98979595D01*
X131790872Y-98979593D01*
X131780066Y-98973652D01*
X131763547Y-98962801D01*
X131757548Y-98958148D01*
X131747541Y-98950386D01*
X131740272Y-98947241D01*
X131740268Y-98947238D01*
X131706963Y-98932826D01*
X131696313Y-98927609D01*
X131657560Y-98906305D01*
X131637937Y-98901267D01*
X131619234Y-98894863D01*
X131607920Y-98889967D01*
X131607919Y-98889967D01*
X131600645Y-98886819D01*
X131592822Y-98885580D01*
X131592812Y-98885577D01*
X131556976Y-98879901D01*
X131545356Y-98877495D01*
X131510211Y-98868472D01*
X131510210Y-98868472D01*
X131502530Y-98866500D01*
X131482276Y-98866500D01*
X131462565Y-98864949D01*
X131450386Y-98863020D01*
X131442557Y-98861780D01*
X131434665Y-98862526D01*
X131398539Y-98865941D01*
X131386681Y-98866500D01*
X117708200Y-98866500D01*
X117640079Y-98846498D01*
X117620853Y-98830157D01*
X117620580Y-98830460D01*
X117615668Y-98826037D01*
X117611253Y-98821134D01*
X117456752Y-98708882D01*
X117450724Y-98706198D01*
X117450722Y-98706197D01*
X117288319Y-98633891D01*
X117288318Y-98633891D01*
X117282288Y-98631206D01*
X117188888Y-98611353D01*
X117101944Y-98592872D01*
X117101939Y-98592872D01*
X117095487Y-98591500D01*
X116904513Y-98591500D01*
X116898061Y-98592872D01*
X116898056Y-98592872D01*
X116811112Y-98611353D01*
X116717712Y-98631206D01*
X116711682Y-98633891D01*
X116711681Y-98633891D01*
X116549278Y-98706197D01*
X116549276Y-98706198D01*
X116543248Y-98708882D01*
X116388747Y-98821134D01*
X116384326Y-98826044D01*
X116384325Y-98826045D01*
X116275203Y-98947238D01*
X116260960Y-98963056D01*
X116165473Y-99128444D01*
X116106458Y-99310072D01*
X116086496Y-99500000D01*
X116106458Y-99689928D01*
X116165473Y-99871556D01*
X116260960Y-100036944D01*
X116388747Y-100178866D01*
X116543248Y-100291118D01*
X116549276Y-100293802D01*
X116549278Y-100293803D01*
X116711681Y-100366109D01*
X116717712Y-100368794D01*
X116811113Y-100388647D01*
X116898056Y-100407128D01*
X116898061Y-100407128D01*
X116904513Y-100408500D01*
X117095487Y-100408500D01*
X117101939Y-100407128D01*
X117101944Y-100407128D01*
X117188887Y-100388647D01*
X117282288Y-100368794D01*
X117288319Y-100366109D01*
X117450722Y-100293803D01*
X117450724Y-100293802D01*
X117456752Y-100291118D01*
X117611253Y-100178866D01*
X117615668Y-100173963D01*
X117620580Y-100169540D01*
X117621705Y-100170789D01*
X117675014Y-100137949D01*
X117708200Y-100133500D01*
X131107906Y-100133500D01*
X131176027Y-100153502D01*
X131197001Y-100170405D01*
X132373001Y-101346405D01*
X132407027Y-101408717D01*
X132401962Y-101479532D01*
X132359415Y-101536368D01*
X132292895Y-101561179D01*
X132283906Y-101561500D01*
X131892095Y-101561500D01*
X131823974Y-101541498D01*
X131808362Y-101528916D01*
X131808039Y-101529283D01*
X131805074Y-101526669D01*
X131802270Y-101523865D01*
X131799073Y-101521385D01*
X131790051Y-101513680D01*
X131763600Y-101488841D01*
X131757821Y-101483414D01*
X131750875Y-101479595D01*
X131750872Y-101479593D01*
X131740066Y-101473652D01*
X131723547Y-101462801D01*
X131723083Y-101462441D01*
X131707541Y-101450386D01*
X131700272Y-101447241D01*
X131700268Y-101447238D01*
X131666963Y-101432826D01*
X131656313Y-101427609D01*
X131617560Y-101406305D01*
X131597937Y-101401267D01*
X131579234Y-101394863D01*
X131567920Y-101389967D01*
X131567919Y-101389967D01*
X131560645Y-101386819D01*
X131552822Y-101385580D01*
X131552812Y-101385577D01*
X131516976Y-101379901D01*
X131505356Y-101377495D01*
X131470211Y-101368472D01*
X131470210Y-101368472D01*
X131462530Y-101366500D01*
X131442276Y-101366500D01*
X131422565Y-101364949D01*
X131410386Y-101363020D01*
X131402557Y-101361780D01*
X131394665Y-101362526D01*
X131358539Y-101365941D01*
X131346681Y-101366500D01*
X123707612Y-101366500D01*
X123639491Y-101346498D01*
X123626131Y-101336297D01*
X123623552Y-101333433D01*
X123469051Y-101221181D01*
X123463023Y-101218497D01*
X123463021Y-101218496D01*
X123300618Y-101146190D01*
X123300617Y-101146190D01*
X123294587Y-101143505D01*
X123201187Y-101123652D01*
X123114243Y-101105171D01*
X123114238Y-101105171D01*
X123107786Y-101103799D01*
X122916812Y-101103799D01*
X122910360Y-101105171D01*
X122910355Y-101105171D01*
X122823411Y-101123652D01*
X122730011Y-101143505D01*
X122723981Y-101146190D01*
X122723980Y-101146190D01*
X122561577Y-101218496D01*
X122561575Y-101218497D01*
X122555547Y-101221181D01*
X122401046Y-101333433D01*
X122396625Y-101338343D01*
X122396624Y-101338344D01*
X122284563Y-101462801D01*
X122273259Y-101475355D01*
X122177772Y-101640743D01*
X122118757Y-101822371D01*
X122118067Y-101828932D01*
X122118067Y-101828934D01*
X122110531Y-101900635D01*
X122098795Y-102012299D01*
X122099485Y-102018864D01*
X122112987Y-102147330D01*
X122100215Y-102217168D01*
X122051713Y-102269015D01*
X121987677Y-102286500D01*
X118974305Y-102286500D01*
X118906184Y-102266498D01*
X118868513Y-102228940D01*
X118780322Y-102092617D01*
X118780320Y-102092614D01*
X118777514Y-102088277D01*
X118627170Y-101923051D01*
X118623119Y-101919852D01*
X118623115Y-101919848D01*
X118455914Y-101787800D01*
X118455910Y-101787798D01*
X118451859Y-101784598D01*
X118256289Y-101676638D01*
X118251420Y-101674914D01*
X118251416Y-101674912D01*
X118050587Y-101603795D01*
X118050583Y-101603794D01*
X118045712Y-101602069D01*
X118040619Y-101601162D01*
X118040616Y-101601161D01*
X117830873Y-101563800D01*
X117830867Y-101563799D01*
X117825784Y-101562894D01*
X117751952Y-101561992D01*
X117607581Y-101560228D01*
X117607579Y-101560228D01*
X117602411Y-101560165D01*
X117381591Y-101593955D01*
X117169256Y-101663357D01*
X116971107Y-101766507D01*
X116966974Y-101769610D01*
X116966971Y-101769612D01*
X116796600Y-101897530D01*
X116792465Y-101900635D01*
X116638129Y-102062138D01*
X116530701Y-102219621D01*
X116475793Y-102264621D01*
X116405268Y-102272792D01*
X116341521Y-102241538D01*
X116320824Y-102217054D01*
X116240322Y-102092617D01*
X116240320Y-102092614D01*
X116237514Y-102088277D01*
X116087170Y-101923051D01*
X116083119Y-101919852D01*
X116083115Y-101919848D01*
X115915914Y-101787800D01*
X115915910Y-101787798D01*
X115911859Y-101784598D01*
X115716289Y-101676638D01*
X115711420Y-101674914D01*
X115711416Y-101674912D01*
X115510587Y-101603795D01*
X115510583Y-101603794D01*
X115505712Y-101602069D01*
X115500619Y-101601162D01*
X115500616Y-101601161D01*
X115290873Y-101563800D01*
X115290867Y-101563799D01*
X115285784Y-101562894D01*
X115211952Y-101561992D01*
X115067581Y-101560228D01*
X115067579Y-101560228D01*
X115062411Y-101560165D01*
X114841591Y-101593955D01*
X114629256Y-101663357D01*
X114431107Y-101766507D01*
X114426974Y-101769610D01*
X114426971Y-101769612D01*
X114256600Y-101897530D01*
X114252465Y-101900635D01*
X114098129Y-102062138D01*
X113972243Y-102246680D01*
X113878188Y-102449305D01*
X113818489Y-102664570D01*
X113794751Y-102886695D01*
X113795048Y-102891848D01*
X113795048Y-102891851D01*
X113804860Y-103062026D01*
X113807610Y-103109715D01*
X113808747Y-103114761D01*
X113808748Y-103114767D01*
X113840953Y-103257668D01*
X113836417Y-103328520D01*
X113807131Y-103374464D01*
X113357747Y-103823848D01*
X113349461Y-103831388D01*
X113342982Y-103835500D01*
X113337557Y-103841277D01*
X113296357Y-103885151D01*
X113293602Y-103887993D01*
X113273865Y-103907730D01*
X113271385Y-103910927D01*
X113263682Y-103919947D01*
X113233414Y-103952179D01*
X113229595Y-103959125D01*
X113229593Y-103959128D01*
X113223652Y-103969934D01*
X113212801Y-103986453D01*
X113200386Y-104002459D01*
X113197241Y-104009728D01*
X113197238Y-104009732D01*
X113182826Y-104043037D01*
X113177609Y-104053687D01*
X113156305Y-104092440D01*
X113154334Y-104100115D01*
X113154334Y-104100116D01*
X113151267Y-104112062D01*
X113144863Y-104130766D01*
X113136819Y-104149355D01*
X113135580Y-104157178D01*
X113135577Y-104157188D01*
X113129901Y-104193024D01*
X113127495Y-104204644D01*
X113116500Y-104247470D01*
X113116500Y-104267724D01*
X113114949Y-104287434D01*
X113111780Y-104307443D01*
X100508500Y-104307443D01*
X100508500Y-97000000D01*
X106000000Y-97000000D01*
X106500000Y-97500000D01*
X113000000Y-97500000D01*
X115750000Y-94750000D01*
X115750000Y-90800000D01*
X129836496Y-90800000D01*
X129856458Y-90989928D01*
X129915473Y-91171556D01*
X130010960Y-91336944D01*
X130015378Y-91341851D01*
X130015379Y-91341852D01*
X130097452Y-91433003D01*
X130138747Y-91478866D01*
X130293248Y-91591118D01*
X130299276Y-91593802D01*
X130299278Y-91593803D01*
X130461681Y-91666109D01*
X130467712Y-91668794D01*
X130561112Y-91688647D01*
X130648056Y-91707128D01*
X130648061Y-91707128D01*
X130654513Y-91708500D01*
X130845487Y-91708500D01*
X130851939Y-91707128D01*
X130851944Y-91707128D01*
X130938888Y-91688647D01*
X131032288Y-91668794D01*
X131038319Y-91666109D01*
X131200722Y-91593803D01*
X131200724Y-91593802D01*
X131206752Y-91591118D01*
X131361253Y-91478866D01*
X131365668Y-91473963D01*
X131370580Y-91469540D01*
X131371705Y-91470789D01*
X131425014Y-91437949D01*
X131458200Y-91433500D01*
X134621233Y-91433500D01*
X134632416Y-91434027D01*
X134639909Y-91435702D01*
X134647835Y-91435453D01*
X134647836Y-91435453D01*
X134707986Y-91433562D01*
X134711945Y-91433500D01*
X134739856Y-91433500D01*
X134743791Y-91433003D01*
X134743856Y-91432995D01*
X134755693Y-91432062D01*
X134787951Y-91431048D01*
X134791970Y-91430922D01*
X134799889Y-91430673D01*
X134819343Y-91425021D01*
X134838700Y-91421013D01*
X134850930Y-91419468D01*
X134850931Y-91419468D01*
X134858797Y-91418474D01*
X134866168Y-91415555D01*
X134866170Y-91415555D01*
X134899912Y-91402196D01*
X134911142Y-91398351D01*
X134945983Y-91388229D01*
X134945984Y-91388229D01*
X134953593Y-91386018D01*
X134960412Y-91381985D01*
X134960417Y-91381983D01*
X134971028Y-91375707D01*
X134988776Y-91367012D01*
X135007617Y-91359552D01*
X135043387Y-91333564D01*
X135053307Y-91327048D01*
X135084535Y-91308580D01*
X135084538Y-91308578D01*
X135091362Y-91304542D01*
X135105683Y-91290221D01*
X135120717Y-91277380D01*
X135130694Y-91270131D01*
X135137107Y-91265472D01*
X135165298Y-91231395D01*
X135173288Y-91222616D01*
X135950499Y-90445405D01*
X136012811Y-90411379D01*
X136039594Y-90408500D01*
X136095487Y-90408500D01*
X136101939Y-90407128D01*
X136101944Y-90407128D01*
X136188887Y-90388647D01*
X136282288Y-90368794D01*
X136288319Y-90366109D01*
X136450722Y-90293803D01*
X136450724Y-90293802D01*
X136456752Y-90291118D01*
X136611253Y-90178866D01*
X136615675Y-90173955D01*
X136734621Y-90041852D01*
X136734622Y-90041851D01*
X136739040Y-90036944D01*
X136834527Y-89871556D01*
X136893542Y-89689928D01*
X136913504Y-89500000D01*
X136893542Y-89310072D01*
X136834527Y-89128444D01*
X136739040Y-88963056D01*
X136611253Y-88821134D01*
X136456752Y-88708882D01*
X136450724Y-88706198D01*
X136450722Y-88706197D01*
X136288319Y-88633891D01*
X136288318Y-88633891D01*
X136282288Y-88631206D01*
X136188887Y-88611353D01*
X136101944Y-88592872D01*
X136101939Y-88592872D01*
X136095487Y-88591500D01*
X135904513Y-88591500D01*
X135898061Y-88592872D01*
X135898056Y-88592872D01*
X135811113Y-88611353D01*
X135717712Y-88631206D01*
X135711682Y-88633891D01*
X135711681Y-88633891D01*
X135549278Y-88706197D01*
X135549276Y-88706198D01*
X135543248Y-88708882D01*
X135388747Y-88821134D01*
X135260960Y-88963056D01*
X135165473Y-89128444D01*
X135106458Y-89310072D01*
X135105768Y-89316633D01*
X135105768Y-89316635D01*
X135089093Y-89475292D01*
X135062080Y-89540949D01*
X135052878Y-89551218D01*
X134474499Y-90129596D01*
X134412187Y-90163621D01*
X134385404Y-90166500D01*
X131458200Y-90166500D01*
X131390079Y-90146498D01*
X131370853Y-90130157D01*
X131370580Y-90130460D01*
X131365668Y-90126037D01*
X131361253Y-90121134D01*
X131206752Y-90008882D01*
X131200724Y-90006198D01*
X131200722Y-90006197D01*
X131038319Y-89933891D01*
X131038318Y-89933891D01*
X131032288Y-89931206D01*
X130938888Y-89911353D01*
X130851944Y-89892872D01*
X130851939Y-89892872D01*
X130845487Y-89891500D01*
X130654513Y-89891500D01*
X130648061Y-89892872D01*
X130648056Y-89892872D01*
X130561112Y-89911353D01*
X130467712Y-89931206D01*
X130461682Y-89933891D01*
X130461681Y-89933891D01*
X130299278Y-90006197D01*
X130299276Y-90006198D01*
X130293248Y-90008882D01*
X130138747Y-90121134D01*
X130134326Y-90126044D01*
X130134325Y-90126045D01*
X130100492Y-90163621D01*
X130010960Y-90263056D01*
X129993208Y-90293803D01*
X129925326Y-90411379D01*
X129915473Y-90428444D01*
X129856458Y-90610072D01*
X129836496Y-90800000D01*
X115750000Y-90800000D01*
X115750000Y-90500000D01*
X115500000Y-90500000D01*
X115500000Y-94447810D01*
X115479998Y-94515931D01*
X115463095Y-94536905D01*
X113036905Y-96963095D01*
X112974593Y-96997121D01*
X112947810Y-97000000D01*
X106626000Y-97000000D01*
X106557879Y-96979998D01*
X106511386Y-96926342D01*
X106500000Y-96874000D01*
X106500000Y-81626000D01*
X106520002Y-81557879D01*
X106573658Y-81511386D01*
X106626000Y-81500000D01*
X112940985Y-81500000D01*
X113009106Y-81520002D01*
X113037780Y-81545336D01*
X115470796Y-84464955D01*
X115499040Y-84530092D01*
X115500000Y-84545618D01*
X115500000Y-87500000D01*
X115750000Y-87500000D01*
X115750000Y-86000000D01*
X122086496Y-86000000D01*
X122106458Y-86189928D01*
X122165473Y-86371556D01*
X122260960Y-86536944D01*
X122388747Y-86678866D01*
X122543248Y-86791118D01*
X122549276Y-86793802D01*
X122549278Y-86793803D01*
X122600560Y-86816635D01*
X122717712Y-86868794D01*
X122811112Y-86888647D01*
X122898056Y-86907128D01*
X122898061Y-86907128D01*
X122904513Y-86908500D01*
X123095487Y-86908500D01*
X123101939Y-86907128D01*
X123101944Y-86907128D01*
X123188888Y-86888647D01*
X123282288Y-86868794D01*
X123399440Y-86816635D01*
X123450722Y-86793803D01*
X123450724Y-86793802D01*
X123456752Y-86791118D01*
X123611253Y-86678866D01*
X123615668Y-86673963D01*
X123620580Y-86669540D01*
X123621705Y-86670789D01*
X123675014Y-86637949D01*
X123708200Y-86633500D01*
X125685406Y-86633500D01*
X125753527Y-86653502D01*
X125774501Y-86670405D01*
X126496343Y-87392247D01*
X126503887Y-87400537D01*
X126508000Y-87407018D01*
X126513777Y-87412443D01*
X126557667Y-87453658D01*
X126560509Y-87456413D01*
X126580231Y-87476135D01*
X126583355Y-87478558D01*
X126583359Y-87478562D01*
X126583424Y-87478612D01*
X126592445Y-87486317D01*
X126624679Y-87516586D01*
X126631627Y-87520405D01*
X126631629Y-87520407D01*
X126642432Y-87526346D01*
X126658959Y-87537202D01*
X126668698Y-87544757D01*
X126668700Y-87544758D01*
X126674960Y-87549614D01*
X126715540Y-87567174D01*
X126726188Y-87572391D01*
X126764940Y-87593695D01*
X126772616Y-87595666D01*
X126772619Y-87595667D01*
X126784562Y-87598733D01*
X126803267Y-87605137D01*
X126821855Y-87613181D01*
X126829678Y-87614420D01*
X126829688Y-87614423D01*
X126865524Y-87620099D01*
X126877144Y-87622505D01*
X126912289Y-87631528D01*
X126919970Y-87633500D01*
X126940224Y-87633500D01*
X126959934Y-87635051D01*
X126979943Y-87638220D01*
X126987835Y-87637474D01*
X127023961Y-87634059D01*
X127035819Y-87633500D01*
X128291800Y-87633500D01*
X128359921Y-87653502D01*
X128379147Y-87669843D01*
X128379420Y-87669540D01*
X128384332Y-87673963D01*
X128388747Y-87678866D01*
X128543248Y-87791118D01*
X128549276Y-87793802D01*
X128549278Y-87793803D01*
X128711681Y-87866109D01*
X128717712Y-87868794D01*
X128811113Y-87888647D01*
X128898056Y-87907128D01*
X128898061Y-87907128D01*
X128904513Y-87908500D01*
X129095487Y-87908500D01*
X129101939Y-87907128D01*
X129101944Y-87907128D01*
X129188887Y-87888647D01*
X129282288Y-87868794D01*
X129288319Y-87866109D01*
X129450722Y-87793803D01*
X129450724Y-87793802D01*
X129456752Y-87791118D01*
X129611253Y-87678866D01*
X129647851Y-87638220D01*
X129734621Y-87541852D01*
X129734622Y-87541851D01*
X129739040Y-87536944D01*
X129814053Y-87407018D01*
X129831223Y-87377279D01*
X129831224Y-87377278D01*
X129834527Y-87371556D01*
X129893542Y-87189928D01*
X129913504Y-87000000D01*
X129893542Y-86810072D01*
X129834527Y-86628444D01*
X129739040Y-86463056D01*
X129611253Y-86321134D01*
X129456752Y-86208882D01*
X129450724Y-86206198D01*
X129450722Y-86206197D01*
X129288319Y-86133891D01*
X129288318Y-86133891D01*
X129282288Y-86131206D01*
X129188888Y-86111353D01*
X129101944Y-86092872D01*
X129101939Y-86092872D01*
X129095487Y-86091500D01*
X128904513Y-86091500D01*
X128898061Y-86092872D01*
X128898056Y-86092872D01*
X128811112Y-86111353D01*
X128717712Y-86131206D01*
X128711682Y-86133891D01*
X128711681Y-86133891D01*
X128549278Y-86206197D01*
X128549276Y-86206198D01*
X128543248Y-86208882D01*
X128388747Y-86321134D01*
X128384332Y-86326037D01*
X128379420Y-86330460D01*
X128378295Y-86329211D01*
X128324986Y-86362051D01*
X128291800Y-86366500D01*
X127314595Y-86366500D01*
X127246474Y-86346498D01*
X127225499Y-86329595D01*
X126503647Y-85607742D01*
X126496113Y-85599463D01*
X126492000Y-85592982D01*
X126442348Y-85546356D01*
X126439507Y-85543602D01*
X126419770Y-85523865D01*
X126416573Y-85521385D01*
X126407551Y-85513680D01*
X126381100Y-85488841D01*
X126375321Y-85483414D01*
X126368375Y-85479595D01*
X126368372Y-85479593D01*
X126357566Y-85473652D01*
X126341047Y-85462801D01*
X126335048Y-85458148D01*
X126325041Y-85450386D01*
X126317772Y-85447241D01*
X126317768Y-85447238D01*
X126284463Y-85432826D01*
X126273813Y-85427609D01*
X126235060Y-85406305D01*
X126215437Y-85401267D01*
X126196734Y-85394863D01*
X126185420Y-85389967D01*
X126185419Y-85389967D01*
X126178145Y-85386819D01*
X126170322Y-85385580D01*
X126170312Y-85385577D01*
X126134476Y-85379901D01*
X126122856Y-85377495D01*
X126087711Y-85368472D01*
X126087710Y-85368472D01*
X126080030Y-85366500D01*
X126059776Y-85366500D01*
X126040065Y-85364949D01*
X126027886Y-85363020D01*
X126020057Y-85361780D01*
X126012165Y-85362526D01*
X125976039Y-85365941D01*
X125964181Y-85366500D01*
X123708200Y-85366500D01*
X123640079Y-85346498D01*
X123620853Y-85330157D01*
X123620580Y-85330460D01*
X123615668Y-85326037D01*
X123611253Y-85321134D01*
X123456752Y-85208882D01*
X123450724Y-85206198D01*
X123450722Y-85206197D01*
X123288319Y-85133891D01*
X123288318Y-85133891D01*
X123282288Y-85131206D01*
X123188888Y-85111353D01*
X123101944Y-85092872D01*
X123101939Y-85092872D01*
X123095487Y-85091500D01*
X122904513Y-85091500D01*
X122898061Y-85092872D01*
X122898056Y-85092872D01*
X122811112Y-85111353D01*
X122717712Y-85131206D01*
X122711682Y-85133891D01*
X122711681Y-85133891D01*
X122549278Y-85206197D01*
X122549276Y-85206198D01*
X122543248Y-85208882D01*
X122388747Y-85321134D01*
X122384326Y-85326044D01*
X122384325Y-85326045D01*
X122275203Y-85447238D01*
X122260960Y-85463056D01*
X122165473Y-85628444D01*
X122106458Y-85810072D01*
X122086496Y-86000000D01*
X115750000Y-86000000D01*
X115750000Y-84500000D01*
X115623349Y-84246698D01*
X115503258Y-84006515D01*
X115503256Y-84006512D01*
X115500000Y-84000000D01*
X113521667Y-81626000D01*
X113011598Y-81013917D01*
X113011597Y-81013916D01*
X113000000Y-81000000D01*
X106500000Y-81000000D01*
X106000000Y-81500000D01*
X106000000Y-97000000D01*
X100508500Y-97000000D01*
X100508500Y-64132703D01*
X101890743Y-64132703D01*
X101928268Y-64417734D01*
X102004129Y-64695036D01*
X102116923Y-64959476D01*
X102264561Y-65206161D01*
X102444313Y-65430528D01*
X102652851Y-65628423D01*
X102886317Y-65796186D01*
X102890112Y-65798195D01*
X102890113Y-65798196D01*
X102911869Y-65809715D01*
X103140392Y-65930712D01*
X103410373Y-66029511D01*
X103691264Y-66090755D01*
X103719841Y-66093004D01*
X103914282Y-66108307D01*
X103914291Y-66108307D01*
X103916739Y-66108500D01*
X104072271Y-66108500D01*
X104074407Y-66108354D01*
X104074418Y-66108354D01*
X104282548Y-66094165D01*
X104282554Y-66094164D01*
X104286825Y-66093873D01*
X104291020Y-66093004D01*
X104291022Y-66093004D01*
X104427583Y-66064724D01*
X104568342Y-66035574D01*
X104839343Y-65939607D01*
X105094812Y-65807750D01*
X105098313Y-65805289D01*
X105098317Y-65805287D01*
X105214986Y-65723290D01*
X105330023Y-65642441D01*
X105540622Y-65446740D01*
X105722713Y-65224268D01*
X105872927Y-64979142D01*
X105981978Y-64730718D01*
X105986757Y-64719830D01*
X105988483Y-64715898D01*
X106067244Y-64439406D01*
X106107751Y-64154784D01*
X106107845Y-64136951D01*
X106109235Y-63871583D01*
X106109235Y-63871576D01*
X106109257Y-63867297D01*
X106071732Y-63582266D01*
X105995871Y-63304964D01*
X105883077Y-63040524D01*
X105735439Y-62793839D01*
X105555687Y-62569472D01*
X105432289Y-62452372D01*
X105350258Y-62374527D01*
X105350255Y-62374525D01*
X105347149Y-62371577D01*
X105113683Y-62203814D01*
X105091843Y-62192250D01*
X104962512Y-62123773D01*
X104859608Y-62069288D01*
X104589627Y-61970489D01*
X104308736Y-61909245D01*
X104277685Y-61906801D01*
X104085718Y-61891693D01*
X104085709Y-61891693D01*
X104083261Y-61891500D01*
X103927729Y-61891500D01*
X103925593Y-61891646D01*
X103925582Y-61891646D01*
X103717452Y-61905835D01*
X103717446Y-61905836D01*
X103713175Y-61906127D01*
X103708980Y-61906996D01*
X103708978Y-61906996D01*
X103572417Y-61935276D01*
X103431658Y-61964426D01*
X103160657Y-62060393D01*
X102905188Y-62192250D01*
X102901687Y-62194711D01*
X102901683Y-62194713D01*
X102891594Y-62201804D01*
X102669977Y-62357559D01*
X102459378Y-62553260D01*
X102277287Y-62775732D01*
X102127073Y-63020858D01*
X102125347Y-63024791D01*
X102125346Y-63024792D01*
X102121558Y-63033421D01*
X102011517Y-63284102D01*
X102010342Y-63288229D01*
X102010341Y-63288230D01*
X101997097Y-63334724D01*
X101932756Y-63560594D01*
X101892249Y-63845216D01*
X101892227Y-63849505D01*
X101892226Y-63849512D01*
X101891438Y-64000000D01*
X101890743Y-64132703D01*
X100508500Y-64132703D01*
X100508500Y-63053250D01*
X100510246Y-63032345D01*
X100512770Y-63017344D01*
X100512770Y-63017341D01*
X100513576Y-63012552D01*
X100513729Y-63000000D01*
X100513040Y-62995186D01*
X100513039Y-62995177D01*
X100511869Y-62987006D01*
X100510827Y-62961540D01*
X100526206Y-62707290D01*
X100528040Y-62692186D01*
X100579523Y-62411246D01*
X100583164Y-62396473D01*
X100643199Y-62203814D01*
X100668142Y-62123769D01*
X100673534Y-62109555D01*
X100790758Y-61849092D01*
X100797828Y-61835621D01*
X100945595Y-61591187D01*
X100954238Y-61578666D01*
X101130385Y-61353829D01*
X101140475Y-61342440D01*
X101342440Y-61140475D01*
X101353829Y-61130385D01*
X101578666Y-60954238D01*
X101591187Y-60945595D01*
X101817642Y-60808697D01*
X101835622Y-60797827D01*
X101849094Y-60790757D01*
X101891777Y-60771547D01*
X102109555Y-60673534D01*
X102123769Y-60668142D01*
X102396474Y-60583164D01*
X102411240Y-60579525D01*
X102663302Y-60533333D01*
X102692186Y-60528040D01*
X102707290Y-60526206D01*
X102957904Y-60511047D01*
X102984716Y-60512308D01*
X102984852Y-60512310D01*
X102993724Y-60513691D01*
X103002626Y-60512527D01*
X103002628Y-60512527D01*
X103017677Y-60510559D01*
X103025286Y-60509564D01*
X103041621Y-60508500D01*
X116860500Y-60508500D01*
X116928621Y-60528502D01*
G37*
%TD.AperFunction*%
%TD*%
M02*
