%TF.GenerationSoftware,KiCad,Pcbnew,(6.0.7-1)-1*%
%TF.CreationDate,2022-12-04T14:42:11+01:00*%
%TF.ProjectId,pork-chop-control,706f726b-2d63-4686-9f70-2d636f6e7472,rev?*%
%TF.SameCoordinates,Original*%
%TF.FileFunction,Soldermask,Top*%
%TF.FilePolarity,Negative*%
%FSLAX46Y46*%
G04 Gerber Fmt 4.6, Leading zero omitted, Abs format (unit mm)*
G04 Created by KiCad (PCBNEW (6.0.7-1)-1) date 2022-12-04 14:42:11*
%MOMM*%
%LPD*%
G01*
G04 APERTURE LIST*
G04 Aperture macros list*
%AMRoundRect*
0 Rectangle with rounded corners*
0 $1 Rounding radius*
0 $2 $3 $4 $5 $6 $7 $8 $9 X,Y pos of 4 corners*
0 Add a 4 corners polygon primitive as box body*
4,1,4,$2,$3,$4,$5,$6,$7,$8,$9,$2,$3,0*
0 Add four circle primitives for the rounded corners*
1,1,$1+$1,$2,$3*
1,1,$1+$1,$4,$5*
1,1,$1+$1,$6,$7*
1,1,$1+$1,$8,$9*
0 Add four rect primitives between the rounded corners*
20,1,$1+$1,$2,$3,$4,$5,0*
20,1,$1+$1,$4,$5,$6,$7,0*
20,1,$1+$1,$6,$7,$8,$9,0*
20,1,$1+$1,$8,$9,$2,$3,0*%
G04 Aperture macros list end*
%ADD10C,3.500000*%
%ADD11C,1.478000*%
%ADD12R,1.478000X1.478000*%
%ADD13RoundRect,0.250000X-0.475000X0.337500X-0.475000X-0.337500X0.475000X-0.337500X0.475000X0.337500X0*%
%ADD14RoundRect,0.250000X0.600000X0.600000X-0.600000X0.600000X-0.600000X-0.600000X0.600000X-0.600000X0*%
%ADD15C,1.700000*%
%ADD16RoundRect,0.250000X0.350000X0.450000X-0.350000X0.450000X-0.350000X-0.450000X0.350000X-0.450000X0*%
%ADD17RoundRect,0.250000X-0.412500X-0.650000X0.412500X-0.650000X0.412500X0.650000X-0.412500X0.650000X0*%
%ADD18RoundRect,0.250000X-1.075000X0.400000X-1.075000X-0.400000X1.075000X-0.400000X1.075000X0.400000X0*%
%ADD19C,3.200000*%
%ADD20R,3.200000X1.000000*%
%ADD21R,1.000000X1.000000*%
%ADD22RoundRect,0.250000X0.412500X0.650000X-0.412500X0.650000X-0.412500X-0.650000X0.412500X-0.650000X0*%
%ADD23RoundRect,0.250000X-0.600000X-0.600000X0.600000X-0.600000X0.600000X0.600000X-0.600000X0.600000X0*%
%ADD24RoundRect,0.250000X0.475000X-0.337500X0.475000X0.337500X-0.475000X0.337500X-0.475000X-0.337500X0*%
%ADD25C,5.600000*%
%ADD26R,2.000000X4.500000*%
%ADD27RoundRect,0.250000X-0.350000X-0.450000X0.350000X-0.450000X0.350000X0.450000X-0.350000X0.450000X0*%
%ADD28RoundRect,0.250000X0.450000X-0.350000X0.450000X0.350000X-0.450000X0.350000X-0.450000X-0.350000X0*%
%ADD29RoundRect,0.025500X-0.354500X0.229500X-0.354500X-0.229500X0.354500X-0.229500X0.354500X0.229500X0*%
%ADD30R,1.600000X0.550000*%
%ADD31R,0.550000X1.600000*%
%ADD32RoundRect,0.150000X0.150000X-0.512500X0.150000X0.512500X-0.150000X0.512500X-0.150000X-0.512500X0*%
%ADD33RoundRect,0.250000X-0.450000X0.350000X-0.450000X-0.350000X0.450000X-0.350000X0.450000X0.350000X0*%
G04 APERTURE END LIST*
D10*
%TO.C,J1*%
X121000000Y-63000000D03*
X129000000Y-63000000D03*
D11*
X123750000Y-67490000D03*
X126250000Y-67490000D03*
X126250000Y-69490000D03*
D12*
X123750000Y-69490000D03*
%TD*%
D13*
%TO.C,C8*%
X121000000Y-74000000D03*
X121000000Y-76075000D03*
%TD*%
D14*
%TO.C,J2*%
X117697500Y-113080000D03*
D15*
X115157500Y-113080000D03*
X117697500Y-110540000D03*
X115157500Y-110540000D03*
X117697500Y-108000000D03*
X115157500Y-108000000D03*
X117697500Y-105460000D03*
X115157500Y-105460000D03*
X117697500Y-102920000D03*
X115157500Y-102920000D03*
%TD*%
D16*
%TO.C,R6*%
X126000000Y-79500000D03*
X124000000Y-79500000D03*
%TD*%
D13*
%TO.C,C3*%
X114000000Y-89962500D03*
X114000000Y-92037500D03*
%TD*%
D17*
%TO.C,C6*%
X122625000Y-84500000D03*
X125750000Y-84500000D03*
%TD*%
D18*
%TO.C,F1*%
X110000000Y-75950000D03*
X110000000Y-79050000D03*
%TD*%
D19*
%TO.C,REF\u002A\u002A*%
X104000000Y-64000000D03*
%TD*%
D20*
%TO.C,SW1*%
X139100000Y-84500000D03*
X145900000Y-84500000D03*
X139100000Y-80500000D03*
X145900000Y-80500000D03*
%TD*%
D21*
%TO.C,TP5*%
X106500000Y-76000000D03*
%TD*%
D22*
%TO.C,C4*%
X131625000Y-84500000D03*
X128500000Y-84500000D03*
%TD*%
D23*
%TO.C,J3*%
X132302500Y-102920000D03*
D15*
X134842500Y-102920000D03*
X132302500Y-105460000D03*
X134842500Y-105460000D03*
X132302500Y-108000000D03*
X134842500Y-108000000D03*
X132302500Y-110540000D03*
X134842500Y-110540000D03*
X132302500Y-113080000D03*
X134842500Y-113080000D03*
%TD*%
D21*
%TO.C,TP3*%
X121000000Y-110000000D03*
%TD*%
D24*
%TO.C,C2*%
X114000000Y-88037500D03*
X114000000Y-85962500D03*
%TD*%
D20*
%TO.C,SW2*%
X145900000Y-89000000D03*
X139100000Y-89000000D03*
X139100000Y-93000000D03*
X145900000Y-93000000D03*
%TD*%
D25*
%TO.C,H1*%
X146000000Y-64000000D03*
%TD*%
D21*
%TO.C,TP4*%
X121000000Y-112000000D03*
%TD*%
D16*
%TO.C,R5*%
X126000000Y-81500000D03*
X124000000Y-81500000D03*
%TD*%
D26*
%TO.C,Y1*%
X109500000Y-85000000D03*
X109500000Y-93500000D03*
%TD*%
D27*
%TO.C,FB2*%
X116500000Y-78500000D03*
X118500000Y-78500000D03*
%TD*%
D21*
%TO.C,TP2*%
X121000000Y-108000000D03*
%TD*%
D24*
%TO.C,C7*%
X113500000Y-76075000D03*
X113500000Y-74000000D03*
%TD*%
D28*
%TO.C,R4*%
X118500000Y-76000000D03*
X118500000Y-74000000D03*
%TD*%
D19*
%TO.C,REF\u002A\u002A*%
X125000000Y-116000000D03*
%TD*%
D21*
%TO.C,TP1*%
X133500000Y-89000000D03*
%TD*%
D24*
%TO.C,C5*%
X117500000Y-93537500D03*
X117500000Y-91462500D03*
%TD*%
D29*
%TO.C,FL1*%
X131170000Y-80065000D03*
X129500000Y-80065000D03*
X129500000Y-80935000D03*
X131170000Y-80935000D03*
%TD*%
D28*
%TO.C,R1*%
X134000000Y-76000000D03*
X134000000Y-74000000D03*
%TD*%
D30*
%TO.C,U1*%
X120750000Y-89200000D03*
X120750000Y-90000000D03*
X120750000Y-90800000D03*
X120750000Y-91600000D03*
X120750000Y-92400000D03*
X120750000Y-93200000D03*
X120750000Y-94000000D03*
X120750000Y-94800000D03*
D31*
X122200000Y-96250000D03*
X123000000Y-96250000D03*
X123800000Y-96250000D03*
X124600000Y-96250000D03*
X125400000Y-96250000D03*
X126200000Y-96250000D03*
X127000000Y-96250000D03*
X127800000Y-96250000D03*
D30*
X129250000Y-94800000D03*
X129250000Y-94000000D03*
X129250000Y-93200000D03*
X129250000Y-92400000D03*
X129250000Y-91600000D03*
X129250000Y-90800000D03*
X129250000Y-90000000D03*
X129250000Y-89200000D03*
D31*
X127800000Y-87750000D03*
X127000000Y-87750000D03*
X126200000Y-87750000D03*
X125400000Y-87750000D03*
X124600000Y-87750000D03*
X123800000Y-87750000D03*
X123000000Y-87750000D03*
X122200000Y-87750000D03*
%TD*%
D32*
%TO.C,U2*%
X129500000Y-76775000D03*
X130450000Y-76775000D03*
X131400000Y-76775000D03*
X131400000Y-74500000D03*
X130450000Y-74500000D03*
X129500000Y-74500000D03*
%TD*%
D13*
%TO.C,C1*%
X139000000Y-73925000D03*
X139000000Y-76000000D03*
%TD*%
D33*
%TO.C,R3*%
X125000000Y-99500000D03*
X125000000Y-101500000D03*
%TD*%
%TO.C,R2*%
X136500000Y-74000000D03*
X136500000Y-76000000D03*
%TD*%
%TO.C,FB1*%
X116000000Y-74000000D03*
X116000000Y-76000000D03*
%TD*%
D21*
%TO.C,TP6*%
X106500000Y-79000000D03*
%TD*%
M02*
