M48
; DRILL file {KiCad (6.0.7-1)-1} date Sunday, 04 December 2022 at 14.42.39
; FORMAT={-:-/ absolute / metric / decimal}
; #@! TF.CreationDate,2022-12-04T14:42:39+01:00
; #@! TF.GenerationSoftware,Kicad,Pcbnew,(6.0.7-1)-1
; #@! TF.FileFunction,Plated,1,2,PTH
FMAT,2
METRIC
; #@! TA.AperFunction,Plated,PTH,ViaDrill
T1C0.400
; #@! TA.AperFunction,Plated,PTH,ComponentDrill
T2C0.970
; #@! TA.AperFunction,Plated,PTH,ComponentDrill
T3C1.000
; #@! TA.AperFunction,Plated,PTH,ComponentDrill
T4C2.350
; #@! TA.AperFunction,Plated,PTH,ComponentDrill
T5C3.200
%
G90
G05
T1
X112.0Y-86.0
X112.0Y-92.0
X113.0Y-72.5
X114.0Y-72.5
X115.0Y-72.5
X116.0Y-72.5
X117.0Y-99.5
X118.0Y-98.0
X121.0Y-98.0
X122.5Y-91.0
X123.0Y-86.0
X123.012Y-102.012
X123.5Y-100.5
X127.0Y-84.5
X128.5Y-107.25
X129.0Y-87.0
X130.75Y-90.8
X133.5Y-99.0
X135.0Y-87.0
X136.0Y-89.5
X141.0Y-105.5
T2
X123.75Y-67.49
X123.75Y-69.49
X126.25Y-67.49
X126.25Y-69.49
T3
X115.157Y-102.92
X115.157Y-105.46
X115.157Y-108.0
X115.157Y-110.54
X115.157Y-113.08
X117.697Y-102.92
X117.697Y-105.46
X117.697Y-108.0
X117.697Y-110.54
X117.697Y-113.08
X132.302Y-102.92
X132.302Y-105.46
X132.302Y-108.0
X132.302Y-110.54
X132.302Y-113.08
X134.843Y-102.92
X134.843Y-105.46
X134.843Y-108.0
X134.843Y-110.54
X134.843Y-113.08
T4
X121.0Y-63.0
X129.0Y-63.0
T5
X146.0Y-64.0
T0
M30
